%TF.GenerationSoftware,KiCad,Pcbnew,8.0.3*%
%TF.CreationDate,2024-07-13T14:49:37+01:00*%
%TF.ProjectId,CursedBoard,43757273-6564-4426-9f61-72642e6b6963,rev?*%
%TF.SameCoordinates,Original*%
%TF.FileFunction,Soldermask,Bot*%
%TF.FilePolarity,Negative*%
%FSLAX46Y46*%
G04 Gerber Fmt 4.6, Leading zero omitted, Abs format (unit mm)*
G04 Created by KiCad (PCBNEW 8.0.3) date 2024-07-13 14:49:37*
%MOMM*%
%LPD*%
G01*
G04 APERTURE LIST*
G04 Aperture macros list*
%AMRoundRect*
0 Rectangle with rounded corners*
0 $1 Rounding radius*
0 $2 $3 $4 $5 $6 $7 $8 $9 X,Y pos of 4 corners*
0 Add a 4 corners polygon primitive as box body*
4,1,4,$2,$3,$4,$5,$6,$7,$8,$9,$2,$3,0*
0 Add four circle primitives for the rounded corners*
1,1,$1+$1,$2,$3*
1,1,$1+$1,$4,$5*
1,1,$1+$1,$6,$7*
1,1,$1+$1,$8,$9*
0 Add four rect primitives between the rounded corners*
20,1,$1+$1,$2,$3,$4,$5,0*
20,1,$1+$1,$4,$5,$6,$7,0*
20,1,$1+$1,$6,$7,$8,$9,0*
20,1,$1+$1,$8,$9,$2,$3,0*%
%AMFreePoly0*
4,1,28,0.605014,0.794986,0.644504,0.794986,0.724698,0.756366,0.780194,0.686777,0.800000,0.600000,0.800000,-0.600000,0.780194,-0.686777,0.724698,-0.756366,0.644504,-0.794986,0.605014,-0.794986,0.600000,-0.800000,0.000000,-0.800000,-0.178017,-0.779942,-0.347107,-0.720775,-0.498792,-0.625465,-0.625465,-0.498792,-0.720775,-0.347107,-0.779942,-0.178017,-0.800000,0.000000,-0.779942,0.178017,
-0.720775,0.347107,-0.625465,0.498792,-0.498792,0.625465,-0.347107,0.720775,-0.178017,0.779942,0.000000,0.800000,0.600000,0.800000,0.605014,0.794986,0.605014,0.794986,$1*%
%AMFreePoly1*
4,1,28,0.178017,0.779942,0.347107,0.720775,0.498792,0.625465,0.625465,0.498792,0.720775,0.347107,0.779942,0.178017,0.800000,0.000000,0.779942,-0.178017,0.720775,-0.347107,0.625465,-0.498792,0.498792,-0.625465,0.347107,-0.720775,0.178017,-0.779942,0.000000,-0.800000,-0.600000,-0.800000,-0.605014,-0.794986,-0.644504,-0.794986,-0.724698,-0.756366,-0.780194,-0.686777,-0.800000,-0.600000,
-0.800000,0.600000,-0.780194,0.686777,-0.724698,0.756366,-0.644504,0.794986,-0.605014,0.794986,-0.600000,0.800000,0.000000,0.800000,0.178017,0.779942,0.178017,0.779942,$1*%
G04 Aperture macros list end*
%ADD10C,1.750000*%
%ADD11C,4.400000*%
%ADD12C,2.500000*%
%ADD13C,2.200000*%
%ADD14C,1.400000*%
%ADD15R,1.800000X1.800000*%
%ADD16C,1.800000*%
%ADD17R,2.000000X2.000000*%
%ADD18C,2.000000*%
%ADD19R,3.000000X2.500000*%
%ADD20C,1.850000*%
%ADD21RoundRect,0.200000X0.600000X-0.600000X0.600000X0.600000X-0.600000X0.600000X-0.600000X-0.600000X0*%
%ADD22C,1.600000*%
%ADD23FreePoly0,90.000000*%
%ADD24FreePoly1,90.000000*%
%ADD25R,1.600000X1.600000*%
%ADD26O,1.600000X1.600000*%
%ADD27C,6.400000*%
G04 APERTURE END LIST*
D10*
%TO.C,SW30*%
X87545000Y-130625000D03*
D11*
X92625000Y-130625000D03*
D10*
X97705000Y-130625000D03*
D12*
X95165000Y-125545000D03*
D13*
X96425000Y-134425000D03*
D12*
X88815000Y-128085000D03*
D13*
X92625000Y-137125000D03*
%TD*%
D11*
%TO.C,H7*%
X254125000Y-102125000D03*
%TD*%
D10*
%TO.C,SW29*%
X68545000Y-130625000D03*
D11*
X73625000Y-130625000D03*
D10*
X78705000Y-130625000D03*
D12*
X76165000Y-125545000D03*
D13*
X77425000Y-134425000D03*
D12*
X69815000Y-128085000D03*
D13*
X73625000Y-137125000D03*
%TD*%
D10*
%TO.C,SW5*%
X106545000Y-92625000D03*
D11*
X111625000Y-92625000D03*
D10*
X116705000Y-92625000D03*
D12*
X114165000Y-87545000D03*
D13*
X115425000Y-96425000D03*
D12*
X107815000Y-90085000D03*
D13*
X111625000Y-99125000D03*
%TD*%
D14*
%TO.C,R1*%
X220345000Y-74930000D03*
X220345000Y-67310000D03*
%TD*%
D10*
%TO.C,SW35*%
X182545000Y-130625000D03*
D11*
X187625000Y-130625000D03*
D10*
X192705000Y-130625000D03*
D12*
X190165000Y-125545000D03*
D13*
X191425000Y-134425000D03*
D12*
X183815000Y-128085000D03*
D13*
X187625000Y-137125000D03*
%TD*%
D10*
%TO.C,SW19*%
X125545000Y-111625000D03*
D11*
X130625000Y-111625000D03*
D10*
X135705000Y-111625000D03*
D12*
X133165000Y-106545000D03*
D13*
X134425000Y-115425000D03*
D12*
X126815000Y-109085000D03*
D13*
X130625000Y-118125000D03*
%TD*%
D15*
%TO.C,D45*%
X246888000Y-69845000D03*
D16*
X246888000Y-72385000D03*
%TD*%
D10*
%TO.C,SW22*%
X182545000Y-111625000D03*
D11*
X187625000Y-111625000D03*
D10*
X192705000Y-111625000D03*
D12*
X190165000Y-106545000D03*
D13*
X191425000Y-115425000D03*
D12*
X183815000Y-109085000D03*
D13*
X187625000Y-118125000D03*
%TD*%
D17*
%TO.C,SW45*%
X254000000Y-68620000D03*
D18*
X254000000Y-73620000D03*
X254000000Y-71120000D03*
D19*
X261500000Y-65520000D03*
X261500000Y-76720000D03*
D18*
X268500000Y-68620000D03*
X268500000Y-73620000D03*
%TD*%
D11*
%TO.C,H13*%
X121125000Y-140125000D03*
%TD*%
D10*
%TO.C,SW18*%
X106545000Y-111625000D03*
D11*
X111625000Y-111625000D03*
D10*
X116705000Y-111625000D03*
D12*
X114165000Y-106545000D03*
D13*
X115425000Y-115425000D03*
D12*
X107815000Y-109085000D03*
D13*
X111625000Y-118125000D03*
%TD*%
D15*
%TO.C,D50*%
X234950000Y-69850000D03*
D16*
X234950000Y-72390000D03*
%TD*%
D13*
%TO.C,A1*%
X28705000Y-73725000D03*
D20*
X31735000Y-73425000D03*
X31735000Y-68575000D03*
D13*
X28705000Y-68275000D03*
D21*
X28575000Y-79890000D03*
D22*
X31115000Y-79890000D03*
D23*
X33655000Y-79890000D03*
D22*
X36195000Y-79890000D03*
X38735000Y-79890000D03*
X41275000Y-79890000D03*
X43815000Y-79890000D03*
D23*
X46355000Y-79890000D03*
D22*
X48895000Y-79890000D03*
X51435000Y-79890000D03*
X53975000Y-79890000D03*
X56515000Y-79890000D03*
D23*
X59055000Y-79890000D03*
D22*
X61595000Y-79890000D03*
X64135000Y-79890000D03*
X66675000Y-79890000D03*
X69215000Y-79890000D03*
D23*
X71755000Y-79890000D03*
D22*
X74295000Y-79890000D03*
X76835000Y-79890000D03*
X76835000Y-62110000D03*
X74295000Y-62110000D03*
D24*
X71755000Y-62110000D03*
D22*
X69215000Y-62110000D03*
X66675000Y-62110000D03*
X64135000Y-62110000D03*
X61595000Y-62110000D03*
D24*
X59055000Y-62110000D03*
D22*
X56515000Y-62110000D03*
X53975000Y-62110000D03*
X51435000Y-62110000D03*
X48895000Y-62110000D03*
D24*
X46355000Y-62110000D03*
D22*
X43815000Y-62110000D03*
X41275000Y-62110000D03*
X38735000Y-62110000D03*
X36195000Y-62110000D03*
D24*
X33655000Y-62110000D03*
D22*
X31115000Y-62110000D03*
X28575000Y-62110000D03*
%TD*%
D10*
%TO.C,SW14*%
X30545000Y-111625000D03*
D11*
X35625000Y-111625000D03*
D10*
X40705000Y-111625000D03*
D12*
X38165000Y-106545000D03*
D13*
X39425000Y-115425000D03*
D12*
X31815000Y-109085000D03*
D13*
X35625000Y-118125000D03*
%TD*%
D10*
%TO.C,SW16*%
X68545000Y-111625000D03*
D11*
X73625000Y-111625000D03*
D10*
X78705000Y-111625000D03*
D12*
X76165000Y-106545000D03*
D13*
X77425000Y-115425000D03*
D12*
X69815000Y-109085000D03*
D13*
X73625000Y-118125000D03*
%TD*%
D25*
%TO.C,D47*%
X212344000Y-67310000D03*
D26*
X212344000Y-74930000D03*
%TD*%
D10*
%TO.C,SW17*%
X87545000Y-111625000D03*
D11*
X92625000Y-111625000D03*
D10*
X97705000Y-111625000D03*
D12*
X95165000Y-106545000D03*
D13*
X96425000Y-115425000D03*
D12*
X88815000Y-109085000D03*
D13*
X92625000Y-118125000D03*
%TD*%
D10*
%TO.C,SW23*%
X206625000Y-116045000D03*
D11*
X206625000Y-121125000D03*
D10*
X206625000Y-126205000D03*
D12*
X211705000Y-123665000D03*
D13*
X202825000Y-124925000D03*
D12*
X209165000Y-117315000D03*
D13*
X200125000Y-121125000D03*
%TD*%
D11*
%TO.C,H11*%
X121125000Y-102125000D03*
%TD*%
D10*
%TO.C,SW1*%
X30545000Y-92625000D03*
D11*
X35625000Y-92625000D03*
D10*
X40705000Y-92625000D03*
D12*
X38165000Y-87545000D03*
D13*
X39425000Y-96425000D03*
D12*
X31815000Y-90085000D03*
D13*
X35625000Y-99125000D03*
%TD*%
D11*
%TO.C,H10*%
X254125000Y-140970000D03*
%TD*%
D10*
%TO.C,SW12*%
X239545000Y-92625000D03*
D11*
X244625000Y-92625000D03*
D10*
X249705000Y-92625000D03*
D12*
X247165000Y-87545000D03*
D13*
X248425000Y-96425000D03*
D12*
X240815000Y-90085000D03*
D13*
X244625000Y-99125000D03*
%TD*%
D27*
%TO.C,H2*%
X149625000Y-154000000D03*
%TD*%
D11*
%TO.C,H14*%
X178125000Y-140125000D03*
%TD*%
D10*
%TO.C,SW6*%
X125545000Y-92625000D03*
D11*
X130625000Y-92625000D03*
D10*
X135705000Y-92625000D03*
D12*
X133165000Y-87545000D03*
D13*
X134425000Y-96425000D03*
D12*
X126815000Y-90085000D03*
D13*
X130625000Y-99125000D03*
%TD*%
D10*
%TO.C,SW33*%
X144545000Y-130625000D03*
D11*
X149625000Y-130625000D03*
D10*
X154705000Y-130625000D03*
D12*
X152165000Y-125545000D03*
D13*
X153425000Y-134425000D03*
D12*
X145815000Y-128085000D03*
D13*
X149625000Y-137125000D03*
%TD*%
D10*
%TO.C,SW15*%
X49545000Y-111625000D03*
D11*
X54625000Y-111625000D03*
D10*
X59705000Y-111625000D03*
D12*
X57165000Y-106545000D03*
D13*
X58425000Y-115425000D03*
D12*
X50815000Y-109085000D03*
D13*
X54625000Y-118125000D03*
%TD*%
D15*
%TO.C,D46*%
X241173000Y-69840000D03*
D16*
X241173000Y-72380000D03*
%TD*%
D10*
%TO.C,SW27*%
X30545000Y-130625000D03*
D11*
X35625000Y-130625000D03*
D10*
X40705000Y-130625000D03*
D12*
X38165000Y-125545000D03*
D13*
X39425000Y-134425000D03*
D12*
X31815000Y-128085000D03*
D13*
X35625000Y-137125000D03*
%TD*%
D25*
%TO.C,D48*%
X208534000Y-67310000D03*
D26*
X208534000Y-74930000D03*
%TD*%
D27*
%TO.C,H1*%
X149625000Y-64000000D03*
%TD*%
D10*
%TO.C,SW42*%
X201545000Y-149625000D03*
D11*
X206625000Y-149625000D03*
D10*
X211705000Y-149625000D03*
D12*
X209165000Y-144545000D03*
D13*
X210425000Y-153425000D03*
D12*
X202815000Y-147085000D03*
D13*
X206625000Y-156125000D03*
%TD*%
D10*
%TO.C,SW24*%
X220545000Y-111625000D03*
D11*
X225625000Y-111625000D03*
D10*
X230705000Y-111625000D03*
D12*
X228165000Y-106545000D03*
D13*
X229425000Y-115425000D03*
D12*
X221815000Y-109085000D03*
D13*
X225625000Y-118125000D03*
%TD*%
D10*
%TO.C,SW7*%
X144545000Y-92625000D03*
D11*
X149625000Y-92625000D03*
D10*
X154705000Y-92625000D03*
D12*
X152165000Y-87545000D03*
D13*
X153425000Y-96425000D03*
D12*
X145815000Y-90085000D03*
D13*
X149625000Y-99125000D03*
%TD*%
D10*
%TO.C,SW40*%
X49545000Y-149625000D03*
D11*
X54625000Y-149625000D03*
D10*
X59705000Y-149625000D03*
D12*
X57165000Y-144545000D03*
D13*
X58425000Y-153425000D03*
D12*
X50815000Y-147085000D03*
D13*
X54625000Y-156125000D03*
%TD*%
D10*
%TO.C,SW43*%
X230045000Y-149625000D03*
D11*
X235125000Y-149625000D03*
D10*
X240205000Y-149625000D03*
D12*
X237665000Y-144545000D03*
D13*
X238925000Y-153425000D03*
D12*
X231315000Y-147085000D03*
D13*
X235125000Y-156125000D03*
%TD*%
D10*
%TO.C,SW39*%
X30545000Y-149625000D03*
D11*
X35625000Y-149625000D03*
D10*
X40705000Y-149625000D03*
D12*
X38165000Y-144545000D03*
D13*
X39425000Y-153425000D03*
D12*
X31815000Y-147085000D03*
D13*
X35625000Y-156125000D03*
%TD*%
D10*
%TO.C,SW13*%
X258545000Y-92625000D03*
D11*
X263625000Y-92625000D03*
D10*
X268705000Y-92625000D03*
D12*
X266165000Y-87545000D03*
D13*
X267425000Y-96425000D03*
D12*
X259815000Y-90085000D03*
D13*
X263625000Y-99125000D03*
%TD*%
D10*
%TO.C,SW8*%
X163545000Y-92625000D03*
D11*
X168625000Y-92625000D03*
D10*
X173705000Y-92625000D03*
D12*
X171165000Y-87545000D03*
D13*
X172425000Y-96425000D03*
D12*
X164815000Y-90085000D03*
D13*
X168625000Y-99125000D03*
%TD*%
D10*
%TO.C,SW32*%
X125545000Y-130625000D03*
D11*
X130625000Y-130625000D03*
D10*
X135705000Y-130625000D03*
D12*
X133165000Y-125545000D03*
D13*
X134425000Y-134425000D03*
D12*
X126815000Y-128085000D03*
D13*
X130625000Y-137125000D03*
%TD*%
D10*
%TO.C,SW25*%
X239545000Y-111625000D03*
D11*
X244625000Y-111625000D03*
D10*
X249705000Y-111625000D03*
D12*
X247165000Y-106545000D03*
D13*
X248425000Y-115425000D03*
D12*
X240815000Y-109085000D03*
D13*
X244625000Y-118125000D03*
%TD*%
D10*
%TO.C,SW37*%
X239545000Y-130625000D03*
D11*
X244625000Y-130625000D03*
D10*
X249705000Y-130625000D03*
D12*
X247165000Y-125545000D03*
D13*
X248425000Y-134425000D03*
D12*
X240815000Y-128085000D03*
D13*
X244625000Y-137125000D03*
%TD*%
D10*
%TO.C,SW21*%
X163545000Y-111625000D03*
D11*
X168625000Y-111625000D03*
D10*
X173705000Y-111625000D03*
D12*
X171165000Y-106545000D03*
D13*
X172425000Y-115425000D03*
D12*
X164815000Y-109085000D03*
D13*
X168625000Y-118125000D03*
%TD*%
D10*
%TO.C,SW10*%
X201545000Y-92625000D03*
D11*
X206625000Y-92625000D03*
D10*
X211705000Y-92625000D03*
D12*
X209165000Y-87545000D03*
D13*
X210425000Y-96425000D03*
D12*
X202815000Y-90085000D03*
D13*
X206625000Y-99125000D03*
%TD*%
D10*
%TO.C,SW11*%
X220545000Y-92625000D03*
D11*
X225625000Y-92625000D03*
D10*
X230705000Y-92625000D03*
D12*
X228165000Y-87545000D03*
D13*
X229425000Y-96425000D03*
D12*
X221815000Y-90085000D03*
D13*
X225625000Y-99125000D03*
%TD*%
D10*
%TO.C,SW20*%
X144545000Y-111625000D03*
D11*
X149625000Y-111625000D03*
D10*
X154705000Y-111625000D03*
D12*
X152165000Y-106545000D03*
D13*
X153425000Y-115425000D03*
D12*
X145815000Y-109085000D03*
D13*
X149625000Y-118125000D03*
%TD*%
D10*
%TO.C,SW34*%
X163545000Y-130625000D03*
D11*
X168625000Y-130625000D03*
D10*
X173705000Y-130625000D03*
D12*
X171165000Y-125545000D03*
D13*
X172425000Y-134425000D03*
D12*
X164815000Y-128085000D03*
D13*
X168625000Y-137125000D03*
%TD*%
D10*
%TO.C,SW3*%
X68545000Y-92625000D03*
D11*
X73625000Y-92625000D03*
D10*
X78705000Y-92625000D03*
D12*
X76165000Y-87545000D03*
D13*
X77425000Y-96425000D03*
D12*
X69815000Y-90085000D03*
D13*
X73625000Y-99125000D03*
%TD*%
D10*
%TO.C,SW36*%
X220545000Y-130625000D03*
D11*
X225625000Y-130625000D03*
D10*
X230705000Y-130625000D03*
D12*
X228165000Y-125545000D03*
D13*
X229425000Y-134425000D03*
D12*
X221815000Y-128085000D03*
D13*
X225625000Y-137125000D03*
%TD*%
D10*
%TO.C,SW4*%
X87545000Y-92625000D03*
D11*
X92625000Y-92625000D03*
D10*
X97705000Y-92625000D03*
D12*
X95165000Y-87545000D03*
D13*
X96425000Y-96425000D03*
D12*
X88815000Y-90085000D03*
D13*
X92625000Y-99125000D03*
%TD*%
D11*
%TO.C,H8*%
X45125000Y-102125000D03*
%TD*%
D10*
%TO.C,SW31*%
X106545000Y-130625000D03*
D11*
X111625000Y-130625000D03*
D10*
X116705000Y-130625000D03*
D12*
X114165000Y-125545000D03*
D13*
X115425000Y-134425000D03*
D12*
X107815000Y-128085000D03*
D13*
X111625000Y-137125000D03*
%TD*%
D25*
%TO.C,D49*%
X216535000Y-67310000D03*
D26*
X216535000Y-74930000D03*
%TD*%
D10*
%TO.C,SW26*%
X258545000Y-111625000D03*
D11*
X263625000Y-111625000D03*
D10*
X268705000Y-111625000D03*
D12*
X266165000Y-106545000D03*
D13*
X267425000Y-115425000D03*
D12*
X259815000Y-109085000D03*
D13*
X263625000Y-118125000D03*
%TD*%
D11*
%TO.C,H12*%
X178125000Y-102125000D03*
%TD*%
D10*
%TO.C,SW41*%
X125545000Y-149625000D03*
D11*
X130625000Y-149625000D03*
D10*
X135705000Y-149625000D03*
D12*
X133165000Y-144545000D03*
D13*
X134425000Y-153425000D03*
D12*
X126815000Y-147085000D03*
D13*
X130625000Y-156125000D03*
%TD*%
D14*
%TO.C,R3*%
X227965000Y-74930000D03*
X227965000Y-67310000D03*
%TD*%
%TO.C,R2*%
X224155000Y-74930000D03*
X224155000Y-67310000D03*
%TD*%
D10*
%TO.C,SW28*%
X49545000Y-130625000D03*
D11*
X54625000Y-130625000D03*
D10*
X59705000Y-130625000D03*
D12*
X57165000Y-125545000D03*
D13*
X58425000Y-134425000D03*
D12*
X50815000Y-128085000D03*
D13*
X54625000Y-137125000D03*
%TD*%
D10*
%TO.C,SW38*%
X258545000Y-130625000D03*
D11*
X263625000Y-130625000D03*
D10*
X268705000Y-130625000D03*
D12*
X266165000Y-125545000D03*
D13*
X267425000Y-134425000D03*
D12*
X259815000Y-128085000D03*
D13*
X263625000Y-137125000D03*
%TD*%
D11*
%TO.C,H9*%
X45125000Y-140125000D03*
%TD*%
D10*
%TO.C,SW2*%
X49545000Y-92625000D03*
D11*
X54625000Y-92625000D03*
D10*
X59705000Y-92625000D03*
D12*
X57165000Y-87545000D03*
D13*
X58425000Y-96425000D03*
D12*
X50815000Y-90085000D03*
D13*
X54625000Y-99125000D03*
%TD*%
D10*
%TO.C,SW9*%
X182545000Y-92625000D03*
D11*
X187625000Y-92625000D03*
D10*
X192705000Y-92625000D03*
D12*
X190165000Y-87545000D03*
D13*
X191425000Y-96425000D03*
D12*
X183815000Y-90085000D03*
D13*
X187625000Y-99125000D03*
%TD*%
D10*
%TO.C,SW44*%
X258545000Y-149625000D03*
D11*
X263625000Y-149625000D03*
D10*
X268705000Y-149625000D03*
D12*
X266165000Y-144545000D03*
D13*
X267425000Y-153425000D03*
D12*
X259815000Y-147085000D03*
D13*
X263625000Y-156125000D03*
%TD*%
D25*
%TO.C,D44*%
X254500000Y-145815000D03*
D26*
X254500000Y-153435000D03*
%TD*%
D25*
%TO.C,D35*%
X193315000Y-140125000D03*
D26*
X200935000Y-140125000D03*
%TD*%
D25*
%TO.C,D4*%
X86440000Y-102125000D03*
D26*
X94060000Y-102125000D03*
%TD*%
D25*
%TO.C,D16*%
X67440000Y-121125000D03*
D26*
X75060000Y-121125000D03*
%TD*%
D25*
%TO.C,D2*%
X50815000Y-102125000D03*
D26*
X58435000Y-102125000D03*
%TD*%
D25*
%TO.C,D18*%
X105440000Y-121125000D03*
D26*
X113060000Y-121125000D03*
%TD*%
D25*
%TO.C,D37*%
X234000000Y-133000000D03*
D26*
X234000000Y-140620000D03*
%TD*%
D25*
%TO.C,D43*%
X140125000Y-145815000D03*
D26*
X140125000Y-153435000D03*
%TD*%
D25*
%TO.C,D31*%
X105440000Y-140125000D03*
D26*
X113060000Y-140125000D03*
%TD*%
D25*
%TO.C,D6*%
X125875000Y-102125000D03*
D26*
X133495000Y-102125000D03*
%TD*%
D25*
%TO.C,D25*%
X238440000Y-121125000D03*
D26*
X246060000Y-121125000D03*
%TD*%
D25*
%TO.C,D20*%
X143440000Y-121125000D03*
D26*
X151060000Y-121125000D03*
%TD*%
D25*
%TO.C,D9*%
X182875000Y-102125000D03*
D26*
X190495000Y-102125000D03*
%TD*%
D25*
%TO.C,D38*%
X258875000Y-140125000D03*
D26*
X266495000Y-140125000D03*
%TD*%
D25*
%TO.C,D1*%
X29440000Y-102125000D03*
D26*
X37060000Y-102125000D03*
%TD*%
D25*
%TO.C,D11*%
X219440000Y-102125000D03*
D26*
X227060000Y-102125000D03*
%TD*%
D25*
%TO.C,D13*%
X258875000Y-102125000D03*
D26*
X266495000Y-102125000D03*
%TD*%
D25*
%TO.C,D36*%
X211690000Y-139000000D03*
D26*
X219310000Y-139000000D03*
%TD*%
D25*
%TO.C,D26*%
X257440000Y-121125000D03*
D26*
X265060000Y-121125000D03*
%TD*%
D25*
%TO.C,D23*%
X197000000Y-124310000D03*
D26*
X197000000Y-116690000D03*
%TD*%
D25*
%TO.C,D8*%
X162440000Y-102125000D03*
D26*
X170060000Y-102125000D03*
%TD*%
D25*
%TO.C,D30*%
X86440000Y-140125000D03*
D26*
X94060000Y-140125000D03*
%TD*%
D25*
%TO.C,D7*%
X143440000Y-102125000D03*
D26*
X151060000Y-102125000D03*
%TD*%
D25*
%TO.C,D42*%
X236500000Y-133000000D03*
D26*
X236500000Y-140620000D03*
%TD*%
D25*
%TO.C,D22*%
X181440000Y-121125000D03*
D26*
X189060000Y-121125000D03*
%TD*%
D25*
%TO.C,D14*%
X29440000Y-121125000D03*
D26*
X37060000Y-121125000D03*
%TD*%
D25*
%TO.C,D33*%
X143440000Y-140125000D03*
D26*
X151060000Y-140125000D03*
%TD*%
D25*
%TO.C,D34*%
X162440000Y-140125000D03*
D26*
X170060000Y-140125000D03*
%TD*%
D25*
%TO.C,D28*%
X49875000Y-140125000D03*
D26*
X57495000Y-140125000D03*
%TD*%
D25*
%TO.C,D41*%
X216125000Y-145815000D03*
D26*
X216125000Y-153435000D03*
%TD*%
D25*
%TO.C,D12*%
X238440000Y-102125000D03*
D26*
X246060000Y-102125000D03*
%TD*%
D25*
%TO.C,D27*%
X29440000Y-140125000D03*
D26*
X37060000Y-140125000D03*
%TD*%
D25*
%TO.C,D5*%
X105440000Y-102125000D03*
D26*
X113060000Y-102125000D03*
%TD*%
D25*
%TO.C,D40*%
X64125000Y-145815000D03*
D26*
X64125000Y-153435000D03*
%TD*%
D25*
%TO.C,D19*%
X124440000Y-121125000D03*
D26*
X132060000Y-121125000D03*
%TD*%
D25*
%TO.C,D17*%
X86440000Y-121125000D03*
D26*
X94060000Y-121125000D03*
%TD*%
D25*
%TO.C,D39*%
X45125000Y-145815000D03*
D26*
X45125000Y-153435000D03*
%TD*%
D25*
%TO.C,D21*%
X162440000Y-121125000D03*
D26*
X170060000Y-121125000D03*
%TD*%
D25*
%TO.C,D10*%
X200440000Y-102125000D03*
D26*
X208060000Y-102125000D03*
%TD*%
D25*
%TO.C,D29*%
X64000000Y-140210000D03*
D26*
X64000000Y-132590000D03*
%TD*%
D25*
%TO.C,D24*%
X219440000Y-121125000D03*
D26*
X227060000Y-121125000D03*
%TD*%
D25*
%TO.C,D15*%
X48440000Y-121125000D03*
D26*
X56060000Y-121125000D03*
%TD*%
D25*
%TO.C,D32*%
X125875000Y-140125000D03*
D26*
X133495000Y-140125000D03*
%TD*%
D25*
%TO.C,D3*%
X67440000Y-102125000D03*
D26*
X75060000Y-102125000D03*
%TD*%
M02*
