M48
; DRILL file {KiCad 8.0.3} date 2024-07-13T14:49:32+0100
; FORMAT={-:-/ absolute / inch / decimal}
; #@! TF.CreationDate,2024-07-13T14:49:32+01:00
; #@! TF.GenerationSoftware,Kicad,Pcbnew,8.0.3
; #@! TF.FileFunction,NonPlated,1,2,NPTH
FMAT,2
INCH
; #@! TA.AperFunction,NonPlated,NPTH,ComponentDrill
T1C0.0689
; #@! TA.AperFunction,NonPlated,NPTH,ComponentDrill
T2C0.0728
; #@! TA.AperFunction,NonPlated,NPTH,ComponentDrill
T3C0.0866
; #@! TA.AperFunction,NonPlated,NPTH,ComponentDrill
T4C0.1732
%
G90
G05
T1
X1.2026Y-3.6467
X1.2026Y-4.3947
X1.2026Y-5.1427
X1.2026Y-5.8907
X1.6026Y-3.6467
X1.6026Y-4.3947
X1.6026Y-5.1427
X1.6026Y-5.8907
X1.9506Y-3.6467
X1.9506Y-4.3947
X1.9506Y-5.1427
X1.9506Y-5.8907
X2.3506Y-3.6467
X2.3506Y-4.3947
X2.3506Y-5.1427
X2.3506Y-5.8907
X2.6986Y-3.6467
X2.6986Y-4.3947
X2.6986Y-5.1427
X3.0986Y-3.6467
X3.0986Y-4.3947
X3.0986Y-5.1427
X3.4467Y-3.6467
X3.4467Y-4.3947
X3.4467Y-5.1427
X3.8467Y-3.6467
X3.8467Y-4.3947
X3.8467Y-5.1427
X4.1947Y-3.6467
X4.1947Y-4.3947
X4.1947Y-5.1427
X4.5947Y-3.6467
X4.5947Y-4.3947
X4.5947Y-5.1427
X4.9427Y-3.6467
X4.9427Y-4.3947
X4.9427Y-5.1427
X4.9427Y-5.8907
X5.3427Y-3.6467
X5.3427Y-4.3947
X5.3427Y-5.1427
X5.3427Y-5.8907
X5.6907Y-3.6467
X5.6907Y-4.3947
X5.6907Y-5.1427
X6.0907Y-3.6467
X6.0907Y-4.3947
X6.0907Y-5.1427
X6.4388Y-3.6467
X6.4388Y-4.3947
X6.4388Y-5.1427
X6.8388Y-3.6467
X6.8388Y-4.3947
X6.8388Y-5.1427
X7.1868Y-3.6467
X7.1868Y-4.3947
X7.1868Y-5.1427
X7.5868Y-3.6467
X7.5868Y-4.3947
X7.5868Y-5.1427
X7.9348Y-3.6467
X7.9348Y-5.8907
X8.1348Y-4.5687
X8.1348Y-4.9687
X8.3348Y-3.6467
X8.3348Y-5.8907
X8.6829Y-3.6467
X8.6829Y-4.3947
X8.6829Y-5.1427
X9.0569Y-5.8907
X9.0829Y-3.6467
X9.0829Y-4.3947
X9.0829Y-5.1427
X9.4309Y-3.6467
X9.4309Y-4.3947
X9.4309Y-5.1427
X9.4569Y-5.8907
X9.8309Y-3.6467
X9.8309Y-4.3947
X9.8309Y-5.1427
X10.1789Y-3.6467
X10.1789Y-4.3947
X10.1789Y-5.1427
X10.1789Y-5.8907
X10.5789Y-3.6467
X10.5789Y-4.3947
X10.5789Y-5.1427
X10.5789Y-5.8907
T2
X1.2494Y-2.6998
X1.2494Y-2.8907
T3
X1.1301Y-2.688
X1.1301Y-2.9026
T4
X1.4026Y-3.6467
X1.4026Y-4.3947
X1.4026Y-5.1427
X1.4026Y-5.8907
X2.1506Y-3.6467
X2.1506Y-4.3947
X2.1506Y-5.1427
X2.1506Y-5.8907
X2.8986Y-3.6467
X2.8986Y-4.3947
X2.8986Y-5.1427
X3.6467Y-3.6467
X3.6467Y-4.3947
X3.6467Y-5.1427
X4.3947Y-3.6467
X4.3947Y-4.3947
X4.3947Y-5.1427
X5.1427Y-3.6467
X5.1427Y-4.3947
X5.1427Y-5.1427
X5.1427Y-5.8907
X5.8907Y-3.6467
X5.8907Y-4.3947
X5.8907Y-5.1427
X6.6388Y-3.6467
X6.6388Y-4.3947
X6.6388Y-5.1427
X7.3868Y-3.6467
X7.3868Y-4.3947
X7.3868Y-5.1427
X8.1348Y-3.6467
X8.1348Y-4.7687
X8.1348Y-5.8907
X8.8829Y-3.6467
X8.8829Y-4.3947
X8.8829Y-5.1427
X9.2569Y-5.8907
X9.6309Y-3.6467
X9.6309Y-4.3947
X9.6309Y-5.1427
X10.3789Y-3.6467
X10.3789Y-4.3947
X10.3789Y-5.1427
X10.3789Y-5.8907
M30
