M48
; DRILL file {KiCad 8.0.3} date 2024-07-13T14:49:32+0100
; FORMAT={-:-/ absolute / inch / decimal}
; #@! TF.CreationDate,2024-07-13T14:49:32+01:00
; #@! TF.GenerationSoftware,Kicad,Pcbnew,8.0.3
; #@! TF.FileFunction,Plated,1,2,PTH
FMAT,2
INCH
; #@! TA.AperFunction,Plated,PTH,ViaDrill
T1C0.0118
; #@! TA.AperFunction,Plated,PTH,ComponentDrill
T2C0.0315
; #@! TA.AperFunction,Plated,PTH,ComponentDrill
T3C0.0354
; #@! TA.AperFunction,Plated,PTH,ComponentDrill
T4C0.0394
; #@! TA.AperFunction,Plated,PTH,ComponentDrill
T5C0.0472
; #@! TA.AperFunction,Plated,PTH,ComponentDrill
T6C0.0591
; #@! TA.AperFunction,Plated,PTH,ComponentDrill
T7C0.0787
; #@! TA.AperFunction,Plated,PTH,ComponentDrill
T8C0.0866
; #@! TA.AperFunction,Plated,PTH,ComponentDrill
T9C0.1260
%
G90
G05
T1
X1.275Y-3.35
X1.325Y-5.675
X1.4Y-3.35
X1.4026Y-2.8051
X1.625Y-5.675
X1.775Y-3.925
X1.975Y-5.625
X2.0571Y-2.8051
X2.4252Y-5.6693
X2.525Y-3.925
X2.5984Y-5.4016
X2.65Y-2.775
X3.175Y-2.925
X3.275Y-3.925
X3.325Y-6.15
X3.575Y-2.55
X3.575Y-2.8
X3.825Y-2.85
X3.856Y-2.699
X4.025Y-3.925
X4.1Y-2.8
X4.3012Y-3.1791
X4.55Y-2.825
X4.625Y-6.15
X5.349Y-2.704
X5.425Y-3.825
X5.6102Y-5.8858
X5.7Y-3.825
X6.0079Y-5.6535
X6.2Y-5.5
X6.4409Y-5.2362
X6.4961Y-5.8071
X6.5197Y-5.4331
X6.6063Y-5.5591
X6.675Y-5.95
X7.5Y-6.15
X7.6693Y-5.5906
X7.7874Y-5.4567
X7.8425Y-5.6457
X7.8543Y-3.1791
X7.975Y-6.15
X8.1102Y-5.748
X8.1969Y-5.5276
X8.2087Y-6.0039
X9.01Y-6.175
X9.17Y-5.34
X9.175Y-5.575
X9.4882Y-5.315
X9.525Y-6.175
X9.6Y-2.8348
T2
X1.1591Y-4.0207
X1.1591Y-4.7687
X1.1591Y-5.5167
X1.4591Y-4.0207
X1.4591Y-4.7687
X1.4591Y-5.5167
X1.7766Y-5.7407
X1.7766Y-6.0407
X1.9071Y-4.7687
X1.9636Y-5.5167
X2.0006Y-4.0207
X2.2071Y-4.7687
X2.2636Y-5.5167
X2.3006Y-4.0207
X2.5197Y-5.2201
X2.5197Y-5.5201
X2.5246Y-5.7407
X2.5246Y-6.0407
X2.6551Y-4.0207
X2.6551Y-4.7687
X2.9551Y-4.0207
X2.9551Y-4.7687
X3.4031Y-4.0207
X3.4031Y-4.7687
X3.4031Y-5.5167
X3.7031Y-4.0207
X3.7031Y-4.7687
X3.7031Y-5.5167
X4.1512Y-4.0207
X4.1512Y-4.7687
X4.1512Y-5.5167
X4.4512Y-4.0207
X4.4512Y-4.7687
X4.4512Y-5.5167
X4.8992Y-4.7687
X4.9557Y-4.0207
X4.9557Y-5.5167
X5.1992Y-4.7687
X5.2557Y-4.0207
X5.2557Y-5.5167
X5.5167Y-5.7407
X5.5167Y-6.0407
X5.6472Y-4.0207
X5.6472Y-4.7687
X5.6472Y-5.5167
X5.9472Y-4.0207
X5.9472Y-4.7687
X5.9472Y-5.5167
X6.3953Y-4.0207
X6.3953Y-4.7687
X6.3953Y-5.5167
X6.6953Y-4.0207
X6.6953Y-4.7687
X6.6953Y-5.5167
X7.1433Y-4.7687
X7.1998Y-4.0207
X7.4433Y-4.7687
X7.4998Y-4.0207
X7.6108Y-5.5167
X7.7559Y-4.5941
X7.7559Y-4.8941
X7.8913Y-4.0207
X7.9108Y-5.5167
X8.1913Y-4.0207
X8.21Y-2.65
X8.21Y-2.95
X8.3343Y-5.4724
X8.36Y-2.65
X8.36Y-2.95
X8.5089Y-5.7407
X8.5089Y-6.0407
X8.525Y-2.65
X8.525Y-2.95
X8.6343Y-5.4724
X8.6394Y-4.0207
X8.6394Y-4.7687
X8.9394Y-4.0207
X8.9394Y-4.7687
X9.2126Y-5.2362
X9.2126Y-5.5362
X9.311Y-5.2362
X9.311Y-5.5362
X9.3874Y-4.0207
X9.3874Y-4.7687
X9.6874Y-4.0207
X9.6874Y-4.7687
X10.0197Y-5.7407
X10.0197Y-6.0407
X10.1354Y-4.7687
X10.1919Y-4.0207
X10.1919Y-5.5167
X10.4354Y-4.7687
X10.4919Y-4.0207
X10.4919Y-5.5167
T3
X8.675Y-2.65
X8.675Y-2.95
X8.825Y-2.65
X8.825Y-2.95
X8.975Y-2.65
X8.975Y-2.95
X9.25Y-2.75
X9.25Y-2.85
X9.495Y-2.7496
X9.495Y-2.8496
X9.72Y-2.7498
X9.72Y-2.8498
T4
X1.125Y-2.4453
X1.125Y-3.1453
X1.225Y-2.4453
X1.225Y-3.1453
X1.325Y-2.4453
X1.325Y-3.1453
X1.425Y-2.4453
X1.425Y-3.1453
X1.525Y-2.4453
X1.525Y-3.1453
X1.625Y-2.4453
X1.625Y-3.1453
X1.725Y-2.4453
X1.725Y-3.1453
X1.825Y-2.4453
X1.825Y-3.1453
X1.925Y-2.4453
X1.925Y-3.1453
X2.025Y-2.4453
X2.025Y-3.1453
X2.125Y-2.4453
X2.125Y-3.1453
X2.225Y-2.4453
X2.225Y-3.1453
X2.325Y-2.4453
X2.325Y-3.1453
X2.425Y-2.4453
X2.425Y-3.1453
X2.525Y-2.4453
X2.525Y-3.1453
X2.625Y-2.4453
X2.625Y-3.1453
X2.725Y-2.4453
X2.725Y-3.1453
X2.825Y-2.4453
X2.825Y-3.1453
X2.925Y-2.4453
X2.925Y-3.1453
X3.025Y-2.4453
X3.025Y-3.1453
X10.0Y-2.7016
X10.0Y-2.8
X10.0Y-2.8984
X10.5709Y-2.7016
X10.5709Y-2.8984
T5
X1.4026Y-3.9026
X1.4026Y-4.6506
X1.4026Y-5.3986
X1.4026Y-6.1467
X1.5522Y-3.7963
X1.5522Y-4.5443
X1.5522Y-5.2923
X1.5522Y-6.0404
X2.1506Y-3.9026
X2.1506Y-4.6506
X2.1506Y-5.3986
X2.1506Y-6.1467
X2.3002Y-3.7963
X2.3002Y-4.5443
X2.3002Y-5.2923
X2.3002Y-6.0404
X2.8986Y-3.9026
X2.8986Y-4.6506
X2.8986Y-5.3986
X3.0482Y-3.7963
X3.0482Y-4.5443
X3.0482Y-5.2923
X3.6467Y-3.9026
X3.6467Y-4.6506
X3.6467Y-5.3986
X3.7963Y-3.7963
X3.7963Y-4.5443
X3.7963Y-5.2923
X4.3947Y-3.9026
X4.3947Y-4.6506
X4.3947Y-5.3986
X4.5443Y-3.7963
X4.5443Y-4.5443
X4.5443Y-5.2923
X5.1427Y-3.9026
X5.1427Y-4.6506
X5.1427Y-5.3986
X5.1427Y-6.1467
X5.2923Y-3.7963
X5.2923Y-4.5443
X5.2923Y-5.2923
X5.2923Y-6.0404
X5.8907Y-3.9026
X5.8907Y-4.6506
X5.8907Y-5.3986
X6.0404Y-3.7963
X6.0404Y-4.5443
X6.0404Y-5.2923
X6.6388Y-3.9026
X6.6388Y-4.6506
X6.6388Y-5.3986
X6.7884Y-3.7963
X6.7884Y-4.5443
X6.7884Y-5.2923
X7.3868Y-3.9026
X7.3868Y-4.6506
X7.3868Y-5.3986
X7.5364Y-3.7963
X7.5364Y-4.5443
X7.5364Y-5.2923
X7.8789Y-4.7687
X7.9852Y-4.9183
X8.1348Y-3.9026
X8.1348Y-6.1467
X8.2844Y-3.7963
X8.2844Y-6.0404
X8.8829Y-3.9026
X8.8829Y-4.6506
X8.8829Y-5.3986
X9.0325Y-3.7963
X9.0325Y-4.5443
X9.0325Y-5.2923
X9.2569Y-6.1467
X9.4065Y-6.0404
X9.6309Y-3.9026
X9.6309Y-4.6506
X9.6309Y-5.3986
X9.7805Y-3.7963
X9.7805Y-4.5443
X9.7805Y-5.2923
X10.3789Y-3.9026
X10.3789Y-4.6506
X10.3789Y-5.3986
X10.3789Y-6.1467
X10.5285Y-3.7963
X10.5285Y-4.5443
X10.5285Y-5.2923
X10.5285Y-6.0404
T6
X1.2526Y-3.5467
X1.2526Y-4.2947
X1.2526Y-5.0427
X1.2526Y-5.7907
X1.5026Y-3.4467
X1.5026Y-4.1947
X1.5026Y-4.9427
X1.5026Y-5.6907
X2.0006Y-3.5467
X2.0006Y-4.2947
X2.0006Y-5.0427
X2.0006Y-5.7907
X2.2506Y-3.4467
X2.2506Y-4.1947
X2.2506Y-4.9427
X2.2506Y-5.6907
X2.7486Y-3.5467
X2.7486Y-4.2947
X2.7486Y-5.0427
X2.9986Y-3.4467
X2.9986Y-4.1947
X2.9986Y-4.9427
X3.4967Y-3.5467
X3.4967Y-4.2947
X3.4967Y-5.0427
X3.7467Y-3.4467
X3.7467Y-4.1947
X3.7467Y-4.9427
X4.2447Y-3.5467
X4.2447Y-4.2947
X4.2447Y-5.0427
X4.4947Y-3.4467
X4.4947Y-4.1947
X4.4947Y-4.9427
X4.9927Y-3.5467
X4.9927Y-4.2947
X4.9927Y-5.0427
X4.9927Y-5.7907
X5.2427Y-3.4467
X5.2427Y-4.1947
X5.2427Y-4.9427
X5.2427Y-5.6907
X5.7407Y-3.5467
X5.7407Y-4.2947
X5.7407Y-5.0427
X5.9907Y-3.4467
X5.9907Y-4.1947
X5.9907Y-4.9427
X6.4888Y-3.5467
X6.4888Y-4.2947
X6.4888Y-5.0427
X6.7388Y-3.4467
X6.7388Y-4.1947
X6.7388Y-4.9427
X7.2368Y-3.5467
X7.2368Y-4.2947
X7.2368Y-5.0427
X7.4868Y-3.4467
X7.4868Y-4.1947
X7.4868Y-4.9427
X7.9848Y-3.5467
X7.9848Y-5.7907
X8.2348Y-3.4467
X8.2348Y-4.6187
X8.2348Y-5.6907
X8.3348Y-4.8687
X8.7329Y-3.5467
X8.7329Y-4.2947
X8.7329Y-5.0427
X8.9829Y-3.4467
X8.9829Y-4.1947
X8.9829Y-4.9427
X9.1069Y-5.7907
X9.3569Y-5.6907
X9.4809Y-3.5467
X9.4809Y-4.2947
X9.4809Y-5.0427
X9.7309Y-3.4467
X9.7309Y-4.1947
X9.7309Y-4.9427
X10.2289Y-3.5467
X10.2289Y-4.2947
X10.2289Y-5.0427
X10.2289Y-5.7907
X10.4789Y-3.4467
X10.4789Y-4.1947
X10.4789Y-4.9427
X10.4789Y-5.6907
T8
X1.7766Y-4.0207
X1.7766Y-5.5167
X4.7687Y-4.0207
X4.7687Y-5.5167
X7.0128Y-4.0207
X7.0128Y-5.5167
X10.0049Y-4.0207
X10.0049Y-5.55
T9
X5.8907Y-2.5197
X5.8907Y-6.063
T7
G00X10.2854Y-2.5795
M15
G01X10.3051Y-2.5795
M16
G05
G00X10.2854Y-3.0205
M15
G01X10.3051Y-3.0205
M16
G05
M30
