%TF.GenerationSoftware,KiCad,Pcbnew,8.0.3*%
%TF.CreationDate,2024-07-13T14:49:37+01:00*%
%TF.ProjectId,CursedBoard,43757273-6564-4426-9f61-72642e6b6963,rev?*%
%TF.SameCoordinates,Original*%
%TF.FileFunction,Legend,Bot*%
%TF.FilePolarity,Positive*%
%FSLAX46Y46*%
G04 Gerber Fmt 4.6, Leading zero omitted, Abs format (unit mm)*
G04 Created by KiCad (PCBNEW 8.0.3) date 2024-07-13 14:49:37*
%MOMM*%
%LPD*%
G01*
G04 APERTURE LIST*
%ADD10C,0.150000*%
%ADD11C,0.120000*%
G04 APERTURE END LIST*
D10*
X94072619Y-134949200D02*
X93958333Y-134987295D01*
X93958333Y-134987295D02*
X93767857Y-134987295D01*
X93767857Y-134987295D02*
X93691666Y-134949200D01*
X93691666Y-134949200D02*
X93653571Y-134911104D01*
X93653571Y-134911104D02*
X93615476Y-134834914D01*
X93615476Y-134834914D02*
X93615476Y-134758723D01*
X93615476Y-134758723D02*
X93653571Y-134682533D01*
X93653571Y-134682533D02*
X93691666Y-134644438D01*
X93691666Y-134644438D02*
X93767857Y-134606342D01*
X93767857Y-134606342D02*
X93920238Y-134568247D01*
X93920238Y-134568247D02*
X93996428Y-134530152D01*
X93996428Y-134530152D02*
X94034523Y-134492057D01*
X94034523Y-134492057D02*
X94072619Y-134415866D01*
X94072619Y-134415866D02*
X94072619Y-134339676D01*
X94072619Y-134339676D02*
X94034523Y-134263485D01*
X94034523Y-134263485D02*
X93996428Y-134225390D01*
X93996428Y-134225390D02*
X93920238Y-134187295D01*
X93920238Y-134187295D02*
X93729761Y-134187295D01*
X93729761Y-134187295D02*
X93615476Y-134225390D01*
X93348809Y-134187295D02*
X93158333Y-134987295D01*
X93158333Y-134987295D02*
X93005952Y-134415866D01*
X93005952Y-134415866D02*
X92853571Y-134987295D01*
X92853571Y-134987295D02*
X92663095Y-134187295D01*
X92434523Y-134187295D02*
X91939285Y-134187295D01*
X91939285Y-134187295D02*
X92205951Y-134492057D01*
X92205951Y-134492057D02*
X92091666Y-134492057D01*
X92091666Y-134492057D02*
X92015475Y-134530152D01*
X92015475Y-134530152D02*
X91977380Y-134568247D01*
X91977380Y-134568247D02*
X91939285Y-134644438D01*
X91939285Y-134644438D02*
X91939285Y-134834914D01*
X91939285Y-134834914D02*
X91977380Y-134911104D01*
X91977380Y-134911104D02*
X92015475Y-134949200D01*
X92015475Y-134949200D02*
X92091666Y-134987295D01*
X92091666Y-134987295D02*
X92320237Y-134987295D01*
X92320237Y-134987295D02*
X92396428Y-134949200D01*
X92396428Y-134949200D02*
X92434523Y-134911104D01*
X91444046Y-134187295D02*
X91367856Y-134187295D01*
X91367856Y-134187295D02*
X91291665Y-134225390D01*
X91291665Y-134225390D02*
X91253570Y-134263485D01*
X91253570Y-134263485D02*
X91215475Y-134339676D01*
X91215475Y-134339676D02*
X91177380Y-134492057D01*
X91177380Y-134492057D02*
X91177380Y-134682533D01*
X91177380Y-134682533D02*
X91215475Y-134834914D01*
X91215475Y-134834914D02*
X91253570Y-134911104D01*
X91253570Y-134911104D02*
X91291665Y-134949200D01*
X91291665Y-134949200D02*
X91367856Y-134987295D01*
X91367856Y-134987295D02*
X91444046Y-134987295D01*
X91444046Y-134987295D02*
X91520237Y-134949200D01*
X91520237Y-134949200D02*
X91558332Y-134911104D01*
X91558332Y-134911104D02*
X91596427Y-134834914D01*
X91596427Y-134834914D02*
X91634523Y-134682533D01*
X91634523Y-134682533D02*
X91634523Y-134492057D01*
X91634523Y-134492057D02*
X91596427Y-134339676D01*
X91596427Y-134339676D02*
X91558332Y-134263485D01*
X91558332Y-134263485D02*
X91520237Y-134225390D01*
X91520237Y-134225390D02*
X91444046Y-134187295D01*
X75072619Y-134949200D02*
X74958333Y-134987295D01*
X74958333Y-134987295D02*
X74767857Y-134987295D01*
X74767857Y-134987295D02*
X74691666Y-134949200D01*
X74691666Y-134949200D02*
X74653571Y-134911104D01*
X74653571Y-134911104D02*
X74615476Y-134834914D01*
X74615476Y-134834914D02*
X74615476Y-134758723D01*
X74615476Y-134758723D02*
X74653571Y-134682533D01*
X74653571Y-134682533D02*
X74691666Y-134644438D01*
X74691666Y-134644438D02*
X74767857Y-134606342D01*
X74767857Y-134606342D02*
X74920238Y-134568247D01*
X74920238Y-134568247D02*
X74996428Y-134530152D01*
X74996428Y-134530152D02*
X75034523Y-134492057D01*
X75034523Y-134492057D02*
X75072619Y-134415866D01*
X75072619Y-134415866D02*
X75072619Y-134339676D01*
X75072619Y-134339676D02*
X75034523Y-134263485D01*
X75034523Y-134263485D02*
X74996428Y-134225390D01*
X74996428Y-134225390D02*
X74920238Y-134187295D01*
X74920238Y-134187295D02*
X74729761Y-134187295D01*
X74729761Y-134187295D02*
X74615476Y-134225390D01*
X74348809Y-134187295D02*
X74158333Y-134987295D01*
X74158333Y-134987295D02*
X74005952Y-134415866D01*
X74005952Y-134415866D02*
X73853571Y-134987295D01*
X73853571Y-134987295D02*
X73663095Y-134187295D01*
X73396428Y-134263485D02*
X73358332Y-134225390D01*
X73358332Y-134225390D02*
X73282142Y-134187295D01*
X73282142Y-134187295D02*
X73091666Y-134187295D01*
X73091666Y-134187295D02*
X73015475Y-134225390D01*
X73015475Y-134225390D02*
X72977380Y-134263485D01*
X72977380Y-134263485D02*
X72939285Y-134339676D01*
X72939285Y-134339676D02*
X72939285Y-134415866D01*
X72939285Y-134415866D02*
X72977380Y-134530152D01*
X72977380Y-134530152D02*
X73434523Y-134987295D01*
X73434523Y-134987295D02*
X72939285Y-134987295D01*
X72558332Y-134987295D02*
X72405951Y-134987295D01*
X72405951Y-134987295D02*
X72329761Y-134949200D01*
X72329761Y-134949200D02*
X72291665Y-134911104D01*
X72291665Y-134911104D02*
X72215475Y-134796819D01*
X72215475Y-134796819D02*
X72177380Y-134644438D01*
X72177380Y-134644438D02*
X72177380Y-134339676D01*
X72177380Y-134339676D02*
X72215475Y-134263485D01*
X72215475Y-134263485D02*
X72253570Y-134225390D01*
X72253570Y-134225390D02*
X72329761Y-134187295D01*
X72329761Y-134187295D02*
X72482142Y-134187295D01*
X72482142Y-134187295D02*
X72558332Y-134225390D01*
X72558332Y-134225390D02*
X72596427Y-134263485D01*
X72596427Y-134263485D02*
X72634523Y-134339676D01*
X72634523Y-134339676D02*
X72634523Y-134530152D01*
X72634523Y-134530152D02*
X72596427Y-134606342D01*
X72596427Y-134606342D02*
X72558332Y-134644438D01*
X72558332Y-134644438D02*
X72482142Y-134682533D01*
X72482142Y-134682533D02*
X72329761Y-134682533D01*
X72329761Y-134682533D02*
X72253570Y-134644438D01*
X72253570Y-134644438D02*
X72215475Y-134606342D01*
X72215475Y-134606342D02*
X72177380Y-134530152D01*
X112691667Y-96949200D02*
X112577381Y-96987295D01*
X112577381Y-96987295D02*
X112386905Y-96987295D01*
X112386905Y-96987295D02*
X112310714Y-96949200D01*
X112310714Y-96949200D02*
X112272619Y-96911104D01*
X112272619Y-96911104D02*
X112234524Y-96834914D01*
X112234524Y-96834914D02*
X112234524Y-96758723D01*
X112234524Y-96758723D02*
X112272619Y-96682533D01*
X112272619Y-96682533D02*
X112310714Y-96644438D01*
X112310714Y-96644438D02*
X112386905Y-96606342D01*
X112386905Y-96606342D02*
X112539286Y-96568247D01*
X112539286Y-96568247D02*
X112615476Y-96530152D01*
X112615476Y-96530152D02*
X112653571Y-96492057D01*
X112653571Y-96492057D02*
X112691667Y-96415866D01*
X112691667Y-96415866D02*
X112691667Y-96339676D01*
X112691667Y-96339676D02*
X112653571Y-96263485D01*
X112653571Y-96263485D02*
X112615476Y-96225390D01*
X112615476Y-96225390D02*
X112539286Y-96187295D01*
X112539286Y-96187295D02*
X112348809Y-96187295D01*
X112348809Y-96187295D02*
X112234524Y-96225390D01*
X111967857Y-96187295D02*
X111777381Y-96987295D01*
X111777381Y-96987295D02*
X111625000Y-96415866D01*
X111625000Y-96415866D02*
X111472619Y-96987295D01*
X111472619Y-96987295D02*
X111282143Y-96187295D01*
X110596428Y-96187295D02*
X110977380Y-96187295D01*
X110977380Y-96187295D02*
X111015476Y-96568247D01*
X111015476Y-96568247D02*
X110977380Y-96530152D01*
X110977380Y-96530152D02*
X110901190Y-96492057D01*
X110901190Y-96492057D02*
X110710714Y-96492057D01*
X110710714Y-96492057D02*
X110634523Y-96530152D01*
X110634523Y-96530152D02*
X110596428Y-96568247D01*
X110596428Y-96568247D02*
X110558333Y-96644438D01*
X110558333Y-96644438D02*
X110558333Y-96834914D01*
X110558333Y-96834914D02*
X110596428Y-96911104D01*
X110596428Y-96911104D02*
X110634523Y-96949200D01*
X110634523Y-96949200D02*
X110710714Y-96987295D01*
X110710714Y-96987295D02*
X110901190Y-96987295D01*
X110901190Y-96987295D02*
X110977380Y-96949200D01*
X110977380Y-96949200D02*
X111015476Y-96911104D01*
X189072619Y-134949200D02*
X188958333Y-134987295D01*
X188958333Y-134987295D02*
X188767857Y-134987295D01*
X188767857Y-134987295D02*
X188691666Y-134949200D01*
X188691666Y-134949200D02*
X188653571Y-134911104D01*
X188653571Y-134911104D02*
X188615476Y-134834914D01*
X188615476Y-134834914D02*
X188615476Y-134758723D01*
X188615476Y-134758723D02*
X188653571Y-134682533D01*
X188653571Y-134682533D02*
X188691666Y-134644438D01*
X188691666Y-134644438D02*
X188767857Y-134606342D01*
X188767857Y-134606342D02*
X188920238Y-134568247D01*
X188920238Y-134568247D02*
X188996428Y-134530152D01*
X188996428Y-134530152D02*
X189034523Y-134492057D01*
X189034523Y-134492057D02*
X189072619Y-134415866D01*
X189072619Y-134415866D02*
X189072619Y-134339676D01*
X189072619Y-134339676D02*
X189034523Y-134263485D01*
X189034523Y-134263485D02*
X188996428Y-134225390D01*
X188996428Y-134225390D02*
X188920238Y-134187295D01*
X188920238Y-134187295D02*
X188729761Y-134187295D01*
X188729761Y-134187295D02*
X188615476Y-134225390D01*
X188348809Y-134187295D02*
X188158333Y-134987295D01*
X188158333Y-134987295D02*
X188005952Y-134415866D01*
X188005952Y-134415866D02*
X187853571Y-134987295D01*
X187853571Y-134987295D02*
X187663095Y-134187295D01*
X187434523Y-134187295D02*
X186939285Y-134187295D01*
X186939285Y-134187295D02*
X187205951Y-134492057D01*
X187205951Y-134492057D02*
X187091666Y-134492057D01*
X187091666Y-134492057D02*
X187015475Y-134530152D01*
X187015475Y-134530152D02*
X186977380Y-134568247D01*
X186977380Y-134568247D02*
X186939285Y-134644438D01*
X186939285Y-134644438D02*
X186939285Y-134834914D01*
X186939285Y-134834914D02*
X186977380Y-134911104D01*
X186977380Y-134911104D02*
X187015475Y-134949200D01*
X187015475Y-134949200D02*
X187091666Y-134987295D01*
X187091666Y-134987295D02*
X187320237Y-134987295D01*
X187320237Y-134987295D02*
X187396428Y-134949200D01*
X187396428Y-134949200D02*
X187434523Y-134911104D01*
X186215475Y-134187295D02*
X186596427Y-134187295D01*
X186596427Y-134187295D02*
X186634523Y-134568247D01*
X186634523Y-134568247D02*
X186596427Y-134530152D01*
X186596427Y-134530152D02*
X186520237Y-134492057D01*
X186520237Y-134492057D02*
X186329761Y-134492057D01*
X186329761Y-134492057D02*
X186253570Y-134530152D01*
X186253570Y-134530152D02*
X186215475Y-134568247D01*
X186215475Y-134568247D02*
X186177380Y-134644438D01*
X186177380Y-134644438D02*
X186177380Y-134834914D01*
X186177380Y-134834914D02*
X186215475Y-134911104D01*
X186215475Y-134911104D02*
X186253570Y-134949200D01*
X186253570Y-134949200D02*
X186329761Y-134987295D01*
X186329761Y-134987295D02*
X186520237Y-134987295D01*
X186520237Y-134987295D02*
X186596427Y-134949200D01*
X186596427Y-134949200D02*
X186634523Y-134911104D01*
X132072619Y-115949200D02*
X131958333Y-115987295D01*
X131958333Y-115987295D02*
X131767857Y-115987295D01*
X131767857Y-115987295D02*
X131691666Y-115949200D01*
X131691666Y-115949200D02*
X131653571Y-115911104D01*
X131653571Y-115911104D02*
X131615476Y-115834914D01*
X131615476Y-115834914D02*
X131615476Y-115758723D01*
X131615476Y-115758723D02*
X131653571Y-115682533D01*
X131653571Y-115682533D02*
X131691666Y-115644438D01*
X131691666Y-115644438D02*
X131767857Y-115606342D01*
X131767857Y-115606342D02*
X131920238Y-115568247D01*
X131920238Y-115568247D02*
X131996428Y-115530152D01*
X131996428Y-115530152D02*
X132034523Y-115492057D01*
X132034523Y-115492057D02*
X132072619Y-115415866D01*
X132072619Y-115415866D02*
X132072619Y-115339676D01*
X132072619Y-115339676D02*
X132034523Y-115263485D01*
X132034523Y-115263485D02*
X131996428Y-115225390D01*
X131996428Y-115225390D02*
X131920238Y-115187295D01*
X131920238Y-115187295D02*
X131729761Y-115187295D01*
X131729761Y-115187295D02*
X131615476Y-115225390D01*
X131348809Y-115187295D02*
X131158333Y-115987295D01*
X131158333Y-115987295D02*
X131005952Y-115415866D01*
X131005952Y-115415866D02*
X130853571Y-115987295D01*
X130853571Y-115987295D02*
X130663095Y-115187295D01*
X129939285Y-115987295D02*
X130396428Y-115987295D01*
X130167856Y-115987295D02*
X130167856Y-115187295D01*
X130167856Y-115187295D02*
X130244047Y-115301580D01*
X130244047Y-115301580D02*
X130320237Y-115377771D01*
X130320237Y-115377771D02*
X130396428Y-115415866D01*
X129558332Y-115987295D02*
X129405951Y-115987295D01*
X129405951Y-115987295D02*
X129329761Y-115949200D01*
X129329761Y-115949200D02*
X129291665Y-115911104D01*
X129291665Y-115911104D02*
X129215475Y-115796819D01*
X129215475Y-115796819D02*
X129177380Y-115644438D01*
X129177380Y-115644438D02*
X129177380Y-115339676D01*
X129177380Y-115339676D02*
X129215475Y-115263485D01*
X129215475Y-115263485D02*
X129253570Y-115225390D01*
X129253570Y-115225390D02*
X129329761Y-115187295D01*
X129329761Y-115187295D02*
X129482142Y-115187295D01*
X129482142Y-115187295D02*
X129558332Y-115225390D01*
X129558332Y-115225390D02*
X129596427Y-115263485D01*
X129596427Y-115263485D02*
X129634523Y-115339676D01*
X129634523Y-115339676D02*
X129634523Y-115530152D01*
X129634523Y-115530152D02*
X129596427Y-115606342D01*
X129596427Y-115606342D02*
X129558332Y-115644438D01*
X129558332Y-115644438D02*
X129482142Y-115682533D01*
X129482142Y-115682533D02*
X129329761Y-115682533D01*
X129329761Y-115682533D02*
X129253570Y-115644438D01*
X129253570Y-115644438D02*
X129215475Y-115606342D01*
X129215475Y-115606342D02*
X129177380Y-115530152D01*
X189072619Y-115949200D02*
X188958333Y-115987295D01*
X188958333Y-115987295D02*
X188767857Y-115987295D01*
X188767857Y-115987295D02*
X188691666Y-115949200D01*
X188691666Y-115949200D02*
X188653571Y-115911104D01*
X188653571Y-115911104D02*
X188615476Y-115834914D01*
X188615476Y-115834914D02*
X188615476Y-115758723D01*
X188615476Y-115758723D02*
X188653571Y-115682533D01*
X188653571Y-115682533D02*
X188691666Y-115644438D01*
X188691666Y-115644438D02*
X188767857Y-115606342D01*
X188767857Y-115606342D02*
X188920238Y-115568247D01*
X188920238Y-115568247D02*
X188996428Y-115530152D01*
X188996428Y-115530152D02*
X189034523Y-115492057D01*
X189034523Y-115492057D02*
X189072619Y-115415866D01*
X189072619Y-115415866D02*
X189072619Y-115339676D01*
X189072619Y-115339676D02*
X189034523Y-115263485D01*
X189034523Y-115263485D02*
X188996428Y-115225390D01*
X188996428Y-115225390D02*
X188920238Y-115187295D01*
X188920238Y-115187295D02*
X188729761Y-115187295D01*
X188729761Y-115187295D02*
X188615476Y-115225390D01*
X188348809Y-115187295D02*
X188158333Y-115987295D01*
X188158333Y-115987295D02*
X188005952Y-115415866D01*
X188005952Y-115415866D02*
X187853571Y-115987295D01*
X187853571Y-115987295D02*
X187663095Y-115187295D01*
X187396428Y-115263485D02*
X187358332Y-115225390D01*
X187358332Y-115225390D02*
X187282142Y-115187295D01*
X187282142Y-115187295D02*
X187091666Y-115187295D01*
X187091666Y-115187295D02*
X187015475Y-115225390D01*
X187015475Y-115225390D02*
X186977380Y-115263485D01*
X186977380Y-115263485D02*
X186939285Y-115339676D01*
X186939285Y-115339676D02*
X186939285Y-115415866D01*
X186939285Y-115415866D02*
X186977380Y-115530152D01*
X186977380Y-115530152D02*
X187434523Y-115987295D01*
X187434523Y-115987295D02*
X186939285Y-115987295D01*
X186634523Y-115263485D02*
X186596427Y-115225390D01*
X186596427Y-115225390D02*
X186520237Y-115187295D01*
X186520237Y-115187295D02*
X186329761Y-115187295D01*
X186329761Y-115187295D02*
X186253570Y-115225390D01*
X186253570Y-115225390D02*
X186215475Y-115263485D01*
X186215475Y-115263485D02*
X186177380Y-115339676D01*
X186177380Y-115339676D02*
X186177380Y-115415866D01*
X186177380Y-115415866D02*
X186215475Y-115530152D01*
X186215475Y-115530152D02*
X186672618Y-115987295D01*
X186672618Y-115987295D02*
X186177380Y-115987295D01*
X113072619Y-115949200D02*
X112958333Y-115987295D01*
X112958333Y-115987295D02*
X112767857Y-115987295D01*
X112767857Y-115987295D02*
X112691666Y-115949200D01*
X112691666Y-115949200D02*
X112653571Y-115911104D01*
X112653571Y-115911104D02*
X112615476Y-115834914D01*
X112615476Y-115834914D02*
X112615476Y-115758723D01*
X112615476Y-115758723D02*
X112653571Y-115682533D01*
X112653571Y-115682533D02*
X112691666Y-115644438D01*
X112691666Y-115644438D02*
X112767857Y-115606342D01*
X112767857Y-115606342D02*
X112920238Y-115568247D01*
X112920238Y-115568247D02*
X112996428Y-115530152D01*
X112996428Y-115530152D02*
X113034523Y-115492057D01*
X113034523Y-115492057D02*
X113072619Y-115415866D01*
X113072619Y-115415866D02*
X113072619Y-115339676D01*
X113072619Y-115339676D02*
X113034523Y-115263485D01*
X113034523Y-115263485D02*
X112996428Y-115225390D01*
X112996428Y-115225390D02*
X112920238Y-115187295D01*
X112920238Y-115187295D02*
X112729761Y-115187295D01*
X112729761Y-115187295D02*
X112615476Y-115225390D01*
X112348809Y-115187295D02*
X112158333Y-115987295D01*
X112158333Y-115987295D02*
X112005952Y-115415866D01*
X112005952Y-115415866D02*
X111853571Y-115987295D01*
X111853571Y-115987295D02*
X111663095Y-115187295D01*
X110939285Y-115987295D02*
X111396428Y-115987295D01*
X111167856Y-115987295D02*
X111167856Y-115187295D01*
X111167856Y-115187295D02*
X111244047Y-115301580D01*
X111244047Y-115301580D02*
X111320237Y-115377771D01*
X111320237Y-115377771D02*
X111396428Y-115415866D01*
X110482142Y-115530152D02*
X110558332Y-115492057D01*
X110558332Y-115492057D02*
X110596427Y-115453961D01*
X110596427Y-115453961D02*
X110634523Y-115377771D01*
X110634523Y-115377771D02*
X110634523Y-115339676D01*
X110634523Y-115339676D02*
X110596427Y-115263485D01*
X110596427Y-115263485D02*
X110558332Y-115225390D01*
X110558332Y-115225390D02*
X110482142Y-115187295D01*
X110482142Y-115187295D02*
X110329761Y-115187295D01*
X110329761Y-115187295D02*
X110253570Y-115225390D01*
X110253570Y-115225390D02*
X110215475Y-115263485D01*
X110215475Y-115263485D02*
X110177380Y-115339676D01*
X110177380Y-115339676D02*
X110177380Y-115377771D01*
X110177380Y-115377771D02*
X110215475Y-115453961D01*
X110215475Y-115453961D02*
X110253570Y-115492057D01*
X110253570Y-115492057D02*
X110329761Y-115530152D01*
X110329761Y-115530152D02*
X110482142Y-115530152D01*
X110482142Y-115530152D02*
X110558332Y-115568247D01*
X110558332Y-115568247D02*
X110596427Y-115606342D01*
X110596427Y-115606342D02*
X110634523Y-115682533D01*
X110634523Y-115682533D02*
X110634523Y-115834914D01*
X110634523Y-115834914D02*
X110596427Y-115911104D01*
X110596427Y-115911104D02*
X110558332Y-115949200D01*
X110558332Y-115949200D02*
X110482142Y-115987295D01*
X110482142Y-115987295D02*
X110329761Y-115987295D01*
X110329761Y-115987295D02*
X110253570Y-115949200D01*
X110253570Y-115949200D02*
X110215475Y-115911104D01*
X110215475Y-115911104D02*
X110177380Y-115834914D01*
X110177380Y-115834914D02*
X110177380Y-115682533D01*
X110177380Y-115682533D02*
X110215475Y-115606342D01*
X110215475Y-115606342D02*
X110253570Y-115568247D01*
X110253570Y-115568247D02*
X110329761Y-115530152D01*
X37072619Y-115949200D02*
X36958333Y-115987295D01*
X36958333Y-115987295D02*
X36767857Y-115987295D01*
X36767857Y-115987295D02*
X36691666Y-115949200D01*
X36691666Y-115949200D02*
X36653571Y-115911104D01*
X36653571Y-115911104D02*
X36615476Y-115834914D01*
X36615476Y-115834914D02*
X36615476Y-115758723D01*
X36615476Y-115758723D02*
X36653571Y-115682533D01*
X36653571Y-115682533D02*
X36691666Y-115644438D01*
X36691666Y-115644438D02*
X36767857Y-115606342D01*
X36767857Y-115606342D02*
X36920238Y-115568247D01*
X36920238Y-115568247D02*
X36996428Y-115530152D01*
X36996428Y-115530152D02*
X37034523Y-115492057D01*
X37034523Y-115492057D02*
X37072619Y-115415866D01*
X37072619Y-115415866D02*
X37072619Y-115339676D01*
X37072619Y-115339676D02*
X37034523Y-115263485D01*
X37034523Y-115263485D02*
X36996428Y-115225390D01*
X36996428Y-115225390D02*
X36920238Y-115187295D01*
X36920238Y-115187295D02*
X36729761Y-115187295D01*
X36729761Y-115187295D02*
X36615476Y-115225390D01*
X36348809Y-115187295D02*
X36158333Y-115987295D01*
X36158333Y-115987295D02*
X36005952Y-115415866D01*
X36005952Y-115415866D02*
X35853571Y-115987295D01*
X35853571Y-115987295D02*
X35663095Y-115187295D01*
X34939285Y-115987295D02*
X35396428Y-115987295D01*
X35167856Y-115987295D02*
X35167856Y-115187295D01*
X35167856Y-115187295D02*
X35244047Y-115301580D01*
X35244047Y-115301580D02*
X35320237Y-115377771D01*
X35320237Y-115377771D02*
X35396428Y-115415866D01*
X34253570Y-115453961D02*
X34253570Y-115987295D01*
X34444046Y-115149200D02*
X34634523Y-115720628D01*
X34634523Y-115720628D02*
X34139284Y-115720628D01*
X75072619Y-115949200D02*
X74958333Y-115987295D01*
X74958333Y-115987295D02*
X74767857Y-115987295D01*
X74767857Y-115987295D02*
X74691666Y-115949200D01*
X74691666Y-115949200D02*
X74653571Y-115911104D01*
X74653571Y-115911104D02*
X74615476Y-115834914D01*
X74615476Y-115834914D02*
X74615476Y-115758723D01*
X74615476Y-115758723D02*
X74653571Y-115682533D01*
X74653571Y-115682533D02*
X74691666Y-115644438D01*
X74691666Y-115644438D02*
X74767857Y-115606342D01*
X74767857Y-115606342D02*
X74920238Y-115568247D01*
X74920238Y-115568247D02*
X74996428Y-115530152D01*
X74996428Y-115530152D02*
X75034523Y-115492057D01*
X75034523Y-115492057D02*
X75072619Y-115415866D01*
X75072619Y-115415866D02*
X75072619Y-115339676D01*
X75072619Y-115339676D02*
X75034523Y-115263485D01*
X75034523Y-115263485D02*
X74996428Y-115225390D01*
X74996428Y-115225390D02*
X74920238Y-115187295D01*
X74920238Y-115187295D02*
X74729761Y-115187295D01*
X74729761Y-115187295D02*
X74615476Y-115225390D01*
X74348809Y-115187295D02*
X74158333Y-115987295D01*
X74158333Y-115987295D02*
X74005952Y-115415866D01*
X74005952Y-115415866D02*
X73853571Y-115987295D01*
X73853571Y-115987295D02*
X73663095Y-115187295D01*
X72939285Y-115987295D02*
X73396428Y-115987295D01*
X73167856Y-115987295D02*
X73167856Y-115187295D01*
X73167856Y-115187295D02*
X73244047Y-115301580D01*
X73244047Y-115301580D02*
X73320237Y-115377771D01*
X73320237Y-115377771D02*
X73396428Y-115415866D01*
X72253570Y-115187295D02*
X72405951Y-115187295D01*
X72405951Y-115187295D02*
X72482142Y-115225390D01*
X72482142Y-115225390D02*
X72520237Y-115263485D01*
X72520237Y-115263485D02*
X72596427Y-115377771D01*
X72596427Y-115377771D02*
X72634523Y-115530152D01*
X72634523Y-115530152D02*
X72634523Y-115834914D01*
X72634523Y-115834914D02*
X72596427Y-115911104D01*
X72596427Y-115911104D02*
X72558332Y-115949200D01*
X72558332Y-115949200D02*
X72482142Y-115987295D01*
X72482142Y-115987295D02*
X72329761Y-115987295D01*
X72329761Y-115987295D02*
X72253570Y-115949200D01*
X72253570Y-115949200D02*
X72215475Y-115911104D01*
X72215475Y-115911104D02*
X72177380Y-115834914D01*
X72177380Y-115834914D02*
X72177380Y-115644438D01*
X72177380Y-115644438D02*
X72215475Y-115568247D01*
X72215475Y-115568247D02*
X72253570Y-115530152D01*
X72253570Y-115530152D02*
X72329761Y-115492057D01*
X72329761Y-115492057D02*
X72482142Y-115492057D01*
X72482142Y-115492057D02*
X72558332Y-115530152D01*
X72558332Y-115530152D02*
X72596427Y-115568247D01*
X72596427Y-115568247D02*
X72634523Y-115644438D01*
X94072619Y-115949200D02*
X93958333Y-115987295D01*
X93958333Y-115987295D02*
X93767857Y-115987295D01*
X93767857Y-115987295D02*
X93691666Y-115949200D01*
X93691666Y-115949200D02*
X93653571Y-115911104D01*
X93653571Y-115911104D02*
X93615476Y-115834914D01*
X93615476Y-115834914D02*
X93615476Y-115758723D01*
X93615476Y-115758723D02*
X93653571Y-115682533D01*
X93653571Y-115682533D02*
X93691666Y-115644438D01*
X93691666Y-115644438D02*
X93767857Y-115606342D01*
X93767857Y-115606342D02*
X93920238Y-115568247D01*
X93920238Y-115568247D02*
X93996428Y-115530152D01*
X93996428Y-115530152D02*
X94034523Y-115492057D01*
X94034523Y-115492057D02*
X94072619Y-115415866D01*
X94072619Y-115415866D02*
X94072619Y-115339676D01*
X94072619Y-115339676D02*
X94034523Y-115263485D01*
X94034523Y-115263485D02*
X93996428Y-115225390D01*
X93996428Y-115225390D02*
X93920238Y-115187295D01*
X93920238Y-115187295D02*
X93729761Y-115187295D01*
X93729761Y-115187295D02*
X93615476Y-115225390D01*
X93348809Y-115187295D02*
X93158333Y-115987295D01*
X93158333Y-115987295D02*
X93005952Y-115415866D01*
X93005952Y-115415866D02*
X92853571Y-115987295D01*
X92853571Y-115987295D02*
X92663095Y-115187295D01*
X91939285Y-115987295D02*
X92396428Y-115987295D01*
X92167856Y-115987295D02*
X92167856Y-115187295D01*
X92167856Y-115187295D02*
X92244047Y-115301580D01*
X92244047Y-115301580D02*
X92320237Y-115377771D01*
X92320237Y-115377771D02*
X92396428Y-115415866D01*
X91672618Y-115187295D02*
X91139284Y-115187295D01*
X91139284Y-115187295D02*
X91482142Y-115987295D01*
X202949200Y-119677380D02*
X202987295Y-119791666D01*
X202987295Y-119791666D02*
X202987295Y-119982142D01*
X202987295Y-119982142D02*
X202949200Y-120058333D01*
X202949200Y-120058333D02*
X202911104Y-120096428D01*
X202911104Y-120096428D02*
X202834914Y-120134523D01*
X202834914Y-120134523D02*
X202758723Y-120134523D01*
X202758723Y-120134523D02*
X202682533Y-120096428D01*
X202682533Y-120096428D02*
X202644438Y-120058333D01*
X202644438Y-120058333D02*
X202606342Y-119982142D01*
X202606342Y-119982142D02*
X202568247Y-119829761D01*
X202568247Y-119829761D02*
X202530152Y-119753571D01*
X202530152Y-119753571D02*
X202492057Y-119715476D01*
X202492057Y-119715476D02*
X202415866Y-119677380D01*
X202415866Y-119677380D02*
X202339676Y-119677380D01*
X202339676Y-119677380D02*
X202263485Y-119715476D01*
X202263485Y-119715476D02*
X202225390Y-119753571D01*
X202225390Y-119753571D02*
X202187295Y-119829761D01*
X202187295Y-119829761D02*
X202187295Y-120020238D01*
X202187295Y-120020238D02*
X202225390Y-120134523D01*
X202187295Y-120401190D02*
X202987295Y-120591666D01*
X202987295Y-120591666D02*
X202415866Y-120744047D01*
X202415866Y-120744047D02*
X202987295Y-120896428D01*
X202987295Y-120896428D02*
X202187295Y-121086905D01*
X202263485Y-121353571D02*
X202225390Y-121391667D01*
X202225390Y-121391667D02*
X202187295Y-121467857D01*
X202187295Y-121467857D02*
X202187295Y-121658333D01*
X202187295Y-121658333D02*
X202225390Y-121734524D01*
X202225390Y-121734524D02*
X202263485Y-121772619D01*
X202263485Y-121772619D02*
X202339676Y-121810714D01*
X202339676Y-121810714D02*
X202415866Y-121810714D01*
X202415866Y-121810714D02*
X202530152Y-121772619D01*
X202530152Y-121772619D02*
X202987295Y-121315476D01*
X202987295Y-121315476D02*
X202987295Y-121810714D01*
X202187295Y-122077381D02*
X202187295Y-122572619D01*
X202187295Y-122572619D02*
X202492057Y-122305953D01*
X202492057Y-122305953D02*
X202492057Y-122420238D01*
X202492057Y-122420238D02*
X202530152Y-122496429D01*
X202530152Y-122496429D02*
X202568247Y-122534524D01*
X202568247Y-122534524D02*
X202644438Y-122572619D01*
X202644438Y-122572619D02*
X202834914Y-122572619D01*
X202834914Y-122572619D02*
X202911104Y-122534524D01*
X202911104Y-122534524D02*
X202949200Y-122496429D01*
X202949200Y-122496429D02*
X202987295Y-122420238D01*
X202987295Y-122420238D02*
X202987295Y-122191667D01*
X202987295Y-122191667D02*
X202949200Y-122115476D01*
X202949200Y-122115476D02*
X202911104Y-122077381D01*
X36691667Y-96949200D02*
X36577381Y-96987295D01*
X36577381Y-96987295D02*
X36386905Y-96987295D01*
X36386905Y-96987295D02*
X36310714Y-96949200D01*
X36310714Y-96949200D02*
X36272619Y-96911104D01*
X36272619Y-96911104D02*
X36234524Y-96834914D01*
X36234524Y-96834914D02*
X36234524Y-96758723D01*
X36234524Y-96758723D02*
X36272619Y-96682533D01*
X36272619Y-96682533D02*
X36310714Y-96644438D01*
X36310714Y-96644438D02*
X36386905Y-96606342D01*
X36386905Y-96606342D02*
X36539286Y-96568247D01*
X36539286Y-96568247D02*
X36615476Y-96530152D01*
X36615476Y-96530152D02*
X36653571Y-96492057D01*
X36653571Y-96492057D02*
X36691667Y-96415866D01*
X36691667Y-96415866D02*
X36691667Y-96339676D01*
X36691667Y-96339676D02*
X36653571Y-96263485D01*
X36653571Y-96263485D02*
X36615476Y-96225390D01*
X36615476Y-96225390D02*
X36539286Y-96187295D01*
X36539286Y-96187295D02*
X36348809Y-96187295D01*
X36348809Y-96187295D02*
X36234524Y-96225390D01*
X35967857Y-96187295D02*
X35777381Y-96987295D01*
X35777381Y-96987295D02*
X35625000Y-96415866D01*
X35625000Y-96415866D02*
X35472619Y-96987295D01*
X35472619Y-96987295D02*
X35282143Y-96187295D01*
X34558333Y-96987295D02*
X35015476Y-96987295D01*
X34786904Y-96987295D02*
X34786904Y-96187295D01*
X34786904Y-96187295D02*
X34863095Y-96301580D01*
X34863095Y-96301580D02*
X34939285Y-96377771D01*
X34939285Y-96377771D02*
X35015476Y-96415866D01*
X246072619Y-96949200D02*
X245958333Y-96987295D01*
X245958333Y-96987295D02*
X245767857Y-96987295D01*
X245767857Y-96987295D02*
X245691666Y-96949200D01*
X245691666Y-96949200D02*
X245653571Y-96911104D01*
X245653571Y-96911104D02*
X245615476Y-96834914D01*
X245615476Y-96834914D02*
X245615476Y-96758723D01*
X245615476Y-96758723D02*
X245653571Y-96682533D01*
X245653571Y-96682533D02*
X245691666Y-96644438D01*
X245691666Y-96644438D02*
X245767857Y-96606342D01*
X245767857Y-96606342D02*
X245920238Y-96568247D01*
X245920238Y-96568247D02*
X245996428Y-96530152D01*
X245996428Y-96530152D02*
X246034523Y-96492057D01*
X246034523Y-96492057D02*
X246072619Y-96415866D01*
X246072619Y-96415866D02*
X246072619Y-96339676D01*
X246072619Y-96339676D02*
X246034523Y-96263485D01*
X246034523Y-96263485D02*
X245996428Y-96225390D01*
X245996428Y-96225390D02*
X245920238Y-96187295D01*
X245920238Y-96187295D02*
X245729761Y-96187295D01*
X245729761Y-96187295D02*
X245615476Y-96225390D01*
X245348809Y-96187295D02*
X245158333Y-96987295D01*
X245158333Y-96987295D02*
X245005952Y-96415866D01*
X245005952Y-96415866D02*
X244853571Y-96987295D01*
X244853571Y-96987295D02*
X244663095Y-96187295D01*
X243939285Y-96987295D02*
X244396428Y-96987295D01*
X244167856Y-96987295D02*
X244167856Y-96187295D01*
X244167856Y-96187295D02*
X244244047Y-96301580D01*
X244244047Y-96301580D02*
X244320237Y-96377771D01*
X244320237Y-96377771D02*
X244396428Y-96415866D01*
X243634523Y-96263485D02*
X243596427Y-96225390D01*
X243596427Y-96225390D02*
X243520237Y-96187295D01*
X243520237Y-96187295D02*
X243329761Y-96187295D01*
X243329761Y-96187295D02*
X243253570Y-96225390D01*
X243253570Y-96225390D02*
X243215475Y-96263485D01*
X243215475Y-96263485D02*
X243177380Y-96339676D01*
X243177380Y-96339676D02*
X243177380Y-96415866D01*
X243177380Y-96415866D02*
X243215475Y-96530152D01*
X243215475Y-96530152D02*
X243672618Y-96987295D01*
X243672618Y-96987295D02*
X243177380Y-96987295D01*
X131691667Y-96949200D02*
X131577381Y-96987295D01*
X131577381Y-96987295D02*
X131386905Y-96987295D01*
X131386905Y-96987295D02*
X131310714Y-96949200D01*
X131310714Y-96949200D02*
X131272619Y-96911104D01*
X131272619Y-96911104D02*
X131234524Y-96834914D01*
X131234524Y-96834914D02*
X131234524Y-96758723D01*
X131234524Y-96758723D02*
X131272619Y-96682533D01*
X131272619Y-96682533D02*
X131310714Y-96644438D01*
X131310714Y-96644438D02*
X131386905Y-96606342D01*
X131386905Y-96606342D02*
X131539286Y-96568247D01*
X131539286Y-96568247D02*
X131615476Y-96530152D01*
X131615476Y-96530152D02*
X131653571Y-96492057D01*
X131653571Y-96492057D02*
X131691667Y-96415866D01*
X131691667Y-96415866D02*
X131691667Y-96339676D01*
X131691667Y-96339676D02*
X131653571Y-96263485D01*
X131653571Y-96263485D02*
X131615476Y-96225390D01*
X131615476Y-96225390D02*
X131539286Y-96187295D01*
X131539286Y-96187295D02*
X131348809Y-96187295D01*
X131348809Y-96187295D02*
X131234524Y-96225390D01*
X130967857Y-96187295D02*
X130777381Y-96987295D01*
X130777381Y-96987295D02*
X130625000Y-96415866D01*
X130625000Y-96415866D02*
X130472619Y-96987295D01*
X130472619Y-96987295D02*
X130282143Y-96187295D01*
X129634523Y-96187295D02*
X129786904Y-96187295D01*
X129786904Y-96187295D02*
X129863095Y-96225390D01*
X129863095Y-96225390D02*
X129901190Y-96263485D01*
X129901190Y-96263485D02*
X129977380Y-96377771D01*
X129977380Y-96377771D02*
X130015476Y-96530152D01*
X130015476Y-96530152D02*
X130015476Y-96834914D01*
X130015476Y-96834914D02*
X129977380Y-96911104D01*
X129977380Y-96911104D02*
X129939285Y-96949200D01*
X129939285Y-96949200D02*
X129863095Y-96987295D01*
X129863095Y-96987295D02*
X129710714Y-96987295D01*
X129710714Y-96987295D02*
X129634523Y-96949200D01*
X129634523Y-96949200D02*
X129596428Y-96911104D01*
X129596428Y-96911104D02*
X129558333Y-96834914D01*
X129558333Y-96834914D02*
X129558333Y-96644438D01*
X129558333Y-96644438D02*
X129596428Y-96568247D01*
X129596428Y-96568247D02*
X129634523Y-96530152D01*
X129634523Y-96530152D02*
X129710714Y-96492057D01*
X129710714Y-96492057D02*
X129863095Y-96492057D01*
X129863095Y-96492057D02*
X129939285Y-96530152D01*
X129939285Y-96530152D02*
X129977380Y-96568247D01*
X129977380Y-96568247D02*
X130015476Y-96644438D01*
X151072619Y-134949200D02*
X150958333Y-134987295D01*
X150958333Y-134987295D02*
X150767857Y-134987295D01*
X150767857Y-134987295D02*
X150691666Y-134949200D01*
X150691666Y-134949200D02*
X150653571Y-134911104D01*
X150653571Y-134911104D02*
X150615476Y-134834914D01*
X150615476Y-134834914D02*
X150615476Y-134758723D01*
X150615476Y-134758723D02*
X150653571Y-134682533D01*
X150653571Y-134682533D02*
X150691666Y-134644438D01*
X150691666Y-134644438D02*
X150767857Y-134606342D01*
X150767857Y-134606342D02*
X150920238Y-134568247D01*
X150920238Y-134568247D02*
X150996428Y-134530152D01*
X150996428Y-134530152D02*
X151034523Y-134492057D01*
X151034523Y-134492057D02*
X151072619Y-134415866D01*
X151072619Y-134415866D02*
X151072619Y-134339676D01*
X151072619Y-134339676D02*
X151034523Y-134263485D01*
X151034523Y-134263485D02*
X150996428Y-134225390D01*
X150996428Y-134225390D02*
X150920238Y-134187295D01*
X150920238Y-134187295D02*
X150729761Y-134187295D01*
X150729761Y-134187295D02*
X150615476Y-134225390D01*
X150348809Y-134187295D02*
X150158333Y-134987295D01*
X150158333Y-134987295D02*
X150005952Y-134415866D01*
X150005952Y-134415866D02*
X149853571Y-134987295D01*
X149853571Y-134987295D02*
X149663095Y-134187295D01*
X149434523Y-134187295D02*
X148939285Y-134187295D01*
X148939285Y-134187295D02*
X149205951Y-134492057D01*
X149205951Y-134492057D02*
X149091666Y-134492057D01*
X149091666Y-134492057D02*
X149015475Y-134530152D01*
X149015475Y-134530152D02*
X148977380Y-134568247D01*
X148977380Y-134568247D02*
X148939285Y-134644438D01*
X148939285Y-134644438D02*
X148939285Y-134834914D01*
X148939285Y-134834914D02*
X148977380Y-134911104D01*
X148977380Y-134911104D02*
X149015475Y-134949200D01*
X149015475Y-134949200D02*
X149091666Y-134987295D01*
X149091666Y-134987295D02*
X149320237Y-134987295D01*
X149320237Y-134987295D02*
X149396428Y-134949200D01*
X149396428Y-134949200D02*
X149434523Y-134911104D01*
X148672618Y-134187295D02*
X148177380Y-134187295D01*
X148177380Y-134187295D02*
X148444046Y-134492057D01*
X148444046Y-134492057D02*
X148329761Y-134492057D01*
X148329761Y-134492057D02*
X148253570Y-134530152D01*
X148253570Y-134530152D02*
X148215475Y-134568247D01*
X148215475Y-134568247D02*
X148177380Y-134644438D01*
X148177380Y-134644438D02*
X148177380Y-134834914D01*
X148177380Y-134834914D02*
X148215475Y-134911104D01*
X148215475Y-134911104D02*
X148253570Y-134949200D01*
X148253570Y-134949200D02*
X148329761Y-134987295D01*
X148329761Y-134987295D02*
X148558332Y-134987295D01*
X148558332Y-134987295D02*
X148634523Y-134949200D01*
X148634523Y-134949200D02*
X148672618Y-134911104D01*
X56072619Y-115949200D02*
X55958333Y-115987295D01*
X55958333Y-115987295D02*
X55767857Y-115987295D01*
X55767857Y-115987295D02*
X55691666Y-115949200D01*
X55691666Y-115949200D02*
X55653571Y-115911104D01*
X55653571Y-115911104D02*
X55615476Y-115834914D01*
X55615476Y-115834914D02*
X55615476Y-115758723D01*
X55615476Y-115758723D02*
X55653571Y-115682533D01*
X55653571Y-115682533D02*
X55691666Y-115644438D01*
X55691666Y-115644438D02*
X55767857Y-115606342D01*
X55767857Y-115606342D02*
X55920238Y-115568247D01*
X55920238Y-115568247D02*
X55996428Y-115530152D01*
X55996428Y-115530152D02*
X56034523Y-115492057D01*
X56034523Y-115492057D02*
X56072619Y-115415866D01*
X56072619Y-115415866D02*
X56072619Y-115339676D01*
X56072619Y-115339676D02*
X56034523Y-115263485D01*
X56034523Y-115263485D02*
X55996428Y-115225390D01*
X55996428Y-115225390D02*
X55920238Y-115187295D01*
X55920238Y-115187295D02*
X55729761Y-115187295D01*
X55729761Y-115187295D02*
X55615476Y-115225390D01*
X55348809Y-115187295D02*
X55158333Y-115987295D01*
X55158333Y-115987295D02*
X55005952Y-115415866D01*
X55005952Y-115415866D02*
X54853571Y-115987295D01*
X54853571Y-115987295D02*
X54663095Y-115187295D01*
X53939285Y-115987295D02*
X54396428Y-115987295D01*
X54167856Y-115987295D02*
X54167856Y-115187295D01*
X54167856Y-115187295D02*
X54244047Y-115301580D01*
X54244047Y-115301580D02*
X54320237Y-115377771D01*
X54320237Y-115377771D02*
X54396428Y-115415866D01*
X53215475Y-115187295D02*
X53596427Y-115187295D01*
X53596427Y-115187295D02*
X53634523Y-115568247D01*
X53634523Y-115568247D02*
X53596427Y-115530152D01*
X53596427Y-115530152D02*
X53520237Y-115492057D01*
X53520237Y-115492057D02*
X53329761Y-115492057D01*
X53329761Y-115492057D02*
X53253570Y-115530152D01*
X53253570Y-115530152D02*
X53215475Y-115568247D01*
X53215475Y-115568247D02*
X53177380Y-115644438D01*
X53177380Y-115644438D02*
X53177380Y-115834914D01*
X53177380Y-115834914D02*
X53215475Y-115911104D01*
X53215475Y-115911104D02*
X53253570Y-115949200D01*
X53253570Y-115949200D02*
X53329761Y-115987295D01*
X53329761Y-115987295D02*
X53520237Y-115987295D01*
X53520237Y-115987295D02*
X53596427Y-115949200D01*
X53596427Y-115949200D02*
X53634523Y-115911104D01*
X37072619Y-134949200D02*
X36958333Y-134987295D01*
X36958333Y-134987295D02*
X36767857Y-134987295D01*
X36767857Y-134987295D02*
X36691666Y-134949200D01*
X36691666Y-134949200D02*
X36653571Y-134911104D01*
X36653571Y-134911104D02*
X36615476Y-134834914D01*
X36615476Y-134834914D02*
X36615476Y-134758723D01*
X36615476Y-134758723D02*
X36653571Y-134682533D01*
X36653571Y-134682533D02*
X36691666Y-134644438D01*
X36691666Y-134644438D02*
X36767857Y-134606342D01*
X36767857Y-134606342D02*
X36920238Y-134568247D01*
X36920238Y-134568247D02*
X36996428Y-134530152D01*
X36996428Y-134530152D02*
X37034523Y-134492057D01*
X37034523Y-134492057D02*
X37072619Y-134415866D01*
X37072619Y-134415866D02*
X37072619Y-134339676D01*
X37072619Y-134339676D02*
X37034523Y-134263485D01*
X37034523Y-134263485D02*
X36996428Y-134225390D01*
X36996428Y-134225390D02*
X36920238Y-134187295D01*
X36920238Y-134187295D02*
X36729761Y-134187295D01*
X36729761Y-134187295D02*
X36615476Y-134225390D01*
X36348809Y-134187295D02*
X36158333Y-134987295D01*
X36158333Y-134987295D02*
X36005952Y-134415866D01*
X36005952Y-134415866D02*
X35853571Y-134987295D01*
X35853571Y-134987295D02*
X35663095Y-134187295D01*
X35396428Y-134263485D02*
X35358332Y-134225390D01*
X35358332Y-134225390D02*
X35282142Y-134187295D01*
X35282142Y-134187295D02*
X35091666Y-134187295D01*
X35091666Y-134187295D02*
X35015475Y-134225390D01*
X35015475Y-134225390D02*
X34977380Y-134263485D01*
X34977380Y-134263485D02*
X34939285Y-134339676D01*
X34939285Y-134339676D02*
X34939285Y-134415866D01*
X34939285Y-134415866D02*
X34977380Y-134530152D01*
X34977380Y-134530152D02*
X35434523Y-134987295D01*
X35434523Y-134987295D02*
X34939285Y-134987295D01*
X34672618Y-134187295D02*
X34139284Y-134187295D01*
X34139284Y-134187295D02*
X34482142Y-134987295D01*
X208072619Y-153949200D02*
X207958333Y-153987295D01*
X207958333Y-153987295D02*
X207767857Y-153987295D01*
X207767857Y-153987295D02*
X207691666Y-153949200D01*
X207691666Y-153949200D02*
X207653571Y-153911104D01*
X207653571Y-153911104D02*
X207615476Y-153834914D01*
X207615476Y-153834914D02*
X207615476Y-153758723D01*
X207615476Y-153758723D02*
X207653571Y-153682533D01*
X207653571Y-153682533D02*
X207691666Y-153644438D01*
X207691666Y-153644438D02*
X207767857Y-153606342D01*
X207767857Y-153606342D02*
X207920238Y-153568247D01*
X207920238Y-153568247D02*
X207996428Y-153530152D01*
X207996428Y-153530152D02*
X208034523Y-153492057D01*
X208034523Y-153492057D02*
X208072619Y-153415866D01*
X208072619Y-153415866D02*
X208072619Y-153339676D01*
X208072619Y-153339676D02*
X208034523Y-153263485D01*
X208034523Y-153263485D02*
X207996428Y-153225390D01*
X207996428Y-153225390D02*
X207920238Y-153187295D01*
X207920238Y-153187295D02*
X207729761Y-153187295D01*
X207729761Y-153187295D02*
X207615476Y-153225390D01*
X207348809Y-153187295D02*
X207158333Y-153987295D01*
X207158333Y-153987295D02*
X207005952Y-153415866D01*
X207005952Y-153415866D02*
X206853571Y-153987295D01*
X206853571Y-153987295D02*
X206663095Y-153187295D01*
X206015475Y-153453961D02*
X206015475Y-153987295D01*
X206205951Y-153149200D02*
X206396428Y-153720628D01*
X206396428Y-153720628D02*
X205901189Y-153720628D01*
X205634523Y-153263485D02*
X205596427Y-153225390D01*
X205596427Y-153225390D02*
X205520237Y-153187295D01*
X205520237Y-153187295D02*
X205329761Y-153187295D01*
X205329761Y-153187295D02*
X205253570Y-153225390D01*
X205253570Y-153225390D02*
X205215475Y-153263485D01*
X205215475Y-153263485D02*
X205177380Y-153339676D01*
X205177380Y-153339676D02*
X205177380Y-153415866D01*
X205177380Y-153415866D02*
X205215475Y-153530152D01*
X205215475Y-153530152D02*
X205672618Y-153987295D01*
X205672618Y-153987295D02*
X205177380Y-153987295D01*
X227072619Y-115949200D02*
X226958333Y-115987295D01*
X226958333Y-115987295D02*
X226767857Y-115987295D01*
X226767857Y-115987295D02*
X226691666Y-115949200D01*
X226691666Y-115949200D02*
X226653571Y-115911104D01*
X226653571Y-115911104D02*
X226615476Y-115834914D01*
X226615476Y-115834914D02*
X226615476Y-115758723D01*
X226615476Y-115758723D02*
X226653571Y-115682533D01*
X226653571Y-115682533D02*
X226691666Y-115644438D01*
X226691666Y-115644438D02*
X226767857Y-115606342D01*
X226767857Y-115606342D02*
X226920238Y-115568247D01*
X226920238Y-115568247D02*
X226996428Y-115530152D01*
X226996428Y-115530152D02*
X227034523Y-115492057D01*
X227034523Y-115492057D02*
X227072619Y-115415866D01*
X227072619Y-115415866D02*
X227072619Y-115339676D01*
X227072619Y-115339676D02*
X227034523Y-115263485D01*
X227034523Y-115263485D02*
X226996428Y-115225390D01*
X226996428Y-115225390D02*
X226920238Y-115187295D01*
X226920238Y-115187295D02*
X226729761Y-115187295D01*
X226729761Y-115187295D02*
X226615476Y-115225390D01*
X226348809Y-115187295D02*
X226158333Y-115987295D01*
X226158333Y-115987295D02*
X226005952Y-115415866D01*
X226005952Y-115415866D02*
X225853571Y-115987295D01*
X225853571Y-115987295D02*
X225663095Y-115187295D01*
X225396428Y-115263485D02*
X225358332Y-115225390D01*
X225358332Y-115225390D02*
X225282142Y-115187295D01*
X225282142Y-115187295D02*
X225091666Y-115187295D01*
X225091666Y-115187295D02*
X225015475Y-115225390D01*
X225015475Y-115225390D02*
X224977380Y-115263485D01*
X224977380Y-115263485D02*
X224939285Y-115339676D01*
X224939285Y-115339676D02*
X224939285Y-115415866D01*
X224939285Y-115415866D02*
X224977380Y-115530152D01*
X224977380Y-115530152D02*
X225434523Y-115987295D01*
X225434523Y-115987295D02*
X224939285Y-115987295D01*
X224253570Y-115453961D02*
X224253570Y-115987295D01*
X224444046Y-115149200D02*
X224634523Y-115720628D01*
X224634523Y-115720628D02*
X224139284Y-115720628D01*
X150691667Y-96949200D02*
X150577381Y-96987295D01*
X150577381Y-96987295D02*
X150386905Y-96987295D01*
X150386905Y-96987295D02*
X150310714Y-96949200D01*
X150310714Y-96949200D02*
X150272619Y-96911104D01*
X150272619Y-96911104D02*
X150234524Y-96834914D01*
X150234524Y-96834914D02*
X150234524Y-96758723D01*
X150234524Y-96758723D02*
X150272619Y-96682533D01*
X150272619Y-96682533D02*
X150310714Y-96644438D01*
X150310714Y-96644438D02*
X150386905Y-96606342D01*
X150386905Y-96606342D02*
X150539286Y-96568247D01*
X150539286Y-96568247D02*
X150615476Y-96530152D01*
X150615476Y-96530152D02*
X150653571Y-96492057D01*
X150653571Y-96492057D02*
X150691667Y-96415866D01*
X150691667Y-96415866D02*
X150691667Y-96339676D01*
X150691667Y-96339676D02*
X150653571Y-96263485D01*
X150653571Y-96263485D02*
X150615476Y-96225390D01*
X150615476Y-96225390D02*
X150539286Y-96187295D01*
X150539286Y-96187295D02*
X150348809Y-96187295D01*
X150348809Y-96187295D02*
X150234524Y-96225390D01*
X149967857Y-96187295D02*
X149777381Y-96987295D01*
X149777381Y-96987295D02*
X149625000Y-96415866D01*
X149625000Y-96415866D02*
X149472619Y-96987295D01*
X149472619Y-96987295D02*
X149282143Y-96187295D01*
X149053571Y-96187295D02*
X148520237Y-96187295D01*
X148520237Y-96187295D02*
X148863095Y-96987295D01*
X56072619Y-153949200D02*
X55958333Y-153987295D01*
X55958333Y-153987295D02*
X55767857Y-153987295D01*
X55767857Y-153987295D02*
X55691666Y-153949200D01*
X55691666Y-153949200D02*
X55653571Y-153911104D01*
X55653571Y-153911104D02*
X55615476Y-153834914D01*
X55615476Y-153834914D02*
X55615476Y-153758723D01*
X55615476Y-153758723D02*
X55653571Y-153682533D01*
X55653571Y-153682533D02*
X55691666Y-153644438D01*
X55691666Y-153644438D02*
X55767857Y-153606342D01*
X55767857Y-153606342D02*
X55920238Y-153568247D01*
X55920238Y-153568247D02*
X55996428Y-153530152D01*
X55996428Y-153530152D02*
X56034523Y-153492057D01*
X56034523Y-153492057D02*
X56072619Y-153415866D01*
X56072619Y-153415866D02*
X56072619Y-153339676D01*
X56072619Y-153339676D02*
X56034523Y-153263485D01*
X56034523Y-153263485D02*
X55996428Y-153225390D01*
X55996428Y-153225390D02*
X55920238Y-153187295D01*
X55920238Y-153187295D02*
X55729761Y-153187295D01*
X55729761Y-153187295D02*
X55615476Y-153225390D01*
X55348809Y-153187295D02*
X55158333Y-153987295D01*
X55158333Y-153987295D02*
X55005952Y-153415866D01*
X55005952Y-153415866D02*
X54853571Y-153987295D01*
X54853571Y-153987295D02*
X54663095Y-153187295D01*
X54015475Y-153453961D02*
X54015475Y-153987295D01*
X54205951Y-153149200D02*
X54396428Y-153720628D01*
X54396428Y-153720628D02*
X53901189Y-153720628D01*
X53444046Y-153187295D02*
X53367856Y-153187295D01*
X53367856Y-153187295D02*
X53291665Y-153225390D01*
X53291665Y-153225390D02*
X53253570Y-153263485D01*
X53253570Y-153263485D02*
X53215475Y-153339676D01*
X53215475Y-153339676D02*
X53177380Y-153492057D01*
X53177380Y-153492057D02*
X53177380Y-153682533D01*
X53177380Y-153682533D02*
X53215475Y-153834914D01*
X53215475Y-153834914D02*
X53253570Y-153911104D01*
X53253570Y-153911104D02*
X53291665Y-153949200D01*
X53291665Y-153949200D02*
X53367856Y-153987295D01*
X53367856Y-153987295D02*
X53444046Y-153987295D01*
X53444046Y-153987295D02*
X53520237Y-153949200D01*
X53520237Y-153949200D02*
X53558332Y-153911104D01*
X53558332Y-153911104D02*
X53596427Y-153834914D01*
X53596427Y-153834914D02*
X53634523Y-153682533D01*
X53634523Y-153682533D02*
X53634523Y-153492057D01*
X53634523Y-153492057D02*
X53596427Y-153339676D01*
X53596427Y-153339676D02*
X53558332Y-153263485D01*
X53558332Y-153263485D02*
X53520237Y-153225390D01*
X53520237Y-153225390D02*
X53444046Y-153187295D01*
X236572619Y-153949200D02*
X236458333Y-153987295D01*
X236458333Y-153987295D02*
X236267857Y-153987295D01*
X236267857Y-153987295D02*
X236191666Y-153949200D01*
X236191666Y-153949200D02*
X236153571Y-153911104D01*
X236153571Y-153911104D02*
X236115476Y-153834914D01*
X236115476Y-153834914D02*
X236115476Y-153758723D01*
X236115476Y-153758723D02*
X236153571Y-153682533D01*
X236153571Y-153682533D02*
X236191666Y-153644438D01*
X236191666Y-153644438D02*
X236267857Y-153606342D01*
X236267857Y-153606342D02*
X236420238Y-153568247D01*
X236420238Y-153568247D02*
X236496428Y-153530152D01*
X236496428Y-153530152D02*
X236534523Y-153492057D01*
X236534523Y-153492057D02*
X236572619Y-153415866D01*
X236572619Y-153415866D02*
X236572619Y-153339676D01*
X236572619Y-153339676D02*
X236534523Y-153263485D01*
X236534523Y-153263485D02*
X236496428Y-153225390D01*
X236496428Y-153225390D02*
X236420238Y-153187295D01*
X236420238Y-153187295D02*
X236229761Y-153187295D01*
X236229761Y-153187295D02*
X236115476Y-153225390D01*
X235848809Y-153187295D02*
X235658333Y-153987295D01*
X235658333Y-153987295D02*
X235505952Y-153415866D01*
X235505952Y-153415866D02*
X235353571Y-153987295D01*
X235353571Y-153987295D02*
X235163095Y-153187295D01*
X234515475Y-153453961D02*
X234515475Y-153987295D01*
X234705951Y-153149200D02*
X234896428Y-153720628D01*
X234896428Y-153720628D02*
X234401189Y-153720628D01*
X234172618Y-153187295D02*
X233677380Y-153187295D01*
X233677380Y-153187295D02*
X233944046Y-153492057D01*
X233944046Y-153492057D02*
X233829761Y-153492057D01*
X233829761Y-153492057D02*
X233753570Y-153530152D01*
X233753570Y-153530152D02*
X233715475Y-153568247D01*
X233715475Y-153568247D02*
X233677380Y-153644438D01*
X233677380Y-153644438D02*
X233677380Y-153834914D01*
X233677380Y-153834914D02*
X233715475Y-153911104D01*
X233715475Y-153911104D02*
X233753570Y-153949200D01*
X233753570Y-153949200D02*
X233829761Y-153987295D01*
X233829761Y-153987295D02*
X234058332Y-153987295D01*
X234058332Y-153987295D02*
X234134523Y-153949200D01*
X234134523Y-153949200D02*
X234172618Y-153911104D01*
X37072619Y-153949200D02*
X36958333Y-153987295D01*
X36958333Y-153987295D02*
X36767857Y-153987295D01*
X36767857Y-153987295D02*
X36691666Y-153949200D01*
X36691666Y-153949200D02*
X36653571Y-153911104D01*
X36653571Y-153911104D02*
X36615476Y-153834914D01*
X36615476Y-153834914D02*
X36615476Y-153758723D01*
X36615476Y-153758723D02*
X36653571Y-153682533D01*
X36653571Y-153682533D02*
X36691666Y-153644438D01*
X36691666Y-153644438D02*
X36767857Y-153606342D01*
X36767857Y-153606342D02*
X36920238Y-153568247D01*
X36920238Y-153568247D02*
X36996428Y-153530152D01*
X36996428Y-153530152D02*
X37034523Y-153492057D01*
X37034523Y-153492057D02*
X37072619Y-153415866D01*
X37072619Y-153415866D02*
X37072619Y-153339676D01*
X37072619Y-153339676D02*
X37034523Y-153263485D01*
X37034523Y-153263485D02*
X36996428Y-153225390D01*
X36996428Y-153225390D02*
X36920238Y-153187295D01*
X36920238Y-153187295D02*
X36729761Y-153187295D01*
X36729761Y-153187295D02*
X36615476Y-153225390D01*
X36348809Y-153187295D02*
X36158333Y-153987295D01*
X36158333Y-153987295D02*
X36005952Y-153415866D01*
X36005952Y-153415866D02*
X35853571Y-153987295D01*
X35853571Y-153987295D02*
X35663095Y-153187295D01*
X35434523Y-153187295D02*
X34939285Y-153187295D01*
X34939285Y-153187295D02*
X35205951Y-153492057D01*
X35205951Y-153492057D02*
X35091666Y-153492057D01*
X35091666Y-153492057D02*
X35015475Y-153530152D01*
X35015475Y-153530152D02*
X34977380Y-153568247D01*
X34977380Y-153568247D02*
X34939285Y-153644438D01*
X34939285Y-153644438D02*
X34939285Y-153834914D01*
X34939285Y-153834914D02*
X34977380Y-153911104D01*
X34977380Y-153911104D02*
X35015475Y-153949200D01*
X35015475Y-153949200D02*
X35091666Y-153987295D01*
X35091666Y-153987295D02*
X35320237Y-153987295D01*
X35320237Y-153987295D02*
X35396428Y-153949200D01*
X35396428Y-153949200D02*
X35434523Y-153911104D01*
X34558332Y-153987295D02*
X34405951Y-153987295D01*
X34405951Y-153987295D02*
X34329761Y-153949200D01*
X34329761Y-153949200D02*
X34291665Y-153911104D01*
X34291665Y-153911104D02*
X34215475Y-153796819D01*
X34215475Y-153796819D02*
X34177380Y-153644438D01*
X34177380Y-153644438D02*
X34177380Y-153339676D01*
X34177380Y-153339676D02*
X34215475Y-153263485D01*
X34215475Y-153263485D02*
X34253570Y-153225390D01*
X34253570Y-153225390D02*
X34329761Y-153187295D01*
X34329761Y-153187295D02*
X34482142Y-153187295D01*
X34482142Y-153187295D02*
X34558332Y-153225390D01*
X34558332Y-153225390D02*
X34596427Y-153263485D01*
X34596427Y-153263485D02*
X34634523Y-153339676D01*
X34634523Y-153339676D02*
X34634523Y-153530152D01*
X34634523Y-153530152D02*
X34596427Y-153606342D01*
X34596427Y-153606342D02*
X34558332Y-153644438D01*
X34558332Y-153644438D02*
X34482142Y-153682533D01*
X34482142Y-153682533D02*
X34329761Y-153682533D01*
X34329761Y-153682533D02*
X34253570Y-153644438D01*
X34253570Y-153644438D02*
X34215475Y-153606342D01*
X34215475Y-153606342D02*
X34177380Y-153530152D01*
X265072619Y-96949200D02*
X264958333Y-96987295D01*
X264958333Y-96987295D02*
X264767857Y-96987295D01*
X264767857Y-96987295D02*
X264691666Y-96949200D01*
X264691666Y-96949200D02*
X264653571Y-96911104D01*
X264653571Y-96911104D02*
X264615476Y-96834914D01*
X264615476Y-96834914D02*
X264615476Y-96758723D01*
X264615476Y-96758723D02*
X264653571Y-96682533D01*
X264653571Y-96682533D02*
X264691666Y-96644438D01*
X264691666Y-96644438D02*
X264767857Y-96606342D01*
X264767857Y-96606342D02*
X264920238Y-96568247D01*
X264920238Y-96568247D02*
X264996428Y-96530152D01*
X264996428Y-96530152D02*
X265034523Y-96492057D01*
X265034523Y-96492057D02*
X265072619Y-96415866D01*
X265072619Y-96415866D02*
X265072619Y-96339676D01*
X265072619Y-96339676D02*
X265034523Y-96263485D01*
X265034523Y-96263485D02*
X264996428Y-96225390D01*
X264996428Y-96225390D02*
X264920238Y-96187295D01*
X264920238Y-96187295D02*
X264729761Y-96187295D01*
X264729761Y-96187295D02*
X264615476Y-96225390D01*
X264348809Y-96187295D02*
X264158333Y-96987295D01*
X264158333Y-96987295D02*
X264005952Y-96415866D01*
X264005952Y-96415866D02*
X263853571Y-96987295D01*
X263853571Y-96987295D02*
X263663095Y-96187295D01*
X262939285Y-96987295D02*
X263396428Y-96987295D01*
X263167856Y-96987295D02*
X263167856Y-96187295D01*
X263167856Y-96187295D02*
X263244047Y-96301580D01*
X263244047Y-96301580D02*
X263320237Y-96377771D01*
X263320237Y-96377771D02*
X263396428Y-96415866D01*
X262672618Y-96187295D02*
X262177380Y-96187295D01*
X262177380Y-96187295D02*
X262444046Y-96492057D01*
X262444046Y-96492057D02*
X262329761Y-96492057D01*
X262329761Y-96492057D02*
X262253570Y-96530152D01*
X262253570Y-96530152D02*
X262215475Y-96568247D01*
X262215475Y-96568247D02*
X262177380Y-96644438D01*
X262177380Y-96644438D02*
X262177380Y-96834914D01*
X262177380Y-96834914D02*
X262215475Y-96911104D01*
X262215475Y-96911104D02*
X262253570Y-96949200D01*
X262253570Y-96949200D02*
X262329761Y-96987295D01*
X262329761Y-96987295D02*
X262558332Y-96987295D01*
X262558332Y-96987295D02*
X262634523Y-96949200D01*
X262634523Y-96949200D02*
X262672618Y-96911104D01*
X169691667Y-96949200D02*
X169577381Y-96987295D01*
X169577381Y-96987295D02*
X169386905Y-96987295D01*
X169386905Y-96987295D02*
X169310714Y-96949200D01*
X169310714Y-96949200D02*
X169272619Y-96911104D01*
X169272619Y-96911104D02*
X169234524Y-96834914D01*
X169234524Y-96834914D02*
X169234524Y-96758723D01*
X169234524Y-96758723D02*
X169272619Y-96682533D01*
X169272619Y-96682533D02*
X169310714Y-96644438D01*
X169310714Y-96644438D02*
X169386905Y-96606342D01*
X169386905Y-96606342D02*
X169539286Y-96568247D01*
X169539286Y-96568247D02*
X169615476Y-96530152D01*
X169615476Y-96530152D02*
X169653571Y-96492057D01*
X169653571Y-96492057D02*
X169691667Y-96415866D01*
X169691667Y-96415866D02*
X169691667Y-96339676D01*
X169691667Y-96339676D02*
X169653571Y-96263485D01*
X169653571Y-96263485D02*
X169615476Y-96225390D01*
X169615476Y-96225390D02*
X169539286Y-96187295D01*
X169539286Y-96187295D02*
X169348809Y-96187295D01*
X169348809Y-96187295D02*
X169234524Y-96225390D01*
X168967857Y-96187295D02*
X168777381Y-96987295D01*
X168777381Y-96987295D02*
X168625000Y-96415866D01*
X168625000Y-96415866D02*
X168472619Y-96987295D01*
X168472619Y-96987295D02*
X168282143Y-96187295D01*
X167863095Y-96530152D02*
X167939285Y-96492057D01*
X167939285Y-96492057D02*
X167977380Y-96453961D01*
X167977380Y-96453961D02*
X168015476Y-96377771D01*
X168015476Y-96377771D02*
X168015476Y-96339676D01*
X168015476Y-96339676D02*
X167977380Y-96263485D01*
X167977380Y-96263485D02*
X167939285Y-96225390D01*
X167939285Y-96225390D02*
X167863095Y-96187295D01*
X167863095Y-96187295D02*
X167710714Y-96187295D01*
X167710714Y-96187295D02*
X167634523Y-96225390D01*
X167634523Y-96225390D02*
X167596428Y-96263485D01*
X167596428Y-96263485D02*
X167558333Y-96339676D01*
X167558333Y-96339676D02*
X167558333Y-96377771D01*
X167558333Y-96377771D02*
X167596428Y-96453961D01*
X167596428Y-96453961D02*
X167634523Y-96492057D01*
X167634523Y-96492057D02*
X167710714Y-96530152D01*
X167710714Y-96530152D02*
X167863095Y-96530152D01*
X167863095Y-96530152D02*
X167939285Y-96568247D01*
X167939285Y-96568247D02*
X167977380Y-96606342D01*
X167977380Y-96606342D02*
X168015476Y-96682533D01*
X168015476Y-96682533D02*
X168015476Y-96834914D01*
X168015476Y-96834914D02*
X167977380Y-96911104D01*
X167977380Y-96911104D02*
X167939285Y-96949200D01*
X167939285Y-96949200D02*
X167863095Y-96987295D01*
X167863095Y-96987295D02*
X167710714Y-96987295D01*
X167710714Y-96987295D02*
X167634523Y-96949200D01*
X167634523Y-96949200D02*
X167596428Y-96911104D01*
X167596428Y-96911104D02*
X167558333Y-96834914D01*
X167558333Y-96834914D02*
X167558333Y-96682533D01*
X167558333Y-96682533D02*
X167596428Y-96606342D01*
X167596428Y-96606342D02*
X167634523Y-96568247D01*
X167634523Y-96568247D02*
X167710714Y-96530152D01*
X132072619Y-134949200D02*
X131958333Y-134987295D01*
X131958333Y-134987295D02*
X131767857Y-134987295D01*
X131767857Y-134987295D02*
X131691666Y-134949200D01*
X131691666Y-134949200D02*
X131653571Y-134911104D01*
X131653571Y-134911104D02*
X131615476Y-134834914D01*
X131615476Y-134834914D02*
X131615476Y-134758723D01*
X131615476Y-134758723D02*
X131653571Y-134682533D01*
X131653571Y-134682533D02*
X131691666Y-134644438D01*
X131691666Y-134644438D02*
X131767857Y-134606342D01*
X131767857Y-134606342D02*
X131920238Y-134568247D01*
X131920238Y-134568247D02*
X131996428Y-134530152D01*
X131996428Y-134530152D02*
X132034523Y-134492057D01*
X132034523Y-134492057D02*
X132072619Y-134415866D01*
X132072619Y-134415866D02*
X132072619Y-134339676D01*
X132072619Y-134339676D02*
X132034523Y-134263485D01*
X132034523Y-134263485D02*
X131996428Y-134225390D01*
X131996428Y-134225390D02*
X131920238Y-134187295D01*
X131920238Y-134187295D02*
X131729761Y-134187295D01*
X131729761Y-134187295D02*
X131615476Y-134225390D01*
X131348809Y-134187295D02*
X131158333Y-134987295D01*
X131158333Y-134987295D02*
X131005952Y-134415866D01*
X131005952Y-134415866D02*
X130853571Y-134987295D01*
X130853571Y-134987295D02*
X130663095Y-134187295D01*
X130434523Y-134187295D02*
X129939285Y-134187295D01*
X129939285Y-134187295D02*
X130205951Y-134492057D01*
X130205951Y-134492057D02*
X130091666Y-134492057D01*
X130091666Y-134492057D02*
X130015475Y-134530152D01*
X130015475Y-134530152D02*
X129977380Y-134568247D01*
X129977380Y-134568247D02*
X129939285Y-134644438D01*
X129939285Y-134644438D02*
X129939285Y-134834914D01*
X129939285Y-134834914D02*
X129977380Y-134911104D01*
X129977380Y-134911104D02*
X130015475Y-134949200D01*
X130015475Y-134949200D02*
X130091666Y-134987295D01*
X130091666Y-134987295D02*
X130320237Y-134987295D01*
X130320237Y-134987295D02*
X130396428Y-134949200D01*
X130396428Y-134949200D02*
X130434523Y-134911104D01*
X129634523Y-134263485D02*
X129596427Y-134225390D01*
X129596427Y-134225390D02*
X129520237Y-134187295D01*
X129520237Y-134187295D02*
X129329761Y-134187295D01*
X129329761Y-134187295D02*
X129253570Y-134225390D01*
X129253570Y-134225390D02*
X129215475Y-134263485D01*
X129215475Y-134263485D02*
X129177380Y-134339676D01*
X129177380Y-134339676D02*
X129177380Y-134415866D01*
X129177380Y-134415866D02*
X129215475Y-134530152D01*
X129215475Y-134530152D02*
X129672618Y-134987295D01*
X129672618Y-134987295D02*
X129177380Y-134987295D01*
X246072619Y-115949200D02*
X245958333Y-115987295D01*
X245958333Y-115987295D02*
X245767857Y-115987295D01*
X245767857Y-115987295D02*
X245691666Y-115949200D01*
X245691666Y-115949200D02*
X245653571Y-115911104D01*
X245653571Y-115911104D02*
X245615476Y-115834914D01*
X245615476Y-115834914D02*
X245615476Y-115758723D01*
X245615476Y-115758723D02*
X245653571Y-115682533D01*
X245653571Y-115682533D02*
X245691666Y-115644438D01*
X245691666Y-115644438D02*
X245767857Y-115606342D01*
X245767857Y-115606342D02*
X245920238Y-115568247D01*
X245920238Y-115568247D02*
X245996428Y-115530152D01*
X245996428Y-115530152D02*
X246034523Y-115492057D01*
X246034523Y-115492057D02*
X246072619Y-115415866D01*
X246072619Y-115415866D02*
X246072619Y-115339676D01*
X246072619Y-115339676D02*
X246034523Y-115263485D01*
X246034523Y-115263485D02*
X245996428Y-115225390D01*
X245996428Y-115225390D02*
X245920238Y-115187295D01*
X245920238Y-115187295D02*
X245729761Y-115187295D01*
X245729761Y-115187295D02*
X245615476Y-115225390D01*
X245348809Y-115187295D02*
X245158333Y-115987295D01*
X245158333Y-115987295D02*
X245005952Y-115415866D01*
X245005952Y-115415866D02*
X244853571Y-115987295D01*
X244853571Y-115987295D02*
X244663095Y-115187295D01*
X244396428Y-115263485D02*
X244358332Y-115225390D01*
X244358332Y-115225390D02*
X244282142Y-115187295D01*
X244282142Y-115187295D02*
X244091666Y-115187295D01*
X244091666Y-115187295D02*
X244015475Y-115225390D01*
X244015475Y-115225390D02*
X243977380Y-115263485D01*
X243977380Y-115263485D02*
X243939285Y-115339676D01*
X243939285Y-115339676D02*
X243939285Y-115415866D01*
X243939285Y-115415866D02*
X243977380Y-115530152D01*
X243977380Y-115530152D02*
X244434523Y-115987295D01*
X244434523Y-115987295D02*
X243939285Y-115987295D01*
X243215475Y-115187295D02*
X243596427Y-115187295D01*
X243596427Y-115187295D02*
X243634523Y-115568247D01*
X243634523Y-115568247D02*
X243596427Y-115530152D01*
X243596427Y-115530152D02*
X243520237Y-115492057D01*
X243520237Y-115492057D02*
X243329761Y-115492057D01*
X243329761Y-115492057D02*
X243253570Y-115530152D01*
X243253570Y-115530152D02*
X243215475Y-115568247D01*
X243215475Y-115568247D02*
X243177380Y-115644438D01*
X243177380Y-115644438D02*
X243177380Y-115834914D01*
X243177380Y-115834914D02*
X243215475Y-115911104D01*
X243215475Y-115911104D02*
X243253570Y-115949200D01*
X243253570Y-115949200D02*
X243329761Y-115987295D01*
X243329761Y-115987295D02*
X243520237Y-115987295D01*
X243520237Y-115987295D02*
X243596427Y-115949200D01*
X243596427Y-115949200D02*
X243634523Y-115911104D01*
X246072619Y-134949200D02*
X245958333Y-134987295D01*
X245958333Y-134987295D02*
X245767857Y-134987295D01*
X245767857Y-134987295D02*
X245691666Y-134949200D01*
X245691666Y-134949200D02*
X245653571Y-134911104D01*
X245653571Y-134911104D02*
X245615476Y-134834914D01*
X245615476Y-134834914D02*
X245615476Y-134758723D01*
X245615476Y-134758723D02*
X245653571Y-134682533D01*
X245653571Y-134682533D02*
X245691666Y-134644438D01*
X245691666Y-134644438D02*
X245767857Y-134606342D01*
X245767857Y-134606342D02*
X245920238Y-134568247D01*
X245920238Y-134568247D02*
X245996428Y-134530152D01*
X245996428Y-134530152D02*
X246034523Y-134492057D01*
X246034523Y-134492057D02*
X246072619Y-134415866D01*
X246072619Y-134415866D02*
X246072619Y-134339676D01*
X246072619Y-134339676D02*
X246034523Y-134263485D01*
X246034523Y-134263485D02*
X245996428Y-134225390D01*
X245996428Y-134225390D02*
X245920238Y-134187295D01*
X245920238Y-134187295D02*
X245729761Y-134187295D01*
X245729761Y-134187295D02*
X245615476Y-134225390D01*
X245348809Y-134187295D02*
X245158333Y-134987295D01*
X245158333Y-134987295D02*
X245005952Y-134415866D01*
X245005952Y-134415866D02*
X244853571Y-134987295D01*
X244853571Y-134987295D02*
X244663095Y-134187295D01*
X244434523Y-134187295D02*
X243939285Y-134187295D01*
X243939285Y-134187295D02*
X244205951Y-134492057D01*
X244205951Y-134492057D02*
X244091666Y-134492057D01*
X244091666Y-134492057D02*
X244015475Y-134530152D01*
X244015475Y-134530152D02*
X243977380Y-134568247D01*
X243977380Y-134568247D02*
X243939285Y-134644438D01*
X243939285Y-134644438D02*
X243939285Y-134834914D01*
X243939285Y-134834914D02*
X243977380Y-134911104D01*
X243977380Y-134911104D02*
X244015475Y-134949200D01*
X244015475Y-134949200D02*
X244091666Y-134987295D01*
X244091666Y-134987295D02*
X244320237Y-134987295D01*
X244320237Y-134987295D02*
X244396428Y-134949200D01*
X244396428Y-134949200D02*
X244434523Y-134911104D01*
X243672618Y-134187295D02*
X243139284Y-134187295D01*
X243139284Y-134187295D02*
X243482142Y-134987295D01*
X170072619Y-115949200D02*
X169958333Y-115987295D01*
X169958333Y-115987295D02*
X169767857Y-115987295D01*
X169767857Y-115987295D02*
X169691666Y-115949200D01*
X169691666Y-115949200D02*
X169653571Y-115911104D01*
X169653571Y-115911104D02*
X169615476Y-115834914D01*
X169615476Y-115834914D02*
X169615476Y-115758723D01*
X169615476Y-115758723D02*
X169653571Y-115682533D01*
X169653571Y-115682533D02*
X169691666Y-115644438D01*
X169691666Y-115644438D02*
X169767857Y-115606342D01*
X169767857Y-115606342D02*
X169920238Y-115568247D01*
X169920238Y-115568247D02*
X169996428Y-115530152D01*
X169996428Y-115530152D02*
X170034523Y-115492057D01*
X170034523Y-115492057D02*
X170072619Y-115415866D01*
X170072619Y-115415866D02*
X170072619Y-115339676D01*
X170072619Y-115339676D02*
X170034523Y-115263485D01*
X170034523Y-115263485D02*
X169996428Y-115225390D01*
X169996428Y-115225390D02*
X169920238Y-115187295D01*
X169920238Y-115187295D02*
X169729761Y-115187295D01*
X169729761Y-115187295D02*
X169615476Y-115225390D01*
X169348809Y-115187295D02*
X169158333Y-115987295D01*
X169158333Y-115987295D02*
X169005952Y-115415866D01*
X169005952Y-115415866D02*
X168853571Y-115987295D01*
X168853571Y-115987295D02*
X168663095Y-115187295D01*
X168396428Y-115263485D02*
X168358332Y-115225390D01*
X168358332Y-115225390D02*
X168282142Y-115187295D01*
X168282142Y-115187295D02*
X168091666Y-115187295D01*
X168091666Y-115187295D02*
X168015475Y-115225390D01*
X168015475Y-115225390D02*
X167977380Y-115263485D01*
X167977380Y-115263485D02*
X167939285Y-115339676D01*
X167939285Y-115339676D02*
X167939285Y-115415866D01*
X167939285Y-115415866D02*
X167977380Y-115530152D01*
X167977380Y-115530152D02*
X168434523Y-115987295D01*
X168434523Y-115987295D02*
X167939285Y-115987295D01*
X167177380Y-115987295D02*
X167634523Y-115987295D01*
X167405951Y-115987295D02*
X167405951Y-115187295D01*
X167405951Y-115187295D02*
X167482142Y-115301580D01*
X167482142Y-115301580D02*
X167558332Y-115377771D01*
X167558332Y-115377771D02*
X167634523Y-115415866D01*
X208072619Y-96949200D02*
X207958333Y-96987295D01*
X207958333Y-96987295D02*
X207767857Y-96987295D01*
X207767857Y-96987295D02*
X207691666Y-96949200D01*
X207691666Y-96949200D02*
X207653571Y-96911104D01*
X207653571Y-96911104D02*
X207615476Y-96834914D01*
X207615476Y-96834914D02*
X207615476Y-96758723D01*
X207615476Y-96758723D02*
X207653571Y-96682533D01*
X207653571Y-96682533D02*
X207691666Y-96644438D01*
X207691666Y-96644438D02*
X207767857Y-96606342D01*
X207767857Y-96606342D02*
X207920238Y-96568247D01*
X207920238Y-96568247D02*
X207996428Y-96530152D01*
X207996428Y-96530152D02*
X208034523Y-96492057D01*
X208034523Y-96492057D02*
X208072619Y-96415866D01*
X208072619Y-96415866D02*
X208072619Y-96339676D01*
X208072619Y-96339676D02*
X208034523Y-96263485D01*
X208034523Y-96263485D02*
X207996428Y-96225390D01*
X207996428Y-96225390D02*
X207920238Y-96187295D01*
X207920238Y-96187295D02*
X207729761Y-96187295D01*
X207729761Y-96187295D02*
X207615476Y-96225390D01*
X207348809Y-96187295D02*
X207158333Y-96987295D01*
X207158333Y-96987295D02*
X207005952Y-96415866D01*
X207005952Y-96415866D02*
X206853571Y-96987295D01*
X206853571Y-96987295D02*
X206663095Y-96187295D01*
X205939285Y-96987295D02*
X206396428Y-96987295D01*
X206167856Y-96987295D02*
X206167856Y-96187295D01*
X206167856Y-96187295D02*
X206244047Y-96301580D01*
X206244047Y-96301580D02*
X206320237Y-96377771D01*
X206320237Y-96377771D02*
X206396428Y-96415866D01*
X205444046Y-96187295D02*
X205367856Y-96187295D01*
X205367856Y-96187295D02*
X205291665Y-96225390D01*
X205291665Y-96225390D02*
X205253570Y-96263485D01*
X205253570Y-96263485D02*
X205215475Y-96339676D01*
X205215475Y-96339676D02*
X205177380Y-96492057D01*
X205177380Y-96492057D02*
X205177380Y-96682533D01*
X205177380Y-96682533D02*
X205215475Y-96834914D01*
X205215475Y-96834914D02*
X205253570Y-96911104D01*
X205253570Y-96911104D02*
X205291665Y-96949200D01*
X205291665Y-96949200D02*
X205367856Y-96987295D01*
X205367856Y-96987295D02*
X205444046Y-96987295D01*
X205444046Y-96987295D02*
X205520237Y-96949200D01*
X205520237Y-96949200D02*
X205558332Y-96911104D01*
X205558332Y-96911104D02*
X205596427Y-96834914D01*
X205596427Y-96834914D02*
X205634523Y-96682533D01*
X205634523Y-96682533D02*
X205634523Y-96492057D01*
X205634523Y-96492057D02*
X205596427Y-96339676D01*
X205596427Y-96339676D02*
X205558332Y-96263485D01*
X205558332Y-96263485D02*
X205520237Y-96225390D01*
X205520237Y-96225390D02*
X205444046Y-96187295D01*
X227072619Y-96949200D02*
X226958333Y-96987295D01*
X226958333Y-96987295D02*
X226767857Y-96987295D01*
X226767857Y-96987295D02*
X226691666Y-96949200D01*
X226691666Y-96949200D02*
X226653571Y-96911104D01*
X226653571Y-96911104D02*
X226615476Y-96834914D01*
X226615476Y-96834914D02*
X226615476Y-96758723D01*
X226615476Y-96758723D02*
X226653571Y-96682533D01*
X226653571Y-96682533D02*
X226691666Y-96644438D01*
X226691666Y-96644438D02*
X226767857Y-96606342D01*
X226767857Y-96606342D02*
X226920238Y-96568247D01*
X226920238Y-96568247D02*
X226996428Y-96530152D01*
X226996428Y-96530152D02*
X227034523Y-96492057D01*
X227034523Y-96492057D02*
X227072619Y-96415866D01*
X227072619Y-96415866D02*
X227072619Y-96339676D01*
X227072619Y-96339676D02*
X227034523Y-96263485D01*
X227034523Y-96263485D02*
X226996428Y-96225390D01*
X226996428Y-96225390D02*
X226920238Y-96187295D01*
X226920238Y-96187295D02*
X226729761Y-96187295D01*
X226729761Y-96187295D02*
X226615476Y-96225390D01*
X226348809Y-96187295D02*
X226158333Y-96987295D01*
X226158333Y-96987295D02*
X226005952Y-96415866D01*
X226005952Y-96415866D02*
X225853571Y-96987295D01*
X225853571Y-96987295D02*
X225663095Y-96187295D01*
X224939285Y-96987295D02*
X225396428Y-96987295D01*
X225167856Y-96987295D02*
X225167856Y-96187295D01*
X225167856Y-96187295D02*
X225244047Y-96301580D01*
X225244047Y-96301580D02*
X225320237Y-96377771D01*
X225320237Y-96377771D02*
X225396428Y-96415866D01*
X224177380Y-96987295D02*
X224634523Y-96987295D01*
X224405951Y-96987295D02*
X224405951Y-96187295D01*
X224405951Y-96187295D02*
X224482142Y-96301580D01*
X224482142Y-96301580D02*
X224558332Y-96377771D01*
X224558332Y-96377771D02*
X224634523Y-96415866D01*
X151072619Y-115949200D02*
X150958333Y-115987295D01*
X150958333Y-115987295D02*
X150767857Y-115987295D01*
X150767857Y-115987295D02*
X150691666Y-115949200D01*
X150691666Y-115949200D02*
X150653571Y-115911104D01*
X150653571Y-115911104D02*
X150615476Y-115834914D01*
X150615476Y-115834914D02*
X150615476Y-115758723D01*
X150615476Y-115758723D02*
X150653571Y-115682533D01*
X150653571Y-115682533D02*
X150691666Y-115644438D01*
X150691666Y-115644438D02*
X150767857Y-115606342D01*
X150767857Y-115606342D02*
X150920238Y-115568247D01*
X150920238Y-115568247D02*
X150996428Y-115530152D01*
X150996428Y-115530152D02*
X151034523Y-115492057D01*
X151034523Y-115492057D02*
X151072619Y-115415866D01*
X151072619Y-115415866D02*
X151072619Y-115339676D01*
X151072619Y-115339676D02*
X151034523Y-115263485D01*
X151034523Y-115263485D02*
X150996428Y-115225390D01*
X150996428Y-115225390D02*
X150920238Y-115187295D01*
X150920238Y-115187295D02*
X150729761Y-115187295D01*
X150729761Y-115187295D02*
X150615476Y-115225390D01*
X150348809Y-115187295D02*
X150158333Y-115987295D01*
X150158333Y-115987295D02*
X150005952Y-115415866D01*
X150005952Y-115415866D02*
X149853571Y-115987295D01*
X149853571Y-115987295D02*
X149663095Y-115187295D01*
X149396428Y-115263485D02*
X149358332Y-115225390D01*
X149358332Y-115225390D02*
X149282142Y-115187295D01*
X149282142Y-115187295D02*
X149091666Y-115187295D01*
X149091666Y-115187295D02*
X149015475Y-115225390D01*
X149015475Y-115225390D02*
X148977380Y-115263485D01*
X148977380Y-115263485D02*
X148939285Y-115339676D01*
X148939285Y-115339676D02*
X148939285Y-115415866D01*
X148939285Y-115415866D02*
X148977380Y-115530152D01*
X148977380Y-115530152D02*
X149434523Y-115987295D01*
X149434523Y-115987295D02*
X148939285Y-115987295D01*
X148444046Y-115187295D02*
X148367856Y-115187295D01*
X148367856Y-115187295D02*
X148291665Y-115225390D01*
X148291665Y-115225390D02*
X148253570Y-115263485D01*
X148253570Y-115263485D02*
X148215475Y-115339676D01*
X148215475Y-115339676D02*
X148177380Y-115492057D01*
X148177380Y-115492057D02*
X148177380Y-115682533D01*
X148177380Y-115682533D02*
X148215475Y-115834914D01*
X148215475Y-115834914D02*
X148253570Y-115911104D01*
X148253570Y-115911104D02*
X148291665Y-115949200D01*
X148291665Y-115949200D02*
X148367856Y-115987295D01*
X148367856Y-115987295D02*
X148444046Y-115987295D01*
X148444046Y-115987295D02*
X148520237Y-115949200D01*
X148520237Y-115949200D02*
X148558332Y-115911104D01*
X148558332Y-115911104D02*
X148596427Y-115834914D01*
X148596427Y-115834914D02*
X148634523Y-115682533D01*
X148634523Y-115682533D02*
X148634523Y-115492057D01*
X148634523Y-115492057D02*
X148596427Y-115339676D01*
X148596427Y-115339676D02*
X148558332Y-115263485D01*
X148558332Y-115263485D02*
X148520237Y-115225390D01*
X148520237Y-115225390D02*
X148444046Y-115187295D01*
X170072619Y-134949200D02*
X169958333Y-134987295D01*
X169958333Y-134987295D02*
X169767857Y-134987295D01*
X169767857Y-134987295D02*
X169691666Y-134949200D01*
X169691666Y-134949200D02*
X169653571Y-134911104D01*
X169653571Y-134911104D02*
X169615476Y-134834914D01*
X169615476Y-134834914D02*
X169615476Y-134758723D01*
X169615476Y-134758723D02*
X169653571Y-134682533D01*
X169653571Y-134682533D02*
X169691666Y-134644438D01*
X169691666Y-134644438D02*
X169767857Y-134606342D01*
X169767857Y-134606342D02*
X169920238Y-134568247D01*
X169920238Y-134568247D02*
X169996428Y-134530152D01*
X169996428Y-134530152D02*
X170034523Y-134492057D01*
X170034523Y-134492057D02*
X170072619Y-134415866D01*
X170072619Y-134415866D02*
X170072619Y-134339676D01*
X170072619Y-134339676D02*
X170034523Y-134263485D01*
X170034523Y-134263485D02*
X169996428Y-134225390D01*
X169996428Y-134225390D02*
X169920238Y-134187295D01*
X169920238Y-134187295D02*
X169729761Y-134187295D01*
X169729761Y-134187295D02*
X169615476Y-134225390D01*
X169348809Y-134187295D02*
X169158333Y-134987295D01*
X169158333Y-134987295D02*
X169005952Y-134415866D01*
X169005952Y-134415866D02*
X168853571Y-134987295D01*
X168853571Y-134987295D02*
X168663095Y-134187295D01*
X168434523Y-134187295D02*
X167939285Y-134187295D01*
X167939285Y-134187295D02*
X168205951Y-134492057D01*
X168205951Y-134492057D02*
X168091666Y-134492057D01*
X168091666Y-134492057D02*
X168015475Y-134530152D01*
X168015475Y-134530152D02*
X167977380Y-134568247D01*
X167977380Y-134568247D02*
X167939285Y-134644438D01*
X167939285Y-134644438D02*
X167939285Y-134834914D01*
X167939285Y-134834914D02*
X167977380Y-134911104D01*
X167977380Y-134911104D02*
X168015475Y-134949200D01*
X168015475Y-134949200D02*
X168091666Y-134987295D01*
X168091666Y-134987295D02*
X168320237Y-134987295D01*
X168320237Y-134987295D02*
X168396428Y-134949200D01*
X168396428Y-134949200D02*
X168434523Y-134911104D01*
X167253570Y-134453961D02*
X167253570Y-134987295D01*
X167444046Y-134149200D02*
X167634523Y-134720628D01*
X167634523Y-134720628D02*
X167139284Y-134720628D01*
X74691667Y-96949200D02*
X74577381Y-96987295D01*
X74577381Y-96987295D02*
X74386905Y-96987295D01*
X74386905Y-96987295D02*
X74310714Y-96949200D01*
X74310714Y-96949200D02*
X74272619Y-96911104D01*
X74272619Y-96911104D02*
X74234524Y-96834914D01*
X74234524Y-96834914D02*
X74234524Y-96758723D01*
X74234524Y-96758723D02*
X74272619Y-96682533D01*
X74272619Y-96682533D02*
X74310714Y-96644438D01*
X74310714Y-96644438D02*
X74386905Y-96606342D01*
X74386905Y-96606342D02*
X74539286Y-96568247D01*
X74539286Y-96568247D02*
X74615476Y-96530152D01*
X74615476Y-96530152D02*
X74653571Y-96492057D01*
X74653571Y-96492057D02*
X74691667Y-96415866D01*
X74691667Y-96415866D02*
X74691667Y-96339676D01*
X74691667Y-96339676D02*
X74653571Y-96263485D01*
X74653571Y-96263485D02*
X74615476Y-96225390D01*
X74615476Y-96225390D02*
X74539286Y-96187295D01*
X74539286Y-96187295D02*
X74348809Y-96187295D01*
X74348809Y-96187295D02*
X74234524Y-96225390D01*
X73967857Y-96187295D02*
X73777381Y-96987295D01*
X73777381Y-96987295D02*
X73625000Y-96415866D01*
X73625000Y-96415866D02*
X73472619Y-96987295D01*
X73472619Y-96987295D02*
X73282143Y-96187295D01*
X73053571Y-96187295D02*
X72558333Y-96187295D01*
X72558333Y-96187295D02*
X72824999Y-96492057D01*
X72824999Y-96492057D02*
X72710714Y-96492057D01*
X72710714Y-96492057D02*
X72634523Y-96530152D01*
X72634523Y-96530152D02*
X72596428Y-96568247D01*
X72596428Y-96568247D02*
X72558333Y-96644438D01*
X72558333Y-96644438D02*
X72558333Y-96834914D01*
X72558333Y-96834914D02*
X72596428Y-96911104D01*
X72596428Y-96911104D02*
X72634523Y-96949200D01*
X72634523Y-96949200D02*
X72710714Y-96987295D01*
X72710714Y-96987295D02*
X72939285Y-96987295D01*
X72939285Y-96987295D02*
X73015476Y-96949200D01*
X73015476Y-96949200D02*
X73053571Y-96911104D01*
X227072619Y-134949200D02*
X226958333Y-134987295D01*
X226958333Y-134987295D02*
X226767857Y-134987295D01*
X226767857Y-134987295D02*
X226691666Y-134949200D01*
X226691666Y-134949200D02*
X226653571Y-134911104D01*
X226653571Y-134911104D02*
X226615476Y-134834914D01*
X226615476Y-134834914D02*
X226615476Y-134758723D01*
X226615476Y-134758723D02*
X226653571Y-134682533D01*
X226653571Y-134682533D02*
X226691666Y-134644438D01*
X226691666Y-134644438D02*
X226767857Y-134606342D01*
X226767857Y-134606342D02*
X226920238Y-134568247D01*
X226920238Y-134568247D02*
X226996428Y-134530152D01*
X226996428Y-134530152D02*
X227034523Y-134492057D01*
X227034523Y-134492057D02*
X227072619Y-134415866D01*
X227072619Y-134415866D02*
X227072619Y-134339676D01*
X227072619Y-134339676D02*
X227034523Y-134263485D01*
X227034523Y-134263485D02*
X226996428Y-134225390D01*
X226996428Y-134225390D02*
X226920238Y-134187295D01*
X226920238Y-134187295D02*
X226729761Y-134187295D01*
X226729761Y-134187295D02*
X226615476Y-134225390D01*
X226348809Y-134187295D02*
X226158333Y-134987295D01*
X226158333Y-134987295D02*
X226005952Y-134415866D01*
X226005952Y-134415866D02*
X225853571Y-134987295D01*
X225853571Y-134987295D02*
X225663095Y-134187295D01*
X225434523Y-134187295D02*
X224939285Y-134187295D01*
X224939285Y-134187295D02*
X225205951Y-134492057D01*
X225205951Y-134492057D02*
X225091666Y-134492057D01*
X225091666Y-134492057D02*
X225015475Y-134530152D01*
X225015475Y-134530152D02*
X224977380Y-134568247D01*
X224977380Y-134568247D02*
X224939285Y-134644438D01*
X224939285Y-134644438D02*
X224939285Y-134834914D01*
X224939285Y-134834914D02*
X224977380Y-134911104D01*
X224977380Y-134911104D02*
X225015475Y-134949200D01*
X225015475Y-134949200D02*
X225091666Y-134987295D01*
X225091666Y-134987295D02*
X225320237Y-134987295D01*
X225320237Y-134987295D02*
X225396428Y-134949200D01*
X225396428Y-134949200D02*
X225434523Y-134911104D01*
X224253570Y-134187295D02*
X224405951Y-134187295D01*
X224405951Y-134187295D02*
X224482142Y-134225390D01*
X224482142Y-134225390D02*
X224520237Y-134263485D01*
X224520237Y-134263485D02*
X224596427Y-134377771D01*
X224596427Y-134377771D02*
X224634523Y-134530152D01*
X224634523Y-134530152D02*
X224634523Y-134834914D01*
X224634523Y-134834914D02*
X224596427Y-134911104D01*
X224596427Y-134911104D02*
X224558332Y-134949200D01*
X224558332Y-134949200D02*
X224482142Y-134987295D01*
X224482142Y-134987295D02*
X224329761Y-134987295D01*
X224329761Y-134987295D02*
X224253570Y-134949200D01*
X224253570Y-134949200D02*
X224215475Y-134911104D01*
X224215475Y-134911104D02*
X224177380Y-134834914D01*
X224177380Y-134834914D02*
X224177380Y-134644438D01*
X224177380Y-134644438D02*
X224215475Y-134568247D01*
X224215475Y-134568247D02*
X224253570Y-134530152D01*
X224253570Y-134530152D02*
X224329761Y-134492057D01*
X224329761Y-134492057D02*
X224482142Y-134492057D01*
X224482142Y-134492057D02*
X224558332Y-134530152D01*
X224558332Y-134530152D02*
X224596427Y-134568247D01*
X224596427Y-134568247D02*
X224634523Y-134644438D01*
X93691667Y-96949200D02*
X93577381Y-96987295D01*
X93577381Y-96987295D02*
X93386905Y-96987295D01*
X93386905Y-96987295D02*
X93310714Y-96949200D01*
X93310714Y-96949200D02*
X93272619Y-96911104D01*
X93272619Y-96911104D02*
X93234524Y-96834914D01*
X93234524Y-96834914D02*
X93234524Y-96758723D01*
X93234524Y-96758723D02*
X93272619Y-96682533D01*
X93272619Y-96682533D02*
X93310714Y-96644438D01*
X93310714Y-96644438D02*
X93386905Y-96606342D01*
X93386905Y-96606342D02*
X93539286Y-96568247D01*
X93539286Y-96568247D02*
X93615476Y-96530152D01*
X93615476Y-96530152D02*
X93653571Y-96492057D01*
X93653571Y-96492057D02*
X93691667Y-96415866D01*
X93691667Y-96415866D02*
X93691667Y-96339676D01*
X93691667Y-96339676D02*
X93653571Y-96263485D01*
X93653571Y-96263485D02*
X93615476Y-96225390D01*
X93615476Y-96225390D02*
X93539286Y-96187295D01*
X93539286Y-96187295D02*
X93348809Y-96187295D01*
X93348809Y-96187295D02*
X93234524Y-96225390D01*
X92967857Y-96187295D02*
X92777381Y-96987295D01*
X92777381Y-96987295D02*
X92625000Y-96415866D01*
X92625000Y-96415866D02*
X92472619Y-96987295D01*
X92472619Y-96987295D02*
X92282143Y-96187295D01*
X91634523Y-96453961D02*
X91634523Y-96987295D01*
X91824999Y-96149200D02*
X92015476Y-96720628D01*
X92015476Y-96720628D02*
X91520237Y-96720628D01*
X113072619Y-134949200D02*
X112958333Y-134987295D01*
X112958333Y-134987295D02*
X112767857Y-134987295D01*
X112767857Y-134987295D02*
X112691666Y-134949200D01*
X112691666Y-134949200D02*
X112653571Y-134911104D01*
X112653571Y-134911104D02*
X112615476Y-134834914D01*
X112615476Y-134834914D02*
X112615476Y-134758723D01*
X112615476Y-134758723D02*
X112653571Y-134682533D01*
X112653571Y-134682533D02*
X112691666Y-134644438D01*
X112691666Y-134644438D02*
X112767857Y-134606342D01*
X112767857Y-134606342D02*
X112920238Y-134568247D01*
X112920238Y-134568247D02*
X112996428Y-134530152D01*
X112996428Y-134530152D02*
X113034523Y-134492057D01*
X113034523Y-134492057D02*
X113072619Y-134415866D01*
X113072619Y-134415866D02*
X113072619Y-134339676D01*
X113072619Y-134339676D02*
X113034523Y-134263485D01*
X113034523Y-134263485D02*
X112996428Y-134225390D01*
X112996428Y-134225390D02*
X112920238Y-134187295D01*
X112920238Y-134187295D02*
X112729761Y-134187295D01*
X112729761Y-134187295D02*
X112615476Y-134225390D01*
X112348809Y-134187295D02*
X112158333Y-134987295D01*
X112158333Y-134987295D02*
X112005952Y-134415866D01*
X112005952Y-134415866D02*
X111853571Y-134987295D01*
X111853571Y-134987295D02*
X111663095Y-134187295D01*
X111434523Y-134187295D02*
X110939285Y-134187295D01*
X110939285Y-134187295D02*
X111205951Y-134492057D01*
X111205951Y-134492057D02*
X111091666Y-134492057D01*
X111091666Y-134492057D02*
X111015475Y-134530152D01*
X111015475Y-134530152D02*
X110977380Y-134568247D01*
X110977380Y-134568247D02*
X110939285Y-134644438D01*
X110939285Y-134644438D02*
X110939285Y-134834914D01*
X110939285Y-134834914D02*
X110977380Y-134911104D01*
X110977380Y-134911104D02*
X111015475Y-134949200D01*
X111015475Y-134949200D02*
X111091666Y-134987295D01*
X111091666Y-134987295D02*
X111320237Y-134987295D01*
X111320237Y-134987295D02*
X111396428Y-134949200D01*
X111396428Y-134949200D02*
X111434523Y-134911104D01*
X110177380Y-134987295D02*
X110634523Y-134987295D01*
X110405951Y-134987295D02*
X110405951Y-134187295D01*
X110405951Y-134187295D02*
X110482142Y-134301580D01*
X110482142Y-134301580D02*
X110558332Y-134377771D01*
X110558332Y-134377771D02*
X110634523Y-134415866D01*
X265072619Y-115949200D02*
X264958333Y-115987295D01*
X264958333Y-115987295D02*
X264767857Y-115987295D01*
X264767857Y-115987295D02*
X264691666Y-115949200D01*
X264691666Y-115949200D02*
X264653571Y-115911104D01*
X264653571Y-115911104D02*
X264615476Y-115834914D01*
X264615476Y-115834914D02*
X264615476Y-115758723D01*
X264615476Y-115758723D02*
X264653571Y-115682533D01*
X264653571Y-115682533D02*
X264691666Y-115644438D01*
X264691666Y-115644438D02*
X264767857Y-115606342D01*
X264767857Y-115606342D02*
X264920238Y-115568247D01*
X264920238Y-115568247D02*
X264996428Y-115530152D01*
X264996428Y-115530152D02*
X265034523Y-115492057D01*
X265034523Y-115492057D02*
X265072619Y-115415866D01*
X265072619Y-115415866D02*
X265072619Y-115339676D01*
X265072619Y-115339676D02*
X265034523Y-115263485D01*
X265034523Y-115263485D02*
X264996428Y-115225390D01*
X264996428Y-115225390D02*
X264920238Y-115187295D01*
X264920238Y-115187295D02*
X264729761Y-115187295D01*
X264729761Y-115187295D02*
X264615476Y-115225390D01*
X264348809Y-115187295D02*
X264158333Y-115987295D01*
X264158333Y-115987295D02*
X264005952Y-115415866D01*
X264005952Y-115415866D02*
X263853571Y-115987295D01*
X263853571Y-115987295D02*
X263663095Y-115187295D01*
X263396428Y-115263485D02*
X263358332Y-115225390D01*
X263358332Y-115225390D02*
X263282142Y-115187295D01*
X263282142Y-115187295D02*
X263091666Y-115187295D01*
X263091666Y-115187295D02*
X263015475Y-115225390D01*
X263015475Y-115225390D02*
X262977380Y-115263485D01*
X262977380Y-115263485D02*
X262939285Y-115339676D01*
X262939285Y-115339676D02*
X262939285Y-115415866D01*
X262939285Y-115415866D02*
X262977380Y-115530152D01*
X262977380Y-115530152D02*
X263434523Y-115987295D01*
X263434523Y-115987295D02*
X262939285Y-115987295D01*
X262253570Y-115187295D02*
X262405951Y-115187295D01*
X262405951Y-115187295D02*
X262482142Y-115225390D01*
X262482142Y-115225390D02*
X262520237Y-115263485D01*
X262520237Y-115263485D02*
X262596427Y-115377771D01*
X262596427Y-115377771D02*
X262634523Y-115530152D01*
X262634523Y-115530152D02*
X262634523Y-115834914D01*
X262634523Y-115834914D02*
X262596427Y-115911104D01*
X262596427Y-115911104D02*
X262558332Y-115949200D01*
X262558332Y-115949200D02*
X262482142Y-115987295D01*
X262482142Y-115987295D02*
X262329761Y-115987295D01*
X262329761Y-115987295D02*
X262253570Y-115949200D01*
X262253570Y-115949200D02*
X262215475Y-115911104D01*
X262215475Y-115911104D02*
X262177380Y-115834914D01*
X262177380Y-115834914D02*
X262177380Y-115644438D01*
X262177380Y-115644438D02*
X262215475Y-115568247D01*
X262215475Y-115568247D02*
X262253570Y-115530152D01*
X262253570Y-115530152D02*
X262329761Y-115492057D01*
X262329761Y-115492057D02*
X262482142Y-115492057D01*
X262482142Y-115492057D02*
X262558332Y-115530152D01*
X262558332Y-115530152D02*
X262596427Y-115568247D01*
X262596427Y-115568247D02*
X262634523Y-115644438D01*
X132072619Y-153949200D02*
X131958333Y-153987295D01*
X131958333Y-153987295D02*
X131767857Y-153987295D01*
X131767857Y-153987295D02*
X131691666Y-153949200D01*
X131691666Y-153949200D02*
X131653571Y-153911104D01*
X131653571Y-153911104D02*
X131615476Y-153834914D01*
X131615476Y-153834914D02*
X131615476Y-153758723D01*
X131615476Y-153758723D02*
X131653571Y-153682533D01*
X131653571Y-153682533D02*
X131691666Y-153644438D01*
X131691666Y-153644438D02*
X131767857Y-153606342D01*
X131767857Y-153606342D02*
X131920238Y-153568247D01*
X131920238Y-153568247D02*
X131996428Y-153530152D01*
X131996428Y-153530152D02*
X132034523Y-153492057D01*
X132034523Y-153492057D02*
X132072619Y-153415866D01*
X132072619Y-153415866D02*
X132072619Y-153339676D01*
X132072619Y-153339676D02*
X132034523Y-153263485D01*
X132034523Y-153263485D02*
X131996428Y-153225390D01*
X131996428Y-153225390D02*
X131920238Y-153187295D01*
X131920238Y-153187295D02*
X131729761Y-153187295D01*
X131729761Y-153187295D02*
X131615476Y-153225390D01*
X131348809Y-153187295D02*
X131158333Y-153987295D01*
X131158333Y-153987295D02*
X131005952Y-153415866D01*
X131005952Y-153415866D02*
X130853571Y-153987295D01*
X130853571Y-153987295D02*
X130663095Y-153187295D01*
X130015475Y-153453961D02*
X130015475Y-153987295D01*
X130205951Y-153149200D02*
X130396428Y-153720628D01*
X130396428Y-153720628D02*
X129901189Y-153720628D01*
X129177380Y-153987295D02*
X129634523Y-153987295D01*
X129405951Y-153987295D02*
X129405951Y-153187295D01*
X129405951Y-153187295D02*
X129482142Y-153301580D01*
X129482142Y-153301580D02*
X129558332Y-153377771D01*
X129558332Y-153377771D02*
X129634523Y-153415866D01*
X56072619Y-134949200D02*
X55958333Y-134987295D01*
X55958333Y-134987295D02*
X55767857Y-134987295D01*
X55767857Y-134987295D02*
X55691666Y-134949200D01*
X55691666Y-134949200D02*
X55653571Y-134911104D01*
X55653571Y-134911104D02*
X55615476Y-134834914D01*
X55615476Y-134834914D02*
X55615476Y-134758723D01*
X55615476Y-134758723D02*
X55653571Y-134682533D01*
X55653571Y-134682533D02*
X55691666Y-134644438D01*
X55691666Y-134644438D02*
X55767857Y-134606342D01*
X55767857Y-134606342D02*
X55920238Y-134568247D01*
X55920238Y-134568247D02*
X55996428Y-134530152D01*
X55996428Y-134530152D02*
X56034523Y-134492057D01*
X56034523Y-134492057D02*
X56072619Y-134415866D01*
X56072619Y-134415866D02*
X56072619Y-134339676D01*
X56072619Y-134339676D02*
X56034523Y-134263485D01*
X56034523Y-134263485D02*
X55996428Y-134225390D01*
X55996428Y-134225390D02*
X55920238Y-134187295D01*
X55920238Y-134187295D02*
X55729761Y-134187295D01*
X55729761Y-134187295D02*
X55615476Y-134225390D01*
X55348809Y-134187295D02*
X55158333Y-134987295D01*
X55158333Y-134987295D02*
X55005952Y-134415866D01*
X55005952Y-134415866D02*
X54853571Y-134987295D01*
X54853571Y-134987295D02*
X54663095Y-134187295D01*
X54396428Y-134263485D02*
X54358332Y-134225390D01*
X54358332Y-134225390D02*
X54282142Y-134187295D01*
X54282142Y-134187295D02*
X54091666Y-134187295D01*
X54091666Y-134187295D02*
X54015475Y-134225390D01*
X54015475Y-134225390D02*
X53977380Y-134263485D01*
X53977380Y-134263485D02*
X53939285Y-134339676D01*
X53939285Y-134339676D02*
X53939285Y-134415866D01*
X53939285Y-134415866D02*
X53977380Y-134530152D01*
X53977380Y-134530152D02*
X54434523Y-134987295D01*
X54434523Y-134987295D02*
X53939285Y-134987295D01*
X53482142Y-134530152D02*
X53558332Y-134492057D01*
X53558332Y-134492057D02*
X53596427Y-134453961D01*
X53596427Y-134453961D02*
X53634523Y-134377771D01*
X53634523Y-134377771D02*
X53634523Y-134339676D01*
X53634523Y-134339676D02*
X53596427Y-134263485D01*
X53596427Y-134263485D02*
X53558332Y-134225390D01*
X53558332Y-134225390D02*
X53482142Y-134187295D01*
X53482142Y-134187295D02*
X53329761Y-134187295D01*
X53329761Y-134187295D02*
X53253570Y-134225390D01*
X53253570Y-134225390D02*
X53215475Y-134263485D01*
X53215475Y-134263485D02*
X53177380Y-134339676D01*
X53177380Y-134339676D02*
X53177380Y-134377771D01*
X53177380Y-134377771D02*
X53215475Y-134453961D01*
X53215475Y-134453961D02*
X53253570Y-134492057D01*
X53253570Y-134492057D02*
X53329761Y-134530152D01*
X53329761Y-134530152D02*
X53482142Y-134530152D01*
X53482142Y-134530152D02*
X53558332Y-134568247D01*
X53558332Y-134568247D02*
X53596427Y-134606342D01*
X53596427Y-134606342D02*
X53634523Y-134682533D01*
X53634523Y-134682533D02*
X53634523Y-134834914D01*
X53634523Y-134834914D02*
X53596427Y-134911104D01*
X53596427Y-134911104D02*
X53558332Y-134949200D01*
X53558332Y-134949200D02*
X53482142Y-134987295D01*
X53482142Y-134987295D02*
X53329761Y-134987295D01*
X53329761Y-134987295D02*
X53253570Y-134949200D01*
X53253570Y-134949200D02*
X53215475Y-134911104D01*
X53215475Y-134911104D02*
X53177380Y-134834914D01*
X53177380Y-134834914D02*
X53177380Y-134682533D01*
X53177380Y-134682533D02*
X53215475Y-134606342D01*
X53215475Y-134606342D02*
X53253570Y-134568247D01*
X53253570Y-134568247D02*
X53329761Y-134530152D01*
X265072619Y-134949200D02*
X264958333Y-134987295D01*
X264958333Y-134987295D02*
X264767857Y-134987295D01*
X264767857Y-134987295D02*
X264691666Y-134949200D01*
X264691666Y-134949200D02*
X264653571Y-134911104D01*
X264653571Y-134911104D02*
X264615476Y-134834914D01*
X264615476Y-134834914D02*
X264615476Y-134758723D01*
X264615476Y-134758723D02*
X264653571Y-134682533D01*
X264653571Y-134682533D02*
X264691666Y-134644438D01*
X264691666Y-134644438D02*
X264767857Y-134606342D01*
X264767857Y-134606342D02*
X264920238Y-134568247D01*
X264920238Y-134568247D02*
X264996428Y-134530152D01*
X264996428Y-134530152D02*
X265034523Y-134492057D01*
X265034523Y-134492057D02*
X265072619Y-134415866D01*
X265072619Y-134415866D02*
X265072619Y-134339676D01*
X265072619Y-134339676D02*
X265034523Y-134263485D01*
X265034523Y-134263485D02*
X264996428Y-134225390D01*
X264996428Y-134225390D02*
X264920238Y-134187295D01*
X264920238Y-134187295D02*
X264729761Y-134187295D01*
X264729761Y-134187295D02*
X264615476Y-134225390D01*
X264348809Y-134187295D02*
X264158333Y-134987295D01*
X264158333Y-134987295D02*
X264005952Y-134415866D01*
X264005952Y-134415866D02*
X263853571Y-134987295D01*
X263853571Y-134987295D02*
X263663095Y-134187295D01*
X263434523Y-134187295D02*
X262939285Y-134187295D01*
X262939285Y-134187295D02*
X263205951Y-134492057D01*
X263205951Y-134492057D02*
X263091666Y-134492057D01*
X263091666Y-134492057D02*
X263015475Y-134530152D01*
X263015475Y-134530152D02*
X262977380Y-134568247D01*
X262977380Y-134568247D02*
X262939285Y-134644438D01*
X262939285Y-134644438D02*
X262939285Y-134834914D01*
X262939285Y-134834914D02*
X262977380Y-134911104D01*
X262977380Y-134911104D02*
X263015475Y-134949200D01*
X263015475Y-134949200D02*
X263091666Y-134987295D01*
X263091666Y-134987295D02*
X263320237Y-134987295D01*
X263320237Y-134987295D02*
X263396428Y-134949200D01*
X263396428Y-134949200D02*
X263434523Y-134911104D01*
X262482142Y-134530152D02*
X262558332Y-134492057D01*
X262558332Y-134492057D02*
X262596427Y-134453961D01*
X262596427Y-134453961D02*
X262634523Y-134377771D01*
X262634523Y-134377771D02*
X262634523Y-134339676D01*
X262634523Y-134339676D02*
X262596427Y-134263485D01*
X262596427Y-134263485D02*
X262558332Y-134225390D01*
X262558332Y-134225390D02*
X262482142Y-134187295D01*
X262482142Y-134187295D02*
X262329761Y-134187295D01*
X262329761Y-134187295D02*
X262253570Y-134225390D01*
X262253570Y-134225390D02*
X262215475Y-134263485D01*
X262215475Y-134263485D02*
X262177380Y-134339676D01*
X262177380Y-134339676D02*
X262177380Y-134377771D01*
X262177380Y-134377771D02*
X262215475Y-134453961D01*
X262215475Y-134453961D02*
X262253570Y-134492057D01*
X262253570Y-134492057D02*
X262329761Y-134530152D01*
X262329761Y-134530152D02*
X262482142Y-134530152D01*
X262482142Y-134530152D02*
X262558332Y-134568247D01*
X262558332Y-134568247D02*
X262596427Y-134606342D01*
X262596427Y-134606342D02*
X262634523Y-134682533D01*
X262634523Y-134682533D02*
X262634523Y-134834914D01*
X262634523Y-134834914D02*
X262596427Y-134911104D01*
X262596427Y-134911104D02*
X262558332Y-134949200D01*
X262558332Y-134949200D02*
X262482142Y-134987295D01*
X262482142Y-134987295D02*
X262329761Y-134987295D01*
X262329761Y-134987295D02*
X262253570Y-134949200D01*
X262253570Y-134949200D02*
X262215475Y-134911104D01*
X262215475Y-134911104D02*
X262177380Y-134834914D01*
X262177380Y-134834914D02*
X262177380Y-134682533D01*
X262177380Y-134682533D02*
X262215475Y-134606342D01*
X262215475Y-134606342D02*
X262253570Y-134568247D01*
X262253570Y-134568247D02*
X262329761Y-134530152D01*
X55691667Y-96949200D02*
X55577381Y-96987295D01*
X55577381Y-96987295D02*
X55386905Y-96987295D01*
X55386905Y-96987295D02*
X55310714Y-96949200D01*
X55310714Y-96949200D02*
X55272619Y-96911104D01*
X55272619Y-96911104D02*
X55234524Y-96834914D01*
X55234524Y-96834914D02*
X55234524Y-96758723D01*
X55234524Y-96758723D02*
X55272619Y-96682533D01*
X55272619Y-96682533D02*
X55310714Y-96644438D01*
X55310714Y-96644438D02*
X55386905Y-96606342D01*
X55386905Y-96606342D02*
X55539286Y-96568247D01*
X55539286Y-96568247D02*
X55615476Y-96530152D01*
X55615476Y-96530152D02*
X55653571Y-96492057D01*
X55653571Y-96492057D02*
X55691667Y-96415866D01*
X55691667Y-96415866D02*
X55691667Y-96339676D01*
X55691667Y-96339676D02*
X55653571Y-96263485D01*
X55653571Y-96263485D02*
X55615476Y-96225390D01*
X55615476Y-96225390D02*
X55539286Y-96187295D01*
X55539286Y-96187295D02*
X55348809Y-96187295D01*
X55348809Y-96187295D02*
X55234524Y-96225390D01*
X54967857Y-96187295D02*
X54777381Y-96987295D01*
X54777381Y-96987295D02*
X54625000Y-96415866D01*
X54625000Y-96415866D02*
X54472619Y-96987295D01*
X54472619Y-96987295D02*
X54282143Y-96187295D01*
X54015476Y-96263485D02*
X53977380Y-96225390D01*
X53977380Y-96225390D02*
X53901190Y-96187295D01*
X53901190Y-96187295D02*
X53710714Y-96187295D01*
X53710714Y-96187295D02*
X53634523Y-96225390D01*
X53634523Y-96225390D02*
X53596428Y-96263485D01*
X53596428Y-96263485D02*
X53558333Y-96339676D01*
X53558333Y-96339676D02*
X53558333Y-96415866D01*
X53558333Y-96415866D02*
X53596428Y-96530152D01*
X53596428Y-96530152D02*
X54053571Y-96987295D01*
X54053571Y-96987295D02*
X53558333Y-96987295D01*
X188691667Y-96949200D02*
X188577381Y-96987295D01*
X188577381Y-96987295D02*
X188386905Y-96987295D01*
X188386905Y-96987295D02*
X188310714Y-96949200D01*
X188310714Y-96949200D02*
X188272619Y-96911104D01*
X188272619Y-96911104D02*
X188234524Y-96834914D01*
X188234524Y-96834914D02*
X188234524Y-96758723D01*
X188234524Y-96758723D02*
X188272619Y-96682533D01*
X188272619Y-96682533D02*
X188310714Y-96644438D01*
X188310714Y-96644438D02*
X188386905Y-96606342D01*
X188386905Y-96606342D02*
X188539286Y-96568247D01*
X188539286Y-96568247D02*
X188615476Y-96530152D01*
X188615476Y-96530152D02*
X188653571Y-96492057D01*
X188653571Y-96492057D02*
X188691667Y-96415866D01*
X188691667Y-96415866D02*
X188691667Y-96339676D01*
X188691667Y-96339676D02*
X188653571Y-96263485D01*
X188653571Y-96263485D02*
X188615476Y-96225390D01*
X188615476Y-96225390D02*
X188539286Y-96187295D01*
X188539286Y-96187295D02*
X188348809Y-96187295D01*
X188348809Y-96187295D02*
X188234524Y-96225390D01*
X187967857Y-96187295D02*
X187777381Y-96987295D01*
X187777381Y-96987295D02*
X187625000Y-96415866D01*
X187625000Y-96415866D02*
X187472619Y-96987295D01*
X187472619Y-96987295D02*
X187282143Y-96187295D01*
X186939285Y-96987295D02*
X186786904Y-96987295D01*
X186786904Y-96987295D02*
X186710714Y-96949200D01*
X186710714Y-96949200D02*
X186672618Y-96911104D01*
X186672618Y-96911104D02*
X186596428Y-96796819D01*
X186596428Y-96796819D02*
X186558333Y-96644438D01*
X186558333Y-96644438D02*
X186558333Y-96339676D01*
X186558333Y-96339676D02*
X186596428Y-96263485D01*
X186596428Y-96263485D02*
X186634523Y-96225390D01*
X186634523Y-96225390D02*
X186710714Y-96187295D01*
X186710714Y-96187295D02*
X186863095Y-96187295D01*
X186863095Y-96187295D02*
X186939285Y-96225390D01*
X186939285Y-96225390D02*
X186977380Y-96263485D01*
X186977380Y-96263485D02*
X187015476Y-96339676D01*
X187015476Y-96339676D02*
X187015476Y-96530152D01*
X187015476Y-96530152D02*
X186977380Y-96606342D01*
X186977380Y-96606342D02*
X186939285Y-96644438D01*
X186939285Y-96644438D02*
X186863095Y-96682533D01*
X186863095Y-96682533D02*
X186710714Y-96682533D01*
X186710714Y-96682533D02*
X186634523Y-96644438D01*
X186634523Y-96644438D02*
X186596428Y-96606342D01*
X186596428Y-96606342D02*
X186558333Y-96530152D01*
X265072619Y-153949200D02*
X264958333Y-153987295D01*
X264958333Y-153987295D02*
X264767857Y-153987295D01*
X264767857Y-153987295D02*
X264691666Y-153949200D01*
X264691666Y-153949200D02*
X264653571Y-153911104D01*
X264653571Y-153911104D02*
X264615476Y-153834914D01*
X264615476Y-153834914D02*
X264615476Y-153758723D01*
X264615476Y-153758723D02*
X264653571Y-153682533D01*
X264653571Y-153682533D02*
X264691666Y-153644438D01*
X264691666Y-153644438D02*
X264767857Y-153606342D01*
X264767857Y-153606342D02*
X264920238Y-153568247D01*
X264920238Y-153568247D02*
X264996428Y-153530152D01*
X264996428Y-153530152D02*
X265034523Y-153492057D01*
X265034523Y-153492057D02*
X265072619Y-153415866D01*
X265072619Y-153415866D02*
X265072619Y-153339676D01*
X265072619Y-153339676D02*
X265034523Y-153263485D01*
X265034523Y-153263485D02*
X264996428Y-153225390D01*
X264996428Y-153225390D02*
X264920238Y-153187295D01*
X264920238Y-153187295D02*
X264729761Y-153187295D01*
X264729761Y-153187295D02*
X264615476Y-153225390D01*
X264348809Y-153187295D02*
X264158333Y-153987295D01*
X264158333Y-153987295D02*
X264005952Y-153415866D01*
X264005952Y-153415866D02*
X263853571Y-153987295D01*
X263853571Y-153987295D02*
X263663095Y-153187295D01*
X263015475Y-153453961D02*
X263015475Y-153987295D01*
X263205951Y-153149200D02*
X263396428Y-153720628D01*
X263396428Y-153720628D02*
X262901189Y-153720628D01*
X262253570Y-153453961D02*
X262253570Y-153987295D01*
X262444046Y-153149200D02*
X262634523Y-153720628D01*
X262634523Y-153720628D02*
X262139284Y-153720628D01*
X252834819Y-148410714D02*
X251834819Y-148410714D01*
X251834819Y-148410714D02*
X251834819Y-148648809D01*
X251834819Y-148648809D02*
X251882438Y-148791666D01*
X251882438Y-148791666D02*
X251977676Y-148886904D01*
X251977676Y-148886904D02*
X252072914Y-148934523D01*
X252072914Y-148934523D02*
X252263390Y-148982142D01*
X252263390Y-148982142D02*
X252406247Y-148982142D01*
X252406247Y-148982142D02*
X252596723Y-148934523D01*
X252596723Y-148934523D02*
X252691961Y-148886904D01*
X252691961Y-148886904D02*
X252787200Y-148791666D01*
X252787200Y-148791666D02*
X252834819Y-148648809D01*
X252834819Y-148648809D02*
X252834819Y-148410714D01*
X252168152Y-149839285D02*
X252834819Y-149839285D01*
X251787200Y-149601190D02*
X252501485Y-149363095D01*
X252501485Y-149363095D02*
X252501485Y-149982142D01*
X252168152Y-150791666D02*
X252834819Y-150791666D01*
X251787200Y-150553571D02*
X252501485Y-150315476D01*
X252501485Y-150315476D02*
X252501485Y-150934523D01*
X253154819Y-145553095D02*
X252154819Y-145553095D01*
X253154819Y-146124523D02*
X252583390Y-145695952D01*
X252154819Y-146124523D02*
X252726247Y-145553095D01*
X198339285Y-142699819D02*
X198339285Y-141699819D01*
X198339285Y-141699819D02*
X198101190Y-141699819D01*
X198101190Y-141699819D02*
X197958333Y-141747438D01*
X197958333Y-141747438D02*
X197863095Y-141842676D01*
X197863095Y-141842676D02*
X197815476Y-141937914D01*
X197815476Y-141937914D02*
X197767857Y-142128390D01*
X197767857Y-142128390D02*
X197767857Y-142271247D01*
X197767857Y-142271247D02*
X197815476Y-142461723D01*
X197815476Y-142461723D02*
X197863095Y-142556961D01*
X197863095Y-142556961D02*
X197958333Y-142652200D01*
X197958333Y-142652200D02*
X198101190Y-142699819D01*
X198101190Y-142699819D02*
X198339285Y-142699819D01*
X197434523Y-141699819D02*
X196815476Y-141699819D01*
X196815476Y-141699819D02*
X197148809Y-142080771D01*
X197148809Y-142080771D02*
X197005952Y-142080771D01*
X197005952Y-142080771D02*
X196910714Y-142128390D01*
X196910714Y-142128390D02*
X196863095Y-142176009D01*
X196863095Y-142176009D02*
X196815476Y-142271247D01*
X196815476Y-142271247D02*
X196815476Y-142509342D01*
X196815476Y-142509342D02*
X196863095Y-142604580D01*
X196863095Y-142604580D02*
X196910714Y-142652200D01*
X196910714Y-142652200D02*
X197005952Y-142699819D01*
X197005952Y-142699819D02*
X197291666Y-142699819D01*
X197291666Y-142699819D02*
X197386904Y-142652200D01*
X197386904Y-142652200D02*
X197434523Y-142604580D01*
X195910714Y-141699819D02*
X196386904Y-141699819D01*
X196386904Y-141699819D02*
X196434523Y-142176009D01*
X196434523Y-142176009D02*
X196386904Y-142128390D01*
X196386904Y-142128390D02*
X196291666Y-142080771D01*
X196291666Y-142080771D02*
X196053571Y-142080771D01*
X196053571Y-142080771D02*
X195958333Y-142128390D01*
X195958333Y-142128390D02*
X195910714Y-142176009D01*
X195910714Y-142176009D02*
X195863095Y-142271247D01*
X195863095Y-142271247D02*
X195863095Y-142509342D01*
X195863095Y-142509342D02*
X195910714Y-142604580D01*
X195910714Y-142604580D02*
X195958333Y-142652200D01*
X195958333Y-142652200D02*
X196053571Y-142699819D01*
X196053571Y-142699819D02*
X196291666Y-142699819D01*
X196291666Y-142699819D02*
X196386904Y-142652200D01*
X196386904Y-142652200D02*
X196434523Y-142604580D01*
X193576904Y-142379819D02*
X193576904Y-141379819D01*
X193005476Y-142379819D02*
X193434047Y-141808390D01*
X193005476Y-141379819D02*
X193576904Y-141951247D01*
X90988094Y-104699819D02*
X90988094Y-103699819D01*
X90988094Y-103699819D02*
X90749999Y-103699819D01*
X90749999Y-103699819D02*
X90607142Y-103747438D01*
X90607142Y-103747438D02*
X90511904Y-103842676D01*
X90511904Y-103842676D02*
X90464285Y-103937914D01*
X90464285Y-103937914D02*
X90416666Y-104128390D01*
X90416666Y-104128390D02*
X90416666Y-104271247D01*
X90416666Y-104271247D02*
X90464285Y-104461723D01*
X90464285Y-104461723D02*
X90511904Y-104556961D01*
X90511904Y-104556961D02*
X90607142Y-104652200D01*
X90607142Y-104652200D02*
X90749999Y-104699819D01*
X90749999Y-104699819D02*
X90988094Y-104699819D01*
X89559523Y-104033152D02*
X89559523Y-104699819D01*
X89797618Y-103652200D02*
X90035713Y-104366485D01*
X90035713Y-104366485D02*
X89416666Y-104366485D01*
X86701904Y-104379819D02*
X86701904Y-103379819D01*
X86130476Y-104379819D02*
X86559047Y-103808390D01*
X86130476Y-103379819D02*
X86701904Y-103951247D01*
X72464285Y-123699819D02*
X72464285Y-122699819D01*
X72464285Y-122699819D02*
X72226190Y-122699819D01*
X72226190Y-122699819D02*
X72083333Y-122747438D01*
X72083333Y-122747438D02*
X71988095Y-122842676D01*
X71988095Y-122842676D02*
X71940476Y-122937914D01*
X71940476Y-122937914D02*
X71892857Y-123128390D01*
X71892857Y-123128390D02*
X71892857Y-123271247D01*
X71892857Y-123271247D02*
X71940476Y-123461723D01*
X71940476Y-123461723D02*
X71988095Y-123556961D01*
X71988095Y-123556961D02*
X72083333Y-123652200D01*
X72083333Y-123652200D02*
X72226190Y-123699819D01*
X72226190Y-123699819D02*
X72464285Y-123699819D01*
X70940476Y-123699819D02*
X71511904Y-123699819D01*
X71226190Y-123699819D02*
X71226190Y-122699819D01*
X71226190Y-122699819D02*
X71321428Y-122842676D01*
X71321428Y-122842676D02*
X71416666Y-122937914D01*
X71416666Y-122937914D02*
X71511904Y-122985533D01*
X70083333Y-122699819D02*
X70273809Y-122699819D01*
X70273809Y-122699819D02*
X70369047Y-122747438D01*
X70369047Y-122747438D02*
X70416666Y-122795057D01*
X70416666Y-122795057D02*
X70511904Y-122937914D01*
X70511904Y-122937914D02*
X70559523Y-123128390D01*
X70559523Y-123128390D02*
X70559523Y-123509342D01*
X70559523Y-123509342D02*
X70511904Y-123604580D01*
X70511904Y-123604580D02*
X70464285Y-123652200D01*
X70464285Y-123652200D02*
X70369047Y-123699819D01*
X70369047Y-123699819D02*
X70178571Y-123699819D01*
X70178571Y-123699819D02*
X70083333Y-123652200D01*
X70083333Y-123652200D02*
X70035714Y-123604580D01*
X70035714Y-123604580D02*
X69988095Y-123509342D01*
X69988095Y-123509342D02*
X69988095Y-123271247D01*
X69988095Y-123271247D02*
X70035714Y-123176009D01*
X70035714Y-123176009D02*
X70083333Y-123128390D01*
X70083333Y-123128390D02*
X70178571Y-123080771D01*
X70178571Y-123080771D02*
X70369047Y-123080771D01*
X70369047Y-123080771D02*
X70464285Y-123128390D01*
X70464285Y-123128390D02*
X70511904Y-123176009D01*
X70511904Y-123176009D02*
X70559523Y-123271247D01*
X67701904Y-123379819D02*
X67701904Y-122379819D01*
X67130476Y-123379819D02*
X67559047Y-122808390D01*
X67130476Y-122379819D02*
X67701904Y-122951247D01*
X55363094Y-104699819D02*
X55363094Y-103699819D01*
X55363094Y-103699819D02*
X55124999Y-103699819D01*
X55124999Y-103699819D02*
X54982142Y-103747438D01*
X54982142Y-103747438D02*
X54886904Y-103842676D01*
X54886904Y-103842676D02*
X54839285Y-103937914D01*
X54839285Y-103937914D02*
X54791666Y-104128390D01*
X54791666Y-104128390D02*
X54791666Y-104271247D01*
X54791666Y-104271247D02*
X54839285Y-104461723D01*
X54839285Y-104461723D02*
X54886904Y-104556961D01*
X54886904Y-104556961D02*
X54982142Y-104652200D01*
X54982142Y-104652200D02*
X55124999Y-104699819D01*
X55124999Y-104699819D02*
X55363094Y-104699819D01*
X54410713Y-103795057D02*
X54363094Y-103747438D01*
X54363094Y-103747438D02*
X54267856Y-103699819D01*
X54267856Y-103699819D02*
X54029761Y-103699819D01*
X54029761Y-103699819D02*
X53934523Y-103747438D01*
X53934523Y-103747438D02*
X53886904Y-103795057D01*
X53886904Y-103795057D02*
X53839285Y-103890295D01*
X53839285Y-103890295D02*
X53839285Y-103985533D01*
X53839285Y-103985533D02*
X53886904Y-104128390D01*
X53886904Y-104128390D02*
X54458332Y-104699819D01*
X54458332Y-104699819D02*
X53839285Y-104699819D01*
X51076904Y-104379819D02*
X51076904Y-103379819D01*
X50505476Y-104379819D02*
X50934047Y-103808390D01*
X50505476Y-103379819D02*
X51076904Y-103951247D01*
X110464285Y-123699819D02*
X110464285Y-122699819D01*
X110464285Y-122699819D02*
X110226190Y-122699819D01*
X110226190Y-122699819D02*
X110083333Y-122747438D01*
X110083333Y-122747438D02*
X109988095Y-122842676D01*
X109988095Y-122842676D02*
X109940476Y-122937914D01*
X109940476Y-122937914D02*
X109892857Y-123128390D01*
X109892857Y-123128390D02*
X109892857Y-123271247D01*
X109892857Y-123271247D02*
X109940476Y-123461723D01*
X109940476Y-123461723D02*
X109988095Y-123556961D01*
X109988095Y-123556961D02*
X110083333Y-123652200D01*
X110083333Y-123652200D02*
X110226190Y-123699819D01*
X110226190Y-123699819D02*
X110464285Y-123699819D01*
X108940476Y-123699819D02*
X109511904Y-123699819D01*
X109226190Y-123699819D02*
X109226190Y-122699819D01*
X109226190Y-122699819D02*
X109321428Y-122842676D01*
X109321428Y-122842676D02*
X109416666Y-122937914D01*
X109416666Y-122937914D02*
X109511904Y-122985533D01*
X108369047Y-123128390D02*
X108464285Y-123080771D01*
X108464285Y-123080771D02*
X108511904Y-123033152D01*
X108511904Y-123033152D02*
X108559523Y-122937914D01*
X108559523Y-122937914D02*
X108559523Y-122890295D01*
X108559523Y-122890295D02*
X108511904Y-122795057D01*
X108511904Y-122795057D02*
X108464285Y-122747438D01*
X108464285Y-122747438D02*
X108369047Y-122699819D01*
X108369047Y-122699819D02*
X108178571Y-122699819D01*
X108178571Y-122699819D02*
X108083333Y-122747438D01*
X108083333Y-122747438D02*
X108035714Y-122795057D01*
X108035714Y-122795057D02*
X107988095Y-122890295D01*
X107988095Y-122890295D02*
X107988095Y-122937914D01*
X107988095Y-122937914D02*
X108035714Y-123033152D01*
X108035714Y-123033152D02*
X108083333Y-123080771D01*
X108083333Y-123080771D02*
X108178571Y-123128390D01*
X108178571Y-123128390D02*
X108369047Y-123128390D01*
X108369047Y-123128390D02*
X108464285Y-123176009D01*
X108464285Y-123176009D02*
X108511904Y-123223628D01*
X108511904Y-123223628D02*
X108559523Y-123318866D01*
X108559523Y-123318866D02*
X108559523Y-123509342D01*
X108559523Y-123509342D02*
X108511904Y-123604580D01*
X108511904Y-123604580D02*
X108464285Y-123652200D01*
X108464285Y-123652200D02*
X108369047Y-123699819D01*
X108369047Y-123699819D02*
X108178571Y-123699819D01*
X108178571Y-123699819D02*
X108083333Y-123652200D01*
X108083333Y-123652200D02*
X108035714Y-123604580D01*
X108035714Y-123604580D02*
X107988095Y-123509342D01*
X107988095Y-123509342D02*
X107988095Y-123318866D01*
X107988095Y-123318866D02*
X108035714Y-123223628D01*
X108035714Y-123223628D02*
X108083333Y-123176009D01*
X108083333Y-123176009D02*
X108178571Y-123128390D01*
X105701904Y-123379819D02*
X105701904Y-122379819D01*
X105130476Y-123379819D02*
X105559047Y-122808390D01*
X105130476Y-122379819D02*
X105701904Y-122951247D01*
X232334819Y-135595714D02*
X231334819Y-135595714D01*
X231334819Y-135595714D02*
X231334819Y-135833809D01*
X231334819Y-135833809D02*
X231382438Y-135976666D01*
X231382438Y-135976666D02*
X231477676Y-136071904D01*
X231477676Y-136071904D02*
X231572914Y-136119523D01*
X231572914Y-136119523D02*
X231763390Y-136167142D01*
X231763390Y-136167142D02*
X231906247Y-136167142D01*
X231906247Y-136167142D02*
X232096723Y-136119523D01*
X232096723Y-136119523D02*
X232191961Y-136071904D01*
X232191961Y-136071904D02*
X232287200Y-135976666D01*
X232287200Y-135976666D02*
X232334819Y-135833809D01*
X232334819Y-135833809D02*
X232334819Y-135595714D01*
X231334819Y-136500476D02*
X231334819Y-137119523D01*
X231334819Y-137119523D02*
X231715771Y-136786190D01*
X231715771Y-136786190D02*
X231715771Y-136929047D01*
X231715771Y-136929047D02*
X231763390Y-137024285D01*
X231763390Y-137024285D02*
X231811009Y-137071904D01*
X231811009Y-137071904D02*
X231906247Y-137119523D01*
X231906247Y-137119523D02*
X232144342Y-137119523D01*
X232144342Y-137119523D02*
X232239580Y-137071904D01*
X232239580Y-137071904D02*
X232287200Y-137024285D01*
X232287200Y-137024285D02*
X232334819Y-136929047D01*
X232334819Y-136929047D02*
X232334819Y-136643333D01*
X232334819Y-136643333D02*
X232287200Y-136548095D01*
X232287200Y-136548095D02*
X232239580Y-136500476D01*
X231334819Y-137452857D02*
X231334819Y-138119523D01*
X231334819Y-138119523D02*
X232334819Y-137690952D01*
X232654819Y-132738095D02*
X231654819Y-132738095D01*
X232654819Y-133309523D02*
X232083390Y-132880952D01*
X231654819Y-133309523D02*
X232226247Y-132738095D01*
X138459819Y-148410714D02*
X137459819Y-148410714D01*
X137459819Y-148410714D02*
X137459819Y-148648809D01*
X137459819Y-148648809D02*
X137507438Y-148791666D01*
X137507438Y-148791666D02*
X137602676Y-148886904D01*
X137602676Y-148886904D02*
X137697914Y-148934523D01*
X137697914Y-148934523D02*
X137888390Y-148982142D01*
X137888390Y-148982142D02*
X138031247Y-148982142D01*
X138031247Y-148982142D02*
X138221723Y-148934523D01*
X138221723Y-148934523D02*
X138316961Y-148886904D01*
X138316961Y-148886904D02*
X138412200Y-148791666D01*
X138412200Y-148791666D02*
X138459819Y-148648809D01*
X138459819Y-148648809D02*
X138459819Y-148410714D01*
X137793152Y-149839285D02*
X138459819Y-149839285D01*
X137412200Y-149601190D02*
X138126485Y-149363095D01*
X138126485Y-149363095D02*
X138126485Y-149982142D01*
X137459819Y-150267857D02*
X137459819Y-150886904D01*
X137459819Y-150886904D02*
X137840771Y-150553571D01*
X137840771Y-150553571D02*
X137840771Y-150696428D01*
X137840771Y-150696428D02*
X137888390Y-150791666D01*
X137888390Y-150791666D02*
X137936009Y-150839285D01*
X137936009Y-150839285D02*
X138031247Y-150886904D01*
X138031247Y-150886904D02*
X138269342Y-150886904D01*
X138269342Y-150886904D02*
X138364580Y-150839285D01*
X138364580Y-150839285D02*
X138412200Y-150791666D01*
X138412200Y-150791666D02*
X138459819Y-150696428D01*
X138459819Y-150696428D02*
X138459819Y-150410714D01*
X138459819Y-150410714D02*
X138412200Y-150315476D01*
X138412200Y-150315476D02*
X138364580Y-150267857D01*
X138779819Y-145553095D02*
X137779819Y-145553095D01*
X138779819Y-146124523D02*
X138208390Y-145695952D01*
X137779819Y-146124523D02*
X138351247Y-145553095D01*
X110464285Y-142699819D02*
X110464285Y-141699819D01*
X110464285Y-141699819D02*
X110226190Y-141699819D01*
X110226190Y-141699819D02*
X110083333Y-141747438D01*
X110083333Y-141747438D02*
X109988095Y-141842676D01*
X109988095Y-141842676D02*
X109940476Y-141937914D01*
X109940476Y-141937914D02*
X109892857Y-142128390D01*
X109892857Y-142128390D02*
X109892857Y-142271247D01*
X109892857Y-142271247D02*
X109940476Y-142461723D01*
X109940476Y-142461723D02*
X109988095Y-142556961D01*
X109988095Y-142556961D02*
X110083333Y-142652200D01*
X110083333Y-142652200D02*
X110226190Y-142699819D01*
X110226190Y-142699819D02*
X110464285Y-142699819D01*
X109559523Y-141699819D02*
X108940476Y-141699819D01*
X108940476Y-141699819D02*
X109273809Y-142080771D01*
X109273809Y-142080771D02*
X109130952Y-142080771D01*
X109130952Y-142080771D02*
X109035714Y-142128390D01*
X109035714Y-142128390D02*
X108988095Y-142176009D01*
X108988095Y-142176009D02*
X108940476Y-142271247D01*
X108940476Y-142271247D02*
X108940476Y-142509342D01*
X108940476Y-142509342D02*
X108988095Y-142604580D01*
X108988095Y-142604580D02*
X109035714Y-142652200D01*
X109035714Y-142652200D02*
X109130952Y-142699819D01*
X109130952Y-142699819D02*
X109416666Y-142699819D01*
X109416666Y-142699819D02*
X109511904Y-142652200D01*
X109511904Y-142652200D02*
X109559523Y-142604580D01*
X107988095Y-142699819D02*
X108559523Y-142699819D01*
X108273809Y-142699819D02*
X108273809Y-141699819D01*
X108273809Y-141699819D02*
X108369047Y-141842676D01*
X108369047Y-141842676D02*
X108464285Y-141937914D01*
X108464285Y-141937914D02*
X108559523Y-141985533D01*
X105701904Y-142379819D02*
X105701904Y-141379819D01*
X105130476Y-142379819D02*
X105559047Y-141808390D01*
X105130476Y-141379819D02*
X105701904Y-141951247D01*
X130423094Y-104699819D02*
X130423094Y-103699819D01*
X130423094Y-103699819D02*
X130184999Y-103699819D01*
X130184999Y-103699819D02*
X130042142Y-103747438D01*
X130042142Y-103747438D02*
X129946904Y-103842676D01*
X129946904Y-103842676D02*
X129899285Y-103937914D01*
X129899285Y-103937914D02*
X129851666Y-104128390D01*
X129851666Y-104128390D02*
X129851666Y-104271247D01*
X129851666Y-104271247D02*
X129899285Y-104461723D01*
X129899285Y-104461723D02*
X129946904Y-104556961D01*
X129946904Y-104556961D02*
X130042142Y-104652200D01*
X130042142Y-104652200D02*
X130184999Y-104699819D01*
X130184999Y-104699819D02*
X130423094Y-104699819D01*
X128994523Y-103699819D02*
X129184999Y-103699819D01*
X129184999Y-103699819D02*
X129280237Y-103747438D01*
X129280237Y-103747438D02*
X129327856Y-103795057D01*
X129327856Y-103795057D02*
X129423094Y-103937914D01*
X129423094Y-103937914D02*
X129470713Y-104128390D01*
X129470713Y-104128390D02*
X129470713Y-104509342D01*
X129470713Y-104509342D02*
X129423094Y-104604580D01*
X129423094Y-104604580D02*
X129375475Y-104652200D01*
X129375475Y-104652200D02*
X129280237Y-104699819D01*
X129280237Y-104699819D02*
X129089761Y-104699819D01*
X129089761Y-104699819D02*
X128994523Y-104652200D01*
X128994523Y-104652200D02*
X128946904Y-104604580D01*
X128946904Y-104604580D02*
X128899285Y-104509342D01*
X128899285Y-104509342D02*
X128899285Y-104271247D01*
X128899285Y-104271247D02*
X128946904Y-104176009D01*
X128946904Y-104176009D02*
X128994523Y-104128390D01*
X128994523Y-104128390D02*
X129089761Y-104080771D01*
X129089761Y-104080771D02*
X129280237Y-104080771D01*
X129280237Y-104080771D02*
X129375475Y-104128390D01*
X129375475Y-104128390D02*
X129423094Y-104176009D01*
X129423094Y-104176009D02*
X129470713Y-104271247D01*
X126136904Y-104379819D02*
X126136904Y-103379819D01*
X125565476Y-104379819D02*
X125994047Y-103808390D01*
X125565476Y-103379819D02*
X126136904Y-103951247D01*
X243464285Y-123699819D02*
X243464285Y-122699819D01*
X243464285Y-122699819D02*
X243226190Y-122699819D01*
X243226190Y-122699819D02*
X243083333Y-122747438D01*
X243083333Y-122747438D02*
X242988095Y-122842676D01*
X242988095Y-122842676D02*
X242940476Y-122937914D01*
X242940476Y-122937914D02*
X242892857Y-123128390D01*
X242892857Y-123128390D02*
X242892857Y-123271247D01*
X242892857Y-123271247D02*
X242940476Y-123461723D01*
X242940476Y-123461723D02*
X242988095Y-123556961D01*
X242988095Y-123556961D02*
X243083333Y-123652200D01*
X243083333Y-123652200D02*
X243226190Y-123699819D01*
X243226190Y-123699819D02*
X243464285Y-123699819D01*
X242511904Y-122795057D02*
X242464285Y-122747438D01*
X242464285Y-122747438D02*
X242369047Y-122699819D01*
X242369047Y-122699819D02*
X242130952Y-122699819D01*
X242130952Y-122699819D02*
X242035714Y-122747438D01*
X242035714Y-122747438D02*
X241988095Y-122795057D01*
X241988095Y-122795057D02*
X241940476Y-122890295D01*
X241940476Y-122890295D02*
X241940476Y-122985533D01*
X241940476Y-122985533D02*
X241988095Y-123128390D01*
X241988095Y-123128390D02*
X242559523Y-123699819D01*
X242559523Y-123699819D02*
X241940476Y-123699819D01*
X241035714Y-122699819D02*
X241511904Y-122699819D01*
X241511904Y-122699819D02*
X241559523Y-123176009D01*
X241559523Y-123176009D02*
X241511904Y-123128390D01*
X241511904Y-123128390D02*
X241416666Y-123080771D01*
X241416666Y-123080771D02*
X241178571Y-123080771D01*
X241178571Y-123080771D02*
X241083333Y-123128390D01*
X241083333Y-123128390D02*
X241035714Y-123176009D01*
X241035714Y-123176009D02*
X240988095Y-123271247D01*
X240988095Y-123271247D02*
X240988095Y-123509342D01*
X240988095Y-123509342D02*
X241035714Y-123604580D01*
X241035714Y-123604580D02*
X241083333Y-123652200D01*
X241083333Y-123652200D02*
X241178571Y-123699819D01*
X241178571Y-123699819D02*
X241416666Y-123699819D01*
X241416666Y-123699819D02*
X241511904Y-123652200D01*
X241511904Y-123652200D02*
X241559523Y-123604580D01*
X238701904Y-123379819D02*
X238701904Y-122379819D01*
X238130476Y-123379819D02*
X238559047Y-122808390D01*
X238130476Y-122379819D02*
X238701904Y-122951247D01*
X148464285Y-123699819D02*
X148464285Y-122699819D01*
X148464285Y-122699819D02*
X148226190Y-122699819D01*
X148226190Y-122699819D02*
X148083333Y-122747438D01*
X148083333Y-122747438D02*
X147988095Y-122842676D01*
X147988095Y-122842676D02*
X147940476Y-122937914D01*
X147940476Y-122937914D02*
X147892857Y-123128390D01*
X147892857Y-123128390D02*
X147892857Y-123271247D01*
X147892857Y-123271247D02*
X147940476Y-123461723D01*
X147940476Y-123461723D02*
X147988095Y-123556961D01*
X147988095Y-123556961D02*
X148083333Y-123652200D01*
X148083333Y-123652200D02*
X148226190Y-123699819D01*
X148226190Y-123699819D02*
X148464285Y-123699819D01*
X147511904Y-122795057D02*
X147464285Y-122747438D01*
X147464285Y-122747438D02*
X147369047Y-122699819D01*
X147369047Y-122699819D02*
X147130952Y-122699819D01*
X147130952Y-122699819D02*
X147035714Y-122747438D01*
X147035714Y-122747438D02*
X146988095Y-122795057D01*
X146988095Y-122795057D02*
X146940476Y-122890295D01*
X146940476Y-122890295D02*
X146940476Y-122985533D01*
X146940476Y-122985533D02*
X146988095Y-123128390D01*
X146988095Y-123128390D02*
X147559523Y-123699819D01*
X147559523Y-123699819D02*
X146940476Y-123699819D01*
X146321428Y-122699819D02*
X146226190Y-122699819D01*
X146226190Y-122699819D02*
X146130952Y-122747438D01*
X146130952Y-122747438D02*
X146083333Y-122795057D01*
X146083333Y-122795057D02*
X146035714Y-122890295D01*
X146035714Y-122890295D02*
X145988095Y-123080771D01*
X145988095Y-123080771D02*
X145988095Y-123318866D01*
X145988095Y-123318866D02*
X146035714Y-123509342D01*
X146035714Y-123509342D02*
X146083333Y-123604580D01*
X146083333Y-123604580D02*
X146130952Y-123652200D01*
X146130952Y-123652200D02*
X146226190Y-123699819D01*
X146226190Y-123699819D02*
X146321428Y-123699819D01*
X146321428Y-123699819D02*
X146416666Y-123652200D01*
X146416666Y-123652200D02*
X146464285Y-123604580D01*
X146464285Y-123604580D02*
X146511904Y-123509342D01*
X146511904Y-123509342D02*
X146559523Y-123318866D01*
X146559523Y-123318866D02*
X146559523Y-123080771D01*
X146559523Y-123080771D02*
X146511904Y-122890295D01*
X146511904Y-122890295D02*
X146464285Y-122795057D01*
X146464285Y-122795057D02*
X146416666Y-122747438D01*
X146416666Y-122747438D02*
X146321428Y-122699819D01*
X143701904Y-123379819D02*
X143701904Y-122379819D01*
X143130476Y-123379819D02*
X143559047Y-122808390D01*
X143130476Y-122379819D02*
X143701904Y-122951247D01*
X187423094Y-104699819D02*
X187423094Y-103699819D01*
X187423094Y-103699819D02*
X187184999Y-103699819D01*
X187184999Y-103699819D02*
X187042142Y-103747438D01*
X187042142Y-103747438D02*
X186946904Y-103842676D01*
X186946904Y-103842676D02*
X186899285Y-103937914D01*
X186899285Y-103937914D02*
X186851666Y-104128390D01*
X186851666Y-104128390D02*
X186851666Y-104271247D01*
X186851666Y-104271247D02*
X186899285Y-104461723D01*
X186899285Y-104461723D02*
X186946904Y-104556961D01*
X186946904Y-104556961D02*
X187042142Y-104652200D01*
X187042142Y-104652200D02*
X187184999Y-104699819D01*
X187184999Y-104699819D02*
X187423094Y-104699819D01*
X186375475Y-104699819D02*
X186184999Y-104699819D01*
X186184999Y-104699819D02*
X186089761Y-104652200D01*
X186089761Y-104652200D02*
X186042142Y-104604580D01*
X186042142Y-104604580D02*
X185946904Y-104461723D01*
X185946904Y-104461723D02*
X185899285Y-104271247D01*
X185899285Y-104271247D02*
X185899285Y-103890295D01*
X185899285Y-103890295D02*
X185946904Y-103795057D01*
X185946904Y-103795057D02*
X185994523Y-103747438D01*
X185994523Y-103747438D02*
X186089761Y-103699819D01*
X186089761Y-103699819D02*
X186280237Y-103699819D01*
X186280237Y-103699819D02*
X186375475Y-103747438D01*
X186375475Y-103747438D02*
X186423094Y-103795057D01*
X186423094Y-103795057D02*
X186470713Y-103890295D01*
X186470713Y-103890295D02*
X186470713Y-104128390D01*
X186470713Y-104128390D02*
X186423094Y-104223628D01*
X186423094Y-104223628D02*
X186375475Y-104271247D01*
X186375475Y-104271247D02*
X186280237Y-104318866D01*
X186280237Y-104318866D02*
X186089761Y-104318866D01*
X186089761Y-104318866D02*
X185994523Y-104271247D01*
X185994523Y-104271247D02*
X185946904Y-104223628D01*
X185946904Y-104223628D02*
X185899285Y-104128390D01*
X183136904Y-104379819D02*
X183136904Y-103379819D01*
X182565476Y-104379819D02*
X182994047Y-103808390D01*
X182565476Y-103379819D02*
X183136904Y-103951247D01*
X263899285Y-142699819D02*
X263899285Y-141699819D01*
X263899285Y-141699819D02*
X263661190Y-141699819D01*
X263661190Y-141699819D02*
X263518333Y-141747438D01*
X263518333Y-141747438D02*
X263423095Y-141842676D01*
X263423095Y-141842676D02*
X263375476Y-141937914D01*
X263375476Y-141937914D02*
X263327857Y-142128390D01*
X263327857Y-142128390D02*
X263327857Y-142271247D01*
X263327857Y-142271247D02*
X263375476Y-142461723D01*
X263375476Y-142461723D02*
X263423095Y-142556961D01*
X263423095Y-142556961D02*
X263518333Y-142652200D01*
X263518333Y-142652200D02*
X263661190Y-142699819D01*
X263661190Y-142699819D02*
X263899285Y-142699819D01*
X262994523Y-141699819D02*
X262375476Y-141699819D01*
X262375476Y-141699819D02*
X262708809Y-142080771D01*
X262708809Y-142080771D02*
X262565952Y-142080771D01*
X262565952Y-142080771D02*
X262470714Y-142128390D01*
X262470714Y-142128390D02*
X262423095Y-142176009D01*
X262423095Y-142176009D02*
X262375476Y-142271247D01*
X262375476Y-142271247D02*
X262375476Y-142509342D01*
X262375476Y-142509342D02*
X262423095Y-142604580D01*
X262423095Y-142604580D02*
X262470714Y-142652200D01*
X262470714Y-142652200D02*
X262565952Y-142699819D01*
X262565952Y-142699819D02*
X262851666Y-142699819D01*
X262851666Y-142699819D02*
X262946904Y-142652200D01*
X262946904Y-142652200D02*
X262994523Y-142604580D01*
X261804047Y-142128390D02*
X261899285Y-142080771D01*
X261899285Y-142080771D02*
X261946904Y-142033152D01*
X261946904Y-142033152D02*
X261994523Y-141937914D01*
X261994523Y-141937914D02*
X261994523Y-141890295D01*
X261994523Y-141890295D02*
X261946904Y-141795057D01*
X261946904Y-141795057D02*
X261899285Y-141747438D01*
X261899285Y-141747438D02*
X261804047Y-141699819D01*
X261804047Y-141699819D02*
X261613571Y-141699819D01*
X261613571Y-141699819D02*
X261518333Y-141747438D01*
X261518333Y-141747438D02*
X261470714Y-141795057D01*
X261470714Y-141795057D02*
X261423095Y-141890295D01*
X261423095Y-141890295D02*
X261423095Y-141937914D01*
X261423095Y-141937914D02*
X261470714Y-142033152D01*
X261470714Y-142033152D02*
X261518333Y-142080771D01*
X261518333Y-142080771D02*
X261613571Y-142128390D01*
X261613571Y-142128390D02*
X261804047Y-142128390D01*
X261804047Y-142128390D02*
X261899285Y-142176009D01*
X261899285Y-142176009D02*
X261946904Y-142223628D01*
X261946904Y-142223628D02*
X261994523Y-142318866D01*
X261994523Y-142318866D02*
X261994523Y-142509342D01*
X261994523Y-142509342D02*
X261946904Y-142604580D01*
X261946904Y-142604580D02*
X261899285Y-142652200D01*
X261899285Y-142652200D02*
X261804047Y-142699819D01*
X261804047Y-142699819D02*
X261613571Y-142699819D01*
X261613571Y-142699819D02*
X261518333Y-142652200D01*
X261518333Y-142652200D02*
X261470714Y-142604580D01*
X261470714Y-142604580D02*
X261423095Y-142509342D01*
X261423095Y-142509342D02*
X261423095Y-142318866D01*
X261423095Y-142318866D02*
X261470714Y-142223628D01*
X261470714Y-142223628D02*
X261518333Y-142176009D01*
X261518333Y-142176009D02*
X261613571Y-142128390D01*
X259136904Y-142379819D02*
X259136904Y-141379819D01*
X258565476Y-142379819D02*
X258994047Y-141808390D01*
X258565476Y-141379819D02*
X259136904Y-141951247D01*
X33988094Y-104699819D02*
X33988094Y-103699819D01*
X33988094Y-103699819D02*
X33749999Y-103699819D01*
X33749999Y-103699819D02*
X33607142Y-103747438D01*
X33607142Y-103747438D02*
X33511904Y-103842676D01*
X33511904Y-103842676D02*
X33464285Y-103937914D01*
X33464285Y-103937914D02*
X33416666Y-104128390D01*
X33416666Y-104128390D02*
X33416666Y-104271247D01*
X33416666Y-104271247D02*
X33464285Y-104461723D01*
X33464285Y-104461723D02*
X33511904Y-104556961D01*
X33511904Y-104556961D02*
X33607142Y-104652200D01*
X33607142Y-104652200D02*
X33749999Y-104699819D01*
X33749999Y-104699819D02*
X33988094Y-104699819D01*
X32464285Y-104699819D02*
X33035713Y-104699819D01*
X32749999Y-104699819D02*
X32749999Y-103699819D01*
X32749999Y-103699819D02*
X32845237Y-103842676D01*
X32845237Y-103842676D02*
X32940475Y-103937914D01*
X32940475Y-103937914D02*
X33035713Y-103985533D01*
X29701904Y-104379819D02*
X29701904Y-103379819D01*
X29130476Y-104379819D02*
X29559047Y-103808390D01*
X29130476Y-103379819D02*
X29701904Y-103951247D01*
X224464285Y-104699819D02*
X224464285Y-103699819D01*
X224464285Y-103699819D02*
X224226190Y-103699819D01*
X224226190Y-103699819D02*
X224083333Y-103747438D01*
X224083333Y-103747438D02*
X223988095Y-103842676D01*
X223988095Y-103842676D02*
X223940476Y-103937914D01*
X223940476Y-103937914D02*
X223892857Y-104128390D01*
X223892857Y-104128390D02*
X223892857Y-104271247D01*
X223892857Y-104271247D02*
X223940476Y-104461723D01*
X223940476Y-104461723D02*
X223988095Y-104556961D01*
X223988095Y-104556961D02*
X224083333Y-104652200D01*
X224083333Y-104652200D02*
X224226190Y-104699819D01*
X224226190Y-104699819D02*
X224464285Y-104699819D01*
X222940476Y-104699819D02*
X223511904Y-104699819D01*
X223226190Y-104699819D02*
X223226190Y-103699819D01*
X223226190Y-103699819D02*
X223321428Y-103842676D01*
X223321428Y-103842676D02*
X223416666Y-103937914D01*
X223416666Y-103937914D02*
X223511904Y-103985533D01*
X221988095Y-104699819D02*
X222559523Y-104699819D01*
X222273809Y-104699819D02*
X222273809Y-103699819D01*
X222273809Y-103699819D02*
X222369047Y-103842676D01*
X222369047Y-103842676D02*
X222464285Y-103937914D01*
X222464285Y-103937914D02*
X222559523Y-103985533D01*
X219701904Y-104379819D02*
X219701904Y-103379819D01*
X219130476Y-104379819D02*
X219559047Y-103808390D01*
X219130476Y-103379819D02*
X219701904Y-103951247D01*
X263899285Y-104699819D02*
X263899285Y-103699819D01*
X263899285Y-103699819D02*
X263661190Y-103699819D01*
X263661190Y-103699819D02*
X263518333Y-103747438D01*
X263518333Y-103747438D02*
X263423095Y-103842676D01*
X263423095Y-103842676D02*
X263375476Y-103937914D01*
X263375476Y-103937914D02*
X263327857Y-104128390D01*
X263327857Y-104128390D02*
X263327857Y-104271247D01*
X263327857Y-104271247D02*
X263375476Y-104461723D01*
X263375476Y-104461723D02*
X263423095Y-104556961D01*
X263423095Y-104556961D02*
X263518333Y-104652200D01*
X263518333Y-104652200D02*
X263661190Y-104699819D01*
X263661190Y-104699819D02*
X263899285Y-104699819D01*
X262375476Y-104699819D02*
X262946904Y-104699819D01*
X262661190Y-104699819D02*
X262661190Y-103699819D01*
X262661190Y-103699819D02*
X262756428Y-103842676D01*
X262756428Y-103842676D02*
X262851666Y-103937914D01*
X262851666Y-103937914D02*
X262946904Y-103985533D01*
X262042142Y-103699819D02*
X261423095Y-103699819D01*
X261423095Y-103699819D02*
X261756428Y-104080771D01*
X261756428Y-104080771D02*
X261613571Y-104080771D01*
X261613571Y-104080771D02*
X261518333Y-104128390D01*
X261518333Y-104128390D02*
X261470714Y-104176009D01*
X261470714Y-104176009D02*
X261423095Y-104271247D01*
X261423095Y-104271247D02*
X261423095Y-104509342D01*
X261423095Y-104509342D02*
X261470714Y-104604580D01*
X261470714Y-104604580D02*
X261518333Y-104652200D01*
X261518333Y-104652200D02*
X261613571Y-104699819D01*
X261613571Y-104699819D02*
X261899285Y-104699819D01*
X261899285Y-104699819D02*
X261994523Y-104652200D01*
X261994523Y-104652200D02*
X262042142Y-104604580D01*
X259136904Y-104379819D02*
X259136904Y-103379819D01*
X258565476Y-104379819D02*
X258994047Y-103808390D01*
X258565476Y-103379819D02*
X259136904Y-103951247D01*
X216714285Y-141574819D02*
X216714285Y-140574819D01*
X216714285Y-140574819D02*
X216476190Y-140574819D01*
X216476190Y-140574819D02*
X216333333Y-140622438D01*
X216333333Y-140622438D02*
X216238095Y-140717676D01*
X216238095Y-140717676D02*
X216190476Y-140812914D01*
X216190476Y-140812914D02*
X216142857Y-141003390D01*
X216142857Y-141003390D02*
X216142857Y-141146247D01*
X216142857Y-141146247D02*
X216190476Y-141336723D01*
X216190476Y-141336723D02*
X216238095Y-141431961D01*
X216238095Y-141431961D02*
X216333333Y-141527200D01*
X216333333Y-141527200D02*
X216476190Y-141574819D01*
X216476190Y-141574819D02*
X216714285Y-141574819D01*
X215809523Y-140574819D02*
X215190476Y-140574819D01*
X215190476Y-140574819D02*
X215523809Y-140955771D01*
X215523809Y-140955771D02*
X215380952Y-140955771D01*
X215380952Y-140955771D02*
X215285714Y-141003390D01*
X215285714Y-141003390D02*
X215238095Y-141051009D01*
X215238095Y-141051009D02*
X215190476Y-141146247D01*
X215190476Y-141146247D02*
X215190476Y-141384342D01*
X215190476Y-141384342D02*
X215238095Y-141479580D01*
X215238095Y-141479580D02*
X215285714Y-141527200D01*
X215285714Y-141527200D02*
X215380952Y-141574819D01*
X215380952Y-141574819D02*
X215666666Y-141574819D01*
X215666666Y-141574819D02*
X215761904Y-141527200D01*
X215761904Y-141527200D02*
X215809523Y-141479580D01*
X214333333Y-140574819D02*
X214523809Y-140574819D01*
X214523809Y-140574819D02*
X214619047Y-140622438D01*
X214619047Y-140622438D02*
X214666666Y-140670057D01*
X214666666Y-140670057D02*
X214761904Y-140812914D01*
X214761904Y-140812914D02*
X214809523Y-141003390D01*
X214809523Y-141003390D02*
X214809523Y-141384342D01*
X214809523Y-141384342D02*
X214761904Y-141479580D01*
X214761904Y-141479580D02*
X214714285Y-141527200D01*
X214714285Y-141527200D02*
X214619047Y-141574819D01*
X214619047Y-141574819D02*
X214428571Y-141574819D01*
X214428571Y-141574819D02*
X214333333Y-141527200D01*
X214333333Y-141527200D02*
X214285714Y-141479580D01*
X214285714Y-141479580D02*
X214238095Y-141384342D01*
X214238095Y-141384342D02*
X214238095Y-141146247D01*
X214238095Y-141146247D02*
X214285714Y-141051009D01*
X214285714Y-141051009D02*
X214333333Y-141003390D01*
X214333333Y-141003390D02*
X214428571Y-140955771D01*
X214428571Y-140955771D02*
X214619047Y-140955771D01*
X214619047Y-140955771D02*
X214714285Y-141003390D01*
X214714285Y-141003390D02*
X214761904Y-141051009D01*
X214761904Y-141051009D02*
X214809523Y-141146247D01*
X211951904Y-141254819D02*
X211951904Y-140254819D01*
X211380476Y-141254819D02*
X211809047Y-140683390D01*
X211380476Y-140254819D02*
X211951904Y-140826247D01*
X262464285Y-123699819D02*
X262464285Y-122699819D01*
X262464285Y-122699819D02*
X262226190Y-122699819D01*
X262226190Y-122699819D02*
X262083333Y-122747438D01*
X262083333Y-122747438D02*
X261988095Y-122842676D01*
X261988095Y-122842676D02*
X261940476Y-122937914D01*
X261940476Y-122937914D02*
X261892857Y-123128390D01*
X261892857Y-123128390D02*
X261892857Y-123271247D01*
X261892857Y-123271247D02*
X261940476Y-123461723D01*
X261940476Y-123461723D02*
X261988095Y-123556961D01*
X261988095Y-123556961D02*
X262083333Y-123652200D01*
X262083333Y-123652200D02*
X262226190Y-123699819D01*
X262226190Y-123699819D02*
X262464285Y-123699819D01*
X261511904Y-122795057D02*
X261464285Y-122747438D01*
X261464285Y-122747438D02*
X261369047Y-122699819D01*
X261369047Y-122699819D02*
X261130952Y-122699819D01*
X261130952Y-122699819D02*
X261035714Y-122747438D01*
X261035714Y-122747438D02*
X260988095Y-122795057D01*
X260988095Y-122795057D02*
X260940476Y-122890295D01*
X260940476Y-122890295D02*
X260940476Y-122985533D01*
X260940476Y-122985533D02*
X260988095Y-123128390D01*
X260988095Y-123128390D02*
X261559523Y-123699819D01*
X261559523Y-123699819D02*
X260940476Y-123699819D01*
X260083333Y-122699819D02*
X260273809Y-122699819D01*
X260273809Y-122699819D02*
X260369047Y-122747438D01*
X260369047Y-122747438D02*
X260416666Y-122795057D01*
X260416666Y-122795057D02*
X260511904Y-122937914D01*
X260511904Y-122937914D02*
X260559523Y-123128390D01*
X260559523Y-123128390D02*
X260559523Y-123509342D01*
X260559523Y-123509342D02*
X260511904Y-123604580D01*
X260511904Y-123604580D02*
X260464285Y-123652200D01*
X260464285Y-123652200D02*
X260369047Y-123699819D01*
X260369047Y-123699819D02*
X260178571Y-123699819D01*
X260178571Y-123699819D02*
X260083333Y-123652200D01*
X260083333Y-123652200D02*
X260035714Y-123604580D01*
X260035714Y-123604580D02*
X259988095Y-123509342D01*
X259988095Y-123509342D02*
X259988095Y-123271247D01*
X259988095Y-123271247D02*
X260035714Y-123176009D01*
X260035714Y-123176009D02*
X260083333Y-123128390D01*
X260083333Y-123128390D02*
X260178571Y-123080771D01*
X260178571Y-123080771D02*
X260369047Y-123080771D01*
X260369047Y-123080771D02*
X260464285Y-123128390D01*
X260464285Y-123128390D02*
X260511904Y-123176009D01*
X260511904Y-123176009D02*
X260559523Y-123271247D01*
X257701904Y-123379819D02*
X257701904Y-122379819D01*
X257130476Y-123379819D02*
X257559047Y-122808390D01*
X257130476Y-122379819D02*
X257701904Y-122951247D01*
X199574819Y-119285714D02*
X198574819Y-119285714D01*
X198574819Y-119285714D02*
X198574819Y-119523809D01*
X198574819Y-119523809D02*
X198622438Y-119666666D01*
X198622438Y-119666666D02*
X198717676Y-119761904D01*
X198717676Y-119761904D02*
X198812914Y-119809523D01*
X198812914Y-119809523D02*
X199003390Y-119857142D01*
X199003390Y-119857142D02*
X199146247Y-119857142D01*
X199146247Y-119857142D02*
X199336723Y-119809523D01*
X199336723Y-119809523D02*
X199431961Y-119761904D01*
X199431961Y-119761904D02*
X199527200Y-119666666D01*
X199527200Y-119666666D02*
X199574819Y-119523809D01*
X199574819Y-119523809D02*
X199574819Y-119285714D01*
X198670057Y-120238095D02*
X198622438Y-120285714D01*
X198622438Y-120285714D02*
X198574819Y-120380952D01*
X198574819Y-120380952D02*
X198574819Y-120619047D01*
X198574819Y-120619047D02*
X198622438Y-120714285D01*
X198622438Y-120714285D02*
X198670057Y-120761904D01*
X198670057Y-120761904D02*
X198765295Y-120809523D01*
X198765295Y-120809523D02*
X198860533Y-120809523D01*
X198860533Y-120809523D02*
X199003390Y-120761904D01*
X199003390Y-120761904D02*
X199574819Y-120190476D01*
X199574819Y-120190476D02*
X199574819Y-120809523D01*
X198574819Y-121142857D02*
X198574819Y-121761904D01*
X198574819Y-121761904D02*
X198955771Y-121428571D01*
X198955771Y-121428571D02*
X198955771Y-121571428D01*
X198955771Y-121571428D02*
X199003390Y-121666666D01*
X199003390Y-121666666D02*
X199051009Y-121714285D01*
X199051009Y-121714285D02*
X199146247Y-121761904D01*
X199146247Y-121761904D02*
X199384342Y-121761904D01*
X199384342Y-121761904D02*
X199479580Y-121714285D01*
X199479580Y-121714285D02*
X199527200Y-121666666D01*
X199527200Y-121666666D02*
X199574819Y-121571428D01*
X199574819Y-121571428D02*
X199574819Y-121285714D01*
X199574819Y-121285714D02*
X199527200Y-121190476D01*
X199527200Y-121190476D02*
X199479580Y-121142857D01*
X199254819Y-124048095D02*
X198254819Y-124048095D01*
X199254819Y-124619523D02*
X198683390Y-124190952D01*
X198254819Y-124619523D02*
X198826247Y-124048095D01*
X166988094Y-104699819D02*
X166988094Y-103699819D01*
X166988094Y-103699819D02*
X166749999Y-103699819D01*
X166749999Y-103699819D02*
X166607142Y-103747438D01*
X166607142Y-103747438D02*
X166511904Y-103842676D01*
X166511904Y-103842676D02*
X166464285Y-103937914D01*
X166464285Y-103937914D02*
X166416666Y-104128390D01*
X166416666Y-104128390D02*
X166416666Y-104271247D01*
X166416666Y-104271247D02*
X166464285Y-104461723D01*
X166464285Y-104461723D02*
X166511904Y-104556961D01*
X166511904Y-104556961D02*
X166607142Y-104652200D01*
X166607142Y-104652200D02*
X166749999Y-104699819D01*
X166749999Y-104699819D02*
X166988094Y-104699819D01*
X165845237Y-104128390D02*
X165940475Y-104080771D01*
X165940475Y-104080771D02*
X165988094Y-104033152D01*
X165988094Y-104033152D02*
X166035713Y-103937914D01*
X166035713Y-103937914D02*
X166035713Y-103890295D01*
X166035713Y-103890295D02*
X165988094Y-103795057D01*
X165988094Y-103795057D02*
X165940475Y-103747438D01*
X165940475Y-103747438D02*
X165845237Y-103699819D01*
X165845237Y-103699819D02*
X165654761Y-103699819D01*
X165654761Y-103699819D02*
X165559523Y-103747438D01*
X165559523Y-103747438D02*
X165511904Y-103795057D01*
X165511904Y-103795057D02*
X165464285Y-103890295D01*
X165464285Y-103890295D02*
X165464285Y-103937914D01*
X165464285Y-103937914D02*
X165511904Y-104033152D01*
X165511904Y-104033152D02*
X165559523Y-104080771D01*
X165559523Y-104080771D02*
X165654761Y-104128390D01*
X165654761Y-104128390D02*
X165845237Y-104128390D01*
X165845237Y-104128390D02*
X165940475Y-104176009D01*
X165940475Y-104176009D02*
X165988094Y-104223628D01*
X165988094Y-104223628D02*
X166035713Y-104318866D01*
X166035713Y-104318866D02*
X166035713Y-104509342D01*
X166035713Y-104509342D02*
X165988094Y-104604580D01*
X165988094Y-104604580D02*
X165940475Y-104652200D01*
X165940475Y-104652200D02*
X165845237Y-104699819D01*
X165845237Y-104699819D02*
X165654761Y-104699819D01*
X165654761Y-104699819D02*
X165559523Y-104652200D01*
X165559523Y-104652200D02*
X165511904Y-104604580D01*
X165511904Y-104604580D02*
X165464285Y-104509342D01*
X165464285Y-104509342D02*
X165464285Y-104318866D01*
X165464285Y-104318866D02*
X165511904Y-104223628D01*
X165511904Y-104223628D02*
X165559523Y-104176009D01*
X165559523Y-104176009D02*
X165654761Y-104128390D01*
X162701904Y-104379819D02*
X162701904Y-103379819D01*
X162130476Y-104379819D02*
X162559047Y-103808390D01*
X162130476Y-103379819D02*
X162701904Y-103951247D01*
X91464285Y-142699819D02*
X91464285Y-141699819D01*
X91464285Y-141699819D02*
X91226190Y-141699819D01*
X91226190Y-141699819D02*
X91083333Y-141747438D01*
X91083333Y-141747438D02*
X90988095Y-141842676D01*
X90988095Y-141842676D02*
X90940476Y-141937914D01*
X90940476Y-141937914D02*
X90892857Y-142128390D01*
X90892857Y-142128390D02*
X90892857Y-142271247D01*
X90892857Y-142271247D02*
X90940476Y-142461723D01*
X90940476Y-142461723D02*
X90988095Y-142556961D01*
X90988095Y-142556961D02*
X91083333Y-142652200D01*
X91083333Y-142652200D02*
X91226190Y-142699819D01*
X91226190Y-142699819D02*
X91464285Y-142699819D01*
X90559523Y-141699819D02*
X89940476Y-141699819D01*
X89940476Y-141699819D02*
X90273809Y-142080771D01*
X90273809Y-142080771D02*
X90130952Y-142080771D01*
X90130952Y-142080771D02*
X90035714Y-142128390D01*
X90035714Y-142128390D02*
X89988095Y-142176009D01*
X89988095Y-142176009D02*
X89940476Y-142271247D01*
X89940476Y-142271247D02*
X89940476Y-142509342D01*
X89940476Y-142509342D02*
X89988095Y-142604580D01*
X89988095Y-142604580D02*
X90035714Y-142652200D01*
X90035714Y-142652200D02*
X90130952Y-142699819D01*
X90130952Y-142699819D02*
X90416666Y-142699819D01*
X90416666Y-142699819D02*
X90511904Y-142652200D01*
X90511904Y-142652200D02*
X90559523Y-142604580D01*
X89321428Y-141699819D02*
X89226190Y-141699819D01*
X89226190Y-141699819D02*
X89130952Y-141747438D01*
X89130952Y-141747438D02*
X89083333Y-141795057D01*
X89083333Y-141795057D02*
X89035714Y-141890295D01*
X89035714Y-141890295D02*
X88988095Y-142080771D01*
X88988095Y-142080771D02*
X88988095Y-142318866D01*
X88988095Y-142318866D02*
X89035714Y-142509342D01*
X89035714Y-142509342D02*
X89083333Y-142604580D01*
X89083333Y-142604580D02*
X89130952Y-142652200D01*
X89130952Y-142652200D02*
X89226190Y-142699819D01*
X89226190Y-142699819D02*
X89321428Y-142699819D01*
X89321428Y-142699819D02*
X89416666Y-142652200D01*
X89416666Y-142652200D02*
X89464285Y-142604580D01*
X89464285Y-142604580D02*
X89511904Y-142509342D01*
X89511904Y-142509342D02*
X89559523Y-142318866D01*
X89559523Y-142318866D02*
X89559523Y-142080771D01*
X89559523Y-142080771D02*
X89511904Y-141890295D01*
X89511904Y-141890295D02*
X89464285Y-141795057D01*
X89464285Y-141795057D02*
X89416666Y-141747438D01*
X89416666Y-141747438D02*
X89321428Y-141699819D01*
X86701904Y-142379819D02*
X86701904Y-141379819D01*
X86130476Y-142379819D02*
X86559047Y-141808390D01*
X86130476Y-141379819D02*
X86701904Y-141951247D01*
X147988094Y-104699819D02*
X147988094Y-103699819D01*
X147988094Y-103699819D02*
X147749999Y-103699819D01*
X147749999Y-103699819D02*
X147607142Y-103747438D01*
X147607142Y-103747438D02*
X147511904Y-103842676D01*
X147511904Y-103842676D02*
X147464285Y-103937914D01*
X147464285Y-103937914D02*
X147416666Y-104128390D01*
X147416666Y-104128390D02*
X147416666Y-104271247D01*
X147416666Y-104271247D02*
X147464285Y-104461723D01*
X147464285Y-104461723D02*
X147511904Y-104556961D01*
X147511904Y-104556961D02*
X147607142Y-104652200D01*
X147607142Y-104652200D02*
X147749999Y-104699819D01*
X147749999Y-104699819D02*
X147988094Y-104699819D01*
X147083332Y-103699819D02*
X146416666Y-103699819D01*
X146416666Y-103699819D02*
X146845237Y-104699819D01*
X143701904Y-104379819D02*
X143701904Y-103379819D01*
X143130476Y-104379819D02*
X143559047Y-103808390D01*
X143130476Y-103379819D02*
X143701904Y-103951247D01*
X234834819Y-135595714D02*
X233834819Y-135595714D01*
X233834819Y-135595714D02*
X233834819Y-135833809D01*
X233834819Y-135833809D02*
X233882438Y-135976666D01*
X233882438Y-135976666D02*
X233977676Y-136071904D01*
X233977676Y-136071904D02*
X234072914Y-136119523D01*
X234072914Y-136119523D02*
X234263390Y-136167142D01*
X234263390Y-136167142D02*
X234406247Y-136167142D01*
X234406247Y-136167142D02*
X234596723Y-136119523D01*
X234596723Y-136119523D02*
X234691961Y-136071904D01*
X234691961Y-136071904D02*
X234787200Y-135976666D01*
X234787200Y-135976666D02*
X234834819Y-135833809D01*
X234834819Y-135833809D02*
X234834819Y-135595714D01*
X234168152Y-137024285D02*
X234834819Y-137024285D01*
X233787200Y-136786190D02*
X234501485Y-136548095D01*
X234501485Y-136548095D02*
X234501485Y-137167142D01*
X233930057Y-137500476D02*
X233882438Y-137548095D01*
X233882438Y-137548095D02*
X233834819Y-137643333D01*
X233834819Y-137643333D02*
X233834819Y-137881428D01*
X233834819Y-137881428D02*
X233882438Y-137976666D01*
X233882438Y-137976666D02*
X233930057Y-138024285D01*
X233930057Y-138024285D02*
X234025295Y-138071904D01*
X234025295Y-138071904D02*
X234120533Y-138071904D01*
X234120533Y-138071904D02*
X234263390Y-138024285D01*
X234263390Y-138024285D02*
X234834819Y-137452857D01*
X234834819Y-137452857D02*
X234834819Y-138071904D01*
X235154819Y-132738095D02*
X234154819Y-132738095D01*
X235154819Y-133309523D02*
X234583390Y-132880952D01*
X234154819Y-133309523D02*
X234726247Y-132738095D01*
X186464285Y-123699819D02*
X186464285Y-122699819D01*
X186464285Y-122699819D02*
X186226190Y-122699819D01*
X186226190Y-122699819D02*
X186083333Y-122747438D01*
X186083333Y-122747438D02*
X185988095Y-122842676D01*
X185988095Y-122842676D02*
X185940476Y-122937914D01*
X185940476Y-122937914D02*
X185892857Y-123128390D01*
X185892857Y-123128390D02*
X185892857Y-123271247D01*
X185892857Y-123271247D02*
X185940476Y-123461723D01*
X185940476Y-123461723D02*
X185988095Y-123556961D01*
X185988095Y-123556961D02*
X186083333Y-123652200D01*
X186083333Y-123652200D02*
X186226190Y-123699819D01*
X186226190Y-123699819D02*
X186464285Y-123699819D01*
X185511904Y-122795057D02*
X185464285Y-122747438D01*
X185464285Y-122747438D02*
X185369047Y-122699819D01*
X185369047Y-122699819D02*
X185130952Y-122699819D01*
X185130952Y-122699819D02*
X185035714Y-122747438D01*
X185035714Y-122747438D02*
X184988095Y-122795057D01*
X184988095Y-122795057D02*
X184940476Y-122890295D01*
X184940476Y-122890295D02*
X184940476Y-122985533D01*
X184940476Y-122985533D02*
X184988095Y-123128390D01*
X184988095Y-123128390D02*
X185559523Y-123699819D01*
X185559523Y-123699819D02*
X184940476Y-123699819D01*
X184559523Y-122795057D02*
X184511904Y-122747438D01*
X184511904Y-122747438D02*
X184416666Y-122699819D01*
X184416666Y-122699819D02*
X184178571Y-122699819D01*
X184178571Y-122699819D02*
X184083333Y-122747438D01*
X184083333Y-122747438D02*
X184035714Y-122795057D01*
X184035714Y-122795057D02*
X183988095Y-122890295D01*
X183988095Y-122890295D02*
X183988095Y-122985533D01*
X183988095Y-122985533D02*
X184035714Y-123128390D01*
X184035714Y-123128390D02*
X184607142Y-123699819D01*
X184607142Y-123699819D02*
X183988095Y-123699819D01*
X181701904Y-123379819D02*
X181701904Y-122379819D01*
X181130476Y-123379819D02*
X181559047Y-122808390D01*
X181130476Y-122379819D02*
X181701904Y-122951247D01*
X34464285Y-123699819D02*
X34464285Y-122699819D01*
X34464285Y-122699819D02*
X34226190Y-122699819D01*
X34226190Y-122699819D02*
X34083333Y-122747438D01*
X34083333Y-122747438D02*
X33988095Y-122842676D01*
X33988095Y-122842676D02*
X33940476Y-122937914D01*
X33940476Y-122937914D02*
X33892857Y-123128390D01*
X33892857Y-123128390D02*
X33892857Y-123271247D01*
X33892857Y-123271247D02*
X33940476Y-123461723D01*
X33940476Y-123461723D02*
X33988095Y-123556961D01*
X33988095Y-123556961D02*
X34083333Y-123652200D01*
X34083333Y-123652200D02*
X34226190Y-123699819D01*
X34226190Y-123699819D02*
X34464285Y-123699819D01*
X32940476Y-123699819D02*
X33511904Y-123699819D01*
X33226190Y-123699819D02*
X33226190Y-122699819D01*
X33226190Y-122699819D02*
X33321428Y-122842676D01*
X33321428Y-122842676D02*
X33416666Y-122937914D01*
X33416666Y-122937914D02*
X33511904Y-122985533D01*
X32083333Y-123033152D02*
X32083333Y-123699819D01*
X32321428Y-122652200D02*
X32559523Y-123366485D01*
X32559523Y-123366485D02*
X31940476Y-123366485D01*
X29701904Y-123379819D02*
X29701904Y-122379819D01*
X29130476Y-123379819D02*
X29559047Y-122808390D01*
X29130476Y-122379819D02*
X29701904Y-122951247D01*
X148464285Y-142699819D02*
X148464285Y-141699819D01*
X148464285Y-141699819D02*
X148226190Y-141699819D01*
X148226190Y-141699819D02*
X148083333Y-141747438D01*
X148083333Y-141747438D02*
X147988095Y-141842676D01*
X147988095Y-141842676D02*
X147940476Y-141937914D01*
X147940476Y-141937914D02*
X147892857Y-142128390D01*
X147892857Y-142128390D02*
X147892857Y-142271247D01*
X147892857Y-142271247D02*
X147940476Y-142461723D01*
X147940476Y-142461723D02*
X147988095Y-142556961D01*
X147988095Y-142556961D02*
X148083333Y-142652200D01*
X148083333Y-142652200D02*
X148226190Y-142699819D01*
X148226190Y-142699819D02*
X148464285Y-142699819D01*
X147559523Y-141699819D02*
X146940476Y-141699819D01*
X146940476Y-141699819D02*
X147273809Y-142080771D01*
X147273809Y-142080771D02*
X147130952Y-142080771D01*
X147130952Y-142080771D02*
X147035714Y-142128390D01*
X147035714Y-142128390D02*
X146988095Y-142176009D01*
X146988095Y-142176009D02*
X146940476Y-142271247D01*
X146940476Y-142271247D02*
X146940476Y-142509342D01*
X146940476Y-142509342D02*
X146988095Y-142604580D01*
X146988095Y-142604580D02*
X147035714Y-142652200D01*
X147035714Y-142652200D02*
X147130952Y-142699819D01*
X147130952Y-142699819D02*
X147416666Y-142699819D01*
X147416666Y-142699819D02*
X147511904Y-142652200D01*
X147511904Y-142652200D02*
X147559523Y-142604580D01*
X146607142Y-141699819D02*
X145988095Y-141699819D01*
X145988095Y-141699819D02*
X146321428Y-142080771D01*
X146321428Y-142080771D02*
X146178571Y-142080771D01*
X146178571Y-142080771D02*
X146083333Y-142128390D01*
X146083333Y-142128390D02*
X146035714Y-142176009D01*
X146035714Y-142176009D02*
X145988095Y-142271247D01*
X145988095Y-142271247D02*
X145988095Y-142509342D01*
X145988095Y-142509342D02*
X146035714Y-142604580D01*
X146035714Y-142604580D02*
X146083333Y-142652200D01*
X146083333Y-142652200D02*
X146178571Y-142699819D01*
X146178571Y-142699819D02*
X146464285Y-142699819D01*
X146464285Y-142699819D02*
X146559523Y-142652200D01*
X146559523Y-142652200D02*
X146607142Y-142604580D01*
X143701904Y-142379819D02*
X143701904Y-141379819D01*
X143130476Y-142379819D02*
X143559047Y-141808390D01*
X143130476Y-141379819D02*
X143701904Y-141951247D01*
X167464285Y-142699819D02*
X167464285Y-141699819D01*
X167464285Y-141699819D02*
X167226190Y-141699819D01*
X167226190Y-141699819D02*
X167083333Y-141747438D01*
X167083333Y-141747438D02*
X166988095Y-141842676D01*
X166988095Y-141842676D02*
X166940476Y-141937914D01*
X166940476Y-141937914D02*
X166892857Y-142128390D01*
X166892857Y-142128390D02*
X166892857Y-142271247D01*
X166892857Y-142271247D02*
X166940476Y-142461723D01*
X166940476Y-142461723D02*
X166988095Y-142556961D01*
X166988095Y-142556961D02*
X167083333Y-142652200D01*
X167083333Y-142652200D02*
X167226190Y-142699819D01*
X167226190Y-142699819D02*
X167464285Y-142699819D01*
X166559523Y-141699819D02*
X165940476Y-141699819D01*
X165940476Y-141699819D02*
X166273809Y-142080771D01*
X166273809Y-142080771D02*
X166130952Y-142080771D01*
X166130952Y-142080771D02*
X166035714Y-142128390D01*
X166035714Y-142128390D02*
X165988095Y-142176009D01*
X165988095Y-142176009D02*
X165940476Y-142271247D01*
X165940476Y-142271247D02*
X165940476Y-142509342D01*
X165940476Y-142509342D02*
X165988095Y-142604580D01*
X165988095Y-142604580D02*
X166035714Y-142652200D01*
X166035714Y-142652200D02*
X166130952Y-142699819D01*
X166130952Y-142699819D02*
X166416666Y-142699819D01*
X166416666Y-142699819D02*
X166511904Y-142652200D01*
X166511904Y-142652200D02*
X166559523Y-142604580D01*
X165083333Y-142033152D02*
X165083333Y-142699819D01*
X165321428Y-141652200D02*
X165559523Y-142366485D01*
X165559523Y-142366485D02*
X164940476Y-142366485D01*
X162701904Y-142379819D02*
X162701904Y-141379819D01*
X162130476Y-142379819D02*
X162559047Y-141808390D01*
X162130476Y-141379819D02*
X162701904Y-141951247D01*
X54899285Y-142699819D02*
X54899285Y-141699819D01*
X54899285Y-141699819D02*
X54661190Y-141699819D01*
X54661190Y-141699819D02*
X54518333Y-141747438D01*
X54518333Y-141747438D02*
X54423095Y-141842676D01*
X54423095Y-141842676D02*
X54375476Y-141937914D01*
X54375476Y-141937914D02*
X54327857Y-142128390D01*
X54327857Y-142128390D02*
X54327857Y-142271247D01*
X54327857Y-142271247D02*
X54375476Y-142461723D01*
X54375476Y-142461723D02*
X54423095Y-142556961D01*
X54423095Y-142556961D02*
X54518333Y-142652200D01*
X54518333Y-142652200D02*
X54661190Y-142699819D01*
X54661190Y-142699819D02*
X54899285Y-142699819D01*
X53946904Y-141795057D02*
X53899285Y-141747438D01*
X53899285Y-141747438D02*
X53804047Y-141699819D01*
X53804047Y-141699819D02*
X53565952Y-141699819D01*
X53565952Y-141699819D02*
X53470714Y-141747438D01*
X53470714Y-141747438D02*
X53423095Y-141795057D01*
X53423095Y-141795057D02*
X53375476Y-141890295D01*
X53375476Y-141890295D02*
X53375476Y-141985533D01*
X53375476Y-141985533D02*
X53423095Y-142128390D01*
X53423095Y-142128390D02*
X53994523Y-142699819D01*
X53994523Y-142699819D02*
X53375476Y-142699819D01*
X52804047Y-142128390D02*
X52899285Y-142080771D01*
X52899285Y-142080771D02*
X52946904Y-142033152D01*
X52946904Y-142033152D02*
X52994523Y-141937914D01*
X52994523Y-141937914D02*
X52994523Y-141890295D01*
X52994523Y-141890295D02*
X52946904Y-141795057D01*
X52946904Y-141795057D02*
X52899285Y-141747438D01*
X52899285Y-141747438D02*
X52804047Y-141699819D01*
X52804047Y-141699819D02*
X52613571Y-141699819D01*
X52613571Y-141699819D02*
X52518333Y-141747438D01*
X52518333Y-141747438D02*
X52470714Y-141795057D01*
X52470714Y-141795057D02*
X52423095Y-141890295D01*
X52423095Y-141890295D02*
X52423095Y-141937914D01*
X52423095Y-141937914D02*
X52470714Y-142033152D01*
X52470714Y-142033152D02*
X52518333Y-142080771D01*
X52518333Y-142080771D02*
X52613571Y-142128390D01*
X52613571Y-142128390D02*
X52804047Y-142128390D01*
X52804047Y-142128390D02*
X52899285Y-142176009D01*
X52899285Y-142176009D02*
X52946904Y-142223628D01*
X52946904Y-142223628D02*
X52994523Y-142318866D01*
X52994523Y-142318866D02*
X52994523Y-142509342D01*
X52994523Y-142509342D02*
X52946904Y-142604580D01*
X52946904Y-142604580D02*
X52899285Y-142652200D01*
X52899285Y-142652200D02*
X52804047Y-142699819D01*
X52804047Y-142699819D02*
X52613571Y-142699819D01*
X52613571Y-142699819D02*
X52518333Y-142652200D01*
X52518333Y-142652200D02*
X52470714Y-142604580D01*
X52470714Y-142604580D02*
X52423095Y-142509342D01*
X52423095Y-142509342D02*
X52423095Y-142318866D01*
X52423095Y-142318866D02*
X52470714Y-142223628D01*
X52470714Y-142223628D02*
X52518333Y-142176009D01*
X52518333Y-142176009D02*
X52613571Y-142128390D01*
X50136904Y-142379819D02*
X50136904Y-141379819D01*
X49565476Y-142379819D02*
X49994047Y-141808390D01*
X49565476Y-141379819D02*
X50136904Y-141951247D01*
X214459819Y-148410714D02*
X213459819Y-148410714D01*
X213459819Y-148410714D02*
X213459819Y-148648809D01*
X213459819Y-148648809D02*
X213507438Y-148791666D01*
X213507438Y-148791666D02*
X213602676Y-148886904D01*
X213602676Y-148886904D02*
X213697914Y-148934523D01*
X213697914Y-148934523D02*
X213888390Y-148982142D01*
X213888390Y-148982142D02*
X214031247Y-148982142D01*
X214031247Y-148982142D02*
X214221723Y-148934523D01*
X214221723Y-148934523D02*
X214316961Y-148886904D01*
X214316961Y-148886904D02*
X214412200Y-148791666D01*
X214412200Y-148791666D02*
X214459819Y-148648809D01*
X214459819Y-148648809D02*
X214459819Y-148410714D01*
X213793152Y-149839285D02*
X214459819Y-149839285D01*
X213412200Y-149601190D02*
X214126485Y-149363095D01*
X214126485Y-149363095D02*
X214126485Y-149982142D01*
X214459819Y-150886904D02*
X214459819Y-150315476D01*
X214459819Y-150601190D02*
X213459819Y-150601190D01*
X213459819Y-150601190D02*
X213602676Y-150505952D01*
X213602676Y-150505952D02*
X213697914Y-150410714D01*
X213697914Y-150410714D02*
X213745533Y-150315476D01*
X214779819Y-145553095D02*
X213779819Y-145553095D01*
X214779819Y-146124523D02*
X214208390Y-145695952D01*
X213779819Y-146124523D02*
X214351247Y-145553095D01*
X243464285Y-104699819D02*
X243464285Y-103699819D01*
X243464285Y-103699819D02*
X243226190Y-103699819D01*
X243226190Y-103699819D02*
X243083333Y-103747438D01*
X243083333Y-103747438D02*
X242988095Y-103842676D01*
X242988095Y-103842676D02*
X242940476Y-103937914D01*
X242940476Y-103937914D02*
X242892857Y-104128390D01*
X242892857Y-104128390D02*
X242892857Y-104271247D01*
X242892857Y-104271247D02*
X242940476Y-104461723D01*
X242940476Y-104461723D02*
X242988095Y-104556961D01*
X242988095Y-104556961D02*
X243083333Y-104652200D01*
X243083333Y-104652200D02*
X243226190Y-104699819D01*
X243226190Y-104699819D02*
X243464285Y-104699819D01*
X241940476Y-104699819D02*
X242511904Y-104699819D01*
X242226190Y-104699819D02*
X242226190Y-103699819D01*
X242226190Y-103699819D02*
X242321428Y-103842676D01*
X242321428Y-103842676D02*
X242416666Y-103937914D01*
X242416666Y-103937914D02*
X242511904Y-103985533D01*
X241559523Y-103795057D02*
X241511904Y-103747438D01*
X241511904Y-103747438D02*
X241416666Y-103699819D01*
X241416666Y-103699819D02*
X241178571Y-103699819D01*
X241178571Y-103699819D02*
X241083333Y-103747438D01*
X241083333Y-103747438D02*
X241035714Y-103795057D01*
X241035714Y-103795057D02*
X240988095Y-103890295D01*
X240988095Y-103890295D02*
X240988095Y-103985533D01*
X240988095Y-103985533D02*
X241035714Y-104128390D01*
X241035714Y-104128390D02*
X241607142Y-104699819D01*
X241607142Y-104699819D02*
X240988095Y-104699819D01*
X238701904Y-104379819D02*
X238701904Y-103379819D01*
X238130476Y-104379819D02*
X238559047Y-103808390D01*
X238130476Y-103379819D02*
X238701904Y-103951247D01*
X34464285Y-142699819D02*
X34464285Y-141699819D01*
X34464285Y-141699819D02*
X34226190Y-141699819D01*
X34226190Y-141699819D02*
X34083333Y-141747438D01*
X34083333Y-141747438D02*
X33988095Y-141842676D01*
X33988095Y-141842676D02*
X33940476Y-141937914D01*
X33940476Y-141937914D02*
X33892857Y-142128390D01*
X33892857Y-142128390D02*
X33892857Y-142271247D01*
X33892857Y-142271247D02*
X33940476Y-142461723D01*
X33940476Y-142461723D02*
X33988095Y-142556961D01*
X33988095Y-142556961D02*
X34083333Y-142652200D01*
X34083333Y-142652200D02*
X34226190Y-142699819D01*
X34226190Y-142699819D02*
X34464285Y-142699819D01*
X33511904Y-141795057D02*
X33464285Y-141747438D01*
X33464285Y-141747438D02*
X33369047Y-141699819D01*
X33369047Y-141699819D02*
X33130952Y-141699819D01*
X33130952Y-141699819D02*
X33035714Y-141747438D01*
X33035714Y-141747438D02*
X32988095Y-141795057D01*
X32988095Y-141795057D02*
X32940476Y-141890295D01*
X32940476Y-141890295D02*
X32940476Y-141985533D01*
X32940476Y-141985533D02*
X32988095Y-142128390D01*
X32988095Y-142128390D02*
X33559523Y-142699819D01*
X33559523Y-142699819D02*
X32940476Y-142699819D01*
X32607142Y-141699819D02*
X31940476Y-141699819D01*
X31940476Y-141699819D02*
X32369047Y-142699819D01*
X29701904Y-142379819D02*
X29701904Y-141379819D01*
X29130476Y-142379819D02*
X29559047Y-141808390D01*
X29130476Y-141379819D02*
X29701904Y-141951247D01*
X109988094Y-104699819D02*
X109988094Y-103699819D01*
X109988094Y-103699819D02*
X109749999Y-103699819D01*
X109749999Y-103699819D02*
X109607142Y-103747438D01*
X109607142Y-103747438D02*
X109511904Y-103842676D01*
X109511904Y-103842676D02*
X109464285Y-103937914D01*
X109464285Y-103937914D02*
X109416666Y-104128390D01*
X109416666Y-104128390D02*
X109416666Y-104271247D01*
X109416666Y-104271247D02*
X109464285Y-104461723D01*
X109464285Y-104461723D02*
X109511904Y-104556961D01*
X109511904Y-104556961D02*
X109607142Y-104652200D01*
X109607142Y-104652200D02*
X109749999Y-104699819D01*
X109749999Y-104699819D02*
X109988094Y-104699819D01*
X108511904Y-103699819D02*
X108988094Y-103699819D01*
X108988094Y-103699819D02*
X109035713Y-104176009D01*
X109035713Y-104176009D02*
X108988094Y-104128390D01*
X108988094Y-104128390D02*
X108892856Y-104080771D01*
X108892856Y-104080771D02*
X108654761Y-104080771D01*
X108654761Y-104080771D02*
X108559523Y-104128390D01*
X108559523Y-104128390D02*
X108511904Y-104176009D01*
X108511904Y-104176009D02*
X108464285Y-104271247D01*
X108464285Y-104271247D02*
X108464285Y-104509342D01*
X108464285Y-104509342D02*
X108511904Y-104604580D01*
X108511904Y-104604580D02*
X108559523Y-104652200D01*
X108559523Y-104652200D02*
X108654761Y-104699819D01*
X108654761Y-104699819D02*
X108892856Y-104699819D01*
X108892856Y-104699819D02*
X108988094Y-104652200D01*
X108988094Y-104652200D02*
X109035713Y-104604580D01*
X105701904Y-104954819D02*
X105701904Y-103954819D01*
X105130476Y-104954819D02*
X105559047Y-104383390D01*
X105130476Y-103954819D02*
X105701904Y-104526247D01*
X62459819Y-148410714D02*
X61459819Y-148410714D01*
X61459819Y-148410714D02*
X61459819Y-148648809D01*
X61459819Y-148648809D02*
X61507438Y-148791666D01*
X61507438Y-148791666D02*
X61602676Y-148886904D01*
X61602676Y-148886904D02*
X61697914Y-148934523D01*
X61697914Y-148934523D02*
X61888390Y-148982142D01*
X61888390Y-148982142D02*
X62031247Y-148982142D01*
X62031247Y-148982142D02*
X62221723Y-148934523D01*
X62221723Y-148934523D02*
X62316961Y-148886904D01*
X62316961Y-148886904D02*
X62412200Y-148791666D01*
X62412200Y-148791666D02*
X62459819Y-148648809D01*
X62459819Y-148648809D02*
X62459819Y-148410714D01*
X61793152Y-149839285D02*
X62459819Y-149839285D01*
X61412200Y-149601190D02*
X62126485Y-149363095D01*
X62126485Y-149363095D02*
X62126485Y-149982142D01*
X61459819Y-150553571D02*
X61459819Y-150648809D01*
X61459819Y-150648809D02*
X61507438Y-150744047D01*
X61507438Y-150744047D02*
X61555057Y-150791666D01*
X61555057Y-150791666D02*
X61650295Y-150839285D01*
X61650295Y-150839285D02*
X61840771Y-150886904D01*
X61840771Y-150886904D02*
X62078866Y-150886904D01*
X62078866Y-150886904D02*
X62269342Y-150839285D01*
X62269342Y-150839285D02*
X62364580Y-150791666D01*
X62364580Y-150791666D02*
X62412200Y-150744047D01*
X62412200Y-150744047D02*
X62459819Y-150648809D01*
X62459819Y-150648809D02*
X62459819Y-150553571D01*
X62459819Y-150553571D02*
X62412200Y-150458333D01*
X62412200Y-150458333D02*
X62364580Y-150410714D01*
X62364580Y-150410714D02*
X62269342Y-150363095D01*
X62269342Y-150363095D02*
X62078866Y-150315476D01*
X62078866Y-150315476D02*
X61840771Y-150315476D01*
X61840771Y-150315476D02*
X61650295Y-150363095D01*
X61650295Y-150363095D02*
X61555057Y-150410714D01*
X61555057Y-150410714D02*
X61507438Y-150458333D01*
X61507438Y-150458333D02*
X61459819Y-150553571D01*
X62779819Y-145553095D02*
X61779819Y-145553095D01*
X62779819Y-146124523D02*
X62208390Y-145695952D01*
X61779819Y-146124523D02*
X62351247Y-145553095D01*
X129464285Y-123699819D02*
X129464285Y-122699819D01*
X129464285Y-122699819D02*
X129226190Y-122699819D01*
X129226190Y-122699819D02*
X129083333Y-122747438D01*
X129083333Y-122747438D02*
X128988095Y-122842676D01*
X128988095Y-122842676D02*
X128940476Y-122937914D01*
X128940476Y-122937914D02*
X128892857Y-123128390D01*
X128892857Y-123128390D02*
X128892857Y-123271247D01*
X128892857Y-123271247D02*
X128940476Y-123461723D01*
X128940476Y-123461723D02*
X128988095Y-123556961D01*
X128988095Y-123556961D02*
X129083333Y-123652200D01*
X129083333Y-123652200D02*
X129226190Y-123699819D01*
X129226190Y-123699819D02*
X129464285Y-123699819D01*
X127940476Y-123699819D02*
X128511904Y-123699819D01*
X128226190Y-123699819D02*
X128226190Y-122699819D01*
X128226190Y-122699819D02*
X128321428Y-122842676D01*
X128321428Y-122842676D02*
X128416666Y-122937914D01*
X128416666Y-122937914D02*
X128511904Y-122985533D01*
X127464285Y-123699819D02*
X127273809Y-123699819D01*
X127273809Y-123699819D02*
X127178571Y-123652200D01*
X127178571Y-123652200D02*
X127130952Y-123604580D01*
X127130952Y-123604580D02*
X127035714Y-123461723D01*
X127035714Y-123461723D02*
X126988095Y-123271247D01*
X126988095Y-123271247D02*
X126988095Y-122890295D01*
X126988095Y-122890295D02*
X127035714Y-122795057D01*
X127035714Y-122795057D02*
X127083333Y-122747438D01*
X127083333Y-122747438D02*
X127178571Y-122699819D01*
X127178571Y-122699819D02*
X127369047Y-122699819D01*
X127369047Y-122699819D02*
X127464285Y-122747438D01*
X127464285Y-122747438D02*
X127511904Y-122795057D01*
X127511904Y-122795057D02*
X127559523Y-122890295D01*
X127559523Y-122890295D02*
X127559523Y-123128390D01*
X127559523Y-123128390D02*
X127511904Y-123223628D01*
X127511904Y-123223628D02*
X127464285Y-123271247D01*
X127464285Y-123271247D02*
X127369047Y-123318866D01*
X127369047Y-123318866D02*
X127178571Y-123318866D01*
X127178571Y-123318866D02*
X127083333Y-123271247D01*
X127083333Y-123271247D02*
X127035714Y-123223628D01*
X127035714Y-123223628D02*
X126988095Y-123128390D01*
X124701904Y-123379819D02*
X124701904Y-122379819D01*
X124130476Y-123379819D02*
X124559047Y-122808390D01*
X124130476Y-122379819D02*
X124701904Y-122951247D01*
X91464285Y-123699819D02*
X91464285Y-122699819D01*
X91464285Y-122699819D02*
X91226190Y-122699819D01*
X91226190Y-122699819D02*
X91083333Y-122747438D01*
X91083333Y-122747438D02*
X90988095Y-122842676D01*
X90988095Y-122842676D02*
X90940476Y-122937914D01*
X90940476Y-122937914D02*
X90892857Y-123128390D01*
X90892857Y-123128390D02*
X90892857Y-123271247D01*
X90892857Y-123271247D02*
X90940476Y-123461723D01*
X90940476Y-123461723D02*
X90988095Y-123556961D01*
X90988095Y-123556961D02*
X91083333Y-123652200D01*
X91083333Y-123652200D02*
X91226190Y-123699819D01*
X91226190Y-123699819D02*
X91464285Y-123699819D01*
X89940476Y-123699819D02*
X90511904Y-123699819D01*
X90226190Y-123699819D02*
X90226190Y-122699819D01*
X90226190Y-122699819D02*
X90321428Y-122842676D01*
X90321428Y-122842676D02*
X90416666Y-122937914D01*
X90416666Y-122937914D02*
X90511904Y-122985533D01*
X89607142Y-122699819D02*
X88940476Y-122699819D01*
X88940476Y-122699819D02*
X89369047Y-123699819D01*
X86701904Y-123379819D02*
X86701904Y-122379819D01*
X86130476Y-123379819D02*
X86559047Y-122808390D01*
X86130476Y-122379819D02*
X86701904Y-122951247D01*
X43459819Y-148410714D02*
X42459819Y-148410714D01*
X42459819Y-148410714D02*
X42459819Y-148648809D01*
X42459819Y-148648809D02*
X42507438Y-148791666D01*
X42507438Y-148791666D02*
X42602676Y-148886904D01*
X42602676Y-148886904D02*
X42697914Y-148934523D01*
X42697914Y-148934523D02*
X42888390Y-148982142D01*
X42888390Y-148982142D02*
X43031247Y-148982142D01*
X43031247Y-148982142D02*
X43221723Y-148934523D01*
X43221723Y-148934523D02*
X43316961Y-148886904D01*
X43316961Y-148886904D02*
X43412200Y-148791666D01*
X43412200Y-148791666D02*
X43459819Y-148648809D01*
X43459819Y-148648809D02*
X43459819Y-148410714D01*
X42459819Y-149315476D02*
X42459819Y-149934523D01*
X42459819Y-149934523D02*
X42840771Y-149601190D01*
X42840771Y-149601190D02*
X42840771Y-149744047D01*
X42840771Y-149744047D02*
X42888390Y-149839285D01*
X42888390Y-149839285D02*
X42936009Y-149886904D01*
X42936009Y-149886904D02*
X43031247Y-149934523D01*
X43031247Y-149934523D02*
X43269342Y-149934523D01*
X43269342Y-149934523D02*
X43364580Y-149886904D01*
X43364580Y-149886904D02*
X43412200Y-149839285D01*
X43412200Y-149839285D02*
X43459819Y-149744047D01*
X43459819Y-149744047D02*
X43459819Y-149458333D01*
X43459819Y-149458333D02*
X43412200Y-149363095D01*
X43412200Y-149363095D02*
X43364580Y-149315476D01*
X43459819Y-150410714D02*
X43459819Y-150601190D01*
X43459819Y-150601190D02*
X43412200Y-150696428D01*
X43412200Y-150696428D02*
X43364580Y-150744047D01*
X43364580Y-150744047D02*
X43221723Y-150839285D01*
X43221723Y-150839285D02*
X43031247Y-150886904D01*
X43031247Y-150886904D02*
X42650295Y-150886904D01*
X42650295Y-150886904D02*
X42555057Y-150839285D01*
X42555057Y-150839285D02*
X42507438Y-150791666D01*
X42507438Y-150791666D02*
X42459819Y-150696428D01*
X42459819Y-150696428D02*
X42459819Y-150505952D01*
X42459819Y-150505952D02*
X42507438Y-150410714D01*
X42507438Y-150410714D02*
X42555057Y-150363095D01*
X42555057Y-150363095D02*
X42650295Y-150315476D01*
X42650295Y-150315476D02*
X42888390Y-150315476D01*
X42888390Y-150315476D02*
X42983628Y-150363095D01*
X42983628Y-150363095D02*
X43031247Y-150410714D01*
X43031247Y-150410714D02*
X43078866Y-150505952D01*
X43078866Y-150505952D02*
X43078866Y-150696428D01*
X43078866Y-150696428D02*
X43031247Y-150791666D01*
X43031247Y-150791666D02*
X42983628Y-150839285D01*
X42983628Y-150839285D02*
X42888390Y-150886904D01*
X43779819Y-145553095D02*
X42779819Y-145553095D01*
X43779819Y-146124523D02*
X43208390Y-145695952D01*
X42779819Y-146124523D02*
X43351247Y-145553095D01*
X167464285Y-123699819D02*
X167464285Y-122699819D01*
X167464285Y-122699819D02*
X167226190Y-122699819D01*
X167226190Y-122699819D02*
X167083333Y-122747438D01*
X167083333Y-122747438D02*
X166988095Y-122842676D01*
X166988095Y-122842676D02*
X166940476Y-122937914D01*
X166940476Y-122937914D02*
X166892857Y-123128390D01*
X166892857Y-123128390D02*
X166892857Y-123271247D01*
X166892857Y-123271247D02*
X166940476Y-123461723D01*
X166940476Y-123461723D02*
X166988095Y-123556961D01*
X166988095Y-123556961D02*
X167083333Y-123652200D01*
X167083333Y-123652200D02*
X167226190Y-123699819D01*
X167226190Y-123699819D02*
X167464285Y-123699819D01*
X166511904Y-122795057D02*
X166464285Y-122747438D01*
X166464285Y-122747438D02*
X166369047Y-122699819D01*
X166369047Y-122699819D02*
X166130952Y-122699819D01*
X166130952Y-122699819D02*
X166035714Y-122747438D01*
X166035714Y-122747438D02*
X165988095Y-122795057D01*
X165988095Y-122795057D02*
X165940476Y-122890295D01*
X165940476Y-122890295D02*
X165940476Y-122985533D01*
X165940476Y-122985533D02*
X165988095Y-123128390D01*
X165988095Y-123128390D02*
X166559523Y-123699819D01*
X166559523Y-123699819D02*
X165940476Y-123699819D01*
X164988095Y-123699819D02*
X165559523Y-123699819D01*
X165273809Y-123699819D02*
X165273809Y-122699819D01*
X165273809Y-122699819D02*
X165369047Y-122842676D01*
X165369047Y-122842676D02*
X165464285Y-122937914D01*
X165464285Y-122937914D02*
X165559523Y-122985533D01*
X162701904Y-123379819D02*
X162701904Y-122379819D01*
X162130476Y-123379819D02*
X162559047Y-122808390D01*
X162130476Y-122379819D02*
X162701904Y-122951247D01*
X205464285Y-104699819D02*
X205464285Y-103699819D01*
X205464285Y-103699819D02*
X205226190Y-103699819D01*
X205226190Y-103699819D02*
X205083333Y-103747438D01*
X205083333Y-103747438D02*
X204988095Y-103842676D01*
X204988095Y-103842676D02*
X204940476Y-103937914D01*
X204940476Y-103937914D02*
X204892857Y-104128390D01*
X204892857Y-104128390D02*
X204892857Y-104271247D01*
X204892857Y-104271247D02*
X204940476Y-104461723D01*
X204940476Y-104461723D02*
X204988095Y-104556961D01*
X204988095Y-104556961D02*
X205083333Y-104652200D01*
X205083333Y-104652200D02*
X205226190Y-104699819D01*
X205226190Y-104699819D02*
X205464285Y-104699819D01*
X203940476Y-104699819D02*
X204511904Y-104699819D01*
X204226190Y-104699819D02*
X204226190Y-103699819D01*
X204226190Y-103699819D02*
X204321428Y-103842676D01*
X204321428Y-103842676D02*
X204416666Y-103937914D01*
X204416666Y-103937914D02*
X204511904Y-103985533D01*
X203321428Y-103699819D02*
X203226190Y-103699819D01*
X203226190Y-103699819D02*
X203130952Y-103747438D01*
X203130952Y-103747438D02*
X203083333Y-103795057D01*
X203083333Y-103795057D02*
X203035714Y-103890295D01*
X203035714Y-103890295D02*
X202988095Y-104080771D01*
X202988095Y-104080771D02*
X202988095Y-104318866D01*
X202988095Y-104318866D02*
X203035714Y-104509342D01*
X203035714Y-104509342D02*
X203083333Y-104604580D01*
X203083333Y-104604580D02*
X203130952Y-104652200D01*
X203130952Y-104652200D02*
X203226190Y-104699819D01*
X203226190Y-104699819D02*
X203321428Y-104699819D01*
X203321428Y-104699819D02*
X203416666Y-104652200D01*
X203416666Y-104652200D02*
X203464285Y-104604580D01*
X203464285Y-104604580D02*
X203511904Y-104509342D01*
X203511904Y-104509342D02*
X203559523Y-104318866D01*
X203559523Y-104318866D02*
X203559523Y-104080771D01*
X203559523Y-104080771D02*
X203511904Y-103890295D01*
X203511904Y-103890295D02*
X203464285Y-103795057D01*
X203464285Y-103795057D02*
X203416666Y-103747438D01*
X203416666Y-103747438D02*
X203321428Y-103699819D01*
X200701904Y-104379819D02*
X200701904Y-103379819D01*
X200130476Y-104379819D02*
X200559047Y-103808390D01*
X200130476Y-103379819D02*
X200701904Y-103951247D01*
X66574819Y-135185714D02*
X65574819Y-135185714D01*
X65574819Y-135185714D02*
X65574819Y-135423809D01*
X65574819Y-135423809D02*
X65622438Y-135566666D01*
X65622438Y-135566666D02*
X65717676Y-135661904D01*
X65717676Y-135661904D02*
X65812914Y-135709523D01*
X65812914Y-135709523D02*
X66003390Y-135757142D01*
X66003390Y-135757142D02*
X66146247Y-135757142D01*
X66146247Y-135757142D02*
X66336723Y-135709523D01*
X66336723Y-135709523D02*
X66431961Y-135661904D01*
X66431961Y-135661904D02*
X66527200Y-135566666D01*
X66527200Y-135566666D02*
X66574819Y-135423809D01*
X66574819Y-135423809D02*
X66574819Y-135185714D01*
X65670057Y-136138095D02*
X65622438Y-136185714D01*
X65622438Y-136185714D02*
X65574819Y-136280952D01*
X65574819Y-136280952D02*
X65574819Y-136519047D01*
X65574819Y-136519047D02*
X65622438Y-136614285D01*
X65622438Y-136614285D02*
X65670057Y-136661904D01*
X65670057Y-136661904D02*
X65765295Y-136709523D01*
X65765295Y-136709523D02*
X65860533Y-136709523D01*
X65860533Y-136709523D02*
X66003390Y-136661904D01*
X66003390Y-136661904D02*
X66574819Y-136090476D01*
X66574819Y-136090476D02*
X66574819Y-136709523D01*
X66574819Y-137185714D02*
X66574819Y-137376190D01*
X66574819Y-137376190D02*
X66527200Y-137471428D01*
X66527200Y-137471428D02*
X66479580Y-137519047D01*
X66479580Y-137519047D02*
X66336723Y-137614285D01*
X66336723Y-137614285D02*
X66146247Y-137661904D01*
X66146247Y-137661904D02*
X65765295Y-137661904D01*
X65765295Y-137661904D02*
X65670057Y-137614285D01*
X65670057Y-137614285D02*
X65622438Y-137566666D01*
X65622438Y-137566666D02*
X65574819Y-137471428D01*
X65574819Y-137471428D02*
X65574819Y-137280952D01*
X65574819Y-137280952D02*
X65622438Y-137185714D01*
X65622438Y-137185714D02*
X65670057Y-137138095D01*
X65670057Y-137138095D02*
X65765295Y-137090476D01*
X65765295Y-137090476D02*
X66003390Y-137090476D01*
X66003390Y-137090476D02*
X66098628Y-137138095D01*
X66098628Y-137138095D02*
X66146247Y-137185714D01*
X66146247Y-137185714D02*
X66193866Y-137280952D01*
X66193866Y-137280952D02*
X66193866Y-137471428D01*
X66193866Y-137471428D02*
X66146247Y-137566666D01*
X66146247Y-137566666D02*
X66098628Y-137614285D01*
X66098628Y-137614285D02*
X66003390Y-137661904D01*
X66254819Y-139948095D02*
X65254819Y-139948095D01*
X66254819Y-140519523D02*
X65683390Y-140090952D01*
X65254819Y-140519523D02*
X65826247Y-139948095D01*
X224464285Y-123699819D02*
X224464285Y-122699819D01*
X224464285Y-122699819D02*
X224226190Y-122699819D01*
X224226190Y-122699819D02*
X224083333Y-122747438D01*
X224083333Y-122747438D02*
X223988095Y-122842676D01*
X223988095Y-122842676D02*
X223940476Y-122937914D01*
X223940476Y-122937914D02*
X223892857Y-123128390D01*
X223892857Y-123128390D02*
X223892857Y-123271247D01*
X223892857Y-123271247D02*
X223940476Y-123461723D01*
X223940476Y-123461723D02*
X223988095Y-123556961D01*
X223988095Y-123556961D02*
X224083333Y-123652200D01*
X224083333Y-123652200D02*
X224226190Y-123699819D01*
X224226190Y-123699819D02*
X224464285Y-123699819D01*
X223511904Y-122795057D02*
X223464285Y-122747438D01*
X223464285Y-122747438D02*
X223369047Y-122699819D01*
X223369047Y-122699819D02*
X223130952Y-122699819D01*
X223130952Y-122699819D02*
X223035714Y-122747438D01*
X223035714Y-122747438D02*
X222988095Y-122795057D01*
X222988095Y-122795057D02*
X222940476Y-122890295D01*
X222940476Y-122890295D02*
X222940476Y-122985533D01*
X222940476Y-122985533D02*
X222988095Y-123128390D01*
X222988095Y-123128390D02*
X223559523Y-123699819D01*
X223559523Y-123699819D02*
X222940476Y-123699819D01*
X222083333Y-123033152D02*
X222083333Y-123699819D01*
X222321428Y-122652200D02*
X222559523Y-123366485D01*
X222559523Y-123366485D02*
X221940476Y-123366485D01*
X219701904Y-123379819D02*
X219701904Y-122379819D01*
X219130476Y-123379819D02*
X219559047Y-122808390D01*
X219130476Y-122379819D02*
X219701904Y-122951247D01*
X53464285Y-123699819D02*
X53464285Y-122699819D01*
X53464285Y-122699819D02*
X53226190Y-122699819D01*
X53226190Y-122699819D02*
X53083333Y-122747438D01*
X53083333Y-122747438D02*
X52988095Y-122842676D01*
X52988095Y-122842676D02*
X52940476Y-122937914D01*
X52940476Y-122937914D02*
X52892857Y-123128390D01*
X52892857Y-123128390D02*
X52892857Y-123271247D01*
X52892857Y-123271247D02*
X52940476Y-123461723D01*
X52940476Y-123461723D02*
X52988095Y-123556961D01*
X52988095Y-123556961D02*
X53083333Y-123652200D01*
X53083333Y-123652200D02*
X53226190Y-123699819D01*
X53226190Y-123699819D02*
X53464285Y-123699819D01*
X51940476Y-123699819D02*
X52511904Y-123699819D01*
X52226190Y-123699819D02*
X52226190Y-122699819D01*
X52226190Y-122699819D02*
X52321428Y-122842676D01*
X52321428Y-122842676D02*
X52416666Y-122937914D01*
X52416666Y-122937914D02*
X52511904Y-122985533D01*
X51035714Y-122699819D02*
X51511904Y-122699819D01*
X51511904Y-122699819D02*
X51559523Y-123176009D01*
X51559523Y-123176009D02*
X51511904Y-123128390D01*
X51511904Y-123128390D02*
X51416666Y-123080771D01*
X51416666Y-123080771D02*
X51178571Y-123080771D01*
X51178571Y-123080771D02*
X51083333Y-123128390D01*
X51083333Y-123128390D02*
X51035714Y-123176009D01*
X51035714Y-123176009D02*
X50988095Y-123271247D01*
X50988095Y-123271247D02*
X50988095Y-123509342D01*
X50988095Y-123509342D02*
X51035714Y-123604580D01*
X51035714Y-123604580D02*
X51083333Y-123652200D01*
X51083333Y-123652200D02*
X51178571Y-123699819D01*
X51178571Y-123699819D02*
X51416666Y-123699819D01*
X51416666Y-123699819D02*
X51511904Y-123652200D01*
X51511904Y-123652200D02*
X51559523Y-123604580D01*
X48701904Y-123379819D02*
X48701904Y-122379819D01*
X48130476Y-123379819D02*
X48559047Y-122808390D01*
X48130476Y-122379819D02*
X48701904Y-122951247D01*
X130899285Y-142699819D02*
X130899285Y-141699819D01*
X130899285Y-141699819D02*
X130661190Y-141699819D01*
X130661190Y-141699819D02*
X130518333Y-141747438D01*
X130518333Y-141747438D02*
X130423095Y-141842676D01*
X130423095Y-141842676D02*
X130375476Y-141937914D01*
X130375476Y-141937914D02*
X130327857Y-142128390D01*
X130327857Y-142128390D02*
X130327857Y-142271247D01*
X130327857Y-142271247D02*
X130375476Y-142461723D01*
X130375476Y-142461723D02*
X130423095Y-142556961D01*
X130423095Y-142556961D02*
X130518333Y-142652200D01*
X130518333Y-142652200D02*
X130661190Y-142699819D01*
X130661190Y-142699819D02*
X130899285Y-142699819D01*
X129994523Y-141699819D02*
X129375476Y-141699819D01*
X129375476Y-141699819D02*
X129708809Y-142080771D01*
X129708809Y-142080771D02*
X129565952Y-142080771D01*
X129565952Y-142080771D02*
X129470714Y-142128390D01*
X129470714Y-142128390D02*
X129423095Y-142176009D01*
X129423095Y-142176009D02*
X129375476Y-142271247D01*
X129375476Y-142271247D02*
X129375476Y-142509342D01*
X129375476Y-142509342D02*
X129423095Y-142604580D01*
X129423095Y-142604580D02*
X129470714Y-142652200D01*
X129470714Y-142652200D02*
X129565952Y-142699819D01*
X129565952Y-142699819D02*
X129851666Y-142699819D01*
X129851666Y-142699819D02*
X129946904Y-142652200D01*
X129946904Y-142652200D02*
X129994523Y-142604580D01*
X128994523Y-141795057D02*
X128946904Y-141747438D01*
X128946904Y-141747438D02*
X128851666Y-141699819D01*
X128851666Y-141699819D02*
X128613571Y-141699819D01*
X128613571Y-141699819D02*
X128518333Y-141747438D01*
X128518333Y-141747438D02*
X128470714Y-141795057D01*
X128470714Y-141795057D02*
X128423095Y-141890295D01*
X128423095Y-141890295D02*
X128423095Y-141985533D01*
X128423095Y-141985533D02*
X128470714Y-142128390D01*
X128470714Y-142128390D02*
X129042142Y-142699819D01*
X129042142Y-142699819D02*
X128423095Y-142699819D01*
X126136904Y-142379819D02*
X126136904Y-141379819D01*
X125565476Y-142379819D02*
X125994047Y-141808390D01*
X125565476Y-141379819D02*
X126136904Y-141951247D01*
X71988094Y-104699819D02*
X71988094Y-103699819D01*
X71988094Y-103699819D02*
X71749999Y-103699819D01*
X71749999Y-103699819D02*
X71607142Y-103747438D01*
X71607142Y-103747438D02*
X71511904Y-103842676D01*
X71511904Y-103842676D02*
X71464285Y-103937914D01*
X71464285Y-103937914D02*
X71416666Y-104128390D01*
X71416666Y-104128390D02*
X71416666Y-104271247D01*
X71416666Y-104271247D02*
X71464285Y-104461723D01*
X71464285Y-104461723D02*
X71511904Y-104556961D01*
X71511904Y-104556961D02*
X71607142Y-104652200D01*
X71607142Y-104652200D02*
X71749999Y-104699819D01*
X71749999Y-104699819D02*
X71988094Y-104699819D01*
X71083332Y-103699819D02*
X70464285Y-103699819D01*
X70464285Y-103699819D02*
X70797618Y-104080771D01*
X70797618Y-104080771D02*
X70654761Y-104080771D01*
X70654761Y-104080771D02*
X70559523Y-104128390D01*
X70559523Y-104128390D02*
X70511904Y-104176009D01*
X70511904Y-104176009D02*
X70464285Y-104271247D01*
X70464285Y-104271247D02*
X70464285Y-104509342D01*
X70464285Y-104509342D02*
X70511904Y-104604580D01*
X70511904Y-104604580D02*
X70559523Y-104652200D01*
X70559523Y-104652200D02*
X70654761Y-104699819D01*
X70654761Y-104699819D02*
X70940475Y-104699819D01*
X70940475Y-104699819D02*
X71035713Y-104652200D01*
X71035713Y-104652200D02*
X71083332Y-104604580D01*
X67701904Y-104379819D02*
X67701904Y-103379819D01*
X67130476Y-104379819D02*
X67559047Y-103808390D01*
X67130476Y-103379819D02*
X67701904Y-103951247D01*
D11*
%TO.C,D44*%
X253380000Y-147505000D02*
X253380000Y-151745000D01*
X253380000Y-151745000D02*
X255620000Y-151745000D01*
X254500000Y-147505000D02*
X254500000Y-146855000D01*
X254500000Y-151745000D02*
X254500000Y-152395000D01*
X255620000Y-147505000D02*
X253380000Y-147505000D01*
X255620000Y-148105000D02*
X253380000Y-148105000D01*
X255620000Y-148225000D02*
X253380000Y-148225000D01*
X255620000Y-148345000D02*
X253380000Y-148345000D01*
X255620000Y-151745000D02*
X255620000Y-147505000D01*
%TO.C,D35*%
X195005000Y-139005000D02*
X195005000Y-141245000D01*
X195005000Y-140125000D02*
X194355000Y-140125000D01*
X195005000Y-141245000D02*
X199245000Y-141245000D01*
X195605000Y-139005000D02*
X195605000Y-141245000D01*
X195725000Y-139005000D02*
X195725000Y-141245000D01*
X195845000Y-139005000D02*
X195845000Y-141245000D01*
X199245000Y-139005000D02*
X195005000Y-139005000D01*
X199245000Y-140125000D02*
X199895000Y-140125000D01*
X199245000Y-141245000D02*
X199245000Y-139005000D01*
%TO.C,D4*%
X88130000Y-101005000D02*
X88130000Y-103245000D01*
X88130000Y-102125000D02*
X87480000Y-102125000D01*
X88130000Y-103245000D02*
X92370000Y-103245000D01*
X88730000Y-101005000D02*
X88730000Y-103245000D01*
X88850000Y-101005000D02*
X88850000Y-103245000D01*
X88970000Y-101005000D02*
X88970000Y-103245000D01*
X92370000Y-101005000D02*
X88130000Y-101005000D01*
X92370000Y-102125000D02*
X93020000Y-102125000D01*
X92370000Y-103245000D02*
X92370000Y-101005000D01*
%TO.C,D16*%
X69130000Y-120005000D02*
X69130000Y-122245000D01*
X69130000Y-121125000D02*
X68480000Y-121125000D01*
X69130000Y-122245000D02*
X73370000Y-122245000D01*
X69730000Y-120005000D02*
X69730000Y-122245000D01*
X69850000Y-120005000D02*
X69850000Y-122245000D01*
X69970000Y-120005000D02*
X69970000Y-122245000D01*
X73370000Y-120005000D02*
X69130000Y-120005000D01*
X73370000Y-121125000D02*
X74020000Y-121125000D01*
X73370000Y-122245000D02*
X73370000Y-120005000D01*
%TO.C,D2*%
X52505000Y-101005000D02*
X52505000Y-103245000D01*
X52505000Y-102125000D02*
X51855000Y-102125000D01*
X52505000Y-103245000D02*
X56745000Y-103245000D01*
X53105000Y-101005000D02*
X53105000Y-103245000D01*
X53225000Y-101005000D02*
X53225000Y-103245000D01*
X53345000Y-101005000D02*
X53345000Y-103245000D01*
X56745000Y-101005000D02*
X52505000Y-101005000D01*
X56745000Y-102125000D02*
X57395000Y-102125000D01*
X56745000Y-103245000D02*
X56745000Y-101005000D01*
%TO.C,D18*%
X107130000Y-120005000D02*
X107130000Y-122245000D01*
X107130000Y-121125000D02*
X106480000Y-121125000D01*
X107130000Y-122245000D02*
X111370000Y-122245000D01*
X107730000Y-120005000D02*
X107730000Y-122245000D01*
X107850000Y-120005000D02*
X107850000Y-122245000D01*
X107970000Y-120005000D02*
X107970000Y-122245000D01*
X111370000Y-120005000D02*
X107130000Y-120005000D01*
X111370000Y-121125000D02*
X112020000Y-121125000D01*
X111370000Y-122245000D02*
X111370000Y-120005000D01*
%TO.C,D37*%
X232880000Y-134690000D02*
X232880000Y-138930000D01*
X232880000Y-138930000D02*
X235120000Y-138930000D01*
X234000000Y-134690000D02*
X234000000Y-134040000D01*
X234000000Y-138930000D02*
X234000000Y-139580000D01*
X235120000Y-134690000D02*
X232880000Y-134690000D01*
X235120000Y-135290000D02*
X232880000Y-135290000D01*
X235120000Y-135410000D02*
X232880000Y-135410000D01*
X235120000Y-135530000D02*
X232880000Y-135530000D01*
X235120000Y-138930000D02*
X235120000Y-134690000D01*
%TO.C,D43*%
X139005000Y-147505000D02*
X139005000Y-151745000D01*
X139005000Y-151745000D02*
X141245000Y-151745000D01*
X140125000Y-147505000D02*
X140125000Y-146855000D01*
X140125000Y-151745000D02*
X140125000Y-152395000D01*
X141245000Y-147505000D02*
X139005000Y-147505000D01*
X141245000Y-148105000D02*
X139005000Y-148105000D01*
X141245000Y-148225000D02*
X139005000Y-148225000D01*
X141245000Y-148345000D02*
X139005000Y-148345000D01*
X141245000Y-151745000D02*
X141245000Y-147505000D01*
%TO.C,D31*%
X107130000Y-139005000D02*
X107130000Y-141245000D01*
X107130000Y-140125000D02*
X106480000Y-140125000D01*
X107130000Y-141245000D02*
X111370000Y-141245000D01*
X107730000Y-139005000D02*
X107730000Y-141245000D01*
X107850000Y-139005000D02*
X107850000Y-141245000D01*
X107970000Y-139005000D02*
X107970000Y-141245000D01*
X111370000Y-139005000D02*
X107130000Y-139005000D01*
X111370000Y-140125000D02*
X112020000Y-140125000D01*
X111370000Y-141245000D02*
X111370000Y-139005000D01*
%TO.C,D6*%
X127565000Y-101005000D02*
X127565000Y-103245000D01*
X127565000Y-102125000D02*
X126915000Y-102125000D01*
X127565000Y-103245000D02*
X131805000Y-103245000D01*
X128165000Y-101005000D02*
X128165000Y-103245000D01*
X128285000Y-101005000D02*
X128285000Y-103245000D01*
X128405000Y-101005000D02*
X128405000Y-103245000D01*
X131805000Y-101005000D02*
X127565000Y-101005000D01*
X131805000Y-102125000D02*
X132455000Y-102125000D01*
X131805000Y-103245000D02*
X131805000Y-101005000D01*
%TO.C,D25*%
X240130000Y-120005000D02*
X240130000Y-122245000D01*
X240130000Y-121125000D02*
X239480000Y-121125000D01*
X240130000Y-122245000D02*
X244370000Y-122245000D01*
X240730000Y-120005000D02*
X240730000Y-122245000D01*
X240850000Y-120005000D02*
X240850000Y-122245000D01*
X240970000Y-120005000D02*
X240970000Y-122245000D01*
X244370000Y-120005000D02*
X240130000Y-120005000D01*
X244370000Y-121125000D02*
X245020000Y-121125000D01*
X244370000Y-122245000D02*
X244370000Y-120005000D01*
%TO.C,D20*%
X145130000Y-120005000D02*
X145130000Y-122245000D01*
X145130000Y-121125000D02*
X144480000Y-121125000D01*
X145130000Y-122245000D02*
X149370000Y-122245000D01*
X145730000Y-120005000D02*
X145730000Y-122245000D01*
X145850000Y-120005000D02*
X145850000Y-122245000D01*
X145970000Y-120005000D02*
X145970000Y-122245000D01*
X149370000Y-120005000D02*
X145130000Y-120005000D01*
X149370000Y-121125000D02*
X150020000Y-121125000D01*
X149370000Y-122245000D02*
X149370000Y-120005000D01*
%TO.C,D9*%
X184565000Y-101005000D02*
X184565000Y-103245000D01*
X184565000Y-102125000D02*
X183915000Y-102125000D01*
X184565000Y-103245000D02*
X188805000Y-103245000D01*
X185165000Y-101005000D02*
X185165000Y-103245000D01*
X185285000Y-101005000D02*
X185285000Y-103245000D01*
X185405000Y-101005000D02*
X185405000Y-103245000D01*
X188805000Y-101005000D02*
X184565000Y-101005000D01*
X188805000Y-102125000D02*
X189455000Y-102125000D01*
X188805000Y-103245000D02*
X188805000Y-101005000D01*
%TO.C,D38*%
X260565000Y-139005000D02*
X260565000Y-141245000D01*
X260565000Y-140125000D02*
X259915000Y-140125000D01*
X260565000Y-141245000D02*
X264805000Y-141245000D01*
X261165000Y-139005000D02*
X261165000Y-141245000D01*
X261285000Y-139005000D02*
X261285000Y-141245000D01*
X261405000Y-139005000D02*
X261405000Y-141245000D01*
X264805000Y-139005000D02*
X260565000Y-139005000D01*
X264805000Y-140125000D02*
X265455000Y-140125000D01*
X264805000Y-141245000D02*
X264805000Y-139005000D01*
%TO.C,D1*%
X31130000Y-101005000D02*
X31130000Y-103245000D01*
X31130000Y-102125000D02*
X30480000Y-102125000D01*
X31130000Y-103245000D02*
X35370000Y-103245000D01*
X31730000Y-101005000D02*
X31730000Y-103245000D01*
X31850000Y-101005000D02*
X31850000Y-103245000D01*
X31970000Y-101005000D02*
X31970000Y-103245000D01*
X35370000Y-101005000D02*
X31130000Y-101005000D01*
X35370000Y-102125000D02*
X36020000Y-102125000D01*
X35370000Y-103245000D02*
X35370000Y-101005000D01*
%TO.C,D11*%
X221130000Y-101005000D02*
X221130000Y-103245000D01*
X221130000Y-102125000D02*
X220480000Y-102125000D01*
X221130000Y-103245000D02*
X225370000Y-103245000D01*
X221730000Y-101005000D02*
X221730000Y-103245000D01*
X221850000Y-101005000D02*
X221850000Y-103245000D01*
X221970000Y-101005000D02*
X221970000Y-103245000D01*
X225370000Y-101005000D02*
X221130000Y-101005000D01*
X225370000Y-102125000D02*
X226020000Y-102125000D01*
X225370000Y-103245000D02*
X225370000Y-101005000D01*
%TO.C,D13*%
X260565000Y-101005000D02*
X260565000Y-103245000D01*
X260565000Y-102125000D02*
X259915000Y-102125000D01*
X260565000Y-103245000D02*
X264805000Y-103245000D01*
X261165000Y-101005000D02*
X261165000Y-103245000D01*
X261285000Y-101005000D02*
X261285000Y-103245000D01*
X261405000Y-101005000D02*
X261405000Y-103245000D01*
X264805000Y-101005000D02*
X260565000Y-101005000D01*
X264805000Y-102125000D02*
X265455000Y-102125000D01*
X264805000Y-103245000D02*
X264805000Y-101005000D01*
%TO.C,D36*%
X213380000Y-137880000D02*
X213380000Y-140120000D01*
X213380000Y-139000000D02*
X212730000Y-139000000D01*
X213380000Y-140120000D02*
X217620000Y-140120000D01*
X213980000Y-137880000D02*
X213980000Y-140120000D01*
X214100000Y-137880000D02*
X214100000Y-140120000D01*
X214220000Y-137880000D02*
X214220000Y-140120000D01*
X217620000Y-137880000D02*
X213380000Y-137880000D01*
X217620000Y-139000000D02*
X218270000Y-139000000D01*
X217620000Y-140120000D02*
X217620000Y-137880000D01*
%TO.C,D26*%
X259130000Y-120005000D02*
X259130000Y-122245000D01*
X259130000Y-121125000D02*
X258480000Y-121125000D01*
X259130000Y-122245000D02*
X263370000Y-122245000D01*
X259730000Y-120005000D02*
X259730000Y-122245000D01*
X259850000Y-120005000D02*
X259850000Y-122245000D01*
X259970000Y-120005000D02*
X259970000Y-122245000D01*
X263370000Y-120005000D02*
X259130000Y-120005000D01*
X263370000Y-121125000D02*
X264020000Y-121125000D01*
X263370000Y-122245000D02*
X263370000Y-120005000D01*
%TO.C,D23*%
X195880000Y-118380000D02*
X195880000Y-122620000D01*
X195880000Y-121780000D02*
X198120000Y-121780000D01*
X195880000Y-121900000D02*
X198120000Y-121900000D01*
X195880000Y-122020000D02*
X198120000Y-122020000D01*
X195880000Y-122620000D02*
X198120000Y-122620000D01*
X197000000Y-118380000D02*
X197000000Y-117730000D01*
X197000000Y-122620000D02*
X197000000Y-123270000D01*
X198120000Y-118380000D02*
X195880000Y-118380000D01*
X198120000Y-122620000D02*
X198120000Y-118380000D01*
%TO.C,D8*%
X164130000Y-101005000D02*
X164130000Y-103245000D01*
X164130000Y-102125000D02*
X163480000Y-102125000D01*
X164130000Y-103245000D02*
X168370000Y-103245000D01*
X164730000Y-101005000D02*
X164730000Y-103245000D01*
X164850000Y-101005000D02*
X164850000Y-103245000D01*
X164970000Y-101005000D02*
X164970000Y-103245000D01*
X168370000Y-101005000D02*
X164130000Y-101005000D01*
X168370000Y-102125000D02*
X169020000Y-102125000D01*
X168370000Y-103245000D02*
X168370000Y-101005000D01*
%TO.C,D30*%
X88130000Y-139005000D02*
X88130000Y-141245000D01*
X88130000Y-140125000D02*
X87480000Y-140125000D01*
X88130000Y-141245000D02*
X92370000Y-141245000D01*
X88730000Y-139005000D02*
X88730000Y-141245000D01*
X88850000Y-139005000D02*
X88850000Y-141245000D01*
X88970000Y-139005000D02*
X88970000Y-141245000D01*
X92370000Y-139005000D02*
X88130000Y-139005000D01*
X92370000Y-140125000D02*
X93020000Y-140125000D01*
X92370000Y-141245000D02*
X92370000Y-139005000D01*
%TO.C,D7*%
X145130000Y-101005000D02*
X145130000Y-103245000D01*
X145130000Y-102125000D02*
X144480000Y-102125000D01*
X145130000Y-103245000D02*
X149370000Y-103245000D01*
X145730000Y-101005000D02*
X145730000Y-103245000D01*
X145850000Y-101005000D02*
X145850000Y-103245000D01*
X145970000Y-101005000D02*
X145970000Y-103245000D01*
X149370000Y-101005000D02*
X145130000Y-101005000D01*
X149370000Y-102125000D02*
X150020000Y-102125000D01*
X149370000Y-103245000D02*
X149370000Y-101005000D01*
%TO.C,D42*%
X235380000Y-134690000D02*
X235380000Y-138930000D01*
X235380000Y-138930000D02*
X237620000Y-138930000D01*
X236500000Y-134690000D02*
X236500000Y-134040000D01*
X236500000Y-138930000D02*
X236500000Y-139580000D01*
X237620000Y-134690000D02*
X235380000Y-134690000D01*
X237620000Y-135290000D02*
X235380000Y-135290000D01*
X237620000Y-135410000D02*
X235380000Y-135410000D01*
X237620000Y-135530000D02*
X235380000Y-135530000D01*
X237620000Y-138930000D02*
X237620000Y-134690000D01*
%TO.C,D22*%
X183130000Y-120005000D02*
X183130000Y-122245000D01*
X183130000Y-121125000D02*
X182480000Y-121125000D01*
X183130000Y-122245000D02*
X187370000Y-122245000D01*
X183730000Y-120005000D02*
X183730000Y-122245000D01*
X183850000Y-120005000D02*
X183850000Y-122245000D01*
X183970000Y-120005000D02*
X183970000Y-122245000D01*
X187370000Y-120005000D02*
X183130000Y-120005000D01*
X187370000Y-121125000D02*
X188020000Y-121125000D01*
X187370000Y-122245000D02*
X187370000Y-120005000D01*
%TO.C,D14*%
X31130000Y-120005000D02*
X31130000Y-122245000D01*
X31130000Y-121125000D02*
X30480000Y-121125000D01*
X31130000Y-122245000D02*
X35370000Y-122245000D01*
X31730000Y-120005000D02*
X31730000Y-122245000D01*
X31850000Y-120005000D02*
X31850000Y-122245000D01*
X31970000Y-120005000D02*
X31970000Y-122245000D01*
X35370000Y-120005000D02*
X31130000Y-120005000D01*
X35370000Y-121125000D02*
X36020000Y-121125000D01*
X35370000Y-122245000D02*
X35370000Y-120005000D01*
%TO.C,D33*%
X145130000Y-139005000D02*
X145130000Y-141245000D01*
X145130000Y-140125000D02*
X144480000Y-140125000D01*
X145130000Y-141245000D02*
X149370000Y-141245000D01*
X145730000Y-139005000D02*
X145730000Y-141245000D01*
X145850000Y-139005000D02*
X145850000Y-141245000D01*
X145970000Y-139005000D02*
X145970000Y-141245000D01*
X149370000Y-139005000D02*
X145130000Y-139005000D01*
X149370000Y-140125000D02*
X150020000Y-140125000D01*
X149370000Y-141245000D02*
X149370000Y-139005000D01*
%TO.C,D34*%
X164130000Y-139005000D02*
X164130000Y-141245000D01*
X164130000Y-140125000D02*
X163480000Y-140125000D01*
X164130000Y-141245000D02*
X168370000Y-141245000D01*
X164730000Y-139005000D02*
X164730000Y-141245000D01*
X164850000Y-139005000D02*
X164850000Y-141245000D01*
X164970000Y-139005000D02*
X164970000Y-141245000D01*
X168370000Y-139005000D02*
X164130000Y-139005000D01*
X168370000Y-140125000D02*
X169020000Y-140125000D01*
X168370000Y-141245000D02*
X168370000Y-139005000D01*
%TO.C,D28*%
X51565000Y-139005000D02*
X51565000Y-141245000D01*
X51565000Y-140125000D02*
X50915000Y-140125000D01*
X51565000Y-141245000D02*
X55805000Y-141245000D01*
X52165000Y-139005000D02*
X52165000Y-141245000D01*
X52285000Y-139005000D02*
X52285000Y-141245000D01*
X52405000Y-139005000D02*
X52405000Y-141245000D01*
X55805000Y-139005000D02*
X51565000Y-139005000D01*
X55805000Y-140125000D02*
X56455000Y-140125000D01*
X55805000Y-141245000D02*
X55805000Y-139005000D01*
%TO.C,D41*%
X215005000Y-147505000D02*
X215005000Y-151745000D01*
X215005000Y-151745000D02*
X217245000Y-151745000D01*
X216125000Y-147505000D02*
X216125000Y-146855000D01*
X216125000Y-151745000D02*
X216125000Y-152395000D01*
X217245000Y-147505000D02*
X215005000Y-147505000D01*
X217245000Y-148105000D02*
X215005000Y-148105000D01*
X217245000Y-148225000D02*
X215005000Y-148225000D01*
X217245000Y-148345000D02*
X215005000Y-148345000D01*
X217245000Y-151745000D02*
X217245000Y-147505000D01*
%TO.C,D12*%
X240130000Y-101005000D02*
X240130000Y-103245000D01*
X240130000Y-102125000D02*
X239480000Y-102125000D01*
X240130000Y-103245000D02*
X244370000Y-103245000D01*
X240730000Y-101005000D02*
X240730000Y-103245000D01*
X240850000Y-101005000D02*
X240850000Y-103245000D01*
X240970000Y-101005000D02*
X240970000Y-103245000D01*
X244370000Y-101005000D02*
X240130000Y-101005000D01*
X244370000Y-102125000D02*
X245020000Y-102125000D01*
X244370000Y-103245000D02*
X244370000Y-101005000D01*
%TO.C,D27*%
X31130000Y-139005000D02*
X31130000Y-141245000D01*
X31130000Y-140125000D02*
X30480000Y-140125000D01*
X31130000Y-141245000D02*
X35370000Y-141245000D01*
X31730000Y-139005000D02*
X31730000Y-141245000D01*
X31850000Y-139005000D02*
X31850000Y-141245000D01*
X31970000Y-139005000D02*
X31970000Y-141245000D01*
X35370000Y-139005000D02*
X31130000Y-139005000D01*
X35370000Y-140125000D02*
X36020000Y-140125000D01*
X35370000Y-141245000D02*
X35370000Y-139005000D01*
%TO.C,D5*%
X107130000Y-101005000D02*
X107130000Y-103245000D01*
X107130000Y-102125000D02*
X106480000Y-102125000D01*
X107130000Y-103245000D02*
X111370000Y-103245000D01*
X107730000Y-101005000D02*
X107730000Y-103245000D01*
X107850000Y-101005000D02*
X107850000Y-103245000D01*
X107970000Y-101005000D02*
X107970000Y-103245000D01*
X111370000Y-101005000D02*
X107130000Y-101005000D01*
X111370000Y-102125000D02*
X112020000Y-102125000D01*
X111370000Y-103245000D02*
X111370000Y-101005000D01*
%TO.C,D40*%
X63005000Y-147505000D02*
X63005000Y-151745000D01*
X63005000Y-151745000D02*
X65245000Y-151745000D01*
X64125000Y-147505000D02*
X64125000Y-146855000D01*
X64125000Y-151745000D02*
X64125000Y-152395000D01*
X65245000Y-147505000D02*
X63005000Y-147505000D01*
X65245000Y-148105000D02*
X63005000Y-148105000D01*
X65245000Y-148225000D02*
X63005000Y-148225000D01*
X65245000Y-148345000D02*
X63005000Y-148345000D01*
X65245000Y-151745000D02*
X65245000Y-147505000D01*
%TO.C,D19*%
X126130000Y-120005000D02*
X126130000Y-122245000D01*
X126130000Y-121125000D02*
X125480000Y-121125000D01*
X126130000Y-122245000D02*
X130370000Y-122245000D01*
X126730000Y-120005000D02*
X126730000Y-122245000D01*
X126850000Y-120005000D02*
X126850000Y-122245000D01*
X126970000Y-120005000D02*
X126970000Y-122245000D01*
X130370000Y-120005000D02*
X126130000Y-120005000D01*
X130370000Y-121125000D02*
X131020000Y-121125000D01*
X130370000Y-122245000D02*
X130370000Y-120005000D01*
%TO.C,D17*%
X88130000Y-120005000D02*
X88130000Y-122245000D01*
X88130000Y-121125000D02*
X87480000Y-121125000D01*
X88130000Y-122245000D02*
X92370000Y-122245000D01*
X88730000Y-120005000D02*
X88730000Y-122245000D01*
X88850000Y-120005000D02*
X88850000Y-122245000D01*
X88970000Y-120005000D02*
X88970000Y-122245000D01*
X92370000Y-120005000D02*
X88130000Y-120005000D01*
X92370000Y-121125000D02*
X93020000Y-121125000D01*
X92370000Y-122245000D02*
X92370000Y-120005000D01*
%TO.C,D39*%
X44005000Y-147505000D02*
X44005000Y-151745000D01*
X44005000Y-151745000D02*
X46245000Y-151745000D01*
X45125000Y-147505000D02*
X45125000Y-146855000D01*
X45125000Y-151745000D02*
X45125000Y-152395000D01*
X46245000Y-147505000D02*
X44005000Y-147505000D01*
X46245000Y-148105000D02*
X44005000Y-148105000D01*
X46245000Y-148225000D02*
X44005000Y-148225000D01*
X46245000Y-148345000D02*
X44005000Y-148345000D01*
X46245000Y-151745000D02*
X46245000Y-147505000D01*
%TO.C,D21*%
X164130000Y-120005000D02*
X164130000Y-122245000D01*
X164130000Y-121125000D02*
X163480000Y-121125000D01*
X164130000Y-122245000D02*
X168370000Y-122245000D01*
X164730000Y-120005000D02*
X164730000Y-122245000D01*
X164850000Y-120005000D02*
X164850000Y-122245000D01*
X164970000Y-120005000D02*
X164970000Y-122245000D01*
X168370000Y-120005000D02*
X164130000Y-120005000D01*
X168370000Y-121125000D02*
X169020000Y-121125000D01*
X168370000Y-122245000D02*
X168370000Y-120005000D01*
%TO.C,D10*%
X202130000Y-101005000D02*
X202130000Y-103245000D01*
X202130000Y-102125000D02*
X201480000Y-102125000D01*
X202130000Y-103245000D02*
X206370000Y-103245000D01*
X202730000Y-101005000D02*
X202730000Y-103245000D01*
X202850000Y-101005000D02*
X202850000Y-103245000D01*
X202970000Y-101005000D02*
X202970000Y-103245000D01*
X206370000Y-101005000D02*
X202130000Y-101005000D01*
X206370000Y-102125000D02*
X207020000Y-102125000D01*
X206370000Y-103245000D02*
X206370000Y-101005000D01*
%TO.C,D29*%
X62880000Y-134280000D02*
X62880000Y-138520000D01*
X62880000Y-137680000D02*
X65120000Y-137680000D01*
X62880000Y-137800000D02*
X65120000Y-137800000D01*
X62880000Y-137920000D02*
X65120000Y-137920000D01*
X62880000Y-138520000D02*
X65120000Y-138520000D01*
X64000000Y-134280000D02*
X64000000Y-133630000D01*
X64000000Y-138520000D02*
X64000000Y-139170000D01*
X65120000Y-134280000D02*
X62880000Y-134280000D01*
X65120000Y-138520000D02*
X65120000Y-134280000D01*
%TO.C,D24*%
X221130000Y-120005000D02*
X221130000Y-122245000D01*
X221130000Y-121125000D02*
X220480000Y-121125000D01*
X221130000Y-122245000D02*
X225370000Y-122245000D01*
X221730000Y-120005000D02*
X221730000Y-122245000D01*
X221850000Y-120005000D02*
X221850000Y-122245000D01*
X221970000Y-120005000D02*
X221970000Y-122245000D01*
X225370000Y-120005000D02*
X221130000Y-120005000D01*
X225370000Y-121125000D02*
X226020000Y-121125000D01*
X225370000Y-122245000D02*
X225370000Y-120005000D01*
%TO.C,D15*%
X50130000Y-120005000D02*
X50130000Y-122245000D01*
X50130000Y-121125000D02*
X49480000Y-121125000D01*
X50130000Y-122245000D02*
X54370000Y-122245000D01*
X50730000Y-120005000D02*
X50730000Y-122245000D01*
X50850000Y-120005000D02*
X50850000Y-122245000D01*
X50970000Y-120005000D02*
X50970000Y-122245000D01*
X54370000Y-120005000D02*
X50130000Y-120005000D01*
X54370000Y-121125000D02*
X55020000Y-121125000D01*
X54370000Y-122245000D02*
X54370000Y-120005000D01*
%TO.C,D32*%
X127565000Y-139005000D02*
X127565000Y-141245000D01*
X127565000Y-140125000D02*
X126915000Y-140125000D01*
X127565000Y-141245000D02*
X131805000Y-141245000D01*
X128165000Y-139005000D02*
X128165000Y-141245000D01*
X128285000Y-139005000D02*
X128285000Y-141245000D01*
X128405000Y-139005000D02*
X128405000Y-141245000D01*
X131805000Y-139005000D02*
X127565000Y-139005000D01*
X131805000Y-140125000D02*
X132455000Y-140125000D01*
X131805000Y-141245000D02*
X131805000Y-139005000D01*
%TO.C,D3*%
X69130000Y-101005000D02*
X69130000Y-103245000D01*
X69130000Y-102125000D02*
X68480000Y-102125000D01*
X69130000Y-103245000D02*
X73370000Y-103245000D01*
X69730000Y-101005000D02*
X69730000Y-103245000D01*
X69850000Y-101005000D02*
X69850000Y-103245000D01*
X69970000Y-101005000D02*
X69970000Y-103245000D01*
X73370000Y-101005000D02*
X69130000Y-101005000D01*
X73370000Y-102125000D02*
X74020000Y-102125000D01*
X73370000Y-103245000D02*
X73370000Y-101005000D01*
%TD*%
M02*
