%TF.GenerationSoftware,KiCad,Pcbnew,8.0.3*%
%TF.CreationDate,2024-07-13T14:49:37+01:00*%
%TF.ProjectId,CursedBoard,43757273-6564-4426-9f61-72642e6b6963,rev?*%
%TF.SameCoordinates,Original*%
%TF.FileFunction,Legend,Top*%
%TF.FilePolarity,Positive*%
%FSLAX46Y46*%
G04 Gerber Fmt 4.6, Leading zero omitted, Abs format (unit mm)*
G04 Created by KiCad (PCBNEW 8.0.3) date 2024-07-13 14:49:37*
%MOMM*%
%LPD*%
G01*
G04 APERTURE LIST*
%ADD10C,0.200000*%
%ADD11C,0.150000*%
%ADD12C,0.120000*%
%ADD13C,0.400000*%
G04 APERTURE END LIST*
D10*
X84780387Y-122710559D02*
X84208959Y-122710559D01*
X84494673Y-122710559D02*
X84494673Y-121710559D01*
X84494673Y-121710559D02*
X84399435Y-121853416D01*
X84399435Y-121853416D02*
X84304197Y-121948654D01*
X84304197Y-121948654D02*
X84208959Y-121996273D01*
X85208959Y-121710559D02*
X85208959Y-122520082D01*
X85208959Y-122520082D02*
X85256578Y-122615320D01*
X85256578Y-122615320D02*
X85304197Y-122662940D01*
X85304197Y-122662940D02*
X85399435Y-122710559D01*
X85399435Y-122710559D02*
X85589911Y-122710559D01*
X85589911Y-122710559D02*
X85685149Y-122662940D01*
X85685149Y-122662940D02*
X85732768Y-122615320D01*
X85732768Y-122615320D02*
X85780387Y-122520082D01*
X85780387Y-122520082D02*
X85780387Y-121710559D01*
X65780387Y-122710559D02*
X65208959Y-122710559D01*
X65494673Y-122710559D02*
X65494673Y-121710559D01*
X65494673Y-121710559D02*
X65399435Y-121853416D01*
X65399435Y-121853416D02*
X65304197Y-121948654D01*
X65304197Y-121948654D02*
X65208959Y-121996273D01*
X66208959Y-121710559D02*
X66208959Y-122520082D01*
X66208959Y-122520082D02*
X66256578Y-122615320D01*
X66256578Y-122615320D02*
X66304197Y-122662940D01*
X66304197Y-122662940D02*
X66399435Y-122710559D01*
X66399435Y-122710559D02*
X66589911Y-122710559D01*
X66589911Y-122710559D02*
X66685149Y-122662940D01*
X66685149Y-122662940D02*
X66732768Y-122615320D01*
X66732768Y-122615320D02*
X66780387Y-122520082D01*
X66780387Y-122520082D02*
X66780387Y-121710559D01*
X103780387Y-84710559D02*
X103208959Y-84710559D01*
X103494673Y-84710559D02*
X103494673Y-83710559D01*
X103494673Y-83710559D02*
X103399435Y-83853416D01*
X103399435Y-83853416D02*
X103304197Y-83948654D01*
X103304197Y-83948654D02*
X103208959Y-83996273D01*
X104208959Y-83710559D02*
X104208959Y-84520082D01*
X104208959Y-84520082D02*
X104256578Y-84615320D01*
X104256578Y-84615320D02*
X104304197Y-84662940D01*
X104304197Y-84662940D02*
X104399435Y-84710559D01*
X104399435Y-84710559D02*
X104589911Y-84710559D01*
X104589911Y-84710559D02*
X104685149Y-84662940D01*
X104685149Y-84662940D02*
X104732768Y-84615320D01*
X104732768Y-84615320D02*
X104780387Y-84520082D01*
X104780387Y-84520082D02*
X104780387Y-83710559D01*
D11*
X219799819Y-72605714D02*
X219799819Y-72110476D01*
X219799819Y-72110476D02*
X220180771Y-72377142D01*
X220180771Y-72377142D02*
X220180771Y-72262857D01*
X220180771Y-72262857D02*
X220228390Y-72186666D01*
X220228390Y-72186666D02*
X220276009Y-72148571D01*
X220276009Y-72148571D02*
X220371247Y-72110476D01*
X220371247Y-72110476D02*
X220609342Y-72110476D01*
X220609342Y-72110476D02*
X220704580Y-72148571D01*
X220704580Y-72148571D02*
X220752200Y-72186666D01*
X220752200Y-72186666D02*
X220799819Y-72262857D01*
X220799819Y-72262857D02*
X220799819Y-72491428D01*
X220799819Y-72491428D02*
X220752200Y-72567619D01*
X220752200Y-72567619D02*
X220704580Y-72605714D01*
X219799819Y-71843809D02*
X219799819Y-71348571D01*
X219799819Y-71348571D02*
X220180771Y-71615237D01*
X220180771Y-71615237D02*
X220180771Y-71500952D01*
X220180771Y-71500952D02*
X220228390Y-71424761D01*
X220228390Y-71424761D02*
X220276009Y-71386666D01*
X220276009Y-71386666D02*
X220371247Y-71348571D01*
X220371247Y-71348571D02*
X220609342Y-71348571D01*
X220609342Y-71348571D02*
X220704580Y-71386666D01*
X220704580Y-71386666D02*
X220752200Y-71424761D01*
X220752200Y-71424761D02*
X220799819Y-71500952D01*
X220799819Y-71500952D02*
X220799819Y-71729523D01*
X220799819Y-71729523D02*
X220752200Y-71805714D01*
X220752200Y-71805714D02*
X220704580Y-71843809D01*
X219799819Y-70853332D02*
X219799819Y-70777142D01*
X219799819Y-70777142D02*
X219847438Y-70700951D01*
X219847438Y-70700951D02*
X219895057Y-70662856D01*
X219895057Y-70662856D02*
X219990295Y-70624761D01*
X219990295Y-70624761D02*
X220180771Y-70586666D01*
X220180771Y-70586666D02*
X220418866Y-70586666D01*
X220418866Y-70586666D02*
X220609342Y-70624761D01*
X220609342Y-70624761D02*
X220704580Y-70662856D01*
X220704580Y-70662856D02*
X220752200Y-70700951D01*
X220752200Y-70700951D02*
X220799819Y-70777142D01*
X220799819Y-70777142D02*
X220799819Y-70853332D01*
X220799819Y-70853332D02*
X220752200Y-70929523D01*
X220752200Y-70929523D02*
X220704580Y-70967618D01*
X220704580Y-70967618D02*
X220609342Y-71005713D01*
X220609342Y-71005713D02*
X220418866Y-71043809D01*
X220418866Y-71043809D02*
X220180771Y-71043809D01*
X220180771Y-71043809D02*
X219990295Y-71005713D01*
X219990295Y-71005713D02*
X219895057Y-70967618D01*
X219895057Y-70967618D02*
X219847438Y-70929523D01*
X219847438Y-70929523D02*
X219799819Y-70853332D01*
X220799819Y-70281904D02*
X220799819Y-70091427D01*
X220799819Y-70091427D02*
X220609342Y-70091427D01*
X220609342Y-70091427D02*
X220561723Y-70167618D01*
X220561723Y-70167618D02*
X220466485Y-70243808D01*
X220466485Y-70243808D02*
X220323628Y-70281904D01*
X220323628Y-70281904D02*
X220085533Y-70281904D01*
X220085533Y-70281904D02*
X219942676Y-70243808D01*
X219942676Y-70243808D02*
X219847438Y-70167618D01*
X219847438Y-70167618D02*
X219799819Y-70053332D01*
X219799819Y-70053332D02*
X219799819Y-69900951D01*
X219799819Y-69900951D02*
X219847438Y-69786665D01*
X219847438Y-69786665D02*
X219942676Y-69710475D01*
X219942676Y-69710475D02*
X220085533Y-69672380D01*
X220085533Y-69672380D02*
X220323628Y-69672380D01*
X220323628Y-69672380D02*
X220466485Y-69710475D01*
X220466485Y-69710475D02*
X220561723Y-69786665D01*
X220561723Y-69786665D02*
X220609342Y-69862856D01*
X220609342Y-69862856D02*
X220799819Y-69862856D01*
X220799819Y-69862856D02*
X220799819Y-69672380D01*
D10*
X179780387Y-122710559D02*
X179208959Y-122710559D01*
X179494673Y-122710559D02*
X179494673Y-121710559D01*
X179494673Y-121710559D02*
X179399435Y-121853416D01*
X179399435Y-121853416D02*
X179304197Y-121948654D01*
X179304197Y-121948654D02*
X179208959Y-121996273D01*
X180208959Y-121710559D02*
X180208959Y-122520082D01*
X180208959Y-122520082D02*
X180256578Y-122615320D01*
X180256578Y-122615320D02*
X180304197Y-122662940D01*
X180304197Y-122662940D02*
X180399435Y-122710559D01*
X180399435Y-122710559D02*
X180589911Y-122710559D01*
X180589911Y-122710559D02*
X180685149Y-122662940D01*
X180685149Y-122662940D02*
X180732768Y-122615320D01*
X180732768Y-122615320D02*
X180780387Y-122520082D01*
X180780387Y-122520082D02*
X180780387Y-121710559D01*
X122780387Y-103710559D02*
X122208959Y-103710559D01*
X122494673Y-103710559D02*
X122494673Y-102710559D01*
X122494673Y-102710559D02*
X122399435Y-102853416D01*
X122399435Y-102853416D02*
X122304197Y-102948654D01*
X122304197Y-102948654D02*
X122208959Y-102996273D01*
X123208959Y-102710559D02*
X123208959Y-103520082D01*
X123208959Y-103520082D02*
X123256578Y-103615320D01*
X123256578Y-103615320D02*
X123304197Y-103662940D01*
X123304197Y-103662940D02*
X123399435Y-103710559D01*
X123399435Y-103710559D02*
X123589911Y-103710559D01*
X123589911Y-103710559D02*
X123685149Y-103662940D01*
X123685149Y-103662940D02*
X123732768Y-103615320D01*
X123732768Y-103615320D02*
X123780387Y-103520082D01*
X123780387Y-103520082D02*
X123780387Y-102710559D01*
X179780387Y-103710559D02*
X179208959Y-103710559D01*
X179494673Y-103710559D02*
X179494673Y-102710559D01*
X179494673Y-102710559D02*
X179399435Y-102853416D01*
X179399435Y-102853416D02*
X179304197Y-102948654D01*
X179304197Y-102948654D02*
X179208959Y-102996273D01*
X180208959Y-102710559D02*
X180208959Y-103520082D01*
X180208959Y-103520082D02*
X180256578Y-103615320D01*
X180256578Y-103615320D02*
X180304197Y-103662940D01*
X180304197Y-103662940D02*
X180399435Y-103710559D01*
X180399435Y-103710559D02*
X180589911Y-103710559D01*
X180589911Y-103710559D02*
X180685149Y-103662940D01*
X180685149Y-103662940D02*
X180732768Y-103615320D01*
X180732768Y-103615320D02*
X180780387Y-103520082D01*
X180780387Y-103520082D02*
X180780387Y-102710559D01*
D11*
X254990476Y-64327200D02*
X255133333Y-64374819D01*
X255133333Y-64374819D02*
X255371428Y-64374819D01*
X255371428Y-64374819D02*
X255466666Y-64327200D01*
X255466666Y-64327200D02*
X255514285Y-64279580D01*
X255514285Y-64279580D02*
X255561904Y-64184342D01*
X255561904Y-64184342D02*
X255561904Y-64089104D01*
X255561904Y-64089104D02*
X255514285Y-63993866D01*
X255514285Y-63993866D02*
X255466666Y-63946247D01*
X255466666Y-63946247D02*
X255371428Y-63898628D01*
X255371428Y-63898628D02*
X255180952Y-63851009D01*
X255180952Y-63851009D02*
X255085714Y-63803390D01*
X255085714Y-63803390D02*
X255038095Y-63755771D01*
X255038095Y-63755771D02*
X254990476Y-63660533D01*
X254990476Y-63660533D02*
X254990476Y-63565295D01*
X254990476Y-63565295D02*
X255038095Y-63470057D01*
X255038095Y-63470057D02*
X255085714Y-63422438D01*
X255085714Y-63422438D02*
X255180952Y-63374819D01*
X255180952Y-63374819D02*
X255419047Y-63374819D01*
X255419047Y-63374819D02*
X255561904Y-63422438D01*
X255895238Y-63374819D02*
X256133333Y-64374819D01*
X256133333Y-64374819D02*
X256323809Y-63660533D01*
X256323809Y-63660533D02*
X256514285Y-64374819D01*
X256514285Y-64374819D02*
X256752381Y-63374819D01*
X257561904Y-63708152D02*
X257561904Y-64374819D01*
X257323809Y-63327200D02*
X257085714Y-64041485D01*
X257085714Y-64041485D02*
X257704761Y-64041485D01*
X258561904Y-63374819D02*
X258085714Y-63374819D01*
X258085714Y-63374819D02*
X258038095Y-63851009D01*
X258038095Y-63851009D02*
X258085714Y-63803390D01*
X258085714Y-63803390D02*
X258180952Y-63755771D01*
X258180952Y-63755771D02*
X258419047Y-63755771D01*
X258419047Y-63755771D02*
X258514285Y-63803390D01*
X258514285Y-63803390D02*
X258561904Y-63851009D01*
X258561904Y-63851009D02*
X258609523Y-63946247D01*
X258609523Y-63946247D02*
X258609523Y-64184342D01*
X258609523Y-64184342D02*
X258561904Y-64279580D01*
X258561904Y-64279580D02*
X258514285Y-64327200D01*
X258514285Y-64327200D02*
X258419047Y-64374819D01*
X258419047Y-64374819D02*
X258180952Y-64374819D01*
X258180952Y-64374819D02*
X258085714Y-64327200D01*
X258085714Y-64327200D02*
X258038095Y-64279580D01*
D10*
X103780387Y-103710559D02*
X103208959Y-103710559D01*
X103494673Y-103710559D02*
X103494673Y-102710559D01*
X103494673Y-102710559D02*
X103399435Y-102853416D01*
X103399435Y-102853416D02*
X103304197Y-102948654D01*
X103304197Y-102948654D02*
X103208959Y-102996273D01*
X104208959Y-102710559D02*
X104208959Y-103520082D01*
X104208959Y-103520082D02*
X104256578Y-103615320D01*
X104256578Y-103615320D02*
X104304197Y-103662940D01*
X104304197Y-103662940D02*
X104399435Y-103710559D01*
X104399435Y-103710559D02*
X104589911Y-103710559D01*
X104589911Y-103710559D02*
X104685149Y-103662940D01*
X104685149Y-103662940D02*
X104732768Y-103615320D01*
X104732768Y-103615320D02*
X104780387Y-103520082D01*
X104780387Y-103520082D02*
X104780387Y-102710559D01*
D11*
X77639104Y-58963339D02*
X77639104Y-58487149D01*
X77924819Y-59058577D02*
X76924819Y-58725244D01*
X76924819Y-58725244D02*
X77924819Y-58391911D01*
X77924819Y-57534768D02*
X77924819Y-58106196D01*
X77924819Y-57820482D02*
X76924819Y-57820482D01*
X76924819Y-57820482D02*
X77067676Y-57915720D01*
X77067676Y-57915720D02*
X77162914Y-58010958D01*
X77162914Y-58010958D02*
X77210533Y-58106196D01*
D10*
X27780387Y-103710559D02*
X27208959Y-103710559D01*
X27494673Y-103710559D02*
X27494673Y-102710559D01*
X27494673Y-102710559D02*
X27399435Y-102853416D01*
X27399435Y-102853416D02*
X27304197Y-102948654D01*
X27304197Y-102948654D02*
X27208959Y-102996273D01*
X28208959Y-102710559D02*
X28208959Y-103520082D01*
X28208959Y-103520082D02*
X28256578Y-103615320D01*
X28256578Y-103615320D02*
X28304197Y-103662940D01*
X28304197Y-103662940D02*
X28399435Y-103710559D01*
X28399435Y-103710559D02*
X28589911Y-103710559D01*
X28589911Y-103710559D02*
X28685149Y-103662940D01*
X28685149Y-103662940D02*
X28732768Y-103615320D01*
X28732768Y-103615320D02*
X28780387Y-103520082D01*
X28780387Y-103520082D02*
X28780387Y-102710559D01*
X65780387Y-103710559D02*
X65208959Y-103710559D01*
X65494673Y-103710559D02*
X65494673Y-102710559D01*
X65494673Y-102710559D02*
X65399435Y-102853416D01*
X65399435Y-102853416D02*
X65304197Y-102948654D01*
X65304197Y-102948654D02*
X65208959Y-102996273D01*
X66208959Y-102710559D02*
X66208959Y-103520082D01*
X66208959Y-103520082D02*
X66256578Y-103615320D01*
X66256578Y-103615320D02*
X66304197Y-103662940D01*
X66304197Y-103662940D02*
X66399435Y-103710559D01*
X66399435Y-103710559D02*
X66589911Y-103710559D01*
X66589911Y-103710559D02*
X66685149Y-103662940D01*
X66685149Y-103662940D02*
X66732768Y-103615320D01*
X66732768Y-103615320D02*
X66780387Y-103520082D01*
X66780387Y-103520082D02*
X66780387Y-102710559D01*
D11*
X212798819Y-65666904D02*
X211798819Y-65666904D01*
X212798819Y-65095476D02*
X212227390Y-65524047D01*
X211798819Y-65095476D02*
X212370247Y-65666904D01*
D10*
X84780387Y-103710559D02*
X84208959Y-103710559D01*
X84494673Y-103710559D02*
X84494673Y-102710559D01*
X84494673Y-102710559D02*
X84399435Y-102853416D01*
X84399435Y-102853416D02*
X84304197Y-102948654D01*
X84304197Y-102948654D02*
X84208959Y-102996273D01*
X85208959Y-102710559D02*
X85208959Y-103520082D01*
X85208959Y-103520082D02*
X85256578Y-103615320D01*
X85256578Y-103615320D02*
X85304197Y-103662940D01*
X85304197Y-103662940D02*
X85399435Y-103710559D01*
X85399435Y-103710559D02*
X85589911Y-103710559D01*
X85589911Y-103710559D02*
X85685149Y-103662940D01*
X85685149Y-103662940D02*
X85732768Y-103615320D01*
X85732768Y-103615320D02*
X85780387Y-103520082D01*
X85780387Y-103520082D02*
X85780387Y-102710559D01*
X215444202Y-103208959D02*
X215491821Y-103256578D01*
X215491821Y-103256578D02*
X215539440Y-103351816D01*
X215539440Y-103351816D02*
X215539440Y-103589911D01*
X215539440Y-103589911D02*
X215491821Y-103685149D01*
X215491821Y-103685149D02*
X215444202Y-103732768D01*
X215444202Y-103732768D02*
X215348964Y-103780387D01*
X215348964Y-103780387D02*
X215253726Y-103780387D01*
X215253726Y-103780387D02*
X215110869Y-103732768D01*
X215110869Y-103732768D02*
X214539440Y-103161340D01*
X214539440Y-103161340D02*
X214539440Y-103780387D01*
X215539440Y-104208959D02*
X214729917Y-104208959D01*
X214729917Y-104208959D02*
X214634679Y-104256578D01*
X214634679Y-104256578D02*
X214587060Y-104304197D01*
X214587060Y-104304197D02*
X214539440Y-104399435D01*
X214539440Y-104399435D02*
X214539440Y-104589911D01*
X214539440Y-104589911D02*
X214587060Y-104685149D01*
X214587060Y-104685149D02*
X214634679Y-104732768D01*
X214634679Y-104732768D02*
X214729917Y-104780387D01*
X214729917Y-104780387D02*
X215539440Y-104780387D01*
X27780387Y-84710559D02*
X27208959Y-84710559D01*
X27494673Y-84710559D02*
X27494673Y-83710559D01*
X27494673Y-83710559D02*
X27399435Y-83853416D01*
X27399435Y-83853416D02*
X27304197Y-83948654D01*
X27304197Y-83948654D02*
X27208959Y-83996273D01*
X28208959Y-83710559D02*
X28208959Y-84520082D01*
X28208959Y-84520082D02*
X28256578Y-84615320D01*
X28256578Y-84615320D02*
X28304197Y-84662940D01*
X28304197Y-84662940D02*
X28399435Y-84710559D01*
X28399435Y-84710559D02*
X28589911Y-84710559D01*
X28589911Y-84710559D02*
X28685149Y-84662940D01*
X28685149Y-84662940D02*
X28732768Y-84615320D01*
X28732768Y-84615320D02*
X28780387Y-84520082D01*
X28780387Y-84520082D02*
X28780387Y-83710559D01*
X236780387Y-84710559D02*
X236208959Y-84710559D01*
X236494673Y-84710559D02*
X236494673Y-83710559D01*
X236494673Y-83710559D02*
X236399435Y-83853416D01*
X236399435Y-83853416D02*
X236304197Y-83948654D01*
X236304197Y-83948654D02*
X236208959Y-83996273D01*
X237208959Y-83710559D02*
X237208959Y-84520082D01*
X237208959Y-84520082D02*
X237256578Y-84615320D01*
X237256578Y-84615320D02*
X237304197Y-84662940D01*
X237304197Y-84662940D02*
X237399435Y-84710559D01*
X237399435Y-84710559D02*
X237589911Y-84710559D01*
X237589911Y-84710559D02*
X237685149Y-84662940D01*
X237685149Y-84662940D02*
X237732768Y-84615320D01*
X237732768Y-84615320D02*
X237780387Y-84520082D01*
X237780387Y-84520082D02*
X237780387Y-83710559D01*
X122780387Y-84710559D02*
X122208959Y-84710559D01*
X122494673Y-84710559D02*
X122494673Y-83710559D01*
X122494673Y-83710559D02*
X122399435Y-83853416D01*
X122399435Y-83853416D02*
X122304197Y-83948654D01*
X122304197Y-83948654D02*
X122208959Y-83996273D01*
X123208959Y-83710559D02*
X123208959Y-84520082D01*
X123208959Y-84520082D02*
X123256578Y-84615320D01*
X123256578Y-84615320D02*
X123304197Y-84662940D01*
X123304197Y-84662940D02*
X123399435Y-84710559D01*
X123399435Y-84710559D02*
X123589911Y-84710559D01*
X123589911Y-84710559D02*
X123685149Y-84662940D01*
X123685149Y-84662940D02*
X123732768Y-84615320D01*
X123732768Y-84615320D02*
X123780387Y-84520082D01*
X123780387Y-84520082D02*
X123780387Y-83710559D01*
X141780387Y-122710559D02*
X141208959Y-122710559D01*
X141494673Y-122710559D02*
X141494673Y-121710559D01*
X141494673Y-121710559D02*
X141399435Y-121853416D01*
X141399435Y-121853416D02*
X141304197Y-121948654D01*
X141304197Y-121948654D02*
X141208959Y-121996273D01*
X142208959Y-121710559D02*
X142208959Y-122520082D01*
X142208959Y-122520082D02*
X142256578Y-122615320D01*
X142256578Y-122615320D02*
X142304197Y-122662940D01*
X142304197Y-122662940D02*
X142399435Y-122710559D01*
X142399435Y-122710559D02*
X142589911Y-122710559D01*
X142589911Y-122710559D02*
X142685149Y-122662940D01*
X142685149Y-122662940D02*
X142732768Y-122615320D01*
X142732768Y-122615320D02*
X142780387Y-122520082D01*
X142780387Y-122520082D02*
X142780387Y-121710559D01*
X46780387Y-103710559D02*
X46208959Y-103710559D01*
X46494673Y-103710559D02*
X46494673Y-102710559D01*
X46494673Y-102710559D02*
X46399435Y-102853416D01*
X46399435Y-102853416D02*
X46304197Y-102948654D01*
X46304197Y-102948654D02*
X46208959Y-102996273D01*
X47208959Y-102710559D02*
X47208959Y-103520082D01*
X47208959Y-103520082D02*
X47256578Y-103615320D01*
X47256578Y-103615320D02*
X47304197Y-103662940D01*
X47304197Y-103662940D02*
X47399435Y-103710559D01*
X47399435Y-103710559D02*
X47589911Y-103710559D01*
X47589911Y-103710559D02*
X47685149Y-103662940D01*
X47685149Y-103662940D02*
X47732768Y-103615320D01*
X47732768Y-103615320D02*
X47780387Y-103520082D01*
X47780387Y-103520082D02*
X47780387Y-102710559D01*
X27780387Y-122710559D02*
X27208959Y-122710559D01*
X27494673Y-122710559D02*
X27494673Y-121710559D01*
X27494673Y-121710559D02*
X27399435Y-121853416D01*
X27399435Y-121853416D02*
X27304197Y-121948654D01*
X27304197Y-121948654D02*
X27208959Y-121996273D01*
X28208959Y-121710559D02*
X28208959Y-122520082D01*
X28208959Y-122520082D02*
X28256578Y-122615320D01*
X28256578Y-122615320D02*
X28304197Y-122662940D01*
X28304197Y-122662940D02*
X28399435Y-122710559D01*
X28399435Y-122710559D02*
X28589911Y-122710559D01*
X28589911Y-122710559D02*
X28685149Y-122662940D01*
X28685149Y-122662940D02*
X28732768Y-122615320D01*
X28732768Y-122615320D02*
X28780387Y-122520082D01*
X28780387Y-122520082D02*
X28780387Y-121710559D01*
D11*
X208988819Y-65793904D02*
X207988819Y-65793904D01*
X208988819Y-65222476D02*
X208417390Y-65651047D01*
X207988819Y-65222476D02*
X208560247Y-65793904D01*
D10*
X198780387Y-141710559D02*
X198208959Y-141710559D01*
X198494673Y-141710559D02*
X198494673Y-140710559D01*
X198494673Y-140710559D02*
X198399435Y-140853416D01*
X198399435Y-140853416D02*
X198304197Y-140948654D01*
X198304197Y-140948654D02*
X198208959Y-140996273D01*
X199208959Y-140710559D02*
X199208959Y-141520082D01*
X199208959Y-141520082D02*
X199256578Y-141615320D01*
X199256578Y-141615320D02*
X199304197Y-141662940D01*
X199304197Y-141662940D02*
X199399435Y-141710559D01*
X199399435Y-141710559D02*
X199589911Y-141710559D01*
X199589911Y-141710559D02*
X199685149Y-141662940D01*
X199685149Y-141662940D02*
X199732768Y-141615320D01*
X199732768Y-141615320D02*
X199780387Y-141520082D01*
X199780387Y-141520082D02*
X199780387Y-140710559D01*
X217780387Y-103710559D02*
X217208959Y-103710559D01*
X217494673Y-103710559D02*
X217494673Y-102710559D01*
X217494673Y-102710559D02*
X217399435Y-102853416D01*
X217399435Y-102853416D02*
X217304197Y-102948654D01*
X217304197Y-102948654D02*
X217208959Y-102996273D01*
X218208959Y-102710559D02*
X218208959Y-103520082D01*
X218208959Y-103520082D02*
X218256578Y-103615320D01*
X218256578Y-103615320D02*
X218304197Y-103662940D01*
X218304197Y-103662940D02*
X218399435Y-103710559D01*
X218399435Y-103710559D02*
X218589911Y-103710559D01*
X218589911Y-103710559D02*
X218685149Y-103662940D01*
X218685149Y-103662940D02*
X218732768Y-103615320D01*
X218732768Y-103615320D02*
X218780387Y-103520082D01*
X218780387Y-103520082D02*
X218780387Y-102710559D01*
X141780387Y-84710559D02*
X141208959Y-84710559D01*
X141494673Y-84710559D02*
X141494673Y-83710559D01*
X141494673Y-83710559D02*
X141399435Y-83853416D01*
X141399435Y-83853416D02*
X141304197Y-83948654D01*
X141304197Y-83948654D02*
X141208959Y-83996273D01*
X142208959Y-83710559D02*
X142208959Y-84520082D01*
X142208959Y-84520082D02*
X142256578Y-84615320D01*
X142256578Y-84615320D02*
X142304197Y-84662940D01*
X142304197Y-84662940D02*
X142399435Y-84710559D01*
X142399435Y-84710559D02*
X142589911Y-84710559D01*
X142589911Y-84710559D02*
X142685149Y-84662940D01*
X142685149Y-84662940D02*
X142732768Y-84615320D01*
X142732768Y-84615320D02*
X142780387Y-84520082D01*
X142780387Y-84520082D02*
X142780387Y-83710559D01*
X46780387Y-141710559D02*
X46208959Y-141710559D01*
X46494673Y-141710559D02*
X46494673Y-140710559D01*
X46494673Y-140710559D02*
X46399435Y-140853416D01*
X46399435Y-140853416D02*
X46304197Y-140948654D01*
X46304197Y-140948654D02*
X46208959Y-140996273D01*
X47208959Y-140710559D02*
X47208959Y-141520082D01*
X47208959Y-141520082D02*
X47256578Y-141615320D01*
X47256578Y-141615320D02*
X47304197Y-141662940D01*
X47304197Y-141662940D02*
X47399435Y-141710559D01*
X47399435Y-141710559D02*
X47589911Y-141710559D01*
X47589911Y-141710559D02*
X47685149Y-141662940D01*
X47685149Y-141662940D02*
X47732768Y-141615320D01*
X47732768Y-141615320D02*
X47780387Y-141520082D01*
X47780387Y-141520082D02*
X47780387Y-140710559D01*
X217208959Y-140805797D02*
X217256578Y-140758178D01*
X217256578Y-140758178D02*
X217351816Y-140710559D01*
X217351816Y-140710559D02*
X217589911Y-140710559D01*
X217589911Y-140710559D02*
X217685149Y-140758178D01*
X217685149Y-140758178D02*
X217732768Y-140805797D01*
X217732768Y-140805797D02*
X217780387Y-140901035D01*
X217780387Y-140901035D02*
X217780387Y-140996273D01*
X217780387Y-140996273D02*
X217732768Y-141139130D01*
X217732768Y-141139130D02*
X217161340Y-141710559D01*
X217161340Y-141710559D02*
X217780387Y-141710559D01*
X218208959Y-140710559D02*
X218208959Y-141520082D01*
X218208959Y-141520082D02*
X218256578Y-141615320D01*
X218256578Y-141615320D02*
X218304197Y-141662940D01*
X218304197Y-141662940D02*
X218399435Y-141710559D01*
X218399435Y-141710559D02*
X218589911Y-141710559D01*
X218589911Y-141710559D02*
X218685149Y-141662940D01*
X218685149Y-141662940D02*
X218732768Y-141615320D01*
X218732768Y-141615320D02*
X218780387Y-141520082D01*
X218780387Y-141520082D02*
X218780387Y-140710559D01*
X27780387Y-141710559D02*
X27208959Y-141710559D01*
X27494673Y-141710559D02*
X27494673Y-140710559D01*
X27494673Y-140710559D02*
X27399435Y-140853416D01*
X27399435Y-140853416D02*
X27304197Y-140948654D01*
X27304197Y-140948654D02*
X27208959Y-140996273D01*
X28208959Y-140710559D02*
X28208959Y-141520082D01*
X28208959Y-141520082D02*
X28256578Y-141615320D01*
X28256578Y-141615320D02*
X28304197Y-141662940D01*
X28304197Y-141662940D02*
X28399435Y-141710559D01*
X28399435Y-141710559D02*
X28589911Y-141710559D01*
X28589911Y-141710559D02*
X28685149Y-141662940D01*
X28685149Y-141662940D02*
X28732768Y-141615320D01*
X28732768Y-141615320D02*
X28780387Y-141520082D01*
X28780387Y-141520082D02*
X28780387Y-140710559D01*
X255780387Y-84710559D02*
X255208959Y-84710559D01*
X255494673Y-84710559D02*
X255494673Y-83710559D01*
X255494673Y-83710559D02*
X255399435Y-83853416D01*
X255399435Y-83853416D02*
X255304197Y-83948654D01*
X255304197Y-83948654D02*
X255208959Y-83996273D01*
X256208959Y-83710559D02*
X256208959Y-84520082D01*
X256208959Y-84520082D02*
X256256578Y-84615320D01*
X256256578Y-84615320D02*
X256304197Y-84662940D01*
X256304197Y-84662940D02*
X256399435Y-84710559D01*
X256399435Y-84710559D02*
X256589911Y-84710559D01*
X256589911Y-84710559D02*
X256685149Y-84662940D01*
X256685149Y-84662940D02*
X256732768Y-84615320D01*
X256732768Y-84615320D02*
X256780387Y-84520082D01*
X256780387Y-84520082D02*
X256780387Y-83710559D01*
X160780387Y-84710559D02*
X160208959Y-84710559D01*
X160494673Y-84710559D02*
X160494673Y-83710559D01*
X160494673Y-83710559D02*
X160399435Y-83853416D01*
X160399435Y-83853416D02*
X160304197Y-83948654D01*
X160304197Y-83948654D02*
X160208959Y-83996273D01*
X161208959Y-83710559D02*
X161208959Y-84520082D01*
X161208959Y-84520082D02*
X161256578Y-84615320D01*
X161256578Y-84615320D02*
X161304197Y-84662940D01*
X161304197Y-84662940D02*
X161399435Y-84710559D01*
X161399435Y-84710559D02*
X161589911Y-84710559D01*
X161589911Y-84710559D02*
X161685149Y-84662940D01*
X161685149Y-84662940D02*
X161732768Y-84615320D01*
X161732768Y-84615320D02*
X161780387Y-84520082D01*
X161780387Y-84520082D02*
X161780387Y-83710559D01*
X122780387Y-122710559D02*
X122208959Y-122710559D01*
X122494673Y-122710559D02*
X122494673Y-121710559D01*
X122494673Y-121710559D02*
X122399435Y-121853416D01*
X122399435Y-121853416D02*
X122304197Y-121948654D01*
X122304197Y-121948654D02*
X122208959Y-121996273D01*
X123208959Y-121710559D02*
X123208959Y-122520082D01*
X123208959Y-122520082D02*
X123256578Y-122615320D01*
X123256578Y-122615320D02*
X123304197Y-122662940D01*
X123304197Y-122662940D02*
X123399435Y-122710559D01*
X123399435Y-122710559D02*
X123589911Y-122710559D01*
X123589911Y-122710559D02*
X123685149Y-122662940D01*
X123685149Y-122662940D02*
X123732768Y-122615320D01*
X123732768Y-122615320D02*
X123780387Y-122520082D01*
X123780387Y-122520082D02*
X123780387Y-121710559D01*
X236780387Y-103710559D02*
X236208959Y-103710559D01*
X236494673Y-103710559D02*
X236494673Y-102710559D01*
X236494673Y-102710559D02*
X236399435Y-102853416D01*
X236399435Y-102853416D02*
X236304197Y-102948654D01*
X236304197Y-102948654D02*
X236208959Y-102996273D01*
X237208959Y-102710559D02*
X237208959Y-103520082D01*
X237208959Y-103520082D02*
X237256578Y-103615320D01*
X237256578Y-103615320D02*
X237304197Y-103662940D01*
X237304197Y-103662940D02*
X237399435Y-103710559D01*
X237399435Y-103710559D02*
X237589911Y-103710559D01*
X237589911Y-103710559D02*
X237685149Y-103662940D01*
X237685149Y-103662940D02*
X237732768Y-103615320D01*
X237732768Y-103615320D02*
X237780387Y-103520082D01*
X237780387Y-103520082D02*
X237780387Y-102710559D01*
X236780387Y-122710559D02*
X236208959Y-122710559D01*
X236494673Y-122710559D02*
X236494673Y-121710559D01*
X236494673Y-121710559D02*
X236399435Y-121853416D01*
X236399435Y-121853416D02*
X236304197Y-121948654D01*
X236304197Y-121948654D02*
X236208959Y-121996273D01*
X237208959Y-121710559D02*
X237208959Y-122520082D01*
X237208959Y-122520082D02*
X237256578Y-122615320D01*
X237256578Y-122615320D02*
X237304197Y-122662940D01*
X237304197Y-122662940D02*
X237399435Y-122710559D01*
X237399435Y-122710559D02*
X237589911Y-122710559D01*
X237589911Y-122710559D02*
X237685149Y-122662940D01*
X237685149Y-122662940D02*
X237732768Y-122615320D01*
X237732768Y-122615320D02*
X237780387Y-122520082D01*
X237780387Y-122520082D02*
X237780387Y-121710559D01*
X160780387Y-103710559D02*
X160208959Y-103710559D01*
X160494673Y-103710559D02*
X160494673Y-102710559D01*
X160494673Y-102710559D02*
X160399435Y-102853416D01*
X160399435Y-102853416D02*
X160304197Y-102948654D01*
X160304197Y-102948654D02*
X160208959Y-102996273D01*
X161208959Y-102710559D02*
X161208959Y-103520082D01*
X161208959Y-103520082D02*
X161256578Y-103615320D01*
X161256578Y-103615320D02*
X161304197Y-103662940D01*
X161304197Y-103662940D02*
X161399435Y-103710559D01*
X161399435Y-103710559D02*
X161589911Y-103710559D01*
X161589911Y-103710559D02*
X161685149Y-103662940D01*
X161685149Y-103662940D02*
X161732768Y-103615320D01*
X161732768Y-103615320D02*
X161780387Y-103520082D01*
X161780387Y-103520082D02*
X161780387Y-102710559D01*
X198780387Y-84710559D02*
X198208959Y-84710559D01*
X198494673Y-84710559D02*
X198494673Y-83710559D01*
X198494673Y-83710559D02*
X198399435Y-83853416D01*
X198399435Y-83853416D02*
X198304197Y-83948654D01*
X198304197Y-83948654D02*
X198208959Y-83996273D01*
X199208959Y-83710559D02*
X199208959Y-84520082D01*
X199208959Y-84520082D02*
X199256578Y-84615320D01*
X199256578Y-84615320D02*
X199304197Y-84662940D01*
X199304197Y-84662940D02*
X199399435Y-84710559D01*
X199399435Y-84710559D02*
X199589911Y-84710559D01*
X199589911Y-84710559D02*
X199685149Y-84662940D01*
X199685149Y-84662940D02*
X199732768Y-84615320D01*
X199732768Y-84615320D02*
X199780387Y-84520082D01*
X199780387Y-84520082D02*
X199780387Y-83710559D01*
X217780387Y-84710559D02*
X217208959Y-84710559D01*
X217494673Y-84710559D02*
X217494673Y-83710559D01*
X217494673Y-83710559D02*
X217399435Y-83853416D01*
X217399435Y-83853416D02*
X217304197Y-83948654D01*
X217304197Y-83948654D02*
X217208959Y-83996273D01*
X218208959Y-83710559D02*
X218208959Y-84520082D01*
X218208959Y-84520082D02*
X218256578Y-84615320D01*
X218256578Y-84615320D02*
X218304197Y-84662940D01*
X218304197Y-84662940D02*
X218399435Y-84710559D01*
X218399435Y-84710559D02*
X218589911Y-84710559D01*
X218589911Y-84710559D02*
X218685149Y-84662940D01*
X218685149Y-84662940D02*
X218732768Y-84615320D01*
X218732768Y-84615320D02*
X218780387Y-84520082D01*
X218780387Y-84520082D02*
X218780387Y-83710559D01*
X141780387Y-103710559D02*
X141208959Y-103710559D01*
X141494673Y-103710559D02*
X141494673Y-102710559D01*
X141494673Y-102710559D02*
X141399435Y-102853416D01*
X141399435Y-102853416D02*
X141304197Y-102948654D01*
X141304197Y-102948654D02*
X141208959Y-102996273D01*
X142208959Y-102710559D02*
X142208959Y-103520082D01*
X142208959Y-103520082D02*
X142256578Y-103615320D01*
X142256578Y-103615320D02*
X142304197Y-103662940D01*
X142304197Y-103662940D02*
X142399435Y-103710559D01*
X142399435Y-103710559D02*
X142589911Y-103710559D01*
X142589911Y-103710559D02*
X142685149Y-103662940D01*
X142685149Y-103662940D02*
X142732768Y-103615320D01*
X142732768Y-103615320D02*
X142780387Y-103520082D01*
X142780387Y-103520082D02*
X142780387Y-102710559D01*
X160780387Y-122710559D02*
X160208959Y-122710559D01*
X160494673Y-122710559D02*
X160494673Y-121710559D01*
X160494673Y-121710559D02*
X160399435Y-121853416D01*
X160399435Y-121853416D02*
X160304197Y-121948654D01*
X160304197Y-121948654D02*
X160208959Y-121996273D01*
X161208959Y-121710559D02*
X161208959Y-122520082D01*
X161208959Y-122520082D02*
X161256578Y-122615320D01*
X161256578Y-122615320D02*
X161304197Y-122662940D01*
X161304197Y-122662940D02*
X161399435Y-122710559D01*
X161399435Y-122710559D02*
X161589911Y-122710559D01*
X161589911Y-122710559D02*
X161685149Y-122662940D01*
X161685149Y-122662940D02*
X161732768Y-122615320D01*
X161732768Y-122615320D02*
X161780387Y-122520082D01*
X161780387Y-122520082D02*
X161780387Y-121710559D01*
X65780387Y-84710559D02*
X65208959Y-84710559D01*
X65494673Y-84710559D02*
X65494673Y-83710559D01*
X65494673Y-83710559D02*
X65399435Y-83853416D01*
X65399435Y-83853416D02*
X65304197Y-83948654D01*
X65304197Y-83948654D02*
X65208959Y-83996273D01*
X66208959Y-83710559D02*
X66208959Y-84520082D01*
X66208959Y-84520082D02*
X66256578Y-84615320D01*
X66256578Y-84615320D02*
X66304197Y-84662940D01*
X66304197Y-84662940D02*
X66399435Y-84710559D01*
X66399435Y-84710559D02*
X66589911Y-84710559D01*
X66589911Y-84710559D02*
X66685149Y-84662940D01*
X66685149Y-84662940D02*
X66732768Y-84615320D01*
X66732768Y-84615320D02*
X66780387Y-84520082D01*
X66780387Y-84520082D02*
X66780387Y-83710559D01*
X217780387Y-122710559D02*
X217208959Y-122710559D01*
X217494673Y-122710559D02*
X217494673Y-121710559D01*
X217494673Y-121710559D02*
X217399435Y-121853416D01*
X217399435Y-121853416D02*
X217304197Y-121948654D01*
X217304197Y-121948654D02*
X217208959Y-121996273D01*
X218208959Y-121710559D02*
X218208959Y-122520082D01*
X218208959Y-122520082D02*
X218256578Y-122615320D01*
X218256578Y-122615320D02*
X218304197Y-122662940D01*
X218304197Y-122662940D02*
X218399435Y-122710559D01*
X218399435Y-122710559D02*
X218589911Y-122710559D01*
X218589911Y-122710559D02*
X218685149Y-122662940D01*
X218685149Y-122662940D02*
X218732768Y-122615320D01*
X218732768Y-122615320D02*
X218780387Y-122520082D01*
X218780387Y-122520082D02*
X218780387Y-121710559D01*
X84780387Y-84710559D02*
X84208959Y-84710559D01*
X84494673Y-84710559D02*
X84494673Y-83710559D01*
X84494673Y-83710559D02*
X84399435Y-83853416D01*
X84399435Y-83853416D02*
X84304197Y-83948654D01*
X84304197Y-83948654D02*
X84208959Y-83996273D01*
X85208959Y-83710559D02*
X85208959Y-84520082D01*
X85208959Y-84520082D02*
X85256578Y-84615320D01*
X85256578Y-84615320D02*
X85304197Y-84662940D01*
X85304197Y-84662940D02*
X85399435Y-84710559D01*
X85399435Y-84710559D02*
X85589911Y-84710559D01*
X85589911Y-84710559D02*
X85685149Y-84662940D01*
X85685149Y-84662940D02*
X85732768Y-84615320D01*
X85732768Y-84615320D02*
X85780387Y-84520082D01*
X85780387Y-84520082D02*
X85780387Y-83710559D01*
X103780387Y-122710559D02*
X103208959Y-122710559D01*
X103494673Y-122710559D02*
X103494673Y-121710559D01*
X103494673Y-121710559D02*
X103399435Y-121853416D01*
X103399435Y-121853416D02*
X103304197Y-121948654D01*
X103304197Y-121948654D02*
X103208959Y-121996273D01*
X104208959Y-121710559D02*
X104208959Y-122520082D01*
X104208959Y-122520082D02*
X104256578Y-122615320D01*
X104256578Y-122615320D02*
X104304197Y-122662940D01*
X104304197Y-122662940D02*
X104399435Y-122710559D01*
X104399435Y-122710559D02*
X104589911Y-122710559D01*
X104589911Y-122710559D02*
X104685149Y-122662940D01*
X104685149Y-122662940D02*
X104732768Y-122615320D01*
X104732768Y-122615320D02*
X104780387Y-122520082D01*
X104780387Y-122520082D02*
X104780387Y-121710559D01*
D11*
X216989819Y-65793904D02*
X215989819Y-65793904D01*
X216989819Y-65222476D02*
X216418390Y-65651047D01*
X215989819Y-65222476D02*
X216561247Y-65793904D01*
D10*
X255780387Y-103710559D02*
X255208959Y-103710559D01*
X255494673Y-103710559D02*
X255494673Y-102710559D01*
X255494673Y-102710559D02*
X255399435Y-102853416D01*
X255399435Y-102853416D02*
X255304197Y-102948654D01*
X255304197Y-102948654D02*
X255208959Y-102996273D01*
X256208959Y-102710559D02*
X256208959Y-103520082D01*
X256208959Y-103520082D02*
X256256578Y-103615320D01*
X256256578Y-103615320D02*
X256304197Y-103662940D01*
X256304197Y-103662940D02*
X256399435Y-103710559D01*
X256399435Y-103710559D02*
X256589911Y-103710559D01*
X256589911Y-103710559D02*
X256685149Y-103662940D01*
X256685149Y-103662940D02*
X256732768Y-103615320D01*
X256732768Y-103615320D02*
X256780387Y-103520082D01*
X256780387Y-103520082D02*
X256780387Y-102710559D01*
X65621340Y-140710559D02*
X66288006Y-140710559D01*
X66288006Y-140710559D02*
X65859435Y-141710559D01*
X66668959Y-141615320D02*
X66716578Y-141662940D01*
X66716578Y-141662940D02*
X66668959Y-141710559D01*
X66668959Y-141710559D02*
X66621340Y-141662940D01*
X66621340Y-141662940D02*
X66668959Y-141615320D01*
X66668959Y-141615320D02*
X66668959Y-141710559D01*
X67335625Y-140710559D02*
X67430863Y-140710559D01*
X67430863Y-140710559D02*
X67526101Y-140758178D01*
X67526101Y-140758178D02*
X67573720Y-140805797D01*
X67573720Y-140805797D02*
X67621339Y-140901035D01*
X67621339Y-140901035D02*
X67668958Y-141091511D01*
X67668958Y-141091511D02*
X67668958Y-141329606D01*
X67668958Y-141329606D02*
X67621339Y-141520082D01*
X67621339Y-141520082D02*
X67573720Y-141615320D01*
X67573720Y-141615320D02*
X67526101Y-141662940D01*
X67526101Y-141662940D02*
X67430863Y-141710559D01*
X67430863Y-141710559D02*
X67335625Y-141710559D01*
X67335625Y-141710559D02*
X67240387Y-141662940D01*
X67240387Y-141662940D02*
X67192768Y-141615320D01*
X67192768Y-141615320D02*
X67145149Y-141520082D01*
X67145149Y-141520082D02*
X67097530Y-141329606D01*
X67097530Y-141329606D02*
X67097530Y-141091511D01*
X67097530Y-141091511D02*
X67145149Y-140901035D01*
X67145149Y-140901035D02*
X67192768Y-140805797D01*
X67192768Y-140805797D02*
X67240387Y-140758178D01*
X67240387Y-140758178D02*
X67335625Y-140710559D01*
X68288006Y-140710559D02*
X68383244Y-140710559D01*
X68383244Y-140710559D02*
X68478482Y-140758178D01*
X68478482Y-140758178D02*
X68526101Y-140805797D01*
X68526101Y-140805797D02*
X68573720Y-140901035D01*
X68573720Y-140901035D02*
X68621339Y-141091511D01*
X68621339Y-141091511D02*
X68621339Y-141329606D01*
X68621339Y-141329606D02*
X68573720Y-141520082D01*
X68573720Y-141520082D02*
X68526101Y-141615320D01*
X68526101Y-141615320D02*
X68478482Y-141662940D01*
X68478482Y-141662940D02*
X68383244Y-141710559D01*
X68383244Y-141710559D02*
X68288006Y-141710559D01*
X68288006Y-141710559D02*
X68192768Y-141662940D01*
X68192768Y-141662940D02*
X68145149Y-141615320D01*
X68145149Y-141615320D02*
X68097530Y-141520082D01*
X68097530Y-141520082D02*
X68049911Y-141329606D01*
X68049911Y-141329606D02*
X68049911Y-141091511D01*
X68049911Y-141091511D02*
X68097530Y-140901035D01*
X68097530Y-140901035D02*
X68145149Y-140805797D01*
X68145149Y-140805797D02*
X68192768Y-140758178D01*
X68192768Y-140758178D02*
X68288006Y-140710559D01*
X69049911Y-140710559D02*
X69049911Y-141520082D01*
X69049911Y-141520082D02*
X69097530Y-141615320D01*
X69097530Y-141615320D02*
X69145149Y-141662940D01*
X69145149Y-141662940D02*
X69240387Y-141710559D01*
X69240387Y-141710559D02*
X69430863Y-141710559D01*
X69430863Y-141710559D02*
X69526101Y-141662940D01*
X69526101Y-141662940D02*
X69573720Y-141615320D01*
X69573720Y-141615320D02*
X69621339Y-141520082D01*
X69621339Y-141520082D02*
X69621339Y-140710559D01*
D11*
X227419819Y-72605714D02*
X227419819Y-72110476D01*
X227419819Y-72110476D02*
X227800771Y-72377142D01*
X227800771Y-72377142D02*
X227800771Y-72262857D01*
X227800771Y-72262857D02*
X227848390Y-72186666D01*
X227848390Y-72186666D02*
X227896009Y-72148571D01*
X227896009Y-72148571D02*
X227991247Y-72110476D01*
X227991247Y-72110476D02*
X228229342Y-72110476D01*
X228229342Y-72110476D02*
X228324580Y-72148571D01*
X228324580Y-72148571D02*
X228372200Y-72186666D01*
X228372200Y-72186666D02*
X228419819Y-72262857D01*
X228419819Y-72262857D02*
X228419819Y-72491428D01*
X228419819Y-72491428D02*
X228372200Y-72567619D01*
X228372200Y-72567619D02*
X228324580Y-72605714D01*
X227419819Y-71843809D02*
X227419819Y-71348571D01*
X227419819Y-71348571D02*
X227800771Y-71615237D01*
X227800771Y-71615237D02*
X227800771Y-71500952D01*
X227800771Y-71500952D02*
X227848390Y-71424761D01*
X227848390Y-71424761D02*
X227896009Y-71386666D01*
X227896009Y-71386666D02*
X227991247Y-71348571D01*
X227991247Y-71348571D02*
X228229342Y-71348571D01*
X228229342Y-71348571D02*
X228324580Y-71386666D01*
X228324580Y-71386666D02*
X228372200Y-71424761D01*
X228372200Y-71424761D02*
X228419819Y-71500952D01*
X228419819Y-71500952D02*
X228419819Y-71729523D01*
X228419819Y-71729523D02*
X228372200Y-71805714D01*
X228372200Y-71805714D02*
X228324580Y-71843809D01*
X227419819Y-70853332D02*
X227419819Y-70777142D01*
X227419819Y-70777142D02*
X227467438Y-70700951D01*
X227467438Y-70700951D02*
X227515057Y-70662856D01*
X227515057Y-70662856D02*
X227610295Y-70624761D01*
X227610295Y-70624761D02*
X227800771Y-70586666D01*
X227800771Y-70586666D02*
X228038866Y-70586666D01*
X228038866Y-70586666D02*
X228229342Y-70624761D01*
X228229342Y-70624761D02*
X228324580Y-70662856D01*
X228324580Y-70662856D02*
X228372200Y-70700951D01*
X228372200Y-70700951D02*
X228419819Y-70777142D01*
X228419819Y-70777142D02*
X228419819Y-70853332D01*
X228419819Y-70853332D02*
X228372200Y-70929523D01*
X228372200Y-70929523D02*
X228324580Y-70967618D01*
X228324580Y-70967618D02*
X228229342Y-71005713D01*
X228229342Y-71005713D02*
X228038866Y-71043809D01*
X228038866Y-71043809D02*
X227800771Y-71043809D01*
X227800771Y-71043809D02*
X227610295Y-71005713D01*
X227610295Y-71005713D02*
X227515057Y-70967618D01*
X227515057Y-70967618D02*
X227467438Y-70929523D01*
X227467438Y-70929523D02*
X227419819Y-70853332D01*
X228419819Y-70281904D02*
X228419819Y-70091427D01*
X228419819Y-70091427D02*
X228229342Y-70091427D01*
X228229342Y-70091427D02*
X228181723Y-70167618D01*
X228181723Y-70167618D02*
X228086485Y-70243808D01*
X228086485Y-70243808D02*
X227943628Y-70281904D01*
X227943628Y-70281904D02*
X227705533Y-70281904D01*
X227705533Y-70281904D02*
X227562676Y-70243808D01*
X227562676Y-70243808D02*
X227467438Y-70167618D01*
X227467438Y-70167618D02*
X227419819Y-70053332D01*
X227419819Y-70053332D02*
X227419819Y-69900951D01*
X227419819Y-69900951D02*
X227467438Y-69786665D01*
X227467438Y-69786665D02*
X227562676Y-69710475D01*
X227562676Y-69710475D02*
X227705533Y-69672380D01*
X227705533Y-69672380D02*
X227943628Y-69672380D01*
X227943628Y-69672380D02*
X228086485Y-69710475D01*
X228086485Y-69710475D02*
X228181723Y-69786665D01*
X228181723Y-69786665D02*
X228229342Y-69862856D01*
X228229342Y-69862856D02*
X228419819Y-69862856D01*
X228419819Y-69862856D02*
X228419819Y-69672380D01*
X223609819Y-72605714D02*
X223609819Y-72110476D01*
X223609819Y-72110476D02*
X223990771Y-72377142D01*
X223990771Y-72377142D02*
X223990771Y-72262857D01*
X223990771Y-72262857D02*
X224038390Y-72186666D01*
X224038390Y-72186666D02*
X224086009Y-72148571D01*
X224086009Y-72148571D02*
X224181247Y-72110476D01*
X224181247Y-72110476D02*
X224419342Y-72110476D01*
X224419342Y-72110476D02*
X224514580Y-72148571D01*
X224514580Y-72148571D02*
X224562200Y-72186666D01*
X224562200Y-72186666D02*
X224609819Y-72262857D01*
X224609819Y-72262857D02*
X224609819Y-72491428D01*
X224609819Y-72491428D02*
X224562200Y-72567619D01*
X224562200Y-72567619D02*
X224514580Y-72605714D01*
X223609819Y-71843809D02*
X223609819Y-71348571D01*
X223609819Y-71348571D02*
X223990771Y-71615237D01*
X223990771Y-71615237D02*
X223990771Y-71500952D01*
X223990771Y-71500952D02*
X224038390Y-71424761D01*
X224038390Y-71424761D02*
X224086009Y-71386666D01*
X224086009Y-71386666D02*
X224181247Y-71348571D01*
X224181247Y-71348571D02*
X224419342Y-71348571D01*
X224419342Y-71348571D02*
X224514580Y-71386666D01*
X224514580Y-71386666D02*
X224562200Y-71424761D01*
X224562200Y-71424761D02*
X224609819Y-71500952D01*
X224609819Y-71500952D02*
X224609819Y-71729523D01*
X224609819Y-71729523D02*
X224562200Y-71805714D01*
X224562200Y-71805714D02*
X224514580Y-71843809D01*
X223609819Y-70853332D02*
X223609819Y-70777142D01*
X223609819Y-70777142D02*
X223657438Y-70700951D01*
X223657438Y-70700951D02*
X223705057Y-70662856D01*
X223705057Y-70662856D02*
X223800295Y-70624761D01*
X223800295Y-70624761D02*
X223990771Y-70586666D01*
X223990771Y-70586666D02*
X224228866Y-70586666D01*
X224228866Y-70586666D02*
X224419342Y-70624761D01*
X224419342Y-70624761D02*
X224514580Y-70662856D01*
X224514580Y-70662856D02*
X224562200Y-70700951D01*
X224562200Y-70700951D02*
X224609819Y-70777142D01*
X224609819Y-70777142D02*
X224609819Y-70853332D01*
X224609819Y-70853332D02*
X224562200Y-70929523D01*
X224562200Y-70929523D02*
X224514580Y-70967618D01*
X224514580Y-70967618D02*
X224419342Y-71005713D01*
X224419342Y-71005713D02*
X224228866Y-71043809D01*
X224228866Y-71043809D02*
X223990771Y-71043809D01*
X223990771Y-71043809D02*
X223800295Y-71005713D01*
X223800295Y-71005713D02*
X223705057Y-70967618D01*
X223705057Y-70967618D02*
X223657438Y-70929523D01*
X223657438Y-70929523D02*
X223609819Y-70853332D01*
X224609819Y-70281904D02*
X224609819Y-70091427D01*
X224609819Y-70091427D02*
X224419342Y-70091427D01*
X224419342Y-70091427D02*
X224371723Y-70167618D01*
X224371723Y-70167618D02*
X224276485Y-70243808D01*
X224276485Y-70243808D02*
X224133628Y-70281904D01*
X224133628Y-70281904D02*
X223895533Y-70281904D01*
X223895533Y-70281904D02*
X223752676Y-70243808D01*
X223752676Y-70243808D02*
X223657438Y-70167618D01*
X223657438Y-70167618D02*
X223609819Y-70053332D01*
X223609819Y-70053332D02*
X223609819Y-69900951D01*
X223609819Y-69900951D02*
X223657438Y-69786665D01*
X223657438Y-69786665D02*
X223752676Y-69710475D01*
X223752676Y-69710475D02*
X223895533Y-69672380D01*
X223895533Y-69672380D02*
X224133628Y-69672380D01*
X224133628Y-69672380D02*
X224276485Y-69710475D01*
X224276485Y-69710475D02*
X224371723Y-69786665D01*
X224371723Y-69786665D02*
X224419342Y-69862856D01*
X224419342Y-69862856D02*
X224609819Y-69862856D01*
X224609819Y-69862856D02*
X224609819Y-69672380D01*
D10*
X46780387Y-122710559D02*
X46208959Y-122710559D01*
X46494673Y-122710559D02*
X46494673Y-121710559D01*
X46494673Y-121710559D02*
X46399435Y-121853416D01*
X46399435Y-121853416D02*
X46304197Y-121948654D01*
X46304197Y-121948654D02*
X46208959Y-121996273D01*
X47208959Y-121710559D02*
X47208959Y-122520082D01*
X47208959Y-122520082D02*
X47256578Y-122615320D01*
X47256578Y-122615320D02*
X47304197Y-122662940D01*
X47304197Y-122662940D02*
X47399435Y-122710559D01*
X47399435Y-122710559D02*
X47589911Y-122710559D01*
X47589911Y-122710559D02*
X47685149Y-122662940D01*
X47685149Y-122662940D02*
X47732768Y-122615320D01*
X47732768Y-122615320D02*
X47780387Y-122520082D01*
X47780387Y-122520082D02*
X47780387Y-121710559D01*
X255780387Y-122710559D02*
X255208959Y-122710559D01*
X255494673Y-122710559D02*
X255494673Y-121710559D01*
X255494673Y-121710559D02*
X255399435Y-121853416D01*
X255399435Y-121853416D02*
X255304197Y-121948654D01*
X255304197Y-121948654D02*
X255208959Y-121996273D01*
X256208959Y-121710559D02*
X256208959Y-122520082D01*
X256208959Y-122520082D02*
X256256578Y-122615320D01*
X256256578Y-122615320D02*
X256304197Y-122662940D01*
X256304197Y-122662940D02*
X256399435Y-122710559D01*
X256399435Y-122710559D02*
X256589911Y-122710559D01*
X256589911Y-122710559D02*
X256685149Y-122662940D01*
X256685149Y-122662940D02*
X256732768Y-122615320D01*
X256732768Y-122615320D02*
X256780387Y-122520082D01*
X256780387Y-122520082D02*
X256780387Y-121710559D01*
X46780387Y-84710559D02*
X46208959Y-84710559D01*
X46494673Y-84710559D02*
X46494673Y-83710559D01*
X46494673Y-83710559D02*
X46399435Y-83853416D01*
X46399435Y-83853416D02*
X46304197Y-83948654D01*
X46304197Y-83948654D02*
X46208959Y-83996273D01*
X47208959Y-83710559D02*
X47208959Y-84520082D01*
X47208959Y-84520082D02*
X47256578Y-84615320D01*
X47256578Y-84615320D02*
X47304197Y-84662940D01*
X47304197Y-84662940D02*
X47399435Y-84710559D01*
X47399435Y-84710559D02*
X47589911Y-84710559D01*
X47589911Y-84710559D02*
X47685149Y-84662940D01*
X47685149Y-84662940D02*
X47732768Y-84615320D01*
X47732768Y-84615320D02*
X47780387Y-84520082D01*
X47780387Y-84520082D02*
X47780387Y-83710559D01*
X179780387Y-84710559D02*
X179208959Y-84710559D01*
X179494673Y-84710559D02*
X179494673Y-83710559D01*
X179494673Y-83710559D02*
X179399435Y-83853416D01*
X179399435Y-83853416D02*
X179304197Y-83948654D01*
X179304197Y-83948654D02*
X179208959Y-83996273D01*
X180208959Y-83710559D02*
X180208959Y-84520082D01*
X180208959Y-84520082D02*
X180256578Y-84615320D01*
X180256578Y-84615320D02*
X180304197Y-84662940D01*
X180304197Y-84662940D02*
X180399435Y-84710559D01*
X180399435Y-84710559D02*
X180589911Y-84710559D01*
X180589911Y-84710559D02*
X180685149Y-84662940D01*
X180685149Y-84662940D02*
X180732768Y-84615320D01*
X180732768Y-84615320D02*
X180780387Y-84520082D01*
X180780387Y-84520082D02*
X180780387Y-83710559D01*
X255780387Y-141710559D02*
X255208959Y-141710559D01*
X255494673Y-141710559D02*
X255494673Y-140710559D01*
X255494673Y-140710559D02*
X255399435Y-140853416D01*
X255399435Y-140853416D02*
X255304197Y-140948654D01*
X255304197Y-140948654D02*
X255208959Y-140996273D01*
X256208959Y-140710559D02*
X256208959Y-141520082D01*
X256208959Y-141520082D02*
X256256578Y-141615320D01*
X256256578Y-141615320D02*
X256304197Y-141662940D01*
X256304197Y-141662940D02*
X256399435Y-141710559D01*
X256399435Y-141710559D02*
X256589911Y-141710559D01*
X256589911Y-141710559D02*
X256685149Y-141662940D01*
X256685149Y-141662940D02*
X256732768Y-141615320D01*
X256732768Y-141615320D02*
X256780387Y-141520082D01*
X256780387Y-141520082D02*
X256780387Y-140710559D01*
D12*
%TO.C,SW30*%
X85525000Y-123525000D02*
X85525000Y-137725000D01*
X85525000Y-137725000D02*
X99725000Y-137725000D01*
X99725000Y-123525000D02*
X85525000Y-123525000D01*
X99725000Y-137725000D02*
X99725000Y-123525000D01*
D13*
X83125000Y-121125000D02*
X102125000Y-121125000D01*
X102125000Y-140125000D01*
X83125000Y-140125000D01*
X83125000Y-121125000D01*
D12*
%TO.C,SW29*%
X66525000Y-123525000D02*
X66525000Y-137725000D01*
X66525000Y-137725000D02*
X80725000Y-137725000D01*
X80725000Y-123525000D02*
X66525000Y-123525000D01*
X80725000Y-137725000D02*
X80725000Y-123525000D01*
D13*
X64125000Y-121125000D02*
X83125000Y-121125000D01*
X83125000Y-140125000D01*
X64125000Y-140125000D01*
X64125000Y-121125000D01*
D12*
%TO.C,SW5*%
X104525000Y-85525000D02*
X104525000Y-99725000D01*
X104525000Y-99725000D02*
X118725000Y-99725000D01*
X118725000Y-85525000D02*
X104525000Y-85525000D01*
X118725000Y-99725000D02*
X118725000Y-85525000D01*
D13*
X102125000Y-83125000D02*
X121125000Y-83125000D01*
X121125000Y-102125000D01*
X102125000Y-102125000D01*
X102125000Y-83125000D01*
D12*
%TO.C,R1*%
X219425000Y-69200000D02*
X219425000Y-73040000D01*
X219425000Y-73040000D02*
X221265000Y-73040000D01*
X220345000Y-68250000D02*
X220345000Y-69200000D01*
X220345000Y-73990000D02*
X220345000Y-73040000D01*
X221265000Y-69200000D02*
X219425000Y-69200000D01*
X221265000Y-73040000D02*
X221265000Y-69200000D01*
%TO.C,SW35*%
X180525000Y-123525000D02*
X180525000Y-137725000D01*
X180525000Y-137725000D02*
X194725000Y-137725000D01*
X194725000Y-123525000D02*
X180525000Y-123525000D01*
X194725000Y-137725000D02*
X194725000Y-123525000D01*
D13*
X178125000Y-121125000D02*
X197125000Y-121125000D01*
X197125000Y-140125000D01*
X178125000Y-140125000D01*
X178125000Y-121125000D01*
D12*
%TO.C,SW19*%
X123525000Y-104525000D02*
X123525000Y-118725000D01*
X123525000Y-118725000D02*
X137725000Y-118725000D01*
X137725000Y-104525000D02*
X123525000Y-104525000D01*
X137725000Y-118725000D02*
X137725000Y-104525000D01*
D13*
X121125000Y-102125000D02*
X140125000Y-102125000D01*
X140125000Y-121125000D01*
X121125000Y-121125000D01*
X121125000Y-102125000D01*
D12*
%TO.C,D45*%
X245828000Y-68555000D02*
X245828000Y-68765000D01*
X245828000Y-70925000D02*
X245828000Y-71656000D01*
X245828000Y-73115000D02*
X245828000Y-73675000D01*
X247948000Y-68555000D02*
X245828000Y-68555000D01*
X247948000Y-68555000D02*
X247948000Y-68765000D01*
X247948000Y-68675000D02*
X245828000Y-68675000D01*
X247948000Y-70925000D02*
X247948000Y-71656000D01*
X247948000Y-73115000D02*
X247948000Y-73675000D01*
X247948000Y-73675000D02*
X245828000Y-73675000D01*
%TO.C,SW22*%
X180525000Y-104525000D02*
X180525000Y-118725000D01*
X180525000Y-118725000D02*
X194725000Y-118725000D01*
X194725000Y-104525000D02*
X180525000Y-104525000D01*
X194725000Y-118725000D02*
X194725000Y-104525000D01*
D13*
X178125000Y-102125000D02*
X197125000Y-102125000D01*
X197125000Y-121125000D01*
X178125000Y-121125000D01*
X178125000Y-102125000D01*
D12*
%TO.C,SW45*%
X253700000Y-67020000D02*
X254300000Y-67020000D01*
X254000000Y-67320000D02*
X253700000Y-67020000D01*
X254300000Y-67020000D02*
X254000000Y-67320000D01*
X254800000Y-64820000D02*
X254800000Y-67320000D01*
X254800000Y-77420000D02*
X254800000Y-74620000D01*
X259600000Y-64820000D02*
X254800000Y-64820000D01*
X259700000Y-77420000D02*
X254800000Y-77420000D01*
X261000000Y-71120000D02*
X262000000Y-71120000D01*
X261500000Y-70620000D02*
X261500000Y-71620000D01*
X263300000Y-64820000D02*
X268200000Y-64820000D01*
X268200000Y-64820000D02*
X268200000Y-67420000D01*
X268200000Y-69820000D02*
X268200000Y-72420000D01*
X268200000Y-74820000D02*
X268200000Y-77420000D01*
X268200000Y-77420000D02*
X263300000Y-77420000D01*
X264500000Y-71120000D02*
G75*
G02*
X258500000Y-71120000I-3000000J0D01*
G01*
X258500000Y-71120000D02*
G75*
G02*
X264500000Y-71120000I3000000J0D01*
G01*
%TO.C,SW18*%
X104525000Y-104525000D02*
X104525000Y-118725000D01*
X104525000Y-118725000D02*
X118725000Y-118725000D01*
X118725000Y-104525000D02*
X104525000Y-104525000D01*
X118725000Y-118725000D02*
X118725000Y-104525000D01*
D13*
X102125000Y-102125000D02*
X121125000Y-102125000D01*
X121125000Y-121125000D01*
X102125000Y-121125000D01*
X102125000Y-102125000D01*
D12*
%TO.C,D50*%
X233890000Y-68560000D02*
X233890000Y-68770000D01*
X233890000Y-70930000D02*
X233890000Y-71661000D01*
X233890000Y-73120000D02*
X233890000Y-73680000D01*
X236010000Y-68560000D02*
X233890000Y-68560000D01*
X236010000Y-68560000D02*
X236010000Y-68770000D01*
X236010000Y-68680000D02*
X233890000Y-68680000D01*
X236010000Y-70930000D02*
X236010000Y-71661000D01*
X236010000Y-73120000D02*
X236010000Y-73680000D01*
X236010000Y-73680000D02*
X233890000Y-73680000D01*
%TO.C,A1*%
X27095000Y-61000000D02*
X27095000Y-63490000D01*
X27095000Y-63490000D02*
X28008520Y-63490000D01*
X27095000Y-66765000D02*
X27095000Y-63490000D01*
X27095000Y-67100000D02*
X28011000Y-67100000D01*
X27095000Y-74900000D02*
X28011000Y-74900000D01*
X27095000Y-75235000D02*
X27095000Y-66765000D01*
X27095000Y-78510000D02*
X27095000Y-75235000D01*
X27095000Y-78510000D02*
X28008520Y-78510000D01*
X27095000Y-81000000D02*
X27095000Y-78510000D01*
X27515000Y-81579676D02*
X27515000Y-82090000D01*
X27515063Y-60730000D02*
X27158000Y-60730000D01*
X27515063Y-81270000D02*
X27158000Y-81270000D01*
X28008520Y-63490000D02*
X30401480Y-63490000D01*
X28008520Y-78510000D02*
X30401480Y-78510000D01*
X29389800Y-67100000D02*
X31615000Y-67100000D01*
X29389800Y-74900000D02*
X31615000Y-74900000D01*
X29635000Y-60390000D02*
X30055000Y-60390000D01*
X29635000Y-60730000D02*
X30055000Y-60730000D01*
X29635000Y-81270000D02*
X30055000Y-81270000D01*
X29635000Y-81610000D02*
X29635000Y-82090000D01*
X29635000Y-81610000D02*
X30055000Y-81610000D01*
X30401480Y-63490000D02*
X75008520Y-63490000D01*
X30401480Y-78510000D02*
X75008520Y-78510000D01*
X31615000Y-67396090D02*
X31615000Y-67100000D01*
X31615000Y-72246090D02*
X31615000Y-69753910D01*
X31615000Y-74900000D02*
X31615000Y-74603910D01*
X32175000Y-60390000D02*
X32595000Y-60390000D01*
X32175000Y-60730000D02*
X32595000Y-60730000D01*
X32175000Y-81270000D02*
X32595000Y-81270000D01*
X32175000Y-81610000D02*
X32595000Y-81610000D01*
X34715000Y-60390000D02*
X35135000Y-60390000D01*
X34715000Y-60730000D02*
X35135000Y-60730000D01*
X34715000Y-81270000D02*
X35135000Y-81270000D01*
X34715000Y-81610000D02*
X35135000Y-81610000D01*
X37255000Y-60390000D02*
X37675000Y-60390000D01*
X37255000Y-60730000D02*
X37675000Y-60730000D01*
X37255000Y-81270000D02*
X37675000Y-81270000D01*
X37255000Y-81610000D02*
X37675000Y-81610000D01*
X39795000Y-60390000D02*
X40215000Y-60390000D01*
X39795000Y-60730000D02*
X40215000Y-60730000D01*
X39795000Y-81270000D02*
X40215000Y-81270000D01*
X39795000Y-81610000D02*
X40215000Y-81610000D01*
X42335000Y-60390000D02*
X42755000Y-60390000D01*
X42335000Y-60730000D02*
X42755000Y-60730000D01*
X42335000Y-81270000D02*
X42755000Y-81270000D01*
X42335000Y-81610000D02*
X42755000Y-81610000D01*
X44875000Y-60390000D02*
X45295000Y-60390000D01*
X44875000Y-60730000D02*
X45295000Y-60730000D01*
X44875000Y-81270000D02*
X45295000Y-81270000D01*
X44875000Y-81610000D02*
X45295000Y-81610000D01*
X47415000Y-60390000D02*
X47835000Y-60390000D01*
X47415000Y-60730000D02*
X47835000Y-60730000D01*
X47415000Y-81270000D02*
X47835000Y-81270000D01*
X47415000Y-81610000D02*
X47835000Y-81610000D01*
X49955000Y-60390000D02*
X50375000Y-60390000D01*
X49955000Y-60730000D02*
X50375000Y-60730000D01*
X49955000Y-81270000D02*
X50375000Y-81270000D01*
X49955000Y-81610000D02*
X50375000Y-81610000D01*
X52495000Y-60390000D02*
X52915000Y-60390000D01*
X52495000Y-60730000D02*
X52915000Y-60730000D01*
X52495000Y-81270000D02*
X52915000Y-81270000D01*
X52495000Y-81610000D02*
X52915000Y-81610000D01*
X55035000Y-60390000D02*
X55455000Y-60390000D01*
X55035000Y-60730000D02*
X55455000Y-60730000D01*
X55035000Y-81270000D02*
X55455000Y-81270000D01*
X55035000Y-81610000D02*
X55455000Y-81610000D01*
X57575000Y-60390000D02*
X57995000Y-60390000D01*
X57575000Y-60730000D02*
X57995000Y-60730000D01*
X57575000Y-81270000D02*
X57995000Y-81270000D01*
X57575000Y-81610000D02*
X57995000Y-81610000D01*
X60115000Y-60390000D02*
X60535000Y-60390000D01*
X60115000Y-60730000D02*
X60535000Y-60730000D01*
X60115000Y-81270000D02*
X60535000Y-81270000D01*
X60115000Y-81610000D02*
X60535000Y-81610000D01*
X62655000Y-60390000D02*
X63075000Y-60390000D01*
X62655000Y-60730000D02*
X63075000Y-60730000D01*
X62655000Y-81270000D02*
X63075000Y-81270000D01*
X62655000Y-81610000D02*
X63075000Y-81610000D01*
X65195000Y-60390000D02*
X65615000Y-60390000D01*
X65195000Y-60730000D02*
X65615000Y-60730000D01*
X65195000Y-81270000D02*
X65615000Y-81270000D01*
X65195000Y-81610000D02*
X65615000Y-81610000D01*
X67735000Y-60390000D02*
X68155000Y-60390000D01*
X67735000Y-60730000D02*
X68155000Y-60730000D01*
X67735000Y-81270000D02*
X68155000Y-81270000D01*
X67735000Y-81610000D02*
X68155000Y-81610000D01*
X70275000Y-60390000D02*
X70695000Y-60390000D01*
X70275000Y-60730000D02*
X70695000Y-60730000D01*
X70275000Y-81270000D02*
X70695000Y-81270000D01*
X70275000Y-81610000D02*
X70695000Y-81610000D01*
X72815000Y-60390000D02*
X73235000Y-60390000D01*
X72815000Y-60730000D02*
X73235000Y-60730000D01*
X72815000Y-81270000D02*
X73235000Y-81270000D01*
X72815000Y-81610000D02*
X73235000Y-81610000D01*
X75008520Y-63490000D02*
X77401480Y-63490000D01*
X75008520Y-78510000D02*
X77401480Y-78510000D01*
X75355000Y-60390000D02*
X75775000Y-60390000D01*
X75355000Y-60730000D02*
X75775000Y-60730000D01*
X75355000Y-81270000D02*
X75775000Y-81270000D01*
X75355000Y-81610000D02*
X75775000Y-81610000D01*
X77401480Y-63490000D02*
X78315000Y-63490000D01*
X77401480Y-78510000D02*
X78315000Y-78510000D01*
X77894937Y-60730000D02*
X78252000Y-60730000D01*
X77894937Y-81270000D02*
X78252000Y-81270000D01*
X78315000Y-67400000D02*
X78315000Y-61000000D01*
X78315000Y-67400000D02*
X78315000Y-74600000D01*
X78315000Y-81000000D02*
X78315000Y-74600000D01*
X27095000Y-61000000D02*
G75*
G02*
X27515063Y-60420324I610000J0D01*
G01*
X27515000Y-81579676D02*
G75*
G02*
X27095000Y-81000000I190051J579692D01*
G01*
X77894937Y-60420324D02*
G75*
G02*
X78315004Y-61000000I-189877J-579636D01*
G01*
X78315000Y-81000000D02*
G75*
G02*
X77894937Y-81579676I-610002J1D01*
G01*
X30145000Y-65300000D02*
G75*
G02*
X28265000Y-65300000I-940000J0D01*
G01*
X28265000Y-65300000D02*
G75*
G02*
X30145000Y-65300000I940000J0D01*
G01*
X30145000Y-76700000D02*
G75*
G02*
X28265000Y-76700000I-940000J0D01*
G01*
X28265000Y-76700000D02*
G75*
G02*
X30145000Y-76700000I940000J0D01*
G01*
X77145000Y-65300000D02*
G75*
G02*
X75265000Y-65300000I-940000J0D01*
G01*
X75265000Y-65300000D02*
G75*
G02*
X77145000Y-65300000I940000J0D01*
G01*
X77145000Y-76700000D02*
G75*
G02*
X75265000Y-76700000I-940000J0D01*
G01*
X75265000Y-76700000D02*
G75*
G02*
X77145000Y-76700000I940000J0D01*
G01*
%TO.C,SW14*%
X28525000Y-104525000D02*
X28525000Y-118725000D01*
X28525000Y-118725000D02*
X42725000Y-118725000D01*
X42725000Y-104525000D02*
X28525000Y-104525000D01*
X42725000Y-118725000D02*
X42725000Y-104525000D01*
D13*
X26125000Y-102125000D02*
X45125000Y-102125000D01*
X45125000Y-121125000D01*
X26125000Y-121125000D01*
X26125000Y-102125000D01*
D12*
%TO.C,SW16*%
X66525000Y-104525000D02*
X66525000Y-118725000D01*
X66525000Y-118725000D02*
X80725000Y-118725000D01*
X80725000Y-104525000D02*
X66525000Y-104525000D01*
X80725000Y-118725000D02*
X80725000Y-104525000D01*
D13*
X64125000Y-102125000D02*
X83125000Y-102125000D01*
X83125000Y-121125000D01*
X64125000Y-121125000D01*
X64125000Y-102125000D01*
D12*
%TO.C,D47*%
X211224000Y-69000000D02*
X211224000Y-73240000D01*
X211224000Y-73240000D02*
X213464000Y-73240000D01*
X212344000Y-68350000D02*
X212344000Y-69000000D01*
X212344000Y-73890000D02*
X212344000Y-73240000D01*
X213464000Y-69000000D02*
X211224000Y-69000000D01*
X213464000Y-69600000D02*
X211224000Y-69600000D01*
X213464000Y-69720000D02*
X211224000Y-69720000D01*
X213464000Y-69840000D02*
X211224000Y-69840000D01*
X213464000Y-73240000D02*
X213464000Y-69000000D01*
%TO.C,SW17*%
X85525000Y-104525000D02*
X85525000Y-118725000D01*
X85525000Y-118725000D02*
X99725000Y-118725000D01*
X99725000Y-104525000D02*
X85525000Y-104525000D01*
X99725000Y-118725000D02*
X99725000Y-104525000D01*
D13*
X83125000Y-102125000D02*
X102125000Y-102125000D01*
X102125000Y-121125000D01*
X83125000Y-121125000D01*
X83125000Y-102125000D01*
D12*
%TO.C,SW23*%
X199525000Y-114025000D02*
X199525000Y-128225000D01*
X199525000Y-128225000D02*
X213725000Y-128225000D01*
X213725000Y-114025000D02*
X199525000Y-114025000D01*
X213725000Y-128225000D02*
X213725000Y-114025000D01*
D13*
X216125000Y-102125000D02*
X197125000Y-102125000D01*
X197125000Y-140125000D01*
X216125000Y-140125000D01*
X216125000Y-102125000D01*
D12*
%TO.C,SW1*%
X28525000Y-85525000D02*
X28525000Y-99725000D01*
X28525000Y-99725000D02*
X42725000Y-99725000D01*
X42725000Y-85525000D02*
X28525000Y-85525000D01*
X42725000Y-99725000D02*
X42725000Y-85525000D01*
D13*
X26125000Y-83125000D02*
X45125000Y-83125000D01*
X45125000Y-102125000D01*
X26125000Y-102125000D01*
X26125000Y-83125000D01*
D12*
%TO.C,SW12*%
X237525000Y-85525000D02*
X237525000Y-99725000D01*
X237525000Y-99725000D02*
X251725000Y-99725000D01*
X251725000Y-85525000D02*
X237525000Y-85525000D01*
X251725000Y-99725000D02*
X251725000Y-85525000D01*
D13*
X235125000Y-83125000D02*
X254125000Y-83125000D01*
X254125000Y-102125000D01*
X235125000Y-102125000D01*
X235125000Y-83125000D01*
D12*
%TO.C,SW6*%
X123525000Y-85525000D02*
X123525000Y-99725000D01*
X123525000Y-99725000D02*
X137725000Y-99725000D01*
X137725000Y-85525000D02*
X123525000Y-85525000D01*
X137725000Y-99725000D02*
X137725000Y-85525000D01*
D13*
X121125000Y-83125000D02*
X140125000Y-83125000D01*
X140125000Y-102125000D01*
X121125000Y-102125000D01*
X121125000Y-83125000D01*
D12*
%TO.C,SW33*%
X142525000Y-123525000D02*
X142525000Y-137725000D01*
X142525000Y-137725000D02*
X156725000Y-137725000D01*
X156725000Y-123525000D02*
X142525000Y-123525000D01*
X156725000Y-137725000D02*
X156725000Y-123525000D01*
D13*
X140125000Y-121125000D02*
X159125000Y-121125000D01*
X159125000Y-140125000D01*
X140125000Y-140125000D01*
X140125000Y-121125000D01*
D12*
%TO.C,SW15*%
X47525000Y-104525000D02*
X47525000Y-118725000D01*
X47525000Y-118725000D02*
X61725000Y-118725000D01*
X61725000Y-104525000D02*
X47525000Y-104525000D01*
X61725000Y-118725000D02*
X61725000Y-104525000D01*
D13*
X45125000Y-102125000D02*
X64125000Y-102125000D01*
X64125000Y-121125000D01*
X45125000Y-121125000D01*
X45125000Y-102125000D01*
D12*
%TO.C,D46*%
X240113000Y-68550000D02*
X240113000Y-68760000D01*
X240113000Y-70920000D02*
X240113000Y-71651000D01*
X240113000Y-73110000D02*
X240113000Y-73670000D01*
X242233000Y-68550000D02*
X240113000Y-68550000D01*
X242233000Y-68550000D02*
X242233000Y-68760000D01*
X242233000Y-68670000D02*
X240113000Y-68670000D01*
X242233000Y-70920000D02*
X242233000Y-71651000D01*
X242233000Y-73110000D02*
X242233000Y-73670000D01*
X242233000Y-73670000D02*
X240113000Y-73670000D01*
%TO.C,SW27*%
X28525000Y-123525000D02*
X28525000Y-137725000D01*
X28525000Y-137725000D02*
X42725000Y-137725000D01*
X42725000Y-123525000D02*
X28525000Y-123525000D01*
X42725000Y-137725000D02*
X42725000Y-123525000D01*
D13*
X26125000Y-121125000D02*
X45125000Y-121125000D01*
X45125000Y-140125000D01*
X26125000Y-140125000D01*
X26125000Y-121125000D01*
D12*
%TO.C,D48*%
X207414000Y-69000000D02*
X207414000Y-73240000D01*
X207414000Y-73240000D02*
X209654000Y-73240000D01*
X208534000Y-68350000D02*
X208534000Y-69000000D01*
X208534000Y-73890000D02*
X208534000Y-73240000D01*
X209654000Y-69000000D02*
X207414000Y-69000000D01*
X209654000Y-69600000D02*
X207414000Y-69600000D01*
X209654000Y-69720000D02*
X207414000Y-69720000D01*
X209654000Y-69840000D02*
X207414000Y-69840000D01*
X209654000Y-73240000D02*
X209654000Y-69000000D01*
%TO.C,SW42*%
X199525000Y-142525000D02*
X199525000Y-156725000D01*
X199525000Y-156725000D02*
X213725000Y-156725000D01*
X213725000Y-142525000D02*
X199525000Y-142525000D01*
X213725000Y-156725000D02*
X213725000Y-142525000D01*
D13*
X197125000Y-140125000D02*
X216125000Y-140125000D01*
X216125000Y-159125000D01*
X197125000Y-159125000D01*
X197125000Y-140125000D01*
D12*
%TO.C,SW24*%
X218525000Y-104525000D02*
X218525000Y-118725000D01*
X218525000Y-118725000D02*
X232725000Y-118725000D01*
X232725000Y-104525000D02*
X218525000Y-104525000D01*
X232725000Y-118725000D02*
X232725000Y-104525000D01*
D13*
X216125000Y-102125000D02*
X235125000Y-102125000D01*
X235125000Y-121125000D01*
X216125000Y-121125000D01*
X216125000Y-102125000D01*
D12*
%TO.C,SW7*%
X142525000Y-85525000D02*
X142525000Y-99725000D01*
X142525000Y-99725000D02*
X156725000Y-99725000D01*
X156725000Y-85525000D02*
X142525000Y-85525000D01*
X156725000Y-99725000D02*
X156725000Y-85525000D01*
D13*
X140125000Y-83125000D02*
X159125000Y-83125000D01*
X159125000Y-102125000D01*
X140125000Y-102125000D01*
X140125000Y-83125000D01*
D12*
%TO.C,SW40*%
X47525000Y-142525000D02*
X47525000Y-156725000D01*
X47525000Y-156725000D02*
X61725000Y-156725000D01*
X61725000Y-142525000D02*
X47525000Y-142525000D01*
X61725000Y-156725000D02*
X61725000Y-142525000D01*
D13*
X45125000Y-140125000D02*
X64125000Y-140125000D01*
X64125000Y-159125000D01*
X45125000Y-159125000D01*
X45125000Y-140125000D01*
D12*
%TO.C,SW43*%
X228025000Y-142525000D02*
X228025000Y-156725000D01*
X228025000Y-156725000D02*
X242225000Y-156725000D01*
X242225000Y-142525000D02*
X228025000Y-142525000D01*
X242225000Y-156725000D02*
X242225000Y-142525000D01*
D13*
X216125000Y-140125000D02*
X254125000Y-140125000D01*
X254125000Y-159125000D01*
X216125000Y-159125000D01*
X216125000Y-140125000D01*
D12*
%TO.C,SW39*%
X28525000Y-142525000D02*
X28525000Y-156725000D01*
X28525000Y-156725000D02*
X42725000Y-156725000D01*
X42725000Y-142525000D02*
X28525000Y-142525000D01*
X42725000Y-156725000D02*
X42725000Y-142525000D01*
D13*
X26125000Y-140125000D02*
X45125000Y-140125000D01*
X45125000Y-159125000D01*
X26125000Y-159125000D01*
X26125000Y-140125000D01*
D12*
%TO.C,SW13*%
X256525000Y-85525000D02*
X256525000Y-99725000D01*
X256525000Y-99725000D02*
X270725000Y-99725000D01*
X270725000Y-85525000D02*
X256525000Y-85525000D01*
X270725000Y-99725000D02*
X270725000Y-85525000D01*
D13*
X254125000Y-83125000D02*
X273125000Y-83125000D01*
X273125000Y-102125000D01*
X254125000Y-102125000D01*
X254125000Y-83125000D01*
D12*
%TO.C,SW8*%
X161525000Y-85525000D02*
X161525000Y-99725000D01*
X161525000Y-99725000D02*
X175725000Y-99725000D01*
X175725000Y-85525000D02*
X161525000Y-85525000D01*
X175725000Y-99725000D02*
X175725000Y-85525000D01*
D13*
X159125000Y-83125000D02*
X178125000Y-83125000D01*
X178125000Y-102125000D01*
X159125000Y-102125000D01*
X159125000Y-83125000D01*
D12*
%TO.C,SW32*%
X123525000Y-123525000D02*
X123525000Y-137725000D01*
X123525000Y-137725000D02*
X137725000Y-137725000D01*
X137725000Y-123525000D02*
X123525000Y-123525000D01*
X137725000Y-137725000D02*
X137725000Y-123525000D01*
D13*
X121125000Y-121125000D02*
X140125000Y-121125000D01*
X140125000Y-140125000D01*
X121125000Y-140125000D01*
X121125000Y-121125000D01*
D12*
%TO.C,SW25*%
X237525000Y-104525000D02*
X237525000Y-118725000D01*
X237525000Y-118725000D02*
X251725000Y-118725000D01*
X251725000Y-104525000D02*
X237525000Y-104525000D01*
X251725000Y-118725000D02*
X251725000Y-104525000D01*
D13*
X235125000Y-102125000D02*
X254125000Y-102125000D01*
X254125000Y-121125000D01*
X235125000Y-121125000D01*
X235125000Y-102125000D01*
D12*
%TO.C,SW37*%
X237525000Y-123525000D02*
X237525000Y-137725000D01*
X237525000Y-137725000D02*
X251725000Y-137725000D01*
X251725000Y-123525000D02*
X237525000Y-123525000D01*
X251725000Y-137725000D02*
X251725000Y-123525000D01*
D13*
X235125000Y-121125000D02*
X254125000Y-121125000D01*
X254125000Y-140125000D01*
X235125000Y-140125000D01*
X235125000Y-121125000D01*
D12*
%TO.C,SW21*%
X161525000Y-104525000D02*
X161525000Y-118725000D01*
X161525000Y-118725000D02*
X175725000Y-118725000D01*
X175725000Y-104525000D02*
X161525000Y-104525000D01*
X175725000Y-118725000D02*
X175725000Y-104525000D01*
D13*
X159125000Y-102125000D02*
X178125000Y-102125000D01*
X178125000Y-121125000D01*
X159125000Y-121125000D01*
X159125000Y-102125000D01*
D12*
%TO.C,SW10*%
X199525000Y-85525000D02*
X199525000Y-99725000D01*
X199525000Y-99725000D02*
X213725000Y-99725000D01*
X213725000Y-85525000D02*
X199525000Y-85525000D01*
X213725000Y-99725000D02*
X213725000Y-85525000D01*
D13*
X197125000Y-83125000D02*
X216125000Y-83125000D01*
X216125000Y-102125000D01*
X197125000Y-102125000D01*
X197125000Y-83125000D01*
D12*
%TO.C,SW11*%
X218525000Y-85525000D02*
X218525000Y-99725000D01*
X218525000Y-99725000D02*
X232725000Y-99725000D01*
X232725000Y-85525000D02*
X218525000Y-85525000D01*
X232725000Y-99725000D02*
X232725000Y-85525000D01*
D13*
X216125000Y-83125000D02*
X235125000Y-83125000D01*
X235125000Y-102125000D01*
X216125000Y-102125000D01*
X216125000Y-83125000D01*
D12*
%TO.C,SW20*%
X142525000Y-104525000D02*
X142525000Y-118725000D01*
X142525000Y-118725000D02*
X156725000Y-118725000D01*
X156725000Y-104525000D02*
X142525000Y-104525000D01*
X156725000Y-118725000D02*
X156725000Y-104525000D01*
D13*
X140125000Y-102125000D02*
X159125000Y-102125000D01*
X159125000Y-121125000D01*
X140125000Y-121125000D01*
X140125000Y-102125000D01*
D12*
%TO.C,SW34*%
X161525000Y-123525000D02*
X161525000Y-137725000D01*
X161525000Y-137725000D02*
X175725000Y-137725000D01*
X175725000Y-123525000D02*
X161525000Y-123525000D01*
X175725000Y-137725000D02*
X175725000Y-123525000D01*
D13*
X159125000Y-121125000D02*
X178125000Y-121125000D01*
X178125000Y-140125000D01*
X159125000Y-140125000D01*
X159125000Y-121125000D01*
D12*
%TO.C,SW3*%
X66525000Y-85525000D02*
X66525000Y-99725000D01*
X66525000Y-99725000D02*
X80725000Y-99725000D01*
X80725000Y-85525000D02*
X66525000Y-85525000D01*
X80725000Y-99725000D02*
X80725000Y-85525000D01*
D13*
X64125000Y-83125000D02*
X83125000Y-83125000D01*
X83125000Y-102125000D01*
X64125000Y-102125000D01*
X64125000Y-83125000D01*
D12*
%TO.C,SW36*%
X218525000Y-123525000D02*
X218525000Y-137725000D01*
X218525000Y-137725000D02*
X232725000Y-137725000D01*
X232725000Y-123525000D02*
X218525000Y-123525000D01*
X232725000Y-137725000D02*
X232725000Y-123525000D01*
D13*
X216125000Y-121125000D02*
X235125000Y-121125000D01*
X235125000Y-140125000D01*
X216125000Y-140125000D01*
X216125000Y-121125000D01*
D12*
%TO.C,SW4*%
X85525000Y-85525000D02*
X85525000Y-99725000D01*
X85525000Y-99725000D02*
X99725000Y-99725000D01*
X99725000Y-85525000D02*
X85525000Y-85525000D01*
X99725000Y-99725000D02*
X99725000Y-85525000D01*
D13*
X83125000Y-83125000D02*
X102125000Y-83125000D01*
X102125000Y-102125000D01*
X83125000Y-102125000D01*
X83125000Y-83125000D01*
D12*
%TO.C,SW31*%
X104525000Y-123525000D02*
X104525000Y-137725000D01*
X104525000Y-137725000D02*
X118725000Y-137725000D01*
X118725000Y-123525000D02*
X104525000Y-123525000D01*
X118725000Y-137725000D02*
X118725000Y-123525000D01*
D13*
X102125000Y-121125000D02*
X121125000Y-121125000D01*
X121125000Y-140125000D01*
X102125000Y-140125000D01*
X102125000Y-121125000D01*
D12*
%TO.C,D49*%
X215415000Y-69000000D02*
X215415000Y-73240000D01*
X215415000Y-73240000D02*
X217655000Y-73240000D01*
X216535000Y-68350000D02*
X216535000Y-69000000D01*
X216535000Y-73890000D02*
X216535000Y-73240000D01*
X217655000Y-69000000D02*
X215415000Y-69000000D01*
X217655000Y-69600000D02*
X215415000Y-69600000D01*
X217655000Y-69720000D02*
X215415000Y-69720000D01*
X217655000Y-69840000D02*
X215415000Y-69840000D01*
X217655000Y-73240000D02*
X217655000Y-69000000D01*
%TO.C,SW26*%
X256525000Y-104525000D02*
X256525000Y-118725000D01*
X256525000Y-118725000D02*
X270725000Y-118725000D01*
X270725000Y-104525000D02*
X256525000Y-104525000D01*
X270725000Y-118725000D02*
X270725000Y-104525000D01*
D13*
X254125000Y-102125000D02*
X273125000Y-102125000D01*
X273125000Y-121125000D01*
X254125000Y-121125000D01*
X254125000Y-102125000D01*
D12*
%TO.C,SW41*%
X123525000Y-142525000D02*
X123525000Y-156725000D01*
X123525000Y-156725000D02*
X137725000Y-156725000D01*
X137725000Y-142525000D02*
X123525000Y-142525000D01*
X137725000Y-156725000D02*
X137725000Y-142525000D01*
D13*
X64125000Y-140125000D02*
X197125000Y-140125000D01*
X197125000Y-159125000D01*
X64125000Y-159125000D01*
X64125000Y-140125000D01*
D12*
%TO.C,R3*%
X227045000Y-69200000D02*
X227045000Y-73040000D01*
X227045000Y-73040000D02*
X228885000Y-73040000D01*
X227965000Y-68250000D02*
X227965000Y-69200000D01*
X227965000Y-73990000D02*
X227965000Y-73040000D01*
X228885000Y-69200000D02*
X227045000Y-69200000D01*
X228885000Y-73040000D02*
X228885000Y-69200000D01*
%TO.C,R2*%
X223235000Y-69200000D02*
X223235000Y-73040000D01*
X223235000Y-73040000D02*
X225075000Y-73040000D01*
X224155000Y-68250000D02*
X224155000Y-69200000D01*
X224155000Y-73990000D02*
X224155000Y-73040000D01*
X225075000Y-69200000D02*
X223235000Y-69200000D01*
X225075000Y-73040000D02*
X225075000Y-69200000D01*
%TO.C,SW28*%
X47525000Y-123525000D02*
X47525000Y-137725000D01*
X47525000Y-137725000D02*
X61725000Y-137725000D01*
X61725000Y-123525000D02*
X47525000Y-123525000D01*
X61725000Y-137725000D02*
X61725000Y-123525000D01*
D13*
X45125000Y-121125000D02*
X64125000Y-121125000D01*
X64125000Y-140125000D01*
X45125000Y-140125000D01*
X45125000Y-121125000D01*
D12*
%TO.C,SW38*%
X256525000Y-123525000D02*
X256525000Y-137725000D01*
X256525000Y-137725000D02*
X270725000Y-137725000D01*
X270725000Y-123525000D02*
X256525000Y-123525000D01*
X270725000Y-137725000D02*
X270725000Y-123525000D01*
D13*
X254125000Y-121125000D02*
X273125000Y-121125000D01*
X273125000Y-140125000D01*
X254125000Y-140125000D01*
X254125000Y-121125000D01*
D12*
%TO.C,SW2*%
X47525000Y-85525000D02*
X47525000Y-99725000D01*
X47525000Y-99725000D02*
X61725000Y-99725000D01*
X61725000Y-85525000D02*
X47525000Y-85525000D01*
X61725000Y-99725000D02*
X61725000Y-85525000D01*
D13*
X45125000Y-83125000D02*
X64125000Y-83125000D01*
X64125000Y-102125000D01*
X45125000Y-102125000D01*
X45125000Y-83125000D01*
D12*
%TO.C,SW9*%
X180525000Y-85525000D02*
X180525000Y-99725000D01*
X180525000Y-99725000D02*
X194725000Y-99725000D01*
X194725000Y-85525000D02*
X180525000Y-85525000D01*
X194725000Y-99725000D02*
X194725000Y-85525000D01*
D13*
X178125000Y-83125000D02*
X197125000Y-83125000D01*
X197125000Y-102125000D01*
X178125000Y-102125000D01*
X178125000Y-83125000D01*
D12*
%TO.C,SW44*%
X256525000Y-142525000D02*
X256525000Y-156725000D01*
X256525000Y-156725000D02*
X270725000Y-156725000D01*
X270725000Y-142525000D02*
X256525000Y-142525000D01*
X270725000Y-156725000D02*
X270725000Y-142525000D01*
D13*
X254125000Y-140125000D02*
X273125000Y-140125000D01*
X273125000Y-159125000D01*
X254125000Y-159125000D01*
X254125000Y-140125000D01*
%TD*%
M02*
